G04 #@! TF.GenerationSoftware,KiCad,Pcbnew,(5.0.2)-1*
G04 #@! TF.CreationDate,2019-05-10T15:51:17-04:00*
G04 #@! TF.ProjectId,antenna,616e7465-6e6e-4612-9e6b-696361645f70,rev?*
G04 #@! TF.SameCoordinates,Original*
G04 #@! TF.FileFunction,Copper,L1,Top*
G04 #@! TF.FilePolarity,Positive*
%FSLAX46Y46*%
G04 Gerber Fmt 4.6, Leading zero omitted, Abs format (unit mm)*
G04 Created by KiCad (PCBNEW (5.0.2)-1) date 5/10/2019 3:51:17 PM*
%MOMM*%
%LPD*%
G01*
G04 APERTURE LIST*
G04 #@! TA.AperFunction,SMDPad,CuDef*
%ADD10R,0.620000X1.360000*%
G04 #@! TD*
G04 #@! TA.AperFunction,SMDPad,CuDef*
%ADD11R,1.000000X2.200000*%
G04 #@! TD*
G04 #@! TA.AperFunction,SMDPad,CuDef*
%ADD12R,1.000000X1.000000*%
G04 #@! TD*
G04 #@! TA.AperFunction,ViaPad*
%ADD13C,0.800000*%
G04 #@! TD*
G04 #@! TA.AperFunction,Conductor*
%ADD14C,0.250000*%
G04 #@! TD*
G04 #@! TA.AperFunction,Conductor*
%ADD15C,0.254000*%
G04 #@! TD*
G04 APERTURE END LIST*
D10*
G04 #@! TO.P,AE1,1*
G04 #@! TO.N,Net-(AE1-Pad1)*
X130000000Y-97500000D03*
G04 #@! TO.P,AE1,2*
G04 #@! TO.N,GND*
X132480000Y-97500000D03*
G04 #@! TD*
D11*
G04 #@! TO.P,J1,1*
G04 #@! TO.N,GND*
X119700000Y-102500000D03*
X122500000Y-102500000D03*
D12*
G04 #@! TO.P,J1,2*
G04 #@! TO.N,Net-(AE1-Pad1)*
X121100000Y-104000000D03*
G04 #@! TD*
D13*
G04 #@! TO.N,GND*
X120000000Y-95000000D03*
X125000000Y-95000000D03*
X132500000Y-107500000D03*
X132500000Y-102500000D03*
X137500000Y-102500000D03*
X125000000Y-100000000D03*
G04 #@! TD*
D14*
G04 #@! TO.N,Net-(AE1-Pad1)*
X130000000Y-97500000D02*
X130000000Y-100000000D01*
X130000000Y-100000000D02*
X127500000Y-102500000D01*
X127500000Y-102500000D02*
X125000000Y-105000000D01*
X121100000Y-104750000D02*
X121350000Y-105000000D01*
X121100000Y-104000000D02*
X121100000Y-104750000D01*
X121350000Y-105000000D02*
X125000000Y-105000000D01*
G04 #@! TO.N,GND*
X119700000Y-102500000D02*
X122500000Y-102500000D01*
X132480000Y-95020000D02*
X132480000Y-97500000D01*
X132460000Y-95000000D02*
X132480000Y-95020000D01*
X127500000Y-95000000D02*
X132460000Y-95000000D01*
X122500000Y-102500000D02*
X122500000Y-100000000D01*
X122500000Y-100000000D02*
X127500000Y-95000000D01*
G04 #@! TD*
D15*
G04 #@! TO.N,GND*
G36*
X127373000Y-101552199D02*
X127015530Y-101909669D01*
X127015527Y-101909671D01*
X124685199Y-104240000D01*
X122247440Y-104240000D01*
X122247440Y-104201810D01*
X122373000Y-104076250D01*
X122373000Y-102627000D01*
X122627000Y-102627000D01*
X122627000Y-104076250D01*
X122785750Y-104235000D01*
X123126309Y-104235000D01*
X123359698Y-104138327D01*
X123538327Y-103959699D01*
X123635000Y-103726310D01*
X123635000Y-102785750D01*
X123476250Y-102627000D01*
X122627000Y-102627000D01*
X122373000Y-102627000D01*
X121523750Y-102627000D01*
X121365000Y-102785750D01*
X121365000Y-102852560D01*
X120835000Y-102852560D01*
X120835000Y-102785750D01*
X120676250Y-102627000D01*
X119827000Y-102627000D01*
X119827000Y-104076250D01*
X119952560Y-104201810D01*
X119952560Y-104500000D01*
X120001843Y-104747765D01*
X120142191Y-104957809D01*
X120352235Y-105098157D01*
X120428759Y-105113378D01*
X120475223Y-105182916D01*
X120552072Y-105297929D01*
X120615527Y-105340328D01*
X120759670Y-105484472D01*
X120802071Y-105547929D01*
X121053463Y-105715904D01*
X121275148Y-105760000D01*
X121275152Y-105760000D01*
X121349999Y-105774888D01*
X121424846Y-105760000D01*
X124925153Y-105760000D01*
X125000000Y-105774888D01*
X125074847Y-105760000D01*
X125074852Y-105760000D01*
X125296537Y-105715904D01*
X125547929Y-105547929D01*
X125590331Y-105484470D01*
X127373000Y-103701802D01*
X127373000Y-109290000D01*
X120181273Y-109290000D01*
X120149049Y-109280271D01*
X120065337Y-109267910D01*
X119245252Y-109194719D01*
X118514357Y-108994769D01*
X117830425Y-108668550D01*
X117215072Y-108226374D01*
X116687741Y-107682211D01*
X116265114Y-107053274D01*
X115960536Y-106359429D01*
X115782286Y-105616961D01*
X115733026Y-104946170D01*
X115711909Y-104817214D01*
X115710000Y-104811823D01*
X115710000Y-102785750D01*
X118565000Y-102785750D01*
X118565000Y-103726310D01*
X118661673Y-103959699D01*
X118840302Y-104138327D01*
X119073691Y-104235000D01*
X119414250Y-104235000D01*
X119573000Y-104076250D01*
X119573000Y-102627000D01*
X118723750Y-102627000D01*
X118565000Y-102785750D01*
X115710000Y-102785750D01*
X115710000Y-101273690D01*
X118565000Y-101273690D01*
X118565000Y-102214250D01*
X118723750Y-102373000D01*
X119573000Y-102373000D01*
X119573000Y-100923750D01*
X119827000Y-100923750D01*
X119827000Y-102373000D01*
X120676250Y-102373000D01*
X120835000Y-102214250D01*
X120835000Y-101273690D01*
X121365000Y-101273690D01*
X121365000Y-102214250D01*
X121523750Y-102373000D01*
X122373000Y-102373000D01*
X122373000Y-100923750D01*
X122627000Y-100923750D01*
X122627000Y-102373000D01*
X123476250Y-102373000D01*
X123635000Y-102214250D01*
X123635000Y-101273690D01*
X123538327Y-101040301D01*
X123359698Y-100861673D01*
X123126309Y-100765000D01*
X122785750Y-100765000D01*
X122627000Y-100923750D01*
X122373000Y-100923750D01*
X122214250Y-100765000D01*
X121873691Y-100765000D01*
X121640302Y-100861673D01*
X121461673Y-101040301D01*
X121365000Y-101273690D01*
X120835000Y-101273690D01*
X120738327Y-101040301D01*
X120559698Y-100861673D01*
X120326309Y-100765000D01*
X119985750Y-100765000D01*
X119827000Y-100923750D01*
X119573000Y-100923750D01*
X119414250Y-100765000D01*
X119073691Y-100765000D01*
X118840302Y-100861673D01*
X118661673Y-101040301D01*
X118565000Y-101273690D01*
X115710000Y-101273690D01*
X115710000Y-95181273D01*
X115719729Y-95149049D01*
X115732090Y-95065337D01*
X115805281Y-94245253D01*
X116005231Y-93514357D01*
X116331450Y-92830425D01*
X116773626Y-92215072D01*
X117317789Y-91687741D01*
X117946726Y-91265114D01*
X118640570Y-90960537D01*
X119383039Y-90782285D01*
X120053830Y-90733026D01*
X120182787Y-90711909D01*
X120188178Y-90710000D01*
X127373000Y-90710000D01*
X127373000Y-101552199D01*
X127373000Y-101552199D01*
G37*
X127373000Y-101552199D02*
X127015530Y-101909669D01*
X127015527Y-101909671D01*
X124685199Y-104240000D01*
X122247440Y-104240000D01*
X122247440Y-104201810D01*
X122373000Y-104076250D01*
X122373000Y-102627000D01*
X122627000Y-102627000D01*
X122627000Y-104076250D01*
X122785750Y-104235000D01*
X123126309Y-104235000D01*
X123359698Y-104138327D01*
X123538327Y-103959699D01*
X123635000Y-103726310D01*
X123635000Y-102785750D01*
X123476250Y-102627000D01*
X122627000Y-102627000D01*
X122373000Y-102627000D01*
X121523750Y-102627000D01*
X121365000Y-102785750D01*
X121365000Y-102852560D01*
X120835000Y-102852560D01*
X120835000Y-102785750D01*
X120676250Y-102627000D01*
X119827000Y-102627000D01*
X119827000Y-104076250D01*
X119952560Y-104201810D01*
X119952560Y-104500000D01*
X120001843Y-104747765D01*
X120142191Y-104957809D01*
X120352235Y-105098157D01*
X120428759Y-105113378D01*
X120475223Y-105182916D01*
X120552072Y-105297929D01*
X120615527Y-105340328D01*
X120759670Y-105484472D01*
X120802071Y-105547929D01*
X121053463Y-105715904D01*
X121275148Y-105760000D01*
X121275152Y-105760000D01*
X121349999Y-105774888D01*
X121424846Y-105760000D01*
X124925153Y-105760000D01*
X125000000Y-105774888D01*
X125074847Y-105760000D01*
X125074852Y-105760000D01*
X125296537Y-105715904D01*
X125547929Y-105547929D01*
X125590331Y-105484470D01*
X127373000Y-103701802D01*
X127373000Y-109290000D01*
X120181273Y-109290000D01*
X120149049Y-109280271D01*
X120065337Y-109267910D01*
X119245252Y-109194719D01*
X118514357Y-108994769D01*
X117830425Y-108668550D01*
X117215072Y-108226374D01*
X116687741Y-107682211D01*
X116265114Y-107053274D01*
X115960536Y-106359429D01*
X115782286Y-105616961D01*
X115733026Y-104946170D01*
X115711909Y-104817214D01*
X115710000Y-104811823D01*
X115710000Y-102785750D01*
X118565000Y-102785750D01*
X118565000Y-103726310D01*
X118661673Y-103959699D01*
X118840302Y-104138327D01*
X119073691Y-104235000D01*
X119414250Y-104235000D01*
X119573000Y-104076250D01*
X119573000Y-102627000D01*
X118723750Y-102627000D01*
X118565000Y-102785750D01*
X115710000Y-102785750D01*
X115710000Y-101273690D01*
X118565000Y-101273690D01*
X118565000Y-102214250D01*
X118723750Y-102373000D01*
X119573000Y-102373000D01*
X119573000Y-100923750D01*
X119827000Y-100923750D01*
X119827000Y-102373000D01*
X120676250Y-102373000D01*
X120835000Y-102214250D01*
X120835000Y-101273690D01*
X121365000Y-101273690D01*
X121365000Y-102214250D01*
X121523750Y-102373000D01*
X122373000Y-102373000D01*
X122373000Y-100923750D01*
X122627000Y-100923750D01*
X122627000Y-102373000D01*
X123476250Y-102373000D01*
X123635000Y-102214250D01*
X123635000Y-101273690D01*
X123538327Y-101040301D01*
X123359698Y-100861673D01*
X123126309Y-100765000D01*
X122785750Y-100765000D01*
X122627000Y-100923750D01*
X122373000Y-100923750D01*
X122214250Y-100765000D01*
X121873691Y-100765000D01*
X121640302Y-100861673D01*
X121461673Y-101040301D01*
X121365000Y-101273690D01*
X120835000Y-101273690D01*
X120738327Y-101040301D01*
X120559698Y-100861673D01*
X120326309Y-100765000D01*
X119985750Y-100765000D01*
X119827000Y-100923750D01*
X119573000Y-100923750D01*
X119414250Y-100765000D01*
X119073691Y-100765000D01*
X118840302Y-100861673D01*
X118661673Y-101040301D01*
X118565000Y-101273690D01*
X115710000Y-101273690D01*
X115710000Y-95181273D01*
X115719729Y-95149049D01*
X115732090Y-95065337D01*
X115805281Y-94245253D01*
X116005231Y-93514357D01*
X116331450Y-92830425D01*
X116773626Y-92215072D01*
X117317789Y-91687741D01*
X117946726Y-91265114D01*
X118640570Y-90960537D01*
X119383039Y-90782285D01*
X120053830Y-90733026D01*
X120182787Y-90711909D01*
X120188178Y-90710000D01*
X127373000Y-90710000D01*
X127373000Y-101552199D01*
G36*
X134850951Y-90719729D02*
X134873000Y-90722985D01*
X134873000Y-94873000D01*
X127627000Y-94873000D01*
X127627000Y-90710000D01*
X134818727Y-90710000D01*
X134850951Y-90719729D01*
X134850951Y-90719729D01*
G37*
X134850951Y-90719729D02*
X134873000Y-90722985D01*
X134873000Y-94873000D01*
X127627000Y-94873000D01*
X127627000Y-90710000D01*
X134818727Y-90710000D01*
X134850951Y-90719729D01*
G36*
X134873000Y-109278956D02*
X134817214Y-109288091D01*
X134811823Y-109290000D01*
X127627000Y-109290000D01*
X127627000Y-103447802D01*
X128090329Y-102984473D01*
X128090331Y-102984470D01*
X130484473Y-100590329D01*
X130547929Y-100547929D01*
X130715904Y-100296537D01*
X130749627Y-100127000D01*
X134873000Y-100127000D01*
X134873000Y-109278956D01*
X134873000Y-109278956D01*
G37*
X134873000Y-109278956D02*
X134817214Y-109288091D01*
X134811823Y-109290000D01*
X127627000Y-109290000D01*
X127627000Y-103447802D01*
X128090329Y-102984473D01*
X128090331Y-102984470D01*
X130484473Y-100590329D01*
X130547929Y-100547929D01*
X130715904Y-100296537D01*
X130749627Y-100127000D01*
X134873000Y-100127000D01*
X134873000Y-109278956D01*
G36*
X127627000Y-101298199D02*
X127627000Y-100127000D01*
X128798198Y-100127000D01*
X127627000Y-101298199D01*
X127627000Y-101298199D01*
G37*
X127627000Y-101298199D02*
X127627000Y-100127000D01*
X128798198Y-100127000D01*
X127627000Y-101298199D01*
G36*
X135754747Y-90805281D02*
X136485643Y-91005231D01*
X137169575Y-91331450D01*
X137784928Y-91773626D01*
X138312259Y-92317789D01*
X138734886Y-92946726D01*
X139039463Y-93640570D01*
X139217715Y-94383039D01*
X139266974Y-95053830D01*
X139288091Y-95182787D01*
X139290000Y-95188178D01*
X139290001Y-104818724D01*
X139280271Y-104850951D01*
X139267910Y-104934663D01*
X139194719Y-105754748D01*
X138994769Y-106485643D01*
X138668550Y-107169575D01*
X138226374Y-107784928D01*
X137682211Y-108312259D01*
X137053274Y-108734886D01*
X136359429Y-109039464D01*
X135616961Y-109217714D01*
X135127000Y-109253695D01*
X135127000Y-90749256D01*
X135754747Y-90805281D01*
X135754747Y-90805281D01*
G37*
X135754747Y-90805281D02*
X136485643Y-91005231D01*
X137169575Y-91331450D01*
X137784928Y-91773626D01*
X138312259Y-92317789D01*
X138734886Y-92946726D01*
X139039463Y-93640570D01*
X139217715Y-94383039D01*
X139266974Y-95053830D01*
X139288091Y-95182787D01*
X139290000Y-95188178D01*
X139290001Y-104818724D01*
X139280271Y-104850951D01*
X139267910Y-104934663D01*
X139194719Y-105754748D01*
X138994769Y-106485643D01*
X138668550Y-107169575D01*
X138226374Y-107784928D01*
X137682211Y-108312259D01*
X137053274Y-108734886D01*
X136359429Y-109039464D01*
X135616961Y-109217714D01*
X135127000Y-109253695D01*
X135127000Y-90749256D01*
X135754747Y-90805281D01*
G04 #@! TD*
M02*
