G04 #@! TF.GenerationSoftware,KiCad,Pcbnew,(5.0.2)-1*
G04 #@! TF.CreationDate,2019-05-10T15:51:17-04:00*
G04 #@! TF.ProjectId,antenna,616e7465-6e6e-4612-9e6b-696361645f70,rev?*
G04 #@! TF.SameCoordinates,Original*
G04 #@! TF.FileFunction,Legend,Top*
G04 #@! TF.FilePolarity,Positive*
%FSLAX46Y46*%
G04 Gerber Fmt 4.6, Leading zero omitted, Abs format (unit mm)*
G04 Created by KiCad (PCBNEW (5.0.2)-1) date 5/10/2019 3:51:17 PM*
%MOMM*%
%LPD*%
G01*
G04 APERTURE LIST*
%ADD10C,0.150000*%
G04 APERTURE END LIST*
D10*
G04 #@! TO.C,AE1*
X129589000Y-96484000D02*
X132891000Y-96484000D01*
X133145000Y-96738000D02*
X133145000Y-98262000D01*
X132891000Y-98516000D02*
X129589000Y-98516000D01*
X129335000Y-98262000D02*
X129335000Y-96738000D01*
X129335000Y-96738000D02*
G75*
G02X129589000Y-96484000I254000J0D01*
G01*
X132891000Y-96484000D02*
G75*
G02X133145000Y-96738000I0J-254000D01*
G01*
X133145000Y-98262000D02*
G75*
G02X132891000Y-98516000I-254000J0D01*
G01*
X129589000Y-98516000D02*
G75*
G02X129335000Y-98262000I0J254000D01*
G01*
G04 #@! TO.C,J1*
X119830000Y-99960000D02*
X122370000Y-99960000D01*
X123640000Y-101230000D02*
X123640000Y-103770000D01*
X122370000Y-105040000D02*
X119830000Y-105040000D01*
X118560000Y-103770000D02*
X118560000Y-101230000D01*
X118560000Y-101230000D02*
G75*
G02X119830000Y-99960000I1270000J0D01*
G01*
X122370000Y-99960000D02*
G75*
G02X123640000Y-101230000I0J-1270000D01*
G01*
X123640000Y-103770000D02*
G75*
G02X122370000Y-105040000I-1270000J0D01*
G01*
X119830000Y-105040000D02*
G75*
G02X118560000Y-103770000I0J1270000D01*
G01*
G04 #@! TO.C,AE1*
X130073333Y-99952666D02*
X130549523Y-99952666D01*
X129978095Y-100238380D02*
X130311428Y-99238380D01*
X130644761Y-100238380D01*
X130978095Y-99714571D02*
X131311428Y-99714571D01*
X131454285Y-100238380D02*
X130978095Y-100238380D01*
X130978095Y-99238380D01*
X131454285Y-99238380D01*
X132406666Y-100238380D02*
X131835238Y-100238380D01*
X132120952Y-100238380D02*
X132120952Y-99238380D01*
X132025714Y-99381238D01*
X131930476Y-99476476D01*
X131835238Y-99524095D01*
G04 #@! TO.C,J1*
X120766666Y-105762380D02*
X120766666Y-106476666D01*
X120719047Y-106619523D01*
X120623809Y-106714761D01*
X120480952Y-106762380D01*
X120385714Y-106762380D01*
X121766666Y-106762380D02*
X121195238Y-106762380D01*
X121480952Y-106762380D02*
X121480952Y-105762380D01*
X121385714Y-105905238D01*
X121290476Y-106000476D01*
X121195238Y-106048095D01*
G04 #@! TD*
M02*
