G04 #@! TF.GenerationSoftware,KiCad,Pcbnew,(5.0.2)-1*
G04 #@! TF.CreationDate,2019-03-05T23:48:00-05:00*
G04 #@! TF.ProjectId,bikesenseCap,62696b65-7365-46e7-9365-4361702e6b69,REV E*
G04 #@! TF.SameCoordinates,Original*
G04 #@! TF.FileFunction,Soldermask,Top*
G04 #@! TF.FilePolarity,Negative*
%FSLAX46Y46*%
G04 Gerber Fmt 4.6, Leading zero omitted, Abs format (unit mm)*
G04 Created by KiCad (PCBNEW (5.0.2)-1) date 3/5/2019 11:48:00 PM*
%MOMM*%
%LPD*%
G01*
G04 APERTURE LIST*
%ADD10C,0.100000*%
G04 APERTURE END LIST*
D10*
G36*
X150176432Y-128813022D02*
X150346081Y-128864485D01*
X150502433Y-128948056D01*
X150639475Y-129060525D01*
X150751944Y-129197567D01*
X150839760Y-129361862D01*
X150853373Y-129382237D01*
X150870700Y-129399564D01*
X150891075Y-129413178D01*
X150913714Y-129422555D01*
X150937747Y-129427336D01*
X150962251Y-129427336D01*
X150986285Y-129422556D01*
X151008924Y-129413178D01*
X151029299Y-129399565D01*
X151046626Y-129382238D01*
X151060240Y-129361863D01*
X151069617Y-129339224D01*
X151074398Y-129315191D01*
X151075000Y-129302938D01*
X151075000Y-129246141D01*
X151077803Y-129217684D01*
X151084313Y-129196223D01*
X151094885Y-129176445D01*
X151109110Y-129159110D01*
X151126445Y-129144885D01*
X151146223Y-129134313D01*
X151167684Y-129127803D01*
X151196141Y-129125000D01*
X151903859Y-129125000D01*
X151932316Y-129127803D01*
X151953777Y-129134313D01*
X151973555Y-129144885D01*
X151990890Y-129159110D01*
X152005115Y-129176445D01*
X152015687Y-129196223D01*
X152022197Y-129217684D01*
X152025000Y-129246141D01*
X152025000Y-130753859D01*
X152022197Y-130782316D01*
X152015687Y-130803777D01*
X152005115Y-130823555D01*
X151990890Y-130840890D01*
X151973555Y-130855115D01*
X151953777Y-130865687D01*
X151932316Y-130872197D01*
X151903859Y-130875000D01*
X151196141Y-130875000D01*
X151167684Y-130872197D01*
X151146223Y-130865687D01*
X151126445Y-130855115D01*
X151109110Y-130840890D01*
X151094885Y-130823555D01*
X151084313Y-130803777D01*
X151077803Y-130782316D01*
X151075000Y-130753859D01*
X151075000Y-130697063D01*
X151072598Y-130672677D01*
X151065485Y-130649228D01*
X151053934Y-130627617D01*
X151038388Y-130608675D01*
X151019446Y-130593129D01*
X150997835Y-130581578D01*
X150974386Y-130574465D01*
X150950000Y-130572063D01*
X150925614Y-130574465D01*
X150902165Y-130581578D01*
X150880554Y-130593129D01*
X150861612Y-130608675D01*
X150846066Y-130627617D01*
X150839760Y-130638139D01*
X150751944Y-130802433D01*
X150639475Y-130939475D01*
X150502436Y-131051941D01*
X150346076Y-131135516D01*
X150176431Y-131186978D01*
X150000000Y-131204354D01*
X149823568Y-131186978D01*
X149653919Y-131135515D01*
X149497567Y-131051944D01*
X149360525Y-130939475D01*
X149248056Y-130802433D01*
X149160240Y-130638138D01*
X149146627Y-130617763D01*
X149129300Y-130600436D01*
X149108925Y-130586822D01*
X149086286Y-130577445D01*
X149062253Y-130572664D01*
X149037749Y-130572664D01*
X149013715Y-130577444D01*
X148991076Y-130586822D01*
X148970701Y-130600435D01*
X148953374Y-130617762D01*
X148939760Y-130638137D01*
X148930383Y-130660776D01*
X148925602Y-130684809D01*
X148925000Y-130697062D01*
X148925000Y-130753859D01*
X148922197Y-130782316D01*
X148915687Y-130803777D01*
X148905115Y-130823555D01*
X148890890Y-130840890D01*
X148873555Y-130855115D01*
X148853777Y-130865687D01*
X148832316Y-130872197D01*
X148803859Y-130875000D01*
X148096141Y-130875000D01*
X148067684Y-130872197D01*
X148046223Y-130865687D01*
X148026445Y-130855115D01*
X148009110Y-130840890D01*
X147994885Y-130823555D01*
X147984313Y-130803777D01*
X147977803Y-130782316D01*
X147975000Y-130753859D01*
X147975000Y-129246141D01*
X147977803Y-129217684D01*
X147984313Y-129196223D01*
X147994885Y-129176445D01*
X148009110Y-129159110D01*
X148026445Y-129144885D01*
X148046223Y-129134313D01*
X148067684Y-129127803D01*
X148096141Y-129125000D01*
X148803859Y-129125000D01*
X148832316Y-129127803D01*
X148853777Y-129134313D01*
X148873555Y-129144885D01*
X148890890Y-129159110D01*
X148905115Y-129176445D01*
X148915687Y-129196223D01*
X148922197Y-129217684D01*
X148925000Y-129246141D01*
X148925000Y-129302939D01*
X148927402Y-129327325D01*
X148934515Y-129350774D01*
X148946066Y-129372385D01*
X148961612Y-129391327D01*
X148980554Y-129406873D01*
X149002165Y-129418424D01*
X149025614Y-129425537D01*
X149050000Y-129427939D01*
X149074386Y-129425537D01*
X149097835Y-129418424D01*
X149119446Y-129406873D01*
X149138388Y-129391327D01*
X149153934Y-129372385D01*
X149160240Y-129361863D01*
X149248057Y-129197567D01*
X149360526Y-129060525D01*
X149497568Y-128948056D01*
X149653920Y-128864485D01*
X149823569Y-128813022D01*
X150000000Y-128795646D01*
X150176432Y-128813022D01*
X150176432Y-128813022D01*
G37*
G36*
X145450000Y-129600000D02*
X144550000Y-129600000D01*
X144550000Y-128400000D01*
X145450000Y-128400000D01*
X145450000Y-129600000D01*
X145450000Y-129600000D01*
G37*
G36*
X155600000Y-129450000D02*
X154400000Y-129450000D01*
X154400000Y-128550000D01*
X155600000Y-128550000D01*
X155600000Y-129450000D01*
X155600000Y-129450000D01*
G37*
G36*
X157800000Y-129450000D02*
X156600000Y-129450000D01*
X156600000Y-128550000D01*
X157800000Y-128550000D01*
X157800000Y-129450000D01*
X157800000Y-129450000D01*
G37*
G36*
X163400000Y-127450000D02*
X162200000Y-127450000D01*
X162200000Y-126550000D01*
X163400000Y-126550000D01*
X163400000Y-127450000D01*
X163400000Y-127450000D01*
G37*
G36*
X165600000Y-127450000D02*
X164400000Y-127450000D01*
X164400000Y-126550000D01*
X165600000Y-126550000D01*
X165600000Y-127450000D01*
X165600000Y-127450000D01*
G37*
G36*
X145450000Y-127400000D02*
X144550000Y-127400000D01*
X144550000Y-126200000D01*
X145450000Y-126200000D01*
X145450000Y-127400000D01*
X145450000Y-127400000D01*
G37*
G36*
X127254143Y-120044827D02*
X127275604Y-120051337D01*
X127295382Y-120061909D01*
X127317494Y-120080055D01*
X127817913Y-120580474D01*
X127836059Y-120602586D01*
X127846631Y-120622364D01*
X127853141Y-120643825D01*
X127855339Y-120666141D01*
X127853141Y-120688457D01*
X127846631Y-120709918D01*
X127836059Y-120729696D01*
X127817913Y-120751808D01*
X127777757Y-120791964D01*
X127762211Y-120810906D01*
X127750660Y-120832517D01*
X127743547Y-120855966D01*
X127741145Y-120880352D01*
X127743547Y-120904738D01*
X127750660Y-120928187D01*
X127762211Y-120949798D01*
X127777757Y-120968740D01*
X127796699Y-120984286D01*
X127818310Y-120995837D01*
X127841759Y-121002950D01*
X127866145Y-121005352D01*
X127890531Y-121002950D01*
X127902431Y-120999969D01*
X128080700Y-120945890D01*
X128257132Y-120928514D01*
X128433564Y-120945890D01*
X128603213Y-120997354D01*
X128759560Y-121080923D01*
X128759561Y-121080924D01*
X128759563Y-121080925D01*
X128787300Y-121103688D01*
X128896607Y-121193393D01*
X129009077Y-121330440D01*
X129092646Y-121486787D01*
X129144110Y-121656436D01*
X129161486Y-121832868D01*
X129144110Y-122009300D01*
X129090031Y-122187569D01*
X129085250Y-122211602D01*
X129085250Y-122236106D01*
X129090030Y-122260140D01*
X129099407Y-122282779D01*
X129113021Y-122303154D01*
X129130348Y-122320481D01*
X129150723Y-122334095D01*
X129173362Y-122343472D01*
X129197395Y-122348253D01*
X129221899Y-122348253D01*
X129245933Y-122343473D01*
X129268572Y-122334096D01*
X129288947Y-122320482D01*
X129298036Y-122312243D01*
X129338192Y-122272087D01*
X129360304Y-122253941D01*
X129380082Y-122243369D01*
X129401543Y-122236859D01*
X129423859Y-122234661D01*
X129446175Y-122236859D01*
X129467636Y-122243369D01*
X129487414Y-122253941D01*
X129509526Y-122272087D01*
X130009945Y-122772506D01*
X130028091Y-122794618D01*
X130038663Y-122814396D01*
X130045173Y-122835857D01*
X130047371Y-122858173D01*
X130045173Y-122880489D01*
X130038663Y-122901950D01*
X130028091Y-122921728D01*
X130009945Y-122943840D01*
X128943840Y-124009945D01*
X128921728Y-124028091D01*
X128901950Y-124038663D01*
X128880489Y-124045173D01*
X128858173Y-124047371D01*
X128835857Y-124045173D01*
X128814396Y-124038663D01*
X128794618Y-124028091D01*
X128772506Y-124009945D01*
X128272087Y-123509526D01*
X128253941Y-123487414D01*
X128243369Y-123467636D01*
X128236859Y-123446175D01*
X128234661Y-123423859D01*
X128236859Y-123401543D01*
X128243369Y-123380082D01*
X128253941Y-123360304D01*
X128272087Y-123338192D01*
X128312243Y-123298036D01*
X128327789Y-123279094D01*
X128339340Y-123257483D01*
X128346453Y-123234034D01*
X128348855Y-123209648D01*
X128346453Y-123185262D01*
X128339340Y-123161813D01*
X128327789Y-123140202D01*
X128312243Y-123121260D01*
X128293301Y-123105714D01*
X128271690Y-123094163D01*
X128248241Y-123087050D01*
X128223855Y-123084648D01*
X128199469Y-123087050D01*
X128187569Y-123090031D01*
X128009299Y-123144110D01*
X127832868Y-123161486D01*
X127656437Y-123144110D01*
X127486787Y-123092646D01*
X127330437Y-123009075D01*
X127193394Y-122896606D01*
X127080925Y-122759563D01*
X126997354Y-122603213D01*
X126945890Y-122433563D01*
X126928514Y-122257132D01*
X126945890Y-122080701D01*
X126999969Y-121902431D01*
X127004750Y-121878398D01*
X127004750Y-121853893D01*
X126999970Y-121829860D01*
X126990592Y-121807221D01*
X126976979Y-121786846D01*
X126959652Y-121769519D01*
X126939277Y-121755905D01*
X126916638Y-121746528D01*
X126892605Y-121741747D01*
X126868100Y-121741747D01*
X126844067Y-121746527D01*
X126821428Y-121755905D01*
X126801053Y-121769518D01*
X126791964Y-121777757D01*
X126751808Y-121817913D01*
X126729696Y-121836059D01*
X126709918Y-121846631D01*
X126688457Y-121853141D01*
X126666141Y-121855339D01*
X126643825Y-121853141D01*
X126622364Y-121846631D01*
X126602586Y-121836059D01*
X126580474Y-121817913D01*
X126080055Y-121317494D01*
X126061909Y-121295382D01*
X126051337Y-121275604D01*
X126044827Y-121254143D01*
X126042629Y-121231827D01*
X126044827Y-121209511D01*
X126051337Y-121188050D01*
X126061909Y-121168272D01*
X126080055Y-121146160D01*
X127146160Y-120080055D01*
X127168272Y-120061909D01*
X127188050Y-120051337D01*
X127209511Y-120044827D01*
X127231827Y-120042629D01*
X127254143Y-120044827D01*
X127254143Y-120044827D01*
G37*
G36*
X159450000Y-123800000D02*
X158550000Y-123800000D01*
X158550000Y-122600000D01*
X159450000Y-122600000D01*
X159450000Y-123800000D01*
X159450000Y-123800000D01*
G37*
G36*
X171835489Y-118999827D02*
X171856950Y-119006337D01*
X171876728Y-119016909D01*
X171898840Y-119035055D01*
X172964945Y-120101160D01*
X172983091Y-120123272D01*
X172993663Y-120143050D01*
X173000173Y-120164511D01*
X173002371Y-120186827D01*
X173000173Y-120209143D01*
X172993663Y-120230604D01*
X172983091Y-120250382D01*
X172964945Y-120272494D01*
X172464526Y-120772913D01*
X172442414Y-120791059D01*
X172422636Y-120801631D01*
X172401175Y-120808141D01*
X172378859Y-120810339D01*
X172356543Y-120808141D01*
X172335082Y-120801631D01*
X172315304Y-120791059D01*
X172293192Y-120772913D01*
X172253036Y-120732757D01*
X172234094Y-120717211D01*
X172212483Y-120705660D01*
X172189034Y-120698547D01*
X172164648Y-120696145D01*
X172140262Y-120698547D01*
X172116813Y-120705660D01*
X172095202Y-120717211D01*
X172076260Y-120732757D01*
X172060714Y-120751699D01*
X172049163Y-120773310D01*
X172042050Y-120796759D01*
X172039648Y-120821145D01*
X172042050Y-120845531D01*
X172045031Y-120857431D01*
X172099110Y-121035700D01*
X172116486Y-121212132D01*
X172099110Y-121388564D01*
X172047646Y-121558213D01*
X171964077Y-121714560D01*
X171851607Y-121851607D01*
X171742300Y-121941312D01*
X171714563Y-121964075D01*
X171714561Y-121964076D01*
X171714560Y-121964077D01*
X171558213Y-122047646D01*
X171388564Y-122099110D01*
X171212132Y-122116486D01*
X171035700Y-122099110D01*
X170857431Y-122045031D01*
X170833398Y-122040250D01*
X170808894Y-122040250D01*
X170784860Y-122045030D01*
X170762221Y-122054407D01*
X170741846Y-122068021D01*
X170724519Y-122085348D01*
X170710905Y-122105723D01*
X170701528Y-122128362D01*
X170696747Y-122152395D01*
X170696747Y-122176899D01*
X170701527Y-122200933D01*
X170710904Y-122223572D01*
X170724518Y-122243947D01*
X170732757Y-122253036D01*
X170772913Y-122293192D01*
X170791059Y-122315304D01*
X170801631Y-122335082D01*
X170808141Y-122356543D01*
X170810339Y-122378859D01*
X170808141Y-122401175D01*
X170801631Y-122422636D01*
X170791059Y-122442414D01*
X170772913Y-122464526D01*
X170272494Y-122964945D01*
X170250382Y-122983091D01*
X170230604Y-122993663D01*
X170209143Y-123000173D01*
X170186827Y-123002371D01*
X170164511Y-123000173D01*
X170143050Y-122993663D01*
X170123272Y-122983091D01*
X170101160Y-122964945D01*
X169035055Y-121898840D01*
X169016909Y-121876728D01*
X169006337Y-121856950D01*
X168999827Y-121835489D01*
X168997629Y-121813173D01*
X168999827Y-121790857D01*
X169006337Y-121769396D01*
X169016909Y-121749618D01*
X169035055Y-121727506D01*
X169535474Y-121227087D01*
X169557586Y-121208941D01*
X169577364Y-121198369D01*
X169598825Y-121191859D01*
X169621141Y-121189661D01*
X169643457Y-121191859D01*
X169664918Y-121198369D01*
X169684696Y-121208941D01*
X169706808Y-121227087D01*
X169746964Y-121267243D01*
X169765906Y-121282789D01*
X169787517Y-121294340D01*
X169810966Y-121301453D01*
X169835352Y-121303855D01*
X169859738Y-121301453D01*
X169883187Y-121294340D01*
X169904798Y-121282789D01*
X169923740Y-121267243D01*
X169939286Y-121248301D01*
X169950837Y-121226690D01*
X169957950Y-121203241D01*
X169960352Y-121178855D01*
X169957950Y-121154469D01*
X169954969Y-121142569D01*
X169900890Y-120964299D01*
X169883514Y-120787868D01*
X169900890Y-120611437D01*
X169952354Y-120441787D01*
X170035925Y-120285437D01*
X170148394Y-120148394D01*
X170285437Y-120035925D01*
X170441787Y-119952354D01*
X170611437Y-119900890D01*
X170787868Y-119883514D01*
X170964299Y-119900890D01*
X171142569Y-119954969D01*
X171166602Y-119959750D01*
X171191107Y-119959750D01*
X171215140Y-119954970D01*
X171237779Y-119945592D01*
X171258154Y-119931979D01*
X171275481Y-119914652D01*
X171289095Y-119894277D01*
X171298472Y-119871638D01*
X171303253Y-119847605D01*
X171303253Y-119823100D01*
X171298473Y-119799067D01*
X171289095Y-119776428D01*
X171275482Y-119756053D01*
X171267243Y-119746964D01*
X171227087Y-119706808D01*
X171208941Y-119684696D01*
X171198369Y-119664918D01*
X171191859Y-119643457D01*
X171189661Y-119621141D01*
X171191859Y-119598825D01*
X171198369Y-119577364D01*
X171208941Y-119557586D01*
X171227087Y-119535474D01*
X171727506Y-119035055D01*
X171749618Y-119016909D01*
X171769396Y-119006337D01*
X171790857Y-118999827D01*
X171813173Y-118997629D01*
X171835489Y-118999827D01*
X171835489Y-118999827D01*
G37*
G36*
X163600000Y-122450000D02*
X162400000Y-122450000D01*
X162400000Y-121550000D01*
X163600000Y-121550000D01*
X163600000Y-122450000D01*
X163600000Y-122450000D01*
G37*
G36*
X165800000Y-122450000D02*
X164600000Y-122450000D01*
X164600000Y-121550000D01*
X165800000Y-121550000D01*
X165800000Y-122450000D01*
X165800000Y-122450000D01*
G37*
G36*
X159450000Y-121600000D02*
X158550000Y-121600000D01*
X158550000Y-120400000D01*
X159450000Y-120400000D01*
X159450000Y-121600000D01*
X159450000Y-121600000D01*
G37*
G36*
X140400000Y-118450000D02*
X139200000Y-118450000D01*
X139200000Y-117550000D01*
X140400000Y-117550000D01*
X140400000Y-118450000D01*
X140400000Y-118450000D01*
G37*
G36*
X142600000Y-118450000D02*
X141400000Y-118450000D01*
X141400000Y-117550000D01*
X142600000Y-117550000D01*
X142600000Y-118450000D01*
X142600000Y-118450000D01*
G37*
G36*
X124400000Y-117450000D02*
X123200000Y-117450000D01*
X123200000Y-116550000D01*
X124400000Y-116550000D01*
X124400000Y-117450000D01*
X124400000Y-117450000D01*
G37*
G36*
X126600000Y-117450000D02*
X125400000Y-117450000D01*
X125400000Y-116550000D01*
X126600000Y-116550000D01*
X126600000Y-117450000D01*
X126600000Y-117450000D01*
G37*
G36*
X170230000Y-117430000D02*
X168530000Y-117430000D01*
X168530000Y-116730000D01*
X170230000Y-116730000D01*
X170230000Y-117430000D01*
X170230000Y-117430000D01*
G37*
G36*
X160850000Y-117430000D02*
X159150000Y-117430000D01*
X159150000Y-116730000D01*
X160850000Y-116730000D01*
X160850000Y-117430000D01*
X160850000Y-117430000D01*
G37*
G36*
X170230000Y-116160000D02*
X168530000Y-116160000D01*
X168530000Y-115460000D01*
X170230000Y-115460000D01*
X170230000Y-116160000D01*
X170230000Y-116160000D01*
G37*
G36*
X160850000Y-116160000D02*
X159150000Y-116160000D01*
X159150000Y-115460000D01*
X160850000Y-115460000D01*
X160850000Y-116160000D01*
X160850000Y-116160000D01*
G37*
G36*
X133366000Y-115319000D02*
X132466000Y-115319000D01*
X132466000Y-114919000D01*
X133366000Y-114919000D01*
X133366000Y-115319000D01*
X133366000Y-115319000D01*
G37*
G36*
X136266000Y-115319000D02*
X135366000Y-115319000D01*
X135366000Y-114919000D01*
X136266000Y-114919000D01*
X136266000Y-115319000D01*
X136266000Y-115319000D01*
G37*
G36*
X160850000Y-114890000D02*
X159150000Y-114890000D01*
X159150000Y-114190000D01*
X160850000Y-114190000D01*
X160850000Y-114890000D01*
X160850000Y-114890000D01*
G37*
G36*
X170230000Y-114890000D02*
X168530000Y-114890000D01*
X168530000Y-114190000D01*
X170230000Y-114190000D01*
X170230000Y-114890000D01*
X170230000Y-114890000D01*
G37*
G36*
X143450000Y-114800000D02*
X142550000Y-114800000D01*
X142550000Y-113600000D01*
X143450000Y-113600000D01*
X143450000Y-114800000D01*
X143450000Y-114800000D01*
G37*
G36*
X136266000Y-114519000D02*
X135366000Y-114519000D01*
X135366000Y-114119000D01*
X136266000Y-114119000D01*
X136266000Y-114519000D01*
X136266000Y-114519000D01*
G37*
G36*
X133366000Y-114519000D02*
X132466000Y-114519000D01*
X132466000Y-114119000D01*
X133366000Y-114119000D01*
X133366000Y-114519000D01*
X133366000Y-114519000D01*
G37*
G36*
X175500000Y-114450000D02*
X174300000Y-114450000D01*
X174300000Y-113550000D01*
X175500000Y-113550000D01*
X175500000Y-114450000D01*
X175500000Y-114450000D01*
G37*
G36*
X177700000Y-114450000D02*
X176500000Y-114450000D01*
X176500000Y-113550000D01*
X177700000Y-113550000D01*
X177700000Y-114450000D01*
X177700000Y-114450000D01*
G37*
G36*
X133366000Y-113719000D02*
X132466000Y-113719000D01*
X132466000Y-113319000D01*
X133366000Y-113319000D01*
X133366000Y-113719000D01*
X133366000Y-113719000D01*
G37*
G36*
X136266000Y-113719000D02*
X135366000Y-113719000D01*
X135366000Y-113319000D01*
X136266000Y-113319000D01*
X136266000Y-113719000D01*
X136266000Y-113719000D01*
G37*
G36*
X170230000Y-113620000D02*
X168530000Y-113620000D01*
X168530000Y-112920000D01*
X170230000Y-112920000D01*
X170230000Y-113620000D01*
X170230000Y-113620000D01*
G37*
G36*
X160850000Y-113620000D02*
X159150000Y-113620000D01*
X159150000Y-112920000D01*
X160850000Y-112920000D01*
X160850000Y-113620000D01*
X160850000Y-113620000D01*
G37*
G36*
X125600000Y-113450000D02*
X124400000Y-113450000D01*
X124400000Y-112550000D01*
X125600000Y-112550000D01*
X125600000Y-113450000D01*
X125600000Y-113450000D01*
G37*
G36*
X123400000Y-113450000D02*
X122200000Y-113450000D01*
X122200000Y-112550000D01*
X123400000Y-112550000D01*
X123400000Y-113450000D01*
X123400000Y-113450000D01*
G37*
G36*
X136266000Y-112919000D02*
X135366000Y-112919000D01*
X135366000Y-112519000D01*
X136266000Y-112519000D01*
X136266000Y-112919000D01*
X136266000Y-112919000D01*
G37*
G36*
X133366000Y-112919000D02*
X132466000Y-112919000D01*
X132466000Y-112519000D01*
X133366000Y-112519000D01*
X133366000Y-112919000D01*
X133366000Y-112919000D01*
G37*
G36*
X143450000Y-112600000D02*
X142550000Y-112600000D01*
X142550000Y-111400000D01*
X143450000Y-111400000D01*
X143450000Y-112600000D01*
X143450000Y-112600000D01*
G37*
G36*
X151800000Y-112450000D02*
X150600000Y-112450000D01*
X150600000Y-111550000D01*
X151800000Y-111550000D01*
X151800000Y-112450000D01*
X151800000Y-112450000D01*
G37*
G36*
X149600000Y-112450000D02*
X148400000Y-112450000D01*
X148400000Y-111550000D01*
X149600000Y-111550000D01*
X149600000Y-112450000D01*
X149600000Y-112450000D01*
G37*
G36*
X160850000Y-112350000D02*
X159150000Y-112350000D01*
X159150000Y-111650000D01*
X160850000Y-111650000D01*
X160850000Y-112350000D01*
X160850000Y-112350000D01*
G37*
G36*
X170230000Y-112350000D02*
X168530000Y-112350000D01*
X168530000Y-111650000D01*
X170230000Y-111650000D01*
X170230000Y-112350000D01*
X170230000Y-112350000D01*
G37*
G36*
X145450000Y-111800000D02*
X144550000Y-111800000D01*
X144550000Y-110600000D01*
X145450000Y-110600000D01*
X145450000Y-111800000D01*
X145450000Y-111800000D01*
G37*
G36*
X170230000Y-111080000D02*
X168530000Y-111080000D01*
X168530000Y-110380000D01*
X170230000Y-110380000D01*
X170230000Y-111080000D01*
X170230000Y-111080000D01*
G37*
G36*
X160850000Y-111080000D02*
X159150000Y-111080000D01*
X159150000Y-110380000D01*
X160850000Y-110380000D01*
X160850000Y-111080000D01*
X160850000Y-111080000D01*
G37*
G36*
X129990000Y-110750000D02*
X129090000Y-110750000D01*
X129090000Y-109550000D01*
X129990000Y-109550000D01*
X129990000Y-110750000D01*
X129990000Y-110750000D01*
G37*
G36*
X170230000Y-109810000D02*
X168530000Y-109810000D01*
X168530000Y-109110000D01*
X170230000Y-109110000D01*
X170230000Y-109810000D01*
X170230000Y-109810000D01*
G37*
G36*
X160850000Y-109810000D02*
X159150000Y-109810000D01*
X159150000Y-109110000D01*
X160850000Y-109110000D01*
X160850000Y-109810000D01*
X160850000Y-109810000D01*
G37*
G36*
X145450000Y-109600000D02*
X144550000Y-109600000D01*
X144550000Y-108400000D01*
X145450000Y-108400000D01*
X145450000Y-109600000D01*
X145450000Y-109600000D01*
G37*
G36*
X129990000Y-108550000D02*
X129090000Y-108550000D01*
X129090000Y-107350000D01*
X129990000Y-107350000D01*
X129990000Y-108550000D01*
X129990000Y-108550000D01*
G37*
G36*
X170230000Y-108540000D02*
X168530000Y-108540000D01*
X168530000Y-107840000D01*
X170230000Y-107840000D01*
X170230000Y-108540000D01*
X170230000Y-108540000D01*
G37*
G36*
X160850000Y-108540000D02*
X159150000Y-108540000D01*
X159150000Y-107840000D01*
X160850000Y-107840000D01*
X160850000Y-108540000D01*
X160850000Y-108540000D01*
G37*
G36*
X156800000Y-108450000D02*
X155600000Y-108450000D01*
X155600000Y-107550000D01*
X156800000Y-107550000D01*
X156800000Y-108450000D01*
X156800000Y-108450000D01*
G37*
G36*
X154600000Y-108450000D02*
X153400000Y-108450000D01*
X153400000Y-107550000D01*
X154600000Y-107550000D01*
X154600000Y-108450000D01*
X154600000Y-108450000D01*
G37*
G36*
X180700000Y-105450000D02*
X179500000Y-105450000D01*
X179500000Y-104550000D01*
X180700000Y-104550000D01*
X180700000Y-105450000D01*
X180700000Y-105450000D01*
G37*
G36*
X178500000Y-105450000D02*
X177300000Y-105450000D01*
X177300000Y-104550000D01*
X178500000Y-104550000D01*
X178500000Y-105450000D01*
X178500000Y-105450000D01*
G37*
G36*
X122600000Y-105450000D02*
X121400000Y-105450000D01*
X121400000Y-104550000D01*
X122600000Y-104550000D01*
X122600000Y-105450000D01*
X122600000Y-105450000D01*
G37*
G36*
X120400000Y-105450000D02*
X119200000Y-105450000D01*
X119200000Y-104550000D01*
X120400000Y-104550000D01*
X120400000Y-105450000D01*
X120400000Y-105450000D01*
G37*
G36*
X120782316Y-97977803D02*
X120803777Y-97984313D01*
X120823555Y-97994885D01*
X120840890Y-98009110D01*
X120855115Y-98026445D01*
X120865687Y-98046223D01*
X120872197Y-98067684D01*
X120875000Y-98096141D01*
X120875000Y-98803859D01*
X120872197Y-98832316D01*
X120865687Y-98853777D01*
X120855115Y-98873555D01*
X120840890Y-98890890D01*
X120823555Y-98905115D01*
X120803777Y-98915687D01*
X120782316Y-98922197D01*
X120753859Y-98925000D01*
X120697063Y-98925000D01*
X120672677Y-98927402D01*
X120649228Y-98934515D01*
X120627617Y-98946066D01*
X120608675Y-98961612D01*
X120593129Y-98980554D01*
X120581578Y-99002165D01*
X120574465Y-99025614D01*
X120572063Y-99050000D01*
X120574465Y-99074386D01*
X120581578Y-99097835D01*
X120593129Y-99119446D01*
X120608675Y-99138388D01*
X120627617Y-99153934D01*
X120638139Y-99160240D01*
X120802433Y-99248056D01*
X120939475Y-99360525D01*
X121051944Y-99497567D01*
X121135515Y-99653919D01*
X121186978Y-99823568D01*
X121204354Y-100000000D01*
X121186978Y-100176432D01*
X121135515Y-100346081D01*
X121051944Y-100502433D01*
X120939475Y-100639475D01*
X120802433Y-100751944D01*
X120638139Y-100839760D01*
X120617764Y-100853373D01*
X120600437Y-100870701D01*
X120586823Y-100891075D01*
X120577446Y-100913714D01*
X120572665Y-100937747D01*
X120572665Y-100962252D01*
X120577445Y-100986285D01*
X120586823Y-101008924D01*
X120600436Y-101029299D01*
X120617764Y-101046626D01*
X120638138Y-101060240D01*
X120660777Y-101069617D01*
X120684810Y-101074398D01*
X120697063Y-101075000D01*
X120753859Y-101075000D01*
X120782316Y-101077803D01*
X120803777Y-101084313D01*
X120823555Y-101094885D01*
X120840890Y-101109110D01*
X120855115Y-101126445D01*
X120865687Y-101146223D01*
X120872197Y-101167684D01*
X120875000Y-101196141D01*
X120875000Y-101903859D01*
X120872197Y-101932316D01*
X120865687Y-101953777D01*
X120855115Y-101973555D01*
X120840890Y-101990890D01*
X120823555Y-102005115D01*
X120803777Y-102015687D01*
X120782316Y-102022197D01*
X120753859Y-102025000D01*
X119246141Y-102025000D01*
X119217684Y-102022197D01*
X119196223Y-102015687D01*
X119176445Y-102005115D01*
X119159110Y-101990890D01*
X119144885Y-101973555D01*
X119134313Y-101953777D01*
X119127803Y-101932316D01*
X119125000Y-101903859D01*
X119125000Y-101196141D01*
X119127803Y-101167684D01*
X119134313Y-101146223D01*
X119144885Y-101126445D01*
X119159110Y-101109110D01*
X119176445Y-101094885D01*
X119196223Y-101084313D01*
X119217684Y-101077803D01*
X119246141Y-101075000D01*
X119302937Y-101075000D01*
X119327323Y-101072598D01*
X119350772Y-101065485D01*
X119372383Y-101053934D01*
X119391325Y-101038388D01*
X119406871Y-101019446D01*
X119418422Y-100997835D01*
X119425535Y-100974386D01*
X119427937Y-100950000D01*
X119425535Y-100925614D01*
X119418422Y-100902165D01*
X119406871Y-100880554D01*
X119391325Y-100861612D01*
X119372383Y-100846066D01*
X119361861Y-100839760D01*
X119197567Y-100751944D01*
X119060525Y-100639475D01*
X118948056Y-100502433D01*
X118864485Y-100346081D01*
X118813022Y-100176432D01*
X118795646Y-100000000D01*
X118813022Y-99823568D01*
X118864485Y-99653919D01*
X118948056Y-99497567D01*
X119060525Y-99360525D01*
X119197567Y-99248056D01*
X119361861Y-99160240D01*
X119382236Y-99146627D01*
X119399563Y-99129299D01*
X119413177Y-99108925D01*
X119422554Y-99086286D01*
X119427335Y-99062253D01*
X119427335Y-99037748D01*
X119422555Y-99013715D01*
X119413177Y-98991076D01*
X119399564Y-98970701D01*
X119382236Y-98953374D01*
X119361862Y-98939760D01*
X119339223Y-98930383D01*
X119315190Y-98925602D01*
X119302937Y-98925000D01*
X119246141Y-98925000D01*
X119217684Y-98922197D01*
X119196223Y-98915687D01*
X119176445Y-98905115D01*
X119159110Y-98890890D01*
X119144885Y-98873555D01*
X119134313Y-98853777D01*
X119127803Y-98832316D01*
X119125000Y-98803859D01*
X119125000Y-98096141D01*
X119127803Y-98067684D01*
X119134313Y-98046223D01*
X119144885Y-98026445D01*
X119159110Y-98009110D01*
X119176445Y-97994885D01*
X119196223Y-97984313D01*
X119217684Y-97977803D01*
X119246141Y-97975000D01*
X120753859Y-97975000D01*
X120782316Y-97977803D01*
X120782316Y-97977803D01*
G37*
G36*
X181782316Y-97327803D02*
X181803777Y-97334313D01*
X181823555Y-97344885D01*
X181840890Y-97359110D01*
X181855115Y-97376445D01*
X181865687Y-97396223D01*
X181872197Y-97417684D01*
X181875000Y-97446141D01*
X181875000Y-98153859D01*
X181872197Y-98182316D01*
X181865687Y-98203777D01*
X181855115Y-98223555D01*
X181840890Y-98240890D01*
X181823555Y-98255115D01*
X181803777Y-98265687D01*
X181782316Y-98272197D01*
X181753859Y-98275000D01*
X181697063Y-98275000D01*
X181672677Y-98277402D01*
X181649228Y-98284515D01*
X181627617Y-98296066D01*
X181608675Y-98311612D01*
X181593129Y-98330554D01*
X181581578Y-98352165D01*
X181574465Y-98375614D01*
X181572063Y-98400000D01*
X181574465Y-98424386D01*
X181581578Y-98447835D01*
X181593129Y-98469446D01*
X181608675Y-98488388D01*
X181627617Y-98503934D01*
X181638139Y-98510240D01*
X181802433Y-98598056D01*
X181939475Y-98710525D01*
X182051944Y-98847567D01*
X182135515Y-99003919D01*
X182186978Y-99173568D01*
X182204354Y-99350000D01*
X182186978Y-99526432D01*
X182135515Y-99696081D01*
X182051944Y-99852433D01*
X181939475Y-99989475D01*
X181802433Y-100101944D01*
X181638139Y-100189760D01*
X181617764Y-100203373D01*
X181600437Y-100220701D01*
X181586823Y-100241075D01*
X181577446Y-100263714D01*
X181572665Y-100287747D01*
X181572665Y-100312252D01*
X181577445Y-100336285D01*
X181586823Y-100358924D01*
X181600436Y-100379299D01*
X181617764Y-100396626D01*
X181638138Y-100410240D01*
X181660777Y-100419617D01*
X181684810Y-100424398D01*
X181697063Y-100425000D01*
X181753859Y-100425000D01*
X181782316Y-100427803D01*
X181803777Y-100434313D01*
X181823555Y-100444885D01*
X181840890Y-100459110D01*
X181855115Y-100476445D01*
X181865687Y-100496223D01*
X181872197Y-100517684D01*
X181875000Y-100546141D01*
X181875000Y-101253859D01*
X181872197Y-101282316D01*
X181865687Y-101303777D01*
X181855115Y-101323555D01*
X181840890Y-101340890D01*
X181823555Y-101355115D01*
X181803777Y-101365687D01*
X181782316Y-101372197D01*
X181753859Y-101375000D01*
X180246141Y-101375000D01*
X180217684Y-101372197D01*
X180196223Y-101365687D01*
X180176445Y-101355115D01*
X180159110Y-101340890D01*
X180144885Y-101323555D01*
X180134313Y-101303777D01*
X180127803Y-101282316D01*
X180125000Y-101253859D01*
X180125000Y-100546141D01*
X180127803Y-100517684D01*
X180134313Y-100496223D01*
X180144885Y-100476445D01*
X180159110Y-100459110D01*
X180176445Y-100444885D01*
X180196223Y-100434313D01*
X180217684Y-100427803D01*
X180246141Y-100425000D01*
X180302937Y-100425000D01*
X180327323Y-100422598D01*
X180350772Y-100415485D01*
X180372383Y-100403934D01*
X180391325Y-100388388D01*
X180406871Y-100369446D01*
X180418422Y-100347835D01*
X180425535Y-100324386D01*
X180427937Y-100300000D01*
X180425535Y-100275614D01*
X180418422Y-100252165D01*
X180406871Y-100230554D01*
X180391325Y-100211612D01*
X180372383Y-100196066D01*
X180361861Y-100189760D01*
X180197567Y-100101944D01*
X180060525Y-99989475D01*
X179948056Y-99852433D01*
X179864485Y-99696081D01*
X179813022Y-99526432D01*
X179795646Y-99350000D01*
X179813022Y-99173568D01*
X179864485Y-99003919D01*
X179948056Y-98847567D01*
X180060525Y-98710525D01*
X180197567Y-98598056D01*
X180361861Y-98510240D01*
X180382236Y-98496627D01*
X180399563Y-98479299D01*
X180413177Y-98458925D01*
X180422554Y-98436286D01*
X180427335Y-98412253D01*
X180427335Y-98387748D01*
X180422555Y-98363715D01*
X180413177Y-98341076D01*
X180399564Y-98320701D01*
X180382236Y-98303374D01*
X180361862Y-98289760D01*
X180339223Y-98280383D01*
X180315190Y-98275602D01*
X180302937Y-98275000D01*
X180246141Y-98275000D01*
X180217684Y-98272197D01*
X180196223Y-98265687D01*
X180176445Y-98255115D01*
X180159110Y-98240890D01*
X180144885Y-98223555D01*
X180134313Y-98203777D01*
X180127803Y-98182316D01*
X180125000Y-98153859D01*
X180125000Y-97446141D01*
X180127803Y-97417684D01*
X180134313Y-97396223D01*
X180144885Y-97376445D01*
X180159110Y-97359110D01*
X180176445Y-97344885D01*
X180196223Y-97334313D01*
X180217684Y-97327803D01*
X180246141Y-97325000D01*
X181753859Y-97325000D01*
X181782316Y-97327803D01*
X181782316Y-97327803D01*
G37*
G36*
X122700000Y-95450000D02*
X121500000Y-95450000D01*
X121500000Y-94550000D01*
X122700000Y-94550000D01*
X122700000Y-95450000D01*
X122700000Y-95450000D01*
G37*
G36*
X120500000Y-95450000D02*
X119300000Y-95450000D01*
X119300000Y-94550000D01*
X120500000Y-94550000D01*
X120500000Y-95450000D01*
X120500000Y-95450000D01*
G37*
G36*
X177600000Y-93450000D02*
X176400000Y-93450000D01*
X176400000Y-92550000D01*
X177600000Y-92550000D01*
X177600000Y-93450000D01*
X177600000Y-93450000D01*
G37*
G36*
X179800000Y-93450000D02*
X178600000Y-93450000D01*
X178600000Y-92550000D01*
X179800000Y-92550000D01*
X179800000Y-93450000D01*
X179800000Y-93450000D01*
G37*
G36*
X151800000Y-91450000D02*
X150600000Y-91450000D01*
X150600000Y-90550000D01*
X151800000Y-90550000D01*
X151800000Y-91450000D01*
X151800000Y-91450000D01*
G37*
G36*
X169600000Y-91450000D02*
X168400000Y-91450000D01*
X168400000Y-90550000D01*
X169600000Y-90550000D01*
X169600000Y-91450000D01*
X169600000Y-91450000D01*
G37*
G36*
X149600000Y-91450000D02*
X148400000Y-91450000D01*
X148400000Y-90550000D01*
X149600000Y-90550000D01*
X149600000Y-91450000D01*
X149600000Y-91450000D01*
G37*
G36*
X131800000Y-91450000D02*
X130600000Y-91450000D01*
X130600000Y-90550000D01*
X131800000Y-90550000D01*
X131800000Y-91450000D01*
X131800000Y-91450000D01*
G37*
G36*
X126800000Y-91450000D02*
X125600000Y-91450000D01*
X125600000Y-90550000D01*
X126800000Y-90550000D01*
X126800000Y-91450000D01*
X126800000Y-91450000D01*
G37*
G36*
X124600000Y-91450000D02*
X123400000Y-91450000D01*
X123400000Y-90550000D01*
X124600000Y-90550000D01*
X124600000Y-91450000D01*
X124600000Y-91450000D01*
G37*
G36*
X171800000Y-91450000D02*
X170600000Y-91450000D01*
X170600000Y-90550000D01*
X171800000Y-90550000D01*
X171800000Y-91450000D01*
X171800000Y-91450000D01*
G37*
G36*
X129600000Y-91450000D02*
X128400000Y-91450000D01*
X128400000Y-90550000D01*
X129600000Y-90550000D01*
X129600000Y-91450000D01*
X129600000Y-91450000D01*
G37*
G36*
X153930000Y-89350000D02*
X152730000Y-89350000D01*
X152730000Y-88450000D01*
X153930000Y-88450000D01*
X153930000Y-89350000D01*
X153930000Y-89350000D01*
G37*
G36*
X151730000Y-89350000D02*
X150530000Y-89350000D01*
X150530000Y-88450000D01*
X151730000Y-88450000D01*
X151730000Y-89350000D01*
X151730000Y-89350000D01*
G37*
G36*
X177600000Y-88450000D02*
X176400000Y-88450000D01*
X176400000Y-87550000D01*
X177600000Y-87550000D01*
X177600000Y-88450000D01*
X177600000Y-88450000D01*
G37*
G36*
X175400000Y-88450000D02*
X174200000Y-88450000D01*
X174200000Y-87550000D01*
X175400000Y-87550000D01*
X175400000Y-88450000D01*
X175400000Y-88450000D01*
G37*
G36*
X141400000Y-84475000D02*
X141402402Y-84499386D01*
X141409515Y-84522835D01*
X141421066Y-84544446D01*
X141436612Y-84563388D01*
X141455554Y-84578934D01*
X141477165Y-84590485D01*
X141500614Y-84597598D01*
X141525000Y-84600000D01*
X142375000Y-84600000D01*
X142375000Y-87400000D01*
X141525000Y-87400000D01*
X141500614Y-87402402D01*
X141477165Y-87409515D01*
X141455554Y-87421066D01*
X141436612Y-87436612D01*
X141421066Y-87455554D01*
X141409515Y-87477165D01*
X141402402Y-87500614D01*
X141400000Y-87525000D01*
X141400000Y-88375000D01*
X138600000Y-88375000D01*
X138600000Y-87525000D01*
X138597598Y-87500614D01*
X138590485Y-87477165D01*
X138578934Y-87455554D01*
X138563388Y-87436612D01*
X138544446Y-87421066D01*
X138522835Y-87409515D01*
X138499386Y-87402402D01*
X138475000Y-87400000D01*
X137625000Y-87400000D01*
X137625000Y-84600000D01*
X138475000Y-84600000D01*
X138499386Y-84597598D01*
X138522835Y-84590485D01*
X138544446Y-84578934D01*
X138563388Y-84563388D01*
X138578934Y-84544446D01*
X138590485Y-84522835D01*
X138597598Y-84499386D01*
X138600000Y-84475000D01*
X138600000Y-83625000D01*
X141400000Y-83625000D01*
X141400000Y-84475000D01*
X141400000Y-84475000D01*
G37*
G36*
X124450000Y-87700000D02*
X123550000Y-87700000D01*
X123550000Y-86500000D01*
X124450000Y-86500000D01*
X124450000Y-87700000D01*
X124450000Y-87700000D01*
G37*
G36*
X129450000Y-87600000D02*
X128550000Y-87600000D01*
X128550000Y-86400000D01*
X129450000Y-86400000D01*
X129450000Y-87600000D01*
X129450000Y-87600000D01*
G37*
G36*
X146450000Y-85800000D02*
X145550000Y-85800000D01*
X145550000Y-84600000D01*
X146450000Y-84600000D01*
X146450000Y-85800000D01*
X146450000Y-85800000D01*
G37*
G36*
X124450000Y-85500000D02*
X123550000Y-85500000D01*
X123550000Y-84300000D01*
X124450000Y-84300000D01*
X124450000Y-85500000D01*
X124450000Y-85500000D01*
G37*
G36*
X129450000Y-85400000D02*
X128550000Y-85400000D01*
X128550000Y-84200000D01*
X129450000Y-84200000D01*
X129450000Y-85400000D01*
X129450000Y-85400000D01*
G37*
G36*
X133800000Y-85350000D02*
X132900000Y-85350000D01*
X132900000Y-84150000D01*
X133800000Y-84150000D01*
X133800000Y-85350000D01*
X133800000Y-85350000D01*
G37*
G36*
X159184963Y-82389403D02*
X159300524Y-82437270D01*
X159404532Y-82506766D01*
X159492974Y-82595208D01*
X159562470Y-82699216D01*
X159610337Y-82814777D01*
X159634740Y-82937459D01*
X159634740Y-83062541D01*
X159610337Y-83185223D01*
X159562470Y-83300784D01*
X159492974Y-83404792D01*
X159404532Y-83493234D01*
X159300524Y-83562730D01*
X159210546Y-83600000D01*
X159184963Y-83610597D01*
X159062282Y-83635000D01*
X158937198Y-83635000D01*
X158814517Y-83610597D01*
X158788934Y-83600000D01*
X158698956Y-83562730D01*
X158594948Y-83493234D01*
X158506506Y-83404792D01*
X158437010Y-83300784D01*
X158389143Y-83185223D01*
X158364740Y-83062541D01*
X158364740Y-82937459D01*
X158389143Y-82814777D01*
X158437010Y-82699216D01*
X158506506Y-82595208D01*
X158594948Y-82506766D01*
X158698956Y-82437270D01*
X158814517Y-82389403D01*
X158937198Y-82365000D01*
X159062282Y-82365000D01*
X159184963Y-82389403D01*
X159184963Y-82389403D01*
G37*
G36*
X157183443Y-82389403D02*
X157299004Y-82437270D01*
X157403012Y-82506766D01*
X157491454Y-82595208D01*
X157560950Y-82699216D01*
X157608817Y-82814777D01*
X157633220Y-82937459D01*
X157633220Y-83062541D01*
X157608817Y-83185223D01*
X157560950Y-83300784D01*
X157491454Y-83404792D01*
X157403012Y-83493234D01*
X157299004Y-83562730D01*
X157209026Y-83600000D01*
X157183443Y-83610597D01*
X157060762Y-83635000D01*
X156935678Y-83635000D01*
X156812997Y-83610597D01*
X156787414Y-83600000D01*
X156697436Y-83562730D01*
X156593428Y-83493234D01*
X156504986Y-83404792D01*
X156435490Y-83300784D01*
X156387623Y-83185223D01*
X156363220Y-83062541D01*
X156363220Y-82937459D01*
X156387623Y-82814777D01*
X156435490Y-82699216D01*
X156504986Y-82595208D01*
X156593428Y-82506766D01*
X156697436Y-82437270D01*
X156812997Y-82389403D01*
X156935678Y-82365000D01*
X157060762Y-82365000D01*
X157183443Y-82389403D01*
X157183443Y-82389403D01*
G37*
G36*
X153635260Y-83635000D02*
X152365260Y-83635000D01*
X152365260Y-82365000D01*
X153635260Y-82365000D01*
X153635260Y-83635000D01*
X153635260Y-83635000D01*
G37*
G36*
X155187003Y-82389403D02*
X155302564Y-82437270D01*
X155406572Y-82506766D01*
X155495014Y-82595208D01*
X155564510Y-82699216D01*
X155612377Y-82814777D01*
X155636780Y-82937459D01*
X155636780Y-83062541D01*
X155612377Y-83185223D01*
X155564510Y-83300784D01*
X155495014Y-83404792D01*
X155406572Y-83493234D01*
X155302564Y-83562730D01*
X155212586Y-83600000D01*
X155187003Y-83610597D01*
X155064322Y-83635000D01*
X154939238Y-83635000D01*
X154816557Y-83610597D01*
X154790974Y-83600000D01*
X154700996Y-83562730D01*
X154596988Y-83493234D01*
X154508546Y-83404792D01*
X154439050Y-83300784D01*
X154391183Y-83185223D01*
X154366780Y-83062541D01*
X154366780Y-82937459D01*
X154391183Y-82814777D01*
X154439050Y-82699216D01*
X154508546Y-82595208D01*
X154596988Y-82506766D01*
X154700996Y-82437270D01*
X154816557Y-82389403D01*
X154939238Y-82365000D01*
X155064322Y-82365000D01*
X155187003Y-82389403D01*
X155187003Y-82389403D01*
G37*
G36*
X146450000Y-83600000D02*
X145550000Y-83600000D01*
X145550000Y-82400000D01*
X146450000Y-82400000D01*
X146450000Y-83600000D01*
X146450000Y-83600000D01*
G37*
G36*
X172600000Y-83450000D02*
X171400000Y-83450000D01*
X171400000Y-82550000D01*
X172600000Y-82550000D01*
X172600000Y-83450000D01*
X172600000Y-83450000D01*
G37*
G36*
X170400000Y-83450000D02*
X169200000Y-83450000D01*
X169200000Y-82550000D01*
X170400000Y-82550000D01*
X170400000Y-83450000D01*
X170400000Y-83450000D01*
G37*
G36*
X133800000Y-83150000D02*
X132900000Y-83150000D01*
X132900000Y-81950000D01*
X133800000Y-81950000D01*
X133800000Y-83150000D01*
X133800000Y-83150000D01*
G37*
G36*
X129880489Y-76954427D02*
X129901950Y-76960937D01*
X129921728Y-76971509D01*
X129943840Y-76989655D01*
X131009945Y-78055760D01*
X131028091Y-78077872D01*
X131038663Y-78097650D01*
X131045173Y-78119111D01*
X131047371Y-78141427D01*
X131045173Y-78163743D01*
X131038663Y-78185204D01*
X131028091Y-78204982D01*
X131009945Y-78227094D01*
X130509526Y-78727513D01*
X130487414Y-78745659D01*
X130467636Y-78756231D01*
X130446175Y-78762741D01*
X130423859Y-78764939D01*
X130401543Y-78762741D01*
X130380082Y-78756231D01*
X130360304Y-78745659D01*
X130338192Y-78727513D01*
X130298036Y-78687357D01*
X130279094Y-78671811D01*
X130257483Y-78660260D01*
X130234034Y-78653147D01*
X130209648Y-78650745D01*
X130185262Y-78653147D01*
X130161813Y-78660260D01*
X130140202Y-78671811D01*
X130121260Y-78687357D01*
X130105714Y-78706299D01*
X130094163Y-78727910D01*
X130087050Y-78751359D01*
X130084648Y-78775745D01*
X130087050Y-78800131D01*
X130090031Y-78812031D01*
X130144110Y-78990300D01*
X130161486Y-79166732D01*
X130144110Y-79343164D01*
X130092646Y-79512813D01*
X130009077Y-79669160D01*
X129896607Y-79806207D01*
X129787300Y-79895912D01*
X129759563Y-79918675D01*
X129759561Y-79918676D01*
X129759560Y-79918677D01*
X129603213Y-80002246D01*
X129433564Y-80053710D01*
X129257132Y-80071086D01*
X129080700Y-80053710D01*
X128902431Y-79999631D01*
X128878398Y-79994850D01*
X128853894Y-79994850D01*
X128829860Y-79999630D01*
X128807221Y-80009007D01*
X128786846Y-80022621D01*
X128769519Y-80039948D01*
X128755905Y-80060323D01*
X128746528Y-80082962D01*
X128741747Y-80106995D01*
X128741747Y-80131499D01*
X128746527Y-80155533D01*
X128755904Y-80178172D01*
X128769518Y-80198547D01*
X128777757Y-80207636D01*
X128817913Y-80247792D01*
X128836059Y-80269904D01*
X128846631Y-80289682D01*
X128853141Y-80311143D01*
X128855339Y-80333459D01*
X128853141Y-80355775D01*
X128846631Y-80377236D01*
X128836059Y-80397014D01*
X128817913Y-80419126D01*
X128317494Y-80919545D01*
X128295382Y-80937691D01*
X128275604Y-80948263D01*
X128254143Y-80954773D01*
X128231827Y-80956971D01*
X128209511Y-80954773D01*
X128188050Y-80948263D01*
X128168272Y-80937691D01*
X128146160Y-80919545D01*
X127080055Y-79853440D01*
X127061909Y-79831328D01*
X127051337Y-79811550D01*
X127044827Y-79790089D01*
X127042629Y-79767773D01*
X127044827Y-79745457D01*
X127051337Y-79723996D01*
X127061909Y-79704218D01*
X127080055Y-79682106D01*
X127580474Y-79181687D01*
X127602586Y-79163541D01*
X127622364Y-79152969D01*
X127643825Y-79146459D01*
X127666141Y-79144261D01*
X127688457Y-79146459D01*
X127709918Y-79152969D01*
X127729696Y-79163541D01*
X127751808Y-79181687D01*
X127791964Y-79221843D01*
X127810906Y-79237389D01*
X127832517Y-79248940D01*
X127855966Y-79256053D01*
X127880352Y-79258455D01*
X127904738Y-79256053D01*
X127928187Y-79248940D01*
X127949798Y-79237389D01*
X127968740Y-79221843D01*
X127984286Y-79202901D01*
X127995837Y-79181290D01*
X128002950Y-79157841D01*
X128005352Y-79133455D01*
X128002950Y-79109069D01*
X127999969Y-79097169D01*
X127945890Y-78918899D01*
X127928514Y-78742468D01*
X127945890Y-78566037D01*
X127997354Y-78396387D01*
X128080925Y-78240037D01*
X128193394Y-78102994D01*
X128330437Y-77990525D01*
X128486787Y-77906954D01*
X128656437Y-77855490D01*
X128832868Y-77838114D01*
X129009299Y-77855490D01*
X129187569Y-77909569D01*
X129211602Y-77914350D01*
X129236107Y-77914350D01*
X129260140Y-77909570D01*
X129282779Y-77900192D01*
X129303154Y-77886579D01*
X129320481Y-77869252D01*
X129334095Y-77848877D01*
X129343472Y-77826238D01*
X129348253Y-77802205D01*
X129348253Y-77777700D01*
X129343473Y-77753667D01*
X129334095Y-77731028D01*
X129320482Y-77710653D01*
X129312243Y-77701564D01*
X129272087Y-77661408D01*
X129253941Y-77639296D01*
X129243369Y-77619518D01*
X129236859Y-77598057D01*
X129234661Y-77575741D01*
X129236859Y-77553425D01*
X129243369Y-77531964D01*
X129253941Y-77512186D01*
X129272087Y-77490074D01*
X129772506Y-76989655D01*
X129794618Y-76971509D01*
X129814396Y-76960937D01*
X129835857Y-76954427D01*
X129858173Y-76952229D01*
X129880489Y-76954427D01*
X129880489Y-76954427D01*
G37*
G36*
X137800000Y-79450000D02*
X136600000Y-79450000D01*
X136600000Y-78550000D01*
X137800000Y-78550000D01*
X137800000Y-79450000D01*
X137800000Y-79450000D01*
G37*
G36*
X135600000Y-79450000D02*
X134400000Y-79450000D01*
X134400000Y-78550000D01*
X135600000Y-78550000D01*
X135600000Y-79450000D01*
X135600000Y-79450000D01*
G37*
G36*
X141400000Y-79450000D02*
X140200000Y-79450000D01*
X140200000Y-78550000D01*
X141400000Y-78550000D01*
X141400000Y-79450000D01*
X141400000Y-79450000D01*
G37*
G36*
X143600000Y-79450000D02*
X142400000Y-79450000D01*
X142400000Y-78550000D01*
X143600000Y-78550000D01*
X143600000Y-79450000D01*
X143600000Y-79450000D01*
G37*
G36*
X169254143Y-74999827D02*
X169275604Y-75006337D01*
X169295382Y-75016909D01*
X169317494Y-75035055D01*
X169817913Y-75535474D01*
X169836059Y-75557586D01*
X169846631Y-75577364D01*
X169853141Y-75598825D01*
X169855339Y-75621141D01*
X169853141Y-75643457D01*
X169846631Y-75664918D01*
X169836059Y-75684696D01*
X169817913Y-75706808D01*
X169777757Y-75746964D01*
X169762211Y-75765906D01*
X169750660Y-75787517D01*
X169743547Y-75810966D01*
X169741145Y-75835352D01*
X169743547Y-75859738D01*
X169750660Y-75883187D01*
X169762211Y-75904798D01*
X169777757Y-75923740D01*
X169796699Y-75939286D01*
X169818310Y-75950837D01*
X169841759Y-75957950D01*
X169866145Y-75960352D01*
X169890531Y-75957950D01*
X169902431Y-75954969D01*
X170080700Y-75900890D01*
X170257132Y-75883514D01*
X170433564Y-75900890D01*
X170603213Y-75952354D01*
X170759560Y-76035923D01*
X170759561Y-76035924D01*
X170759563Y-76035925D01*
X170787300Y-76058688D01*
X170896607Y-76148393D01*
X171009077Y-76285440D01*
X171092646Y-76441787D01*
X171144110Y-76611436D01*
X171161486Y-76787868D01*
X171144110Y-76964300D01*
X171090031Y-77142569D01*
X171085250Y-77166602D01*
X171085250Y-77191106D01*
X171090030Y-77215140D01*
X171099407Y-77237779D01*
X171113021Y-77258154D01*
X171130348Y-77275481D01*
X171150723Y-77289095D01*
X171173362Y-77298472D01*
X171197395Y-77303253D01*
X171221899Y-77303253D01*
X171245933Y-77298473D01*
X171268572Y-77289096D01*
X171288947Y-77275482D01*
X171298036Y-77267243D01*
X171338192Y-77227087D01*
X171360304Y-77208941D01*
X171380082Y-77198369D01*
X171401543Y-77191859D01*
X171423859Y-77189661D01*
X171446175Y-77191859D01*
X171467636Y-77198369D01*
X171487414Y-77208941D01*
X171509526Y-77227087D01*
X172009945Y-77727506D01*
X172028091Y-77749618D01*
X172038663Y-77769396D01*
X172045173Y-77790857D01*
X172047371Y-77813173D01*
X172045173Y-77835489D01*
X172038663Y-77856950D01*
X172028091Y-77876728D01*
X172009945Y-77898840D01*
X170943840Y-78964945D01*
X170921728Y-78983091D01*
X170901950Y-78993663D01*
X170880489Y-79000173D01*
X170858173Y-79002371D01*
X170835857Y-79000173D01*
X170814396Y-78993663D01*
X170794618Y-78983091D01*
X170772506Y-78964945D01*
X170272087Y-78464526D01*
X170253941Y-78442414D01*
X170243369Y-78422636D01*
X170236859Y-78401175D01*
X170234661Y-78378859D01*
X170236859Y-78356543D01*
X170243369Y-78335082D01*
X170253941Y-78315304D01*
X170272087Y-78293192D01*
X170312243Y-78253036D01*
X170327789Y-78234094D01*
X170339340Y-78212483D01*
X170346453Y-78189034D01*
X170348855Y-78164648D01*
X170346453Y-78140262D01*
X170339340Y-78116813D01*
X170327789Y-78095202D01*
X170312243Y-78076260D01*
X170293301Y-78060714D01*
X170271690Y-78049163D01*
X170248241Y-78042050D01*
X170223855Y-78039648D01*
X170199469Y-78042050D01*
X170187569Y-78045031D01*
X170009299Y-78099110D01*
X169832868Y-78116486D01*
X169656437Y-78099110D01*
X169486787Y-78047646D01*
X169330437Y-77964075D01*
X169193394Y-77851606D01*
X169080925Y-77714563D01*
X168997354Y-77558213D01*
X168945890Y-77388563D01*
X168928514Y-77212132D01*
X168945890Y-77035701D01*
X168999969Y-76857431D01*
X169004750Y-76833398D01*
X169004750Y-76808893D01*
X168999970Y-76784860D01*
X168990592Y-76762221D01*
X168976979Y-76741846D01*
X168959652Y-76724519D01*
X168939277Y-76710905D01*
X168916638Y-76701528D01*
X168892605Y-76696747D01*
X168868100Y-76696747D01*
X168844067Y-76701527D01*
X168821428Y-76710905D01*
X168801053Y-76724518D01*
X168791964Y-76732757D01*
X168751808Y-76772913D01*
X168729696Y-76791059D01*
X168709918Y-76801631D01*
X168688457Y-76808141D01*
X168666141Y-76810339D01*
X168643825Y-76808141D01*
X168622364Y-76801631D01*
X168602586Y-76791059D01*
X168580474Y-76772913D01*
X168080055Y-76272494D01*
X168061909Y-76250382D01*
X168051337Y-76230604D01*
X168044827Y-76209143D01*
X168042629Y-76186827D01*
X168044827Y-76164511D01*
X168051337Y-76143050D01*
X168061909Y-76123272D01*
X168080055Y-76101160D01*
X169146160Y-75035055D01*
X169168272Y-75016909D01*
X169188050Y-75006337D01*
X169209511Y-74999827D01*
X169231827Y-74997629D01*
X169254143Y-74999827D01*
X169254143Y-74999827D01*
G37*
G36*
X164700000Y-75450000D02*
X163500000Y-75450000D01*
X163500000Y-74550000D01*
X164700000Y-74550000D01*
X164700000Y-75450000D01*
X164700000Y-75450000D01*
G37*
G36*
X162500000Y-75450000D02*
X161300000Y-75450000D01*
X161300000Y-74550000D01*
X162500000Y-74550000D01*
X162500000Y-75450000D01*
X162500000Y-75450000D01*
G37*
G36*
X137800000Y-74450000D02*
X136600000Y-74450000D01*
X136600000Y-73550000D01*
X137800000Y-73550000D01*
X137800000Y-74450000D01*
X137800000Y-74450000D01*
G37*
G36*
X135600000Y-74450000D02*
X134400000Y-74450000D01*
X134400000Y-73550000D01*
X135600000Y-73550000D01*
X135600000Y-74450000D01*
X135600000Y-74450000D01*
G37*
G36*
X143400000Y-71450000D02*
X142200000Y-71450000D01*
X142200000Y-70550000D01*
X143400000Y-70550000D01*
X143400000Y-71450000D01*
X143400000Y-71450000D01*
G37*
G36*
X157700000Y-71450000D02*
X156500000Y-71450000D01*
X156500000Y-70550000D01*
X157700000Y-70550000D01*
X157700000Y-71450000D01*
X157700000Y-71450000D01*
G37*
G36*
X145600000Y-71450000D02*
X144400000Y-71450000D01*
X144400000Y-70550000D01*
X145600000Y-70550000D01*
X145600000Y-71450000D01*
X145600000Y-71450000D01*
G37*
G36*
X155500000Y-71450000D02*
X154300000Y-71450000D01*
X154300000Y-70550000D01*
X155500000Y-70550000D01*
X155500000Y-71450000D01*
X155500000Y-71450000D01*
G37*
G36*
X150176431Y-68813022D02*
X150346076Y-68864484D01*
X150502436Y-68948059D01*
X150639475Y-69060525D01*
X150751944Y-69197567D01*
X150839760Y-69361861D01*
X150853373Y-69382236D01*
X150870701Y-69399563D01*
X150891075Y-69413177D01*
X150913714Y-69422554D01*
X150937747Y-69427335D01*
X150962252Y-69427335D01*
X150986285Y-69422555D01*
X151008924Y-69413177D01*
X151029299Y-69399564D01*
X151046626Y-69382236D01*
X151060240Y-69361862D01*
X151069617Y-69339223D01*
X151074398Y-69315190D01*
X151075000Y-69302937D01*
X151075000Y-69246141D01*
X151077803Y-69217684D01*
X151084313Y-69196223D01*
X151094885Y-69176445D01*
X151109110Y-69159110D01*
X151126445Y-69144885D01*
X151146223Y-69134313D01*
X151167684Y-69127803D01*
X151196141Y-69125000D01*
X151903859Y-69125000D01*
X151932316Y-69127803D01*
X151953777Y-69134313D01*
X151973555Y-69144885D01*
X151990890Y-69159110D01*
X152005115Y-69176445D01*
X152015687Y-69196223D01*
X152022197Y-69217684D01*
X152025000Y-69246141D01*
X152025000Y-70753859D01*
X152022197Y-70782316D01*
X152015687Y-70803777D01*
X152005115Y-70823555D01*
X151990890Y-70840890D01*
X151973555Y-70855115D01*
X151953777Y-70865687D01*
X151932316Y-70872197D01*
X151903859Y-70875000D01*
X151196141Y-70875000D01*
X151167684Y-70872197D01*
X151146223Y-70865687D01*
X151126445Y-70855115D01*
X151109110Y-70840890D01*
X151094885Y-70823555D01*
X151084313Y-70803777D01*
X151077803Y-70782316D01*
X151075000Y-70753859D01*
X151075000Y-70697062D01*
X151072598Y-70672676D01*
X151065485Y-70649227D01*
X151053934Y-70627616D01*
X151038388Y-70608674D01*
X151019446Y-70593128D01*
X150997835Y-70581577D01*
X150974386Y-70574464D01*
X150950000Y-70572062D01*
X150925614Y-70574464D01*
X150902165Y-70581577D01*
X150880554Y-70593128D01*
X150861612Y-70608674D01*
X150846066Y-70627616D01*
X150839760Y-70638138D01*
X150751944Y-70802433D01*
X150639475Y-70939475D01*
X150502433Y-71051944D01*
X150346081Y-71135515D01*
X150176432Y-71186978D01*
X150000000Y-71204354D01*
X149823569Y-71186978D01*
X149653920Y-71135515D01*
X149497568Y-71051944D01*
X149360526Y-70939475D01*
X149248057Y-70802433D01*
X149160240Y-70638137D01*
X149146627Y-70617762D01*
X149129299Y-70600435D01*
X149108925Y-70586821D01*
X149086286Y-70577444D01*
X149062253Y-70572663D01*
X149037748Y-70572663D01*
X149013715Y-70577443D01*
X148991076Y-70586821D01*
X148970701Y-70600434D01*
X148953374Y-70617762D01*
X148939760Y-70638136D01*
X148930383Y-70660775D01*
X148925602Y-70684808D01*
X148925000Y-70697061D01*
X148925000Y-70753859D01*
X148922197Y-70782316D01*
X148915687Y-70803777D01*
X148905115Y-70823555D01*
X148890890Y-70840890D01*
X148873555Y-70855115D01*
X148853777Y-70865687D01*
X148832316Y-70872197D01*
X148803859Y-70875000D01*
X148096141Y-70875000D01*
X148067684Y-70872197D01*
X148046223Y-70865687D01*
X148026445Y-70855115D01*
X148009110Y-70840890D01*
X147994885Y-70823555D01*
X147984313Y-70803777D01*
X147977803Y-70782316D01*
X147975000Y-70753859D01*
X147975000Y-69246141D01*
X147977803Y-69217684D01*
X147984313Y-69196223D01*
X147994885Y-69176445D01*
X148009110Y-69159110D01*
X148026445Y-69144885D01*
X148046223Y-69134313D01*
X148067684Y-69127803D01*
X148096141Y-69125000D01*
X148803859Y-69125000D01*
X148832316Y-69127803D01*
X148853777Y-69134313D01*
X148873555Y-69144885D01*
X148890890Y-69159110D01*
X148905115Y-69176445D01*
X148915687Y-69196223D01*
X148922197Y-69217684D01*
X148925000Y-69246141D01*
X148925000Y-69302938D01*
X148927402Y-69327324D01*
X148934515Y-69350773D01*
X148946066Y-69372384D01*
X148961612Y-69391326D01*
X148980554Y-69406872D01*
X149002165Y-69418423D01*
X149025614Y-69425536D01*
X149050000Y-69427938D01*
X149074386Y-69425536D01*
X149097835Y-69418423D01*
X149119446Y-69406872D01*
X149138388Y-69391326D01*
X149153934Y-69372384D01*
X149160240Y-69361862D01*
X149248056Y-69197567D01*
X149360525Y-69060525D01*
X149497567Y-68948056D01*
X149653919Y-68864485D01*
X149823568Y-68813022D01*
X150000000Y-68795646D01*
X150176431Y-68813022D01*
X150176431Y-68813022D01*
G37*
M02*
