G04 #@! TF.GenerationSoftware,KiCad,Pcbnew,(5.0.0)*
G04 #@! TF.CreationDate,2019-01-02T21:37:44-05:00*
G04 #@! TF.ProjectId,bikesenseCap,62696B6573656E73654361702E6B6963,REV B*
G04 #@! TF.SameCoordinates,Original*
G04 #@! TF.FileFunction,Copper,L2,Bot,Signal*
G04 #@! TF.FilePolarity,Positive*
%FSLAX46Y46*%
G04 Gerber Fmt 4.6, Leading zero omitted, Abs format (unit mm)*
G04 Created by KiCad (PCBNEW (5.0.0)) date 01/02/19 21:37:44*
%MOMM*%
%LPD*%
G01*
G04 APERTURE LIST*
G04 #@! TA.AperFunction,BGAPad,CuDef*
%ADD10C,10.000000*%
G04 #@! TD*
G04 #@! TA.AperFunction,ComponentPad*
%ADD11R,1.270000X1.270000*%
G04 #@! TD*
G04 #@! TA.AperFunction,ComponentPad*
%ADD12C,1.270000*%
G04 #@! TD*
G04 #@! TA.AperFunction,ComponentPad*
%ADD13C,1.879600*%
G04 #@! TD*
G04 #@! TA.AperFunction,ViaPad*
%ADD14C,0.800000*%
G04 #@! TD*
G04 #@! TA.AperFunction,Conductor*
%ADD15C,0.250000*%
G04 #@! TD*
G04 APERTURE END LIST*
D10*
G04 #@! TO.P,J5,1*
G04 #@! TO.N,Net-(J5-Pad1)*
X150000000Y-120000000D03*
G04 #@! TD*
D11*
G04 #@! TO.P,J1,1*
G04 #@! TO.N,/SCL*
X153000260Y-83000000D03*
D12*
G04 #@! TO.P,J1,2*
G04 #@! TO.N,/SDA*
X155001780Y-83000000D03*
G04 #@! TO.P,J1,3*
G04 #@! TO.N,+3V3*
X156998220Y-83000000D03*
G04 #@! TO.P,J1,4*
G04 #@! TO.N,GND*
X158999740Y-83000000D03*
G04 #@! TD*
D10*
G04 #@! TO.P,J2,1*
G04 #@! TO.N,Net-(J2-Pad1)*
X130000000Y-100000000D03*
G04 #@! TD*
G04 #@! TO.P,J3,1*
G04 #@! TO.N,Net-(J3-Pad1)*
X150000000Y-100000000D03*
G04 #@! TD*
G04 #@! TO.P,J4,1*
G04 #@! TO.N,Net-(J4-Pad1)*
X170000000Y-100000000D03*
G04 #@! TD*
D13*
G04 #@! TO.P,J10,1*
G04 #@! TO.N,Net-(D1-Pad1)*
X141000000Y-122000000D03*
G04 #@! TD*
G04 #@! TO.P,J11,1*
G04 #@! TO.N,Net-(D2-Pad1)*
X141000000Y-127000000D03*
G04 #@! TD*
D14*
G04 #@! TO.N,Net-(D3-Pad1)*
X137299700Y-95603100D03*
X134000000Y-94000000D03*
G04 #@! TO.N,Net-(D4-Pad2)*
X152899978Y-91244258D03*
X155588668Y-92198351D03*
G04 #@! TO.N,Net-(D5-Pad1)*
X169000000Y-88587300D03*
X150000000Y-87000000D03*
G04 #@! TO.N,/West*
X157499800Y-110305000D03*
X120975300Y-103248200D03*
G04 #@! TO.N,/NorthWest*
X121138400Y-97497400D03*
X155274990Y-110013000D03*
G04 #@! TO.N,/SouthWest*
X158500200Y-110537400D03*
X126244700Y-111233300D03*
G04 #@! TO.N,/North*
X149000000Y-75000000D03*
X147000000Y-72000000D03*
G04 #@! TO.N,/SCL*
X157911200Y-106157600D03*
X136000000Y-88000000D03*
X134000000Y-90000000D03*
X132000000Y-84000000D03*
X142000000Y-109000016D03*
X135999988Y-107000000D03*
X134919960Y-77105360D03*
G04 #@! TO.N,/SDA*
X130088600Y-87095400D03*
X135711284Y-83626985D03*
G04 #@! TO.N,+3V3*
X160000000Y-125000000D03*
X153000000Y-128000000D03*
G04 #@! TO.N,GND*
X134549988Y-87063972D03*
X140000000Y-86000000D03*
X136000000Y-92000000D03*
G04 #@! TO.N,Net-(J2-Pad1)*
X140000000Y-82000000D03*
G04 #@! TO.N,Net-(J3-Pad1)*
X142000000Y-82000000D03*
X144000000Y-88000000D03*
X147830866Y-86169135D03*
G04 #@! TO.N,Net-(J4-Pad1)*
X141875800Y-83248500D03*
G04 #@! TO.N,Net-(J5-Pad1)*
X143207378Y-86147521D03*
G04 #@! TO.N,Net-(D1-Pad1)*
X131812400Y-120273700D03*
G04 #@! TD*
D15*
G04 #@! TO.N,Net-(D3-Pad1)*
X135603100Y-95603100D02*
X134399999Y-94399999D01*
X134399999Y-94399999D02*
X134000000Y-94000000D01*
X137299700Y-95603100D02*
X135603100Y-95603100D01*
G04 #@! TO.N,Net-(D4-Pad2)*
X152899978Y-91244258D02*
X154634575Y-91244258D01*
X154634575Y-91244258D02*
X155188669Y-91798352D01*
X155188669Y-91798352D02*
X155588668Y-92198351D01*
G04 #@! TO.N,Net-(D5-Pad1)*
X151587300Y-88587300D02*
X150399999Y-87399999D01*
X150399999Y-87399999D02*
X150000000Y-87000000D01*
X169000000Y-88587300D02*
X151587300Y-88587300D01*
G04 #@! TO.N,/West*
X157066500Y-110738300D02*
X128465400Y-110738300D01*
X121375299Y-103648199D02*
X120975300Y-103248200D01*
X128465400Y-110738300D02*
X121375299Y-103648199D01*
X157499800Y-110305000D02*
X157066500Y-110738300D01*
G04 #@! TO.N,/NorthWest*
X154709305Y-110013000D02*
X155274990Y-110013000D01*
X130013000Y-110013000D02*
X154709305Y-110013000D01*
X122000000Y-102000000D02*
X130013000Y-110013000D01*
X121138400Y-97497400D02*
X122000000Y-98359000D01*
X122000000Y-98359000D02*
X122000000Y-102000000D01*
G04 #@! TO.N,/SouthWest*
X158500200Y-110537400D02*
X157804300Y-111233300D01*
X157804300Y-111233300D02*
X126244700Y-111233300D01*
G04 #@! TO.N,/North*
X149000000Y-75000000D02*
X149000000Y-74000000D01*
X149000000Y-74000000D02*
X147000000Y-72000000D01*
G04 #@! TO.N,/SCL*
X136000000Y-88000000D02*
X134000000Y-90000000D01*
X157911200Y-106157600D02*
X144842416Y-106157600D01*
X142399999Y-108600017D02*
X142000000Y-109000016D01*
X144842416Y-106157600D02*
X142399999Y-108600017D01*
X136565673Y-107000000D02*
X135999988Y-107000000D01*
X137000000Y-107000000D02*
X136565673Y-107000000D01*
X139000000Y-109000000D02*
X137000000Y-107000000D01*
X142000000Y-109000016D02*
X141999984Y-109000000D01*
X141999984Y-109000000D02*
X139000000Y-109000000D01*
X160452400Y-83571000D02*
X160452400Y-82391400D01*
X160452400Y-82391400D02*
X154978300Y-76917300D01*
X132000000Y-84000000D02*
X132000000Y-80025320D01*
X154978300Y-76917300D02*
X135108020Y-76917300D01*
X135108020Y-76917300D02*
X134919960Y-77105360D01*
X134519961Y-77505359D02*
X134919960Y-77105360D01*
X132000000Y-80025320D02*
X134519961Y-77505359D01*
X159612800Y-84410600D02*
X160452400Y-83571000D01*
X153000300Y-83000000D02*
X153960600Y-83000000D01*
X155011000Y-84410600D02*
X159612800Y-84410600D01*
X153960600Y-83360200D02*
X155011000Y-84410600D01*
X153960600Y-83000000D02*
X153960600Y-83360200D01*
G04 #@! TO.N,/SDA*
X135311285Y-84026984D02*
X135711284Y-83626985D01*
X132242869Y-87095400D02*
X135311285Y-84026984D01*
X130088600Y-87095400D02*
X132242869Y-87095400D01*
X140372801Y-80099980D02*
X139238289Y-80099980D01*
X139238289Y-80099980D02*
X136111283Y-83226986D01*
X140472781Y-80000000D02*
X140372801Y-80099980D01*
X155962100Y-83960300D02*
X159426200Y-83960300D01*
X155001800Y-83000000D02*
X155962100Y-83960300D01*
X159426200Y-83960300D02*
X160002100Y-83384400D01*
X160002100Y-83384400D02*
X160002100Y-82578000D01*
X160002100Y-82578000D02*
X157424100Y-80000000D01*
X136111283Y-83226986D02*
X135711284Y-83626985D01*
X157424100Y-80000000D02*
X140472781Y-80000000D01*
G04 #@! TO.N,+3V3*
X160000000Y-125000000D02*
X157000000Y-128000000D01*
X157000000Y-128000000D02*
X153000000Y-128000000D01*
G04 #@! TO.N,GND*
X140000000Y-88000000D02*
X136000000Y-92000000D01*
X140000000Y-86000000D02*
X140000000Y-88000000D01*
X134549988Y-86498287D02*
X134549988Y-87063972D01*
X156999700Y-81000000D02*
X140636410Y-81000000D01*
X158999700Y-83000000D02*
X156999700Y-81000000D01*
X140186401Y-80549991D02*
X139813599Y-80549991D01*
X140636410Y-81000000D02*
X140186401Y-80549991D01*
X139813599Y-80549991D02*
X134549988Y-85813601D01*
X134549988Y-85813601D02*
X134549988Y-86498287D01*
G04 #@! TO.N,Net-(J2-Pad1)*
X139000000Y-82000000D02*
X140000000Y-82000000D01*
X135653934Y-85346066D02*
X139000000Y-82000000D01*
X135653934Y-87274999D02*
X135653934Y-85346066D01*
X130000000Y-100000000D02*
X130000000Y-92928933D01*
X130000000Y-92928933D02*
X135653934Y-87274999D01*
G04 #@! TO.N,Net-(J3-Pad1)*
X143661731Y-82000000D02*
X147430867Y-85769136D01*
X142000000Y-82000000D02*
X143661731Y-82000000D01*
X147430867Y-85769136D02*
X147830866Y-86169135D01*
X145000000Y-89000000D02*
X144000000Y-88000000D01*
X150000000Y-100000000D02*
X145000000Y-95000000D01*
X145000000Y-95000000D02*
X145000000Y-89000000D01*
G04 #@! TO.N,Net-(J4-Pad1)*
X152605671Y-91969260D02*
X160636411Y-100000000D01*
X160636411Y-100000000D02*
X162928933Y-100000000D01*
X162928933Y-100000000D02*
X170000000Y-100000000D01*
X152174976Y-91538565D02*
X152174976Y-91592260D01*
X143884911Y-83248500D02*
X152174976Y-91538565D01*
X152174976Y-91592260D02*
X152551976Y-91969260D01*
X141875800Y-83248500D02*
X143884911Y-83248500D01*
X152551976Y-91969260D02*
X152605671Y-91969260D01*
G04 #@! TO.N,Net-(J5-Pad1)*
X146147521Y-86147521D02*
X143207378Y-86147521D01*
X151724965Y-91724965D02*
X146147521Y-86147521D01*
X151724965Y-91778660D02*
X151724965Y-91724965D01*
X152365576Y-92419271D02*
X151724965Y-91778660D01*
X159240300Y-99240300D02*
X152419271Y-92419271D01*
X152419271Y-92419271D02*
X152365576Y-92419271D01*
X159240300Y-117830767D02*
X159240300Y-99240300D01*
X150000000Y-120000000D02*
X157071067Y-120000000D01*
X157071067Y-120000000D02*
X159240300Y-117830767D01*
G04 #@! TO.N,Net-(D1-Pad1)*
X141000000Y-122000000D02*
X133538700Y-122000000D01*
X133538700Y-122000000D02*
X131812400Y-120273700D01*
G04 #@! TD*
M02*
