G04 #@! TF.GenerationSoftware,KiCad,Pcbnew,(5.0.0)*
G04 #@! TF.CreationDate,2019-01-02T21:37:44-05:00*
G04 #@! TF.ProjectId,bikesenseCap,62696B6573656E73654361702E6B6963,REV B*
G04 #@! TF.SameCoordinates,Original*
G04 #@! TF.FileFunction,Legend,Bot*
G04 #@! TF.FilePolarity,Positive*
%FSLAX46Y46*%
G04 Gerber Fmt 4.6, Leading zero omitted, Abs format (unit mm)*
G04 Created by KiCad (PCBNEW (5.0.0)) date 01/02/19 21:37:44*
%MOMM*%
%LPD*%
G01*
G04 APERTURE LIST*
%ADD10C,0.150000*%
%ADD11C,0.010000*%
G04 APERTURE END LIST*
D10*
G04 #@! TO.C,J5*
X156082763Y-120000000D02*
G75*
G03X156082763Y-120000000I-6082763J0D01*
G01*
G04 #@! TO.C,J2*
X136082763Y-100000000D02*
G75*
G03X136082763Y-100000000I-6082763J0D01*
G01*
G04 #@! TO.C,J3*
X156082763Y-100000000D02*
G75*
G03X156082763Y-100000000I-6082763J0D01*
G01*
G04 #@! TO.C,J4*
X176082763Y-100000000D02*
G75*
G03X176082763Y-100000000I-6082763J0D01*
G01*
D11*
G04 #@! TO.C,G\002A\002A\002A*
G36*
X143855004Y-75676792D02*
X143723426Y-75704946D01*
X143612093Y-75744127D01*
X143540334Y-75788003D01*
X143524000Y-75817863D01*
X143547018Y-75845382D01*
X143618997Y-75827958D01*
X143692210Y-75793223D01*
X143805174Y-75758577D01*
X143955861Y-75742652D01*
X144115082Y-75745460D01*
X144253650Y-75767011D01*
X144322286Y-75793000D01*
X144417990Y-75836162D01*
X144483652Y-75843674D01*
X144503579Y-75820214D01*
X144470591Y-75782845D01*
X144384897Y-75742971D01*
X144265882Y-75706385D01*
X144132936Y-75678881D01*
X144005447Y-75666253D01*
X143987493Y-75666000D01*
X143855004Y-75676792D01*
X143855004Y-75676792D01*
G37*
X143855004Y-75676792D02*
X143723426Y-75704946D01*
X143612093Y-75744127D01*
X143540334Y-75788003D01*
X143524000Y-75817863D01*
X143547018Y-75845382D01*
X143618997Y-75827958D01*
X143692210Y-75793223D01*
X143805174Y-75758577D01*
X143955861Y-75742652D01*
X144115082Y-75745460D01*
X144253650Y-75767011D01*
X144322286Y-75793000D01*
X144417990Y-75836162D01*
X144483652Y-75843674D01*
X144503579Y-75820214D01*
X144470591Y-75782845D01*
X144384897Y-75742971D01*
X144265882Y-75706385D01*
X144132936Y-75678881D01*
X144005447Y-75666253D01*
X143987493Y-75666000D01*
X143855004Y-75676792D01*
G36*
X143795667Y-75904433D02*
X143626252Y-75972889D01*
X143472355Y-76099987D01*
X143444408Y-76130002D01*
X143344195Y-76266827D01*
X143288323Y-76415623D01*
X143271141Y-76597020D01*
X143277733Y-76738467D01*
X143328972Y-76947357D01*
X143444277Y-77123207D01*
X143621899Y-77263558D01*
X143669864Y-77289785D01*
X143836758Y-77347164D01*
X144025804Y-77369715D01*
X144204225Y-77355139D01*
X144280733Y-77332604D01*
X144475033Y-77217840D01*
X144621982Y-77048099D01*
X144670845Y-76957753D01*
X144741534Y-76731842D01*
X144746619Y-76513839D01*
X144692175Y-76313518D01*
X144584279Y-76140651D01*
X144429006Y-76005011D01*
X144232432Y-75916371D01*
X144003621Y-75884511D01*
X143795667Y-75904433D01*
X143795667Y-75904433D01*
G37*
X143795667Y-75904433D02*
X143626252Y-75972889D01*
X143472355Y-76099987D01*
X143444408Y-76130002D01*
X143344195Y-76266827D01*
X143288323Y-76415623D01*
X143271141Y-76597020D01*
X143277733Y-76738467D01*
X143328972Y-76947357D01*
X143444277Y-77123207D01*
X143621899Y-77263558D01*
X143669864Y-77289785D01*
X143836758Y-77347164D01*
X144025804Y-77369715D01*
X144204225Y-77355139D01*
X144280733Y-77332604D01*
X144475033Y-77217840D01*
X144621982Y-77048099D01*
X144670845Y-76957753D01*
X144741534Y-76731842D01*
X144746619Y-76513839D01*
X144692175Y-76313518D01*
X144584279Y-76140651D01*
X144429006Y-76005011D01*
X144232432Y-75916371D01*
X144003621Y-75884511D01*
X143795667Y-75904433D01*
G36*
X143060246Y-76676662D02*
X143054127Y-76756258D01*
X143068513Y-76864629D01*
X143101707Y-76981900D01*
X143121462Y-77030383D01*
X143195313Y-77157849D01*
X143292062Y-77278207D01*
X143395755Y-77375496D01*
X143490442Y-77433759D01*
X143534281Y-77443388D01*
X143579993Y-77438908D01*
X143572969Y-77419522D01*
X143508463Y-77374712D01*
X143501179Y-77370035D01*
X143371289Y-77257098D01*
X143256187Y-77104143D01*
X143170083Y-76935185D01*
X143127189Y-76774239D01*
X143124858Y-76734066D01*
X143112135Y-76667012D01*
X143088572Y-76645714D01*
X143060246Y-76676662D01*
X143060246Y-76676662D01*
G37*
X143060246Y-76676662D02*
X143054127Y-76756258D01*
X143068513Y-76864629D01*
X143101707Y-76981900D01*
X143121462Y-77030383D01*
X143195313Y-77157849D01*
X143292062Y-77278207D01*
X143395755Y-77375496D01*
X143490442Y-77433759D01*
X143534281Y-77443388D01*
X143579993Y-77438908D01*
X143572969Y-77419522D01*
X143508463Y-77374712D01*
X143501179Y-77370035D01*
X143371289Y-77257098D01*
X143256187Y-77104143D01*
X143170083Y-76935185D01*
X143127189Y-76774239D01*
X143124858Y-76734066D01*
X143112135Y-76667012D01*
X143088572Y-76645714D01*
X143060246Y-76676662D01*
G36*
X144876410Y-76677031D02*
X144866217Y-76745500D01*
X144841322Y-76877210D01*
X144776357Y-77032374D01*
X144684714Y-77185368D01*
X144579784Y-77310570D01*
X144562630Y-77326335D01*
X144491799Y-77399173D01*
X144477019Y-77437331D01*
X144509384Y-77438486D01*
X144579986Y-77400314D01*
X144647857Y-77348559D01*
X144732231Y-77257957D01*
X144816853Y-77137042D01*
X144850213Y-77077622D01*
X144898399Y-76959190D01*
X144928934Y-76838345D01*
X144939544Y-76733723D01*
X144927960Y-76663957D01*
X144902857Y-76645714D01*
X144876410Y-76677031D01*
X144876410Y-76677031D01*
G37*
X144876410Y-76677031D02*
X144866217Y-76745500D01*
X144841322Y-76877210D01*
X144776357Y-77032374D01*
X144684714Y-77185368D01*
X144579784Y-77310570D01*
X144562630Y-77326335D01*
X144491799Y-77399173D01*
X144477019Y-77437331D01*
X144509384Y-77438486D01*
X144579986Y-77400314D01*
X144647857Y-77348559D01*
X144732231Y-77257957D01*
X144816853Y-77137042D01*
X144850213Y-77077622D01*
X144898399Y-76959190D01*
X144928934Y-76838345D01*
X144939544Y-76733723D01*
X144927960Y-76663957D01*
X144902857Y-76645714D01*
X144876410Y-76677031D01*
G36*
X141274286Y-79177746D02*
X139913572Y-77777444D01*
X139266477Y-77774007D01*
X139022137Y-77774614D01*
X138832562Y-77779131D01*
X138702817Y-77787304D01*
X138637970Y-77798879D01*
X138631477Y-77805891D01*
X138659111Y-77841656D01*
X138729450Y-77921484D01*
X138834922Y-78037102D01*
X138967953Y-78180241D01*
X139120974Y-78342627D01*
X139171239Y-78395534D01*
X139340381Y-78573561D01*
X139502957Y-78745298D01*
X139648483Y-78899624D01*
X139766475Y-79025417D01*
X139846450Y-79111556D01*
X139854714Y-79120583D01*
X140010522Y-79291309D01*
X139278939Y-80463154D01*
X138547356Y-81635000D01*
X139210180Y-81644916D01*
X139463413Y-81647354D01*
X139652125Y-81645770D01*
X139784274Y-81639755D01*
X139867821Y-81628901D01*
X139910725Y-81612797D01*
X139915389Y-81608631D01*
X139945374Y-81565167D01*
X140006273Y-81468560D01*
X140092309Y-81328278D01*
X140197702Y-81153790D01*
X140316673Y-80954564D01*
X140385777Y-80837916D01*
X140813781Y-80113403D01*
X141044034Y-80361266D01*
X141274286Y-80609128D01*
X141274286Y-81653143D01*
X142435429Y-81653143D01*
X142435429Y-76319143D01*
X141274286Y-76319143D01*
X141274286Y-79177746D01*
X141274286Y-79177746D01*
G37*
X141274286Y-79177746D02*
X139913572Y-77777444D01*
X139266477Y-77774007D01*
X139022137Y-77774614D01*
X138832562Y-77779131D01*
X138702817Y-77787304D01*
X138637970Y-77798879D01*
X138631477Y-77805891D01*
X138659111Y-77841656D01*
X138729450Y-77921484D01*
X138834922Y-78037102D01*
X138967953Y-78180241D01*
X139120974Y-78342627D01*
X139171239Y-78395534D01*
X139340381Y-78573561D01*
X139502957Y-78745298D01*
X139648483Y-78899624D01*
X139766475Y-79025417D01*
X139846450Y-79111556D01*
X139854714Y-79120583D01*
X140010522Y-79291309D01*
X139278939Y-80463154D01*
X138547356Y-81635000D01*
X139210180Y-81644916D01*
X139463413Y-81647354D01*
X139652125Y-81645770D01*
X139784274Y-81639755D01*
X139867821Y-81628901D01*
X139910725Y-81612797D01*
X139915389Y-81608631D01*
X139945374Y-81565167D01*
X140006273Y-81468560D01*
X140092309Y-81328278D01*
X140197702Y-81153790D01*
X140316673Y-80954564D01*
X140385777Y-80837916D01*
X140813781Y-80113403D01*
X141044034Y-80361266D01*
X141274286Y-80609128D01*
X141274286Y-81653143D01*
X142435429Y-81653143D01*
X142435429Y-76319143D01*
X141274286Y-76319143D01*
X141274286Y-79177746D01*
G36*
X143487715Y-81653143D02*
X144612572Y-81653143D01*
X144612572Y-77770571D01*
X143487715Y-77770571D01*
X143487715Y-81653143D01*
X143487715Y-81653143D01*
G37*
X143487715Y-81653143D02*
X144612572Y-81653143D01*
X144612572Y-77770571D01*
X143487715Y-77770571D01*
X143487715Y-81653143D01*
G36*
X136319299Y-77745685D02*
X135981099Y-77800390D01*
X135663485Y-77904400D01*
X135377898Y-78057645D01*
X135164143Y-78231211D01*
X134972013Y-78469116D01*
X134819723Y-78759954D01*
X134710739Y-79093863D01*
X134648522Y-79460981D01*
X134634630Y-79739071D01*
X134634000Y-80056571D01*
X136012858Y-80056571D01*
X136321127Y-80057041D01*
X136605388Y-80058381D01*
X136857762Y-80060485D01*
X137070367Y-80063246D01*
X137235322Y-80066560D01*
X137344748Y-80070319D01*
X137390763Y-80074419D01*
X137391715Y-80075109D01*
X137370013Y-80150282D01*
X137313943Y-80258398D01*
X137237053Y-80377900D01*
X137152894Y-80487230D01*
X137093926Y-80548890D01*
X136923689Y-80679226D01*
X136749686Y-80757109D01*
X136546681Y-80791937D01*
X136430143Y-80796128D01*
X136127701Y-80765927D01*
X135851859Y-80670023D01*
X135618367Y-80525096D01*
X135441090Y-80390920D01*
X135137331Y-80697897D01*
X134833572Y-81004875D01*
X135025143Y-81182524D01*
X135272523Y-81369672D01*
X135567225Y-81522078D01*
X135888049Y-81628901D01*
X135907201Y-81633515D01*
X136083220Y-81662096D01*
X136304053Y-81679172D01*
X136545526Y-81684667D01*
X136783465Y-81678507D01*
X136993698Y-81660616D01*
X137127839Y-81637291D01*
X137415049Y-81539571D01*
X137695383Y-81393011D01*
X137941221Y-81212922D01*
X138011122Y-81147693D01*
X138223408Y-80886013D01*
X138382277Y-80586297D01*
X138488064Y-80259209D01*
X138541106Y-79915413D01*
X138541740Y-79565574D01*
X138496806Y-79264002D01*
X137389792Y-79264002D01*
X137387380Y-79304693D01*
X137357233Y-79333007D01*
X137291745Y-79351180D01*
X137183314Y-79361446D01*
X137024335Y-79366040D01*
X136807203Y-79367195D01*
X136557143Y-79367142D01*
X135722572Y-79367142D01*
X135722572Y-79276033D01*
X135749474Y-79139280D01*
X135820135Y-78986686D01*
X135919487Y-78844903D01*
X136020592Y-78748854D01*
X136187416Y-78659409D01*
X136383254Y-78601514D01*
X136576027Y-78583053D01*
X136661971Y-78591207D01*
X136886066Y-78666431D01*
X137088756Y-78799752D01*
X137252542Y-78977133D01*
X137341825Y-79136552D01*
X137372072Y-79208700D01*
X137389792Y-79264002D01*
X138496806Y-79264002D01*
X138490302Y-79220356D01*
X138387128Y-78890423D01*
X138232555Y-78586441D01*
X138026920Y-78319072D01*
X137918586Y-78214222D01*
X137649097Y-78021338D01*
X137342982Y-77878113D01*
X137011682Y-77784477D01*
X136666640Y-77740357D01*
X136319299Y-77745685D01*
X136319299Y-77745685D01*
G37*
X136319299Y-77745685D02*
X135981099Y-77800390D01*
X135663485Y-77904400D01*
X135377898Y-78057645D01*
X135164143Y-78231211D01*
X134972013Y-78469116D01*
X134819723Y-78759954D01*
X134710739Y-79093863D01*
X134648522Y-79460981D01*
X134634630Y-79739071D01*
X134634000Y-80056571D01*
X136012858Y-80056571D01*
X136321127Y-80057041D01*
X136605388Y-80058381D01*
X136857762Y-80060485D01*
X137070367Y-80063246D01*
X137235322Y-80066560D01*
X137344748Y-80070319D01*
X137390763Y-80074419D01*
X137391715Y-80075109D01*
X137370013Y-80150282D01*
X137313943Y-80258398D01*
X137237053Y-80377900D01*
X137152894Y-80487230D01*
X137093926Y-80548890D01*
X136923689Y-80679226D01*
X136749686Y-80757109D01*
X136546681Y-80791937D01*
X136430143Y-80796128D01*
X136127701Y-80765927D01*
X135851859Y-80670023D01*
X135618367Y-80525096D01*
X135441090Y-80390920D01*
X135137331Y-80697897D01*
X134833572Y-81004875D01*
X135025143Y-81182524D01*
X135272523Y-81369672D01*
X135567225Y-81522078D01*
X135888049Y-81628901D01*
X135907201Y-81633515D01*
X136083220Y-81662096D01*
X136304053Y-81679172D01*
X136545526Y-81684667D01*
X136783465Y-81678507D01*
X136993698Y-81660616D01*
X137127839Y-81637291D01*
X137415049Y-81539571D01*
X137695383Y-81393011D01*
X137941221Y-81212922D01*
X138011122Y-81147693D01*
X138223408Y-80886013D01*
X138382277Y-80586297D01*
X138488064Y-80259209D01*
X138541106Y-79915413D01*
X138541740Y-79565574D01*
X138496806Y-79264002D01*
X137389792Y-79264002D01*
X137387380Y-79304693D01*
X137357233Y-79333007D01*
X137291745Y-79351180D01*
X137183314Y-79361446D01*
X137024335Y-79366040D01*
X136807203Y-79367195D01*
X136557143Y-79367142D01*
X135722572Y-79367142D01*
X135722572Y-79276033D01*
X135749474Y-79139280D01*
X135820135Y-78986686D01*
X135919487Y-78844903D01*
X136020592Y-78748854D01*
X136187416Y-78659409D01*
X136383254Y-78601514D01*
X136576027Y-78583053D01*
X136661971Y-78591207D01*
X136886066Y-78666431D01*
X137088756Y-78799752D01*
X137252542Y-78977133D01*
X137341825Y-79136552D01*
X137372072Y-79208700D01*
X137389792Y-79264002D01*
X138496806Y-79264002D01*
X138490302Y-79220356D01*
X138387128Y-78890423D01*
X138232555Y-78586441D01*
X138026920Y-78319072D01*
X137918586Y-78214222D01*
X137649097Y-78021338D01*
X137342982Y-77878113D01*
X137011682Y-77784477D01*
X136666640Y-77740357D01*
X136319299Y-77745685D01*
G36*
X148350000Y-78285853D02*
X148150308Y-78103345D01*
X147916194Y-77929755D01*
X147653256Y-77814431D01*
X147350156Y-77752802D01*
X147261429Y-77744875D01*
X146892608Y-77753219D01*
X146548289Y-77827546D01*
X146234297Y-77963714D01*
X145956456Y-78157580D01*
X145720590Y-78405000D01*
X145532525Y-78701833D01*
X145398085Y-79043935D01*
X145388800Y-79076857D01*
X145350372Y-79275208D01*
X145327812Y-79515409D01*
X145321133Y-79774099D01*
X145330349Y-80027913D01*
X145355473Y-80253490D01*
X145388039Y-80401285D01*
X145526613Y-80754383D01*
X145713150Y-81054718D01*
X145946095Y-81300633D01*
X146223894Y-81490474D01*
X146530465Y-81618158D01*
X146752845Y-81665602D01*
X147011500Y-81687490D01*
X147278186Y-81683790D01*
X147524654Y-81654470D01*
X147667674Y-81619441D01*
X147825073Y-81553919D01*
X147991762Y-81460161D01*
X148145000Y-81353122D01*
X148262043Y-81247758D01*
X148295792Y-81206388D01*
X148323593Y-81172218D01*
X148339830Y-81175502D01*
X148347574Y-81226708D01*
X148349899Y-81336302D01*
X148350000Y-81391069D01*
X148350000Y-81653143D01*
X149474858Y-81653143D01*
X149474858Y-79767268D01*
X148332923Y-79767268D01*
X148297622Y-79986381D01*
X148232589Y-80196598D01*
X148164319Y-80335595D01*
X148014167Y-80512681D01*
X147819041Y-80642902D01*
X147593233Y-80721276D01*
X147351032Y-80742822D01*
X147109277Y-80703327D01*
X146940598Y-80621599D01*
X146777261Y-80487672D01*
X146639295Y-80320414D01*
X146568718Y-80194010D01*
X146508069Y-79998422D01*
X146479535Y-79771362D01*
X146483389Y-79539401D01*
X146519904Y-79329106D01*
X146558717Y-79222000D01*
X146700271Y-78996220D01*
X146883503Y-78828802D01*
X147104447Y-78722313D01*
X147359140Y-78679319D01*
X147397896Y-78678511D01*
X147653171Y-78710424D01*
X147876287Y-78804729D01*
X148062030Y-78956431D01*
X148205190Y-79160539D01*
X148300553Y-79412061D01*
X148331229Y-79572466D01*
X148332923Y-79767268D01*
X149474858Y-79767268D01*
X149474858Y-76319143D01*
X148350000Y-76319143D01*
X148350000Y-78285853D01*
X148350000Y-78285853D01*
G37*
X148350000Y-78285853D02*
X148150308Y-78103345D01*
X147916194Y-77929755D01*
X147653256Y-77814431D01*
X147350156Y-77752802D01*
X147261429Y-77744875D01*
X146892608Y-77753219D01*
X146548289Y-77827546D01*
X146234297Y-77963714D01*
X145956456Y-78157580D01*
X145720590Y-78405000D01*
X145532525Y-78701833D01*
X145398085Y-79043935D01*
X145388800Y-79076857D01*
X145350372Y-79275208D01*
X145327812Y-79515409D01*
X145321133Y-79774099D01*
X145330349Y-80027913D01*
X145355473Y-80253490D01*
X145388039Y-80401285D01*
X145526613Y-80754383D01*
X145713150Y-81054718D01*
X145946095Y-81300633D01*
X146223894Y-81490474D01*
X146530465Y-81618158D01*
X146752845Y-81665602D01*
X147011500Y-81687490D01*
X147278186Y-81683790D01*
X147524654Y-81654470D01*
X147667674Y-81619441D01*
X147825073Y-81553919D01*
X147991762Y-81460161D01*
X148145000Y-81353122D01*
X148262043Y-81247758D01*
X148295792Y-81206388D01*
X148323593Y-81172218D01*
X148339830Y-81175502D01*
X148347574Y-81226708D01*
X148349899Y-81336302D01*
X148350000Y-81391069D01*
X148350000Y-81653143D01*
X149474858Y-81653143D01*
X149474858Y-79767268D01*
X148332923Y-79767268D01*
X148297622Y-79986381D01*
X148232589Y-80196598D01*
X148164319Y-80335595D01*
X148014167Y-80512681D01*
X147819041Y-80642902D01*
X147593233Y-80721276D01*
X147351032Y-80742822D01*
X147109277Y-80703327D01*
X146940598Y-80621599D01*
X146777261Y-80487672D01*
X146639295Y-80320414D01*
X146568718Y-80194010D01*
X146508069Y-79998422D01*
X146479535Y-79771362D01*
X146483389Y-79539401D01*
X146519904Y-79329106D01*
X146558717Y-79222000D01*
X146700271Y-78996220D01*
X146883503Y-78828802D01*
X147104447Y-78722313D01*
X147359140Y-78679319D01*
X147397896Y-78678511D01*
X147653171Y-78710424D01*
X147876287Y-78804729D01*
X148062030Y-78956431D01*
X148205190Y-79160539D01*
X148300553Y-79412061D01*
X148331229Y-79572466D01*
X148332923Y-79767268D01*
X149474858Y-79767268D01*
X149474858Y-76319143D01*
X148350000Y-76319143D01*
X148350000Y-78285853D01*
G36*
X135379337Y-82016830D02*
X135245933Y-82021184D01*
X135152030Y-82031850D01*
X135081098Y-82051622D01*
X135016601Y-82083290D01*
X134958604Y-82119017D01*
X134779540Y-82243857D01*
X134651522Y-82364285D01*
X134566523Y-82496237D01*
X134516517Y-82655648D01*
X134493476Y-82858454D01*
X134489060Y-83051140D01*
X134488689Y-83203045D01*
X134493402Y-83319772D01*
X134511617Y-83405942D01*
X134551755Y-83466175D01*
X134622236Y-83505091D01*
X134731479Y-83527311D01*
X134887904Y-83537456D01*
X135099931Y-83540145D01*
X135375980Y-83540000D01*
X136158000Y-83540000D01*
X136158000Y-83634343D01*
X136127229Y-83732782D01*
X136041997Y-83844579D01*
X136034629Y-83852057D01*
X135911257Y-83975428D01*
X135272629Y-83975428D01*
X135041151Y-83975990D01*
X134871076Y-83978435D01*
X134751238Y-83983902D01*
X134670473Y-83993531D01*
X134617615Y-84008461D01*
X134581499Y-84029832D01*
X134561429Y-84048000D01*
X134498421Y-84156870D01*
X134500713Y-84278925D01*
X134540298Y-84358564D01*
X134562790Y-84382780D01*
X134596694Y-84400964D01*
X134652073Y-84414152D01*
X134738988Y-84423380D01*
X134867501Y-84429682D01*
X135047674Y-84434096D01*
X135289571Y-84437656D01*
X135311369Y-84437928D01*
X135587808Y-84439810D01*
X135798591Y-84437516D01*
X135950532Y-84430737D01*
X136050444Y-84419160D01*
X136105139Y-84402477D01*
X136106577Y-84401642D01*
X136239356Y-84309216D01*
X136372783Y-84195023D01*
X136487267Y-84077688D01*
X136563216Y-83975837D01*
X136571915Y-83959264D01*
X136594707Y-83895563D01*
X136610960Y-83807887D01*
X136621591Y-83684678D01*
X136627518Y-83514376D01*
X136629660Y-83285423D01*
X136629715Y-83231571D01*
X136628040Y-82975845D01*
X136623951Y-82867915D01*
X136158000Y-82867915D01*
X136158000Y-83068285D01*
X134960572Y-83068285D01*
X134960572Y-82893975D01*
X134968135Y-82777437D01*
X135001091Y-82694373D01*
X135074839Y-82609044D01*
X135089569Y-82594618D01*
X135158109Y-82532361D01*
X135220027Y-82494254D01*
X135296966Y-82473362D01*
X135410566Y-82462754D01*
X135515926Y-82458025D01*
X135667640Y-82454187D01*
X135771291Y-82460370D01*
X135851224Y-82481704D01*
X135931783Y-82523320D01*
X135985643Y-82557012D01*
X136083347Y-82622744D01*
X136134702Y-82676455D01*
X136154616Y-82745039D01*
X136157997Y-82855386D01*
X136158000Y-82867915D01*
X136623951Y-82867915D01*
X136620626Y-82780165D01*
X136603887Y-82632038D01*
X136574238Y-82518970D01*
X136528095Y-82428468D01*
X136461871Y-82348038D01*
X136371983Y-82265187D01*
X136346101Y-82243227D01*
X136234973Y-82152548D01*
X136142838Y-82089880D01*
X136052032Y-82050057D01*
X135944887Y-82027917D01*
X135803737Y-82018295D01*
X135610916Y-82016026D01*
X135568776Y-82016000D01*
X135379337Y-82016830D01*
X135379337Y-82016830D01*
G37*
X135379337Y-82016830D02*
X135245933Y-82021184D01*
X135152030Y-82031850D01*
X135081098Y-82051622D01*
X135016601Y-82083290D01*
X134958604Y-82119017D01*
X134779540Y-82243857D01*
X134651522Y-82364285D01*
X134566523Y-82496237D01*
X134516517Y-82655648D01*
X134493476Y-82858454D01*
X134489060Y-83051140D01*
X134488689Y-83203045D01*
X134493402Y-83319772D01*
X134511617Y-83405942D01*
X134551755Y-83466175D01*
X134622236Y-83505091D01*
X134731479Y-83527311D01*
X134887904Y-83537456D01*
X135099931Y-83540145D01*
X135375980Y-83540000D01*
X136158000Y-83540000D01*
X136158000Y-83634343D01*
X136127229Y-83732782D01*
X136041997Y-83844579D01*
X136034629Y-83852057D01*
X135911257Y-83975428D01*
X135272629Y-83975428D01*
X135041151Y-83975990D01*
X134871076Y-83978435D01*
X134751238Y-83983902D01*
X134670473Y-83993531D01*
X134617615Y-84008461D01*
X134581499Y-84029832D01*
X134561429Y-84048000D01*
X134498421Y-84156870D01*
X134500713Y-84278925D01*
X134540298Y-84358564D01*
X134562790Y-84382780D01*
X134596694Y-84400964D01*
X134652073Y-84414152D01*
X134738988Y-84423380D01*
X134867501Y-84429682D01*
X135047674Y-84434096D01*
X135289571Y-84437656D01*
X135311369Y-84437928D01*
X135587808Y-84439810D01*
X135798591Y-84437516D01*
X135950532Y-84430737D01*
X136050444Y-84419160D01*
X136105139Y-84402477D01*
X136106577Y-84401642D01*
X136239356Y-84309216D01*
X136372783Y-84195023D01*
X136487267Y-84077688D01*
X136563216Y-83975837D01*
X136571915Y-83959264D01*
X136594707Y-83895563D01*
X136610960Y-83807887D01*
X136621591Y-83684678D01*
X136627518Y-83514376D01*
X136629660Y-83285423D01*
X136629715Y-83231571D01*
X136628040Y-82975845D01*
X136623951Y-82867915D01*
X136158000Y-82867915D01*
X136158000Y-83068285D01*
X134960572Y-83068285D01*
X134960572Y-82893975D01*
X134968135Y-82777437D01*
X135001091Y-82694373D01*
X135074839Y-82609044D01*
X135089569Y-82594618D01*
X135158109Y-82532361D01*
X135220027Y-82494254D01*
X135296966Y-82473362D01*
X135410566Y-82462754D01*
X135515926Y-82458025D01*
X135667640Y-82454187D01*
X135771291Y-82460370D01*
X135851224Y-82481704D01*
X135931783Y-82523320D01*
X135985643Y-82557012D01*
X136083347Y-82622744D01*
X136134702Y-82676455D01*
X136154616Y-82745039D01*
X136157997Y-82855386D01*
X136158000Y-82867915D01*
X136623951Y-82867915D01*
X136620626Y-82780165D01*
X136603887Y-82632038D01*
X136574238Y-82518970D01*
X136528095Y-82428468D01*
X136461871Y-82348038D01*
X136371983Y-82265187D01*
X136346101Y-82243227D01*
X136234973Y-82152548D01*
X136142838Y-82089880D01*
X136052032Y-82050057D01*
X135944887Y-82027917D01*
X135803737Y-82018295D01*
X135610916Y-82016026D01*
X135568776Y-82016000D01*
X135379337Y-82016830D01*
G36*
X137960164Y-82128409D02*
X137827030Y-82239669D01*
X137764799Y-82351974D01*
X137771856Y-82469176D01*
X137795482Y-82521485D01*
X137877371Y-82602582D01*
X137990758Y-82628117D01*
X138118896Y-82596741D01*
X138191403Y-82553402D01*
X138247089Y-82517293D01*
X138309205Y-82492534D01*
X138393259Y-82476465D01*
X138514760Y-82466423D01*
X138689217Y-82459749D01*
X138746251Y-82458209D01*
X138946112Y-82455052D01*
X139086438Y-82458337D01*
X139180065Y-82469142D01*
X139239832Y-82488542D01*
X139260429Y-82501348D01*
X139309044Y-82547516D01*
X139299889Y-82586982D01*
X139278572Y-82610163D01*
X139228649Y-82642377D01*
X139124271Y-82697741D01*
X138977457Y-82770284D01*
X138800225Y-82854038D01*
X138643572Y-82925570D01*
X138365440Y-83053215D01*
X138147868Y-83161235D01*
X137983855Y-83256499D01*
X137866398Y-83345876D01*
X137788495Y-83436238D01*
X137743145Y-83534454D01*
X137723347Y-83647393D01*
X137722097Y-83781927D01*
X137724294Y-83827540D01*
X137755571Y-84036127D01*
X137827222Y-84192536D01*
X137946456Y-84309139D01*
X138035071Y-84360856D01*
X138134725Y-84390750D01*
X138289869Y-84414449D01*
X138483655Y-84431565D01*
X138699234Y-84441708D01*
X138919759Y-84444489D01*
X139128380Y-84439519D01*
X139308249Y-84426408D01*
X139442518Y-84404767D01*
X139478143Y-84394202D01*
X139604342Y-84329460D01*
X139716595Y-84239273D01*
X139800400Y-84139407D01*
X139841251Y-84045631D01*
X139839789Y-84001056D01*
X139786331Y-83904568D01*
X139700993Y-83827629D01*
X139610727Y-83794109D01*
X139606017Y-83794000D01*
X139535854Y-83815467D01*
X139448791Y-83867923D01*
X139438706Y-83875642D01*
X139391407Y-83908384D01*
X139337455Y-83931561D01*
X139263230Y-83947232D01*
X139155113Y-83957460D01*
X138999482Y-83964306D01*
X138822139Y-83968949D01*
X138614598Y-83972608D01*
X138467251Y-83971880D01*
X138367796Y-83965694D01*
X138303931Y-83952983D01*
X138263356Y-83932678D01*
X138247643Y-83919030D01*
X138202823Y-83833474D01*
X138197102Y-83762224D01*
X138209190Y-83719387D01*
X138241731Y-83678451D01*
X138305199Y-83632306D01*
X138410068Y-83573841D01*
X138566810Y-83495945D01*
X138643572Y-83459092D01*
X138942289Y-83315774D01*
X139181939Y-83198058D01*
X139369236Y-83100898D01*
X139510896Y-83019247D01*
X139613632Y-82948058D01*
X139684161Y-82882285D01*
X139729195Y-82816880D01*
X139755450Y-82746798D01*
X139769641Y-82666991D01*
X139775505Y-82608345D01*
X139760740Y-82406857D01*
X139680931Y-82235694D01*
X139538387Y-82099781D01*
X139536277Y-82098366D01*
X139487910Y-82068678D01*
X139437136Y-82047123D01*
X139371929Y-82032405D01*
X139280264Y-82023230D01*
X139150113Y-82018302D01*
X138969451Y-82016326D01*
X138771427Y-82016000D01*
X138129871Y-82016000D01*
X137960164Y-82128409D01*
X137960164Y-82128409D01*
G37*
X137960164Y-82128409D02*
X137827030Y-82239669D01*
X137764799Y-82351974D01*
X137771856Y-82469176D01*
X137795482Y-82521485D01*
X137877371Y-82602582D01*
X137990758Y-82628117D01*
X138118896Y-82596741D01*
X138191403Y-82553402D01*
X138247089Y-82517293D01*
X138309205Y-82492534D01*
X138393259Y-82476465D01*
X138514760Y-82466423D01*
X138689217Y-82459749D01*
X138746251Y-82458209D01*
X138946112Y-82455052D01*
X139086438Y-82458337D01*
X139180065Y-82469142D01*
X139239832Y-82488542D01*
X139260429Y-82501348D01*
X139309044Y-82547516D01*
X139299889Y-82586982D01*
X139278572Y-82610163D01*
X139228649Y-82642377D01*
X139124271Y-82697741D01*
X138977457Y-82770284D01*
X138800225Y-82854038D01*
X138643572Y-82925570D01*
X138365440Y-83053215D01*
X138147868Y-83161235D01*
X137983855Y-83256499D01*
X137866398Y-83345876D01*
X137788495Y-83436238D01*
X137743145Y-83534454D01*
X137723347Y-83647393D01*
X137722097Y-83781927D01*
X137724294Y-83827540D01*
X137755571Y-84036127D01*
X137827222Y-84192536D01*
X137946456Y-84309139D01*
X138035071Y-84360856D01*
X138134725Y-84390750D01*
X138289869Y-84414449D01*
X138483655Y-84431565D01*
X138699234Y-84441708D01*
X138919759Y-84444489D01*
X139128380Y-84439519D01*
X139308249Y-84426408D01*
X139442518Y-84404767D01*
X139478143Y-84394202D01*
X139604342Y-84329460D01*
X139716595Y-84239273D01*
X139800400Y-84139407D01*
X139841251Y-84045631D01*
X139839789Y-84001056D01*
X139786331Y-83904568D01*
X139700993Y-83827629D01*
X139610727Y-83794109D01*
X139606017Y-83794000D01*
X139535854Y-83815467D01*
X139448791Y-83867923D01*
X139438706Y-83875642D01*
X139391407Y-83908384D01*
X139337455Y-83931561D01*
X139263230Y-83947232D01*
X139155113Y-83957460D01*
X138999482Y-83964306D01*
X138822139Y-83968949D01*
X138614598Y-83972608D01*
X138467251Y-83971880D01*
X138367796Y-83965694D01*
X138303931Y-83952983D01*
X138263356Y-83932678D01*
X138247643Y-83919030D01*
X138202823Y-83833474D01*
X138197102Y-83762224D01*
X138209190Y-83719387D01*
X138241731Y-83678451D01*
X138305199Y-83632306D01*
X138410068Y-83573841D01*
X138566810Y-83495945D01*
X138643572Y-83459092D01*
X138942289Y-83315774D01*
X139181939Y-83198058D01*
X139369236Y-83100898D01*
X139510896Y-83019247D01*
X139613632Y-82948058D01*
X139684161Y-82882285D01*
X139729195Y-82816880D01*
X139755450Y-82746798D01*
X139769641Y-82666991D01*
X139775505Y-82608345D01*
X139760740Y-82406857D01*
X139680931Y-82235694D01*
X139538387Y-82099781D01*
X139536277Y-82098366D01*
X139487910Y-82068678D01*
X139437136Y-82047123D01*
X139371929Y-82032405D01*
X139280264Y-82023230D01*
X139150113Y-82018302D01*
X138969451Y-82016326D01*
X138771427Y-82016000D01*
X138129871Y-82016000D01*
X137960164Y-82128409D01*
G36*
X141529570Y-82018364D02*
X141413339Y-82027760D01*
X141330504Y-82047644D01*
X141261521Y-82081471D01*
X141236257Y-82097766D01*
X141163139Y-82150081D01*
X141105235Y-82203327D01*
X141060378Y-82266612D01*
X141026404Y-82349044D01*
X141001145Y-82459734D01*
X140982435Y-82607790D01*
X140968109Y-82802321D01*
X140956000Y-83052437D01*
X140945679Y-83319739D01*
X140935797Y-83632363D01*
X140930873Y-83893219D01*
X140930899Y-84097262D01*
X140935871Y-84239444D01*
X140945781Y-84314719D01*
X140946903Y-84318008D01*
X141012986Y-84400397D01*
X141117562Y-84438834D01*
X141236188Y-84425502D01*
X141256862Y-84417132D01*
X141291527Y-84398033D01*
X141319056Y-84370337D01*
X141340679Y-84325626D01*
X141357629Y-84255481D01*
X141371136Y-84151481D01*
X141382430Y-84005209D01*
X141392745Y-83808244D01*
X141403309Y-83552168D01*
X141410216Y-83368382D01*
X141421101Y-83090373D01*
X141432675Y-82876509D01*
X141448003Y-82718403D01*
X141470149Y-82607669D01*
X141502177Y-82535919D01*
X141547153Y-82494765D01*
X141608140Y-82475821D01*
X141688205Y-82470700D01*
X141738225Y-82470715D01*
X141826774Y-82477122D01*
X141913196Y-82499879D01*
X142014753Y-82546206D01*
X142148706Y-82623319D01*
X142242836Y-82681716D01*
X142576385Y-82891574D01*
X142587550Y-83617918D01*
X142591841Y-83866412D01*
X142596709Y-84052340D01*
X142603205Y-84185710D01*
X142612379Y-84276526D01*
X142625279Y-84334793D01*
X142642956Y-84370517D01*
X142666459Y-84393703D01*
X142669150Y-84395702D01*
X142788004Y-84443216D01*
X142908156Y-84424443D01*
X142979715Y-84374571D01*
X143000521Y-84350674D01*
X143016923Y-84319855D01*
X143029443Y-84273875D01*
X143038604Y-84204494D01*
X143044928Y-84103473D01*
X143048936Y-83962575D01*
X143051150Y-83773560D01*
X143052093Y-83528188D01*
X143052286Y-83229186D01*
X143050985Y-82896500D01*
X143047186Y-82614034D01*
X143041047Y-82386594D01*
X143032727Y-82218990D01*
X143022384Y-82116030D01*
X143014724Y-82086186D01*
X142959066Y-82034281D01*
X142856201Y-82016236D01*
X142837738Y-82016000D01*
X142717016Y-82032311D01*
X142642900Y-82090450D01*
X142599477Y-82204221D01*
X142594637Y-82226890D01*
X142571985Y-82340149D01*
X142422064Y-82237606D01*
X142266806Y-82136284D01*
X142141050Y-82071426D01*
X142018805Y-82035071D01*
X141874080Y-82019255D01*
X141698740Y-82016000D01*
X141529570Y-82018364D01*
X141529570Y-82018364D01*
G37*
X141529570Y-82018364D02*
X141413339Y-82027760D01*
X141330504Y-82047644D01*
X141261521Y-82081471D01*
X141236257Y-82097766D01*
X141163139Y-82150081D01*
X141105235Y-82203327D01*
X141060378Y-82266612D01*
X141026404Y-82349044D01*
X141001145Y-82459734D01*
X140982435Y-82607790D01*
X140968109Y-82802321D01*
X140956000Y-83052437D01*
X140945679Y-83319739D01*
X140935797Y-83632363D01*
X140930873Y-83893219D01*
X140930899Y-84097262D01*
X140935871Y-84239444D01*
X140945781Y-84314719D01*
X140946903Y-84318008D01*
X141012986Y-84400397D01*
X141117562Y-84438834D01*
X141236188Y-84425502D01*
X141256862Y-84417132D01*
X141291527Y-84398033D01*
X141319056Y-84370337D01*
X141340679Y-84325626D01*
X141357629Y-84255481D01*
X141371136Y-84151481D01*
X141382430Y-84005209D01*
X141392745Y-83808244D01*
X141403309Y-83552168D01*
X141410216Y-83368382D01*
X141421101Y-83090373D01*
X141432675Y-82876509D01*
X141448003Y-82718403D01*
X141470149Y-82607669D01*
X141502177Y-82535919D01*
X141547153Y-82494765D01*
X141608140Y-82475821D01*
X141688205Y-82470700D01*
X141738225Y-82470715D01*
X141826774Y-82477122D01*
X141913196Y-82499879D01*
X142014753Y-82546206D01*
X142148706Y-82623319D01*
X142242836Y-82681716D01*
X142576385Y-82891574D01*
X142587550Y-83617918D01*
X142591841Y-83866412D01*
X142596709Y-84052340D01*
X142603205Y-84185710D01*
X142612379Y-84276526D01*
X142625279Y-84334793D01*
X142642956Y-84370517D01*
X142666459Y-84393703D01*
X142669150Y-84395702D01*
X142788004Y-84443216D01*
X142908156Y-84424443D01*
X142979715Y-84374571D01*
X143000521Y-84350674D01*
X143016923Y-84319855D01*
X143029443Y-84273875D01*
X143038604Y-84204494D01*
X143044928Y-84103473D01*
X143048936Y-83962575D01*
X143051150Y-83773560D01*
X143052093Y-83528188D01*
X143052286Y-83229186D01*
X143050985Y-82896500D01*
X143047186Y-82614034D01*
X143041047Y-82386594D01*
X143032727Y-82218990D01*
X143022384Y-82116030D01*
X143014724Y-82086186D01*
X142959066Y-82034281D01*
X142856201Y-82016236D01*
X142837738Y-82016000D01*
X142717016Y-82032311D01*
X142642900Y-82090450D01*
X142599477Y-82204221D01*
X142594637Y-82226890D01*
X142571985Y-82340149D01*
X142422064Y-82237606D01*
X142266806Y-82136284D01*
X142141050Y-82071426D01*
X142018805Y-82035071D01*
X141874080Y-82019255D01*
X141698740Y-82016000D01*
X141529570Y-82018364D01*
G36*
X144496736Y-82188357D02*
X144357103Y-82301048D01*
X144259200Y-82404996D01*
X144195834Y-82517022D01*
X144159812Y-82653945D01*
X144143940Y-82832586D01*
X144140914Y-83020336D01*
X144143097Y-83209844D01*
X144150770Y-83339803D01*
X144165522Y-83423135D01*
X144188945Y-83472757D01*
X144197878Y-83482979D01*
X144226735Y-83502250D01*
X144275776Y-83516748D01*
X144354314Y-83527110D01*
X144471662Y-83533972D01*
X144637132Y-83537970D01*
X144860036Y-83539741D01*
X145032449Y-83540000D01*
X145288628Y-83540195D01*
X145481285Y-83541377D01*
X145619468Y-83544441D01*
X145712227Y-83550279D01*
X145768610Y-83559788D01*
X145797667Y-83573860D01*
X145808447Y-83593391D01*
X145810000Y-83616840D01*
X145785419Y-83684657D01*
X145722376Y-83775572D01*
X145669126Y-83834554D01*
X145528252Y-83975428D01*
X144915200Y-83975428D01*
X144656161Y-83977171D01*
X144461097Y-83984238D01*
X144321457Y-83999389D01*
X144228688Y-84025382D01*
X144174239Y-84064977D01*
X144149560Y-84120933D01*
X144146098Y-84196007D01*
X144147944Y-84222970D01*
X144159177Y-84294956D01*
X144185127Y-84349650D01*
X144234662Y-84389389D01*
X144316648Y-84416509D01*
X144439953Y-84433346D01*
X144613444Y-84442236D01*
X144845988Y-84445517D01*
X144993572Y-84445781D01*
X145246330Y-84444275D01*
X145437013Y-84439506D01*
X145576072Y-84430719D01*
X145673961Y-84417154D01*
X145741132Y-84398056D01*
X145758441Y-84390359D01*
X145885222Y-84307234D01*
X146015592Y-84188559D01*
X146131858Y-84054095D01*
X146216327Y-83923602D01*
X146247230Y-83844474D01*
X146261787Y-83738968D01*
X146271799Y-83580377D01*
X146277250Y-83388046D01*
X146278120Y-83181320D01*
X146274392Y-82979543D01*
X146270662Y-82900213D01*
X145810000Y-82900213D01*
X145810000Y-83068285D01*
X144612572Y-83068285D01*
X144612573Y-82877785D01*
X144617236Y-82760866D01*
X144640360Y-82685966D01*
X144695652Y-82622690D01*
X144746752Y-82580224D01*
X144856353Y-82508918D01*
X144977224Y-82471263D01*
X145090223Y-82458024D01*
X145302895Y-82454234D01*
X145466116Y-82481247D01*
X145598166Y-82543800D01*
X145681951Y-82611374D01*
X145763050Y-82698546D01*
X145800465Y-82779696D01*
X145809972Y-82890411D01*
X145810000Y-82900213D01*
X146270662Y-82900213D01*
X146266046Y-82802062D01*
X146253066Y-82668220D01*
X146248370Y-82640008D01*
X146216011Y-82529580D01*
X146157822Y-82428263D01*
X146062701Y-82321856D01*
X145919546Y-82196157D01*
X145870242Y-82156287D01*
X145694626Y-82016000D01*
X144725615Y-82016000D01*
X144496736Y-82188357D01*
X144496736Y-82188357D01*
G37*
X144496736Y-82188357D02*
X144357103Y-82301048D01*
X144259200Y-82404996D01*
X144195834Y-82517022D01*
X144159812Y-82653945D01*
X144143940Y-82832586D01*
X144140914Y-83020336D01*
X144143097Y-83209844D01*
X144150770Y-83339803D01*
X144165522Y-83423135D01*
X144188945Y-83472757D01*
X144197878Y-83482979D01*
X144226735Y-83502250D01*
X144275776Y-83516748D01*
X144354314Y-83527110D01*
X144471662Y-83533972D01*
X144637132Y-83537970D01*
X144860036Y-83539741D01*
X145032449Y-83540000D01*
X145288628Y-83540195D01*
X145481285Y-83541377D01*
X145619468Y-83544441D01*
X145712227Y-83550279D01*
X145768610Y-83559788D01*
X145797667Y-83573860D01*
X145808447Y-83593391D01*
X145810000Y-83616840D01*
X145785419Y-83684657D01*
X145722376Y-83775572D01*
X145669126Y-83834554D01*
X145528252Y-83975428D01*
X144915200Y-83975428D01*
X144656161Y-83977171D01*
X144461097Y-83984238D01*
X144321457Y-83999389D01*
X144228688Y-84025382D01*
X144174239Y-84064977D01*
X144149560Y-84120933D01*
X144146098Y-84196007D01*
X144147944Y-84222970D01*
X144159177Y-84294956D01*
X144185127Y-84349650D01*
X144234662Y-84389389D01*
X144316648Y-84416509D01*
X144439953Y-84433346D01*
X144613444Y-84442236D01*
X144845988Y-84445517D01*
X144993572Y-84445781D01*
X145246330Y-84444275D01*
X145437013Y-84439506D01*
X145576072Y-84430719D01*
X145673961Y-84417154D01*
X145741132Y-84398056D01*
X145758441Y-84390359D01*
X145885222Y-84307234D01*
X146015592Y-84188559D01*
X146131858Y-84054095D01*
X146216327Y-83923602D01*
X146247230Y-83844474D01*
X146261787Y-83738968D01*
X146271799Y-83580377D01*
X146277250Y-83388046D01*
X146278120Y-83181320D01*
X146274392Y-82979543D01*
X146270662Y-82900213D01*
X145810000Y-82900213D01*
X145810000Y-83068285D01*
X144612572Y-83068285D01*
X144612573Y-82877785D01*
X144617236Y-82760866D01*
X144640360Y-82685966D01*
X144695652Y-82622690D01*
X144746752Y-82580224D01*
X144856353Y-82508918D01*
X144977224Y-82471263D01*
X145090223Y-82458024D01*
X145302895Y-82454234D01*
X145466116Y-82481247D01*
X145598166Y-82543800D01*
X145681951Y-82611374D01*
X145763050Y-82698546D01*
X145800465Y-82779696D01*
X145809972Y-82890411D01*
X145810000Y-82900213D01*
X146270662Y-82900213D01*
X146266046Y-82802062D01*
X146253066Y-82668220D01*
X146248370Y-82640008D01*
X146216011Y-82529580D01*
X146157822Y-82428263D01*
X146062701Y-82321856D01*
X145919546Y-82196157D01*
X145870242Y-82156287D01*
X145694626Y-82016000D01*
X144725615Y-82016000D01*
X144496736Y-82188357D01*
G36*
X147584559Y-82133316D02*
X147481119Y-82223708D01*
X147428477Y-82305424D01*
X147413091Y-82374710D01*
X147429723Y-82499333D01*
X147495844Y-82587058D01*
X147594823Y-82630903D01*
X147710032Y-82623885D01*
X147824838Y-82559018D01*
X147833409Y-82551214D01*
X147878399Y-82515321D01*
X147932963Y-82490907D01*
X148012283Y-82475144D01*
X148131544Y-82465203D01*
X148305926Y-82458258D01*
X148337619Y-82457305D01*
X148563789Y-82452910D01*
X148726539Y-82456153D01*
X148834774Y-82468677D01*
X148897398Y-82492125D01*
X148923315Y-82528141D01*
X148923856Y-82565496D01*
X148905812Y-82598929D01*
X148856084Y-82640215D01*
X148767193Y-82693536D01*
X148631661Y-82763073D01*
X148442012Y-82853005D01*
X148263609Y-82934611D01*
X148040931Y-83038422D01*
X147842842Y-83136433D01*
X147680373Y-83222818D01*
X147564554Y-83291752D01*
X147511566Y-83331731D01*
X147406080Y-83485192D01*
X147351830Y-83670008D01*
X147348436Y-83866521D01*
X147395518Y-84055073D01*
X147492694Y-84216005D01*
X147529422Y-84253991D01*
X147639760Y-84335734D01*
X147761630Y-84397479D01*
X147793217Y-84408003D01*
X147886343Y-84422707D01*
X148033722Y-84433396D01*
X148217872Y-84440061D01*
X148421310Y-84442692D01*
X148626552Y-84441281D01*
X148816116Y-84435817D01*
X148972519Y-84426292D01*
X149078278Y-84412696D01*
X149094620Y-84408700D01*
X149199647Y-84359162D01*
X149308505Y-84278723D01*
X149402430Y-84185093D01*
X149462659Y-84095985D01*
X149474857Y-84049792D01*
X149447205Y-83920659D01*
X149372754Y-83837983D01*
X149264266Y-83806758D01*
X149134502Y-83831975D01*
X149044302Y-83881337D01*
X148985014Y-83919737D01*
X148927696Y-83945972D01*
X148857270Y-83962350D01*
X148758659Y-83971180D01*
X148616784Y-83974769D01*
X148429693Y-83975428D01*
X148231765Y-83974425D01*
X148093029Y-83970243D01*
X148000120Y-83961124D01*
X147939673Y-83945307D01*
X147898321Y-83921035D01*
X147878286Y-83902857D01*
X147827003Y-83840083D01*
X147809563Y-83781450D01*
X147831313Y-83722229D01*
X147897604Y-83657693D01*
X148013784Y-83583112D01*
X148185202Y-83493757D01*
X148417207Y-83384901D01*
X148513286Y-83341510D01*
X148762370Y-83228647D01*
X148953418Y-83138726D01*
X149095278Y-83066530D01*
X149196800Y-83006841D01*
X149266832Y-82954441D01*
X149314222Y-82904112D01*
X149347819Y-82850636D01*
X149348737Y-82848870D01*
X149387416Y-82723148D01*
X149400557Y-82566416D01*
X149388378Y-82410438D01*
X149351097Y-82286976D01*
X149344795Y-82275598D01*
X149293485Y-82196209D01*
X149239928Y-82136289D01*
X149173323Y-82092888D01*
X149082872Y-82063060D01*
X148957775Y-82043857D01*
X148787233Y-82032330D01*
X148560446Y-82025533D01*
X148419130Y-82022929D01*
X147744403Y-82011715D01*
X147584559Y-82133316D01*
X147584559Y-82133316D01*
G37*
X147584559Y-82133316D02*
X147481119Y-82223708D01*
X147428477Y-82305424D01*
X147413091Y-82374710D01*
X147429723Y-82499333D01*
X147495844Y-82587058D01*
X147594823Y-82630903D01*
X147710032Y-82623885D01*
X147824838Y-82559018D01*
X147833409Y-82551214D01*
X147878399Y-82515321D01*
X147932963Y-82490907D01*
X148012283Y-82475144D01*
X148131544Y-82465203D01*
X148305926Y-82458258D01*
X148337619Y-82457305D01*
X148563789Y-82452910D01*
X148726539Y-82456153D01*
X148834774Y-82468677D01*
X148897398Y-82492125D01*
X148923315Y-82528141D01*
X148923856Y-82565496D01*
X148905812Y-82598929D01*
X148856084Y-82640215D01*
X148767193Y-82693536D01*
X148631661Y-82763073D01*
X148442012Y-82853005D01*
X148263609Y-82934611D01*
X148040931Y-83038422D01*
X147842842Y-83136433D01*
X147680373Y-83222818D01*
X147564554Y-83291752D01*
X147511566Y-83331731D01*
X147406080Y-83485192D01*
X147351830Y-83670008D01*
X147348436Y-83866521D01*
X147395518Y-84055073D01*
X147492694Y-84216005D01*
X147529422Y-84253991D01*
X147639760Y-84335734D01*
X147761630Y-84397479D01*
X147793217Y-84408003D01*
X147886343Y-84422707D01*
X148033722Y-84433396D01*
X148217872Y-84440061D01*
X148421310Y-84442692D01*
X148626552Y-84441281D01*
X148816116Y-84435817D01*
X148972519Y-84426292D01*
X149078278Y-84412696D01*
X149094620Y-84408700D01*
X149199647Y-84359162D01*
X149308505Y-84278723D01*
X149402430Y-84185093D01*
X149462659Y-84095985D01*
X149474857Y-84049792D01*
X149447205Y-83920659D01*
X149372754Y-83837983D01*
X149264266Y-83806758D01*
X149134502Y-83831975D01*
X149044302Y-83881337D01*
X148985014Y-83919737D01*
X148927696Y-83945972D01*
X148857270Y-83962350D01*
X148758659Y-83971180D01*
X148616784Y-83974769D01*
X148429693Y-83975428D01*
X148231765Y-83974425D01*
X148093029Y-83970243D01*
X148000120Y-83961124D01*
X147939673Y-83945307D01*
X147898321Y-83921035D01*
X147878286Y-83902857D01*
X147827003Y-83840083D01*
X147809563Y-83781450D01*
X147831313Y-83722229D01*
X147897604Y-83657693D01*
X148013784Y-83583112D01*
X148185202Y-83493757D01*
X148417207Y-83384901D01*
X148513286Y-83341510D01*
X148762370Y-83228647D01*
X148953418Y-83138726D01*
X149095278Y-83066530D01*
X149196800Y-83006841D01*
X149266832Y-82954441D01*
X149314222Y-82904112D01*
X149347819Y-82850636D01*
X149348737Y-82848870D01*
X149387416Y-82723148D01*
X149400557Y-82566416D01*
X149388378Y-82410438D01*
X149351097Y-82286976D01*
X149344795Y-82275598D01*
X149293485Y-82196209D01*
X149239928Y-82136289D01*
X149173323Y-82092888D01*
X149082872Y-82063060D01*
X148957775Y-82043857D01*
X148787233Y-82032330D01*
X148560446Y-82025533D01*
X148419130Y-82022929D01*
X147744403Y-82011715D01*
X147584559Y-82133316D01*
G36*
X139969902Y-85461168D02*
X139941637Y-85534632D01*
X139938922Y-85557095D01*
X139960009Y-85680660D01*
X140035432Y-85791076D01*
X140147154Y-85869859D01*
X140272153Y-85898571D01*
X140364188Y-85889330D01*
X140409328Y-85852319D01*
X140423833Y-85811765D01*
X140420558Y-85690388D01*
X140360916Y-85577068D01*
X140260738Y-85487226D01*
X140135855Y-85436281D01*
X140034946Y-85432953D01*
X139969902Y-85461168D01*
X139969902Y-85461168D01*
G37*
X139969902Y-85461168D02*
X139941637Y-85534632D01*
X139938922Y-85557095D01*
X139960009Y-85680660D01*
X140035432Y-85791076D01*
X140147154Y-85869859D01*
X140272153Y-85898571D01*
X140364188Y-85889330D01*
X140409328Y-85852319D01*
X140423833Y-85811765D01*
X140420558Y-85690388D01*
X140360916Y-85577068D01*
X140260738Y-85487226D01*
X140135855Y-85436281D01*
X140034946Y-85432953D01*
X139969902Y-85461168D01*
G36*
X142688912Y-85432284D02*
X142622643Y-85457339D01*
X142592865Y-85522231D01*
X142587310Y-85563386D01*
X142603528Y-85671976D01*
X142663281Y-85768970D01*
X142751022Y-85845430D01*
X142851202Y-85892419D01*
X142948273Y-85900998D01*
X143026687Y-85862230D01*
X143050370Y-85829580D01*
X143068696Y-85727190D01*
X143031236Y-85620565D01*
X142952050Y-85525164D01*
X142845202Y-85456441D01*
X142724753Y-85429853D01*
X142688912Y-85432284D01*
X142688912Y-85432284D01*
G37*
X142688912Y-85432284D02*
X142622643Y-85457339D01*
X142592865Y-85522231D01*
X142587310Y-85563386D01*
X142603528Y-85671976D01*
X142663281Y-85768970D01*
X142751022Y-85845430D01*
X142851202Y-85892419D01*
X142948273Y-85900998D01*
X143026687Y-85862230D01*
X143050370Y-85829580D01*
X143068696Y-85727190D01*
X143031236Y-85620565D01*
X142952050Y-85525164D01*
X142845202Y-85456441D01*
X142724753Y-85429853D01*
X142688912Y-85432284D01*
G36*
X138503423Y-85054130D02*
X138408210Y-85125525D01*
X138369486Y-85230114D01*
X138393573Y-85356116D01*
X138434179Y-85427854D01*
X138459401Y-85469722D01*
X138446606Y-85473729D01*
X138388870Y-85437297D01*
X138313112Y-85382765D01*
X138098075Y-85242318D01*
X137880972Y-85131485D01*
X137678714Y-85057597D01*
X137508214Y-85027986D01*
X137494092Y-85027743D01*
X137346151Y-85045457D01*
X137255344Y-85102790D01*
X137214390Y-85205930D01*
X137210286Y-85269066D01*
X137218725Y-85343518D01*
X137251187Y-85414835D01*
X137318385Y-85500271D01*
X137418929Y-85605003D01*
X137564009Y-85732708D01*
X137748016Y-85869767D01*
X137948601Y-86001568D01*
X138143414Y-86113500D01*
X138310105Y-86190952D01*
X138321911Y-86195350D01*
X138393878Y-86242696D01*
X138475432Y-86326778D01*
X138553671Y-86429244D01*
X138615694Y-86531738D01*
X138648599Y-86615906D01*
X138646076Y-86656520D01*
X138598370Y-86669264D01*
X138497050Y-86638326D01*
X138340970Y-86563243D01*
X138155382Y-86459099D01*
X138019322Y-86388119D01*
X137917714Y-86351974D01*
X137857673Y-86350518D01*
X137846314Y-86383598D01*
X137890752Y-86451068D01*
X137902906Y-86464397D01*
X137998483Y-86542469D01*
X138140934Y-86630671D01*
X138311237Y-86720097D01*
X138490368Y-86801843D01*
X138659304Y-86867003D01*
X138799022Y-86906673D01*
X138864571Y-86914571D01*
X139016936Y-86889383D01*
X139119770Y-86817065D01*
X139167176Y-86702484D01*
X139169715Y-86662750D01*
X139169715Y-86556072D01*
X139477335Y-86719717D01*
X139722224Y-86833193D01*
X139933856Y-86896596D01*
X140107023Y-86908972D01*
X140236518Y-86869371D01*
X140249215Y-86860835D01*
X140297363Y-86813545D01*
X140322133Y-86746624D01*
X140330502Y-86637191D01*
X140330514Y-86635635D01*
X139822857Y-86635635D01*
X139811348Y-86666659D01*
X139771334Y-86671114D01*
X139694583Y-86646269D01*
X139572865Y-86589394D01*
X139397950Y-86497760D01*
X139383131Y-86489774D01*
X139243468Y-86407383D01*
X139152132Y-86332275D01*
X139089353Y-86246643D01*
X139068060Y-86205971D01*
X138995189Y-86079594D01*
X138903197Y-85949348D01*
X138874001Y-85913669D01*
X138116579Y-85913669D01*
X138098914Y-85915853D01*
X138091024Y-85911771D01*
X138013055Y-85857213D01*
X137904003Y-85765815D01*
X137782514Y-85653586D01*
X137730161Y-85601969D01*
X137604634Y-85471304D01*
X137531266Y-85386379D01*
X137506746Y-85346135D01*
X137527768Y-85349513D01*
X137591023Y-85395453D01*
X137693202Y-85482898D01*
X137830997Y-85610787D01*
X137867499Y-85645927D01*
X137998730Y-85776159D01*
X138082470Y-85866255D01*
X138116579Y-85913669D01*
X138874001Y-85913669D01*
X138872787Y-85912186D01*
X138752429Y-85772599D01*
X138861286Y-85843361D01*
X138985367Y-85920856D01*
X139126466Y-86004112D01*
X139269145Y-86084636D01*
X139397969Y-86153934D01*
X139497502Y-86203513D01*
X139552307Y-86224878D01*
X139555125Y-86225142D01*
X139597629Y-86254245D01*
X139658652Y-86327733D01*
X139724672Y-86424874D01*
X139782169Y-86524938D01*
X139817621Y-86607194D01*
X139822857Y-86635635D01*
X140330514Y-86635635D01*
X140330857Y-86593067D01*
X140309063Y-86397469D01*
X140239884Y-86206610D01*
X140117627Y-86009657D01*
X140024762Y-85899937D01*
X139274574Y-85899937D01*
X139262455Y-85902487D01*
X139208086Y-85869618D01*
X139206000Y-85868234D01*
X139096174Y-85785482D01*
X138966004Y-85673420D01*
X138845269Y-85557887D01*
X138735095Y-85440818D01*
X138675906Y-85368555D01*
X138663291Y-85339020D01*
X138692843Y-85350134D01*
X138760152Y-85399817D01*
X138860809Y-85485992D01*
X138990406Y-85606580D01*
X139030003Y-85644980D01*
X139161091Y-85774663D01*
X139241700Y-85858489D01*
X139274574Y-85899937D01*
X140024762Y-85899937D01*
X139936599Y-85795774D01*
X139881995Y-85738902D01*
X139616794Y-85492790D01*
X139352209Y-85294103D01*
X139096075Y-85147357D01*
X138856227Y-85057073D01*
X138648806Y-85027714D01*
X138503423Y-85054130D01*
X138503423Y-85054130D01*
G37*
X138503423Y-85054130D02*
X138408210Y-85125525D01*
X138369486Y-85230114D01*
X138393573Y-85356116D01*
X138434179Y-85427854D01*
X138459401Y-85469722D01*
X138446606Y-85473729D01*
X138388870Y-85437297D01*
X138313112Y-85382765D01*
X138098075Y-85242318D01*
X137880972Y-85131485D01*
X137678714Y-85057597D01*
X137508214Y-85027986D01*
X137494092Y-85027743D01*
X137346151Y-85045457D01*
X137255344Y-85102790D01*
X137214390Y-85205930D01*
X137210286Y-85269066D01*
X137218725Y-85343518D01*
X137251187Y-85414835D01*
X137318385Y-85500271D01*
X137418929Y-85605003D01*
X137564009Y-85732708D01*
X137748016Y-85869767D01*
X137948601Y-86001568D01*
X138143414Y-86113500D01*
X138310105Y-86190952D01*
X138321911Y-86195350D01*
X138393878Y-86242696D01*
X138475432Y-86326778D01*
X138553671Y-86429244D01*
X138615694Y-86531738D01*
X138648599Y-86615906D01*
X138646076Y-86656520D01*
X138598370Y-86669264D01*
X138497050Y-86638326D01*
X138340970Y-86563243D01*
X138155382Y-86459099D01*
X138019322Y-86388119D01*
X137917714Y-86351974D01*
X137857673Y-86350518D01*
X137846314Y-86383598D01*
X137890752Y-86451068D01*
X137902906Y-86464397D01*
X137998483Y-86542469D01*
X138140934Y-86630671D01*
X138311237Y-86720097D01*
X138490368Y-86801843D01*
X138659304Y-86867003D01*
X138799022Y-86906673D01*
X138864571Y-86914571D01*
X139016936Y-86889383D01*
X139119770Y-86817065D01*
X139167176Y-86702484D01*
X139169715Y-86662750D01*
X139169715Y-86556072D01*
X139477335Y-86719717D01*
X139722224Y-86833193D01*
X139933856Y-86896596D01*
X140107023Y-86908972D01*
X140236518Y-86869371D01*
X140249215Y-86860835D01*
X140297363Y-86813545D01*
X140322133Y-86746624D01*
X140330502Y-86637191D01*
X140330514Y-86635635D01*
X139822857Y-86635635D01*
X139811348Y-86666659D01*
X139771334Y-86671114D01*
X139694583Y-86646269D01*
X139572865Y-86589394D01*
X139397950Y-86497760D01*
X139383131Y-86489774D01*
X139243468Y-86407383D01*
X139152132Y-86332275D01*
X139089353Y-86246643D01*
X139068060Y-86205971D01*
X138995189Y-86079594D01*
X138903197Y-85949348D01*
X138874001Y-85913669D01*
X138116579Y-85913669D01*
X138098914Y-85915853D01*
X138091024Y-85911771D01*
X138013055Y-85857213D01*
X137904003Y-85765815D01*
X137782514Y-85653586D01*
X137730161Y-85601969D01*
X137604634Y-85471304D01*
X137531266Y-85386379D01*
X137506746Y-85346135D01*
X137527768Y-85349513D01*
X137591023Y-85395453D01*
X137693202Y-85482898D01*
X137830997Y-85610787D01*
X137867499Y-85645927D01*
X137998730Y-85776159D01*
X138082470Y-85866255D01*
X138116579Y-85913669D01*
X138874001Y-85913669D01*
X138872787Y-85912186D01*
X138752429Y-85772599D01*
X138861286Y-85843361D01*
X138985367Y-85920856D01*
X139126466Y-86004112D01*
X139269145Y-86084636D01*
X139397969Y-86153934D01*
X139497502Y-86203513D01*
X139552307Y-86224878D01*
X139555125Y-86225142D01*
X139597629Y-86254245D01*
X139658652Y-86327733D01*
X139724672Y-86424874D01*
X139782169Y-86524938D01*
X139817621Y-86607194D01*
X139822857Y-86635635D01*
X140330514Y-86635635D01*
X140330857Y-86593067D01*
X140309063Y-86397469D01*
X140239884Y-86206610D01*
X140117627Y-86009657D01*
X140024762Y-85899937D01*
X139274574Y-85899937D01*
X139262455Y-85902487D01*
X139208086Y-85869618D01*
X139206000Y-85868234D01*
X139096174Y-85785482D01*
X138966004Y-85673420D01*
X138845269Y-85557887D01*
X138735095Y-85440818D01*
X138675906Y-85368555D01*
X138663291Y-85339020D01*
X138692843Y-85350134D01*
X138760152Y-85399817D01*
X138860809Y-85485992D01*
X138990406Y-85606580D01*
X139030003Y-85644980D01*
X139161091Y-85774663D01*
X139241700Y-85858489D01*
X139274574Y-85899937D01*
X140024762Y-85899937D01*
X139936599Y-85795774D01*
X139881995Y-85738902D01*
X139616794Y-85492790D01*
X139352209Y-85294103D01*
X139096075Y-85147357D01*
X138856227Y-85057073D01*
X138648806Y-85027714D01*
X138503423Y-85054130D01*
G36*
X136868766Y-85696006D02*
X136749783Y-85745666D01*
X136685190Y-85829404D01*
X136676785Y-85931288D01*
X136726369Y-86035388D01*
X136821188Y-86117275D01*
X136923109Y-86165056D01*
X137020004Y-86187760D01*
X137093923Y-86184511D01*
X137126915Y-86154431D01*
X137123682Y-86132055D01*
X137130162Y-86095720D01*
X137194291Y-86102965D01*
X137316202Y-86153819D01*
X137391715Y-86191862D01*
X137518715Y-86258221D01*
X137346358Y-86259825D01*
X137242051Y-86264184D01*
X137191284Y-86281466D01*
X137175077Y-86321811D01*
X137174000Y-86351915D01*
X137199876Y-86433778D01*
X137283550Y-86520374D01*
X137321496Y-86549247D01*
X137415637Y-86614469D01*
X137489457Y-86660381D01*
X137511996Y-86671507D01*
X137537563Y-86700535D01*
X137531936Y-86711930D01*
X137492544Y-86706199D01*
X137403426Y-86671504D01*
X137278490Y-86613771D01*
X137155064Y-86551298D01*
X136985860Y-86465778D01*
X136869507Y-86415432D01*
X136797260Y-86397058D01*
X136760843Y-86406966D01*
X136754016Y-86454114D01*
X136810307Y-86519102D01*
X136931412Y-86603215D01*
X137119027Y-86707735D01*
X137237643Y-86767722D01*
X137446374Y-86859847D01*
X137631194Y-86920415D01*
X137736909Y-86940462D01*
X137851757Y-86948325D01*
X137919725Y-86937326D01*
X137965446Y-86900948D01*
X137985194Y-86874748D01*
X138029851Y-86788205D01*
X138044858Y-86722277D01*
X138017524Y-86650656D01*
X137947751Y-86560097D01*
X137853879Y-86471315D01*
X137772715Y-86414897D01*
X137724159Y-86382468D01*
X137730922Y-86354402D01*
X137781786Y-86315483D01*
X137849713Y-86235241D01*
X137856239Y-86143382D01*
X137814964Y-86055809D01*
X137053048Y-86055809D01*
X137048067Y-86077381D01*
X137028858Y-86080000D01*
X136998990Y-86066723D01*
X137004667Y-86055809D01*
X137047730Y-86051466D01*
X137053048Y-86055809D01*
X137814964Y-86055809D01*
X137810339Y-86045997D01*
X137720992Y-85949177D01*
X137597174Y-85859012D01*
X137447861Y-85781592D01*
X137282030Y-85723009D01*
X137108658Y-85689354D01*
X136936722Y-85686715D01*
X136868766Y-85696006D01*
X136868766Y-85696006D01*
G37*
X136868766Y-85696006D02*
X136749783Y-85745666D01*
X136685190Y-85829404D01*
X136676785Y-85931288D01*
X136726369Y-86035388D01*
X136821188Y-86117275D01*
X136923109Y-86165056D01*
X137020004Y-86187760D01*
X137093923Y-86184511D01*
X137126915Y-86154431D01*
X137123682Y-86132055D01*
X137130162Y-86095720D01*
X137194291Y-86102965D01*
X137316202Y-86153819D01*
X137391715Y-86191862D01*
X137518715Y-86258221D01*
X137346358Y-86259825D01*
X137242051Y-86264184D01*
X137191284Y-86281466D01*
X137175077Y-86321811D01*
X137174000Y-86351915D01*
X137199876Y-86433778D01*
X137283550Y-86520374D01*
X137321496Y-86549247D01*
X137415637Y-86614469D01*
X137489457Y-86660381D01*
X137511996Y-86671507D01*
X137537563Y-86700535D01*
X137531936Y-86711930D01*
X137492544Y-86706199D01*
X137403426Y-86671504D01*
X137278490Y-86613771D01*
X137155064Y-86551298D01*
X136985860Y-86465778D01*
X136869507Y-86415432D01*
X136797260Y-86397058D01*
X136760843Y-86406966D01*
X136754016Y-86454114D01*
X136810307Y-86519102D01*
X136931412Y-86603215D01*
X137119027Y-86707735D01*
X137237643Y-86767722D01*
X137446374Y-86859847D01*
X137631194Y-86920415D01*
X137736909Y-86940462D01*
X137851757Y-86948325D01*
X137919725Y-86937326D01*
X137965446Y-86900948D01*
X137985194Y-86874748D01*
X138029851Y-86788205D01*
X138044858Y-86722277D01*
X138017524Y-86650656D01*
X137947751Y-86560097D01*
X137853879Y-86471315D01*
X137772715Y-86414897D01*
X137724159Y-86382468D01*
X137730922Y-86354402D01*
X137781786Y-86315483D01*
X137849713Y-86235241D01*
X137856239Y-86143382D01*
X137814964Y-86055809D01*
X137053048Y-86055809D01*
X137048067Y-86077381D01*
X137028858Y-86080000D01*
X136998990Y-86066723D01*
X137004667Y-86055809D01*
X137047730Y-86051466D01*
X137053048Y-86055809D01*
X137814964Y-86055809D01*
X137810339Y-86045997D01*
X137720992Y-85949177D01*
X137597174Y-85859012D01*
X137447861Y-85781592D01*
X137282030Y-85723009D01*
X137108658Y-85689354D01*
X136936722Y-85686715D01*
X136868766Y-85696006D01*
G36*
X140424183Y-85986988D02*
X140383800Y-86008662D01*
X140339680Y-86089428D01*
X140353150Y-86206093D01*
X140421773Y-86353773D01*
X140543110Y-86527583D01*
X140714725Y-86722636D01*
X140766231Y-86775179D01*
X140911295Y-86905635D01*
X141027206Y-86975196D01*
X141120214Y-86986320D01*
X141194458Y-86943600D01*
X141223479Y-86880279D01*
X141237708Y-86781934D01*
X141238000Y-86766133D01*
X141212614Y-86638279D01*
X141143694Y-86499867D01*
X141042102Y-86360527D01*
X140918699Y-86229889D01*
X140784345Y-86117586D01*
X140649900Y-86033248D01*
X140526226Y-85986505D01*
X140424183Y-85986988D01*
X140424183Y-85986988D01*
G37*
X140424183Y-85986988D02*
X140383800Y-86008662D01*
X140339680Y-86089428D01*
X140353150Y-86206093D01*
X140421773Y-86353773D01*
X140543110Y-86527583D01*
X140714725Y-86722636D01*
X140766231Y-86775179D01*
X140911295Y-86905635D01*
X141027206Y-86975196D01*
X141120214Y-86986320D01*
X141194458Y-86943600D01*
X141223479Y-86880279D01*
X141237708Y-86781934D01*
X141238000Y-86766133D01*
X141212614Y-86638279D01*
X141143694Y-86499867D01*
X141042102Y-86360527D01*
X140918699Y-86229889D01*
X140784345Y-86117586D01*
X140649900Y-86033248D01*
X140526226Y-85986505D01*
X140424183Y-85986988D01*
G36*
X145434042Y-85034930D02*
X145365416Y-85062286D01*
X145317773Y-85116954D01*
X145276699Y-85218053D01*
X145288436Y-85324621D01*
X145356515Y-85445126D01*
X145484468Y-85588039D01*
X145534017Y-85635576D01*
X145752610Y-85813833D01*
X146034735Y-86000544D01*
X146372621Y-86190649D01*
X146441109Y-86226036D01*
X146506020Y-86277755D01*
X146578519Y-86362506D01*
X146647443Y-86462503D01*
X146701630Y-86559957D01*
X146729918Y-86637080D01*
X146722938Y-86675132D01*
X146676597Y-86669857D01*
X146584291Y-86637023D01*
X146464062Y-86583279D01*
X146435195Y-86569079D01*
X146284511Y-86485924D01*
X146190181Y-86412895D01*
X146138955Y-86339579D01*
X146136789Y-86334523D01*
X146050728Y-86196868D01*
X145918857Y-86066993D01*
X145759408Y-85956126D01*
X145590611Y-85875496D01*
X145430696Y-85836329D01*
X145333350Y-85839687D01*
X145207515Y-85884678D01*
X145134006Y-85952294D01*
X145119083Y-86031446D01*
X145169002Y-86111045D01*
X145176538Y-86117562D01*
X145210123Y-86171215D01*
X145198022Y-86198493D01*
X145139184Y-86211373D01*
X145038458Y-86191054D01*
X144914928Y-86143701D01*
X144787673Y-86075479D01*
X144758363Y-86056460D01*
X144614359Y-85984851D01*
X144494936Y-85980713D01*
X144415592Y-86028163D01*
X144368663Y-86092802D01*
X144370897Y-86157109D01*
X144426439Y-86237054D01*
X144485572Y-86297714D01*
X144560154Y-86379260D01*
X144605830Y-86447040D01*
X144612572Y-86469050D01*
X144589591Y-86495046D01*
X144525892Y-86472256D01*
X144429338Y-86405801D01*
X144307791Y-86300805D01*
X144214668Y-86209795D01*
X144091201Y-86092966D01*
X143995743Y-86028949D01*
X143913729Y-86011785D01*
X143830595Y-86035514D01*
X143811901Y-86044991D01*
X143751602Y-86110734D01*
X143755815Y-86207864D01*
X143824326Y-86334943D01*
X143862209Y-86384691D01*
X143936501Y-86478831D01*
X143993308Y-86555011D01*
X144011136Y-86581587D01*
X144005921Y-86593506D01*
X143958303Y-86567512D01*
X143880805Y-86513120D01*
X143785951Y-86439847D01*
X143686266Y-86357207D01*
X143594274Y-86274718D01*
X143549585Y-86230903D01*
X143421251Y-86118574D01*
X143289094Y-86035341D01*
X143169012Y-85988832D01*
X143076903Y-85986680D01*
X143058238Y-85995098D01*
X143010654Y-86056758D01*
X142987061Y-86139468D01*
X143005677Y-86232639D01*
X143068593Y-86356574D01*
X143164141Y-86497714D01*
X143280653Y-86642497D01*
X143406460Y-86777362D01*
X143529897Y-86888751D01*
X143639293Y-86963101D01*
X143716419Y-86987142D01*
X143819800Y-86959118D01*
X143878878Y-86884484D01*
X143886858Y-86834742D01*
X143887064Y-86793649D01*
X143897869Y-86776855D01*
X143934552Y-86786345D01*
X144012390Y-86824105D01*
X144083507Y-86860294D01*
X144213375Y-86912991D01*
X144343912Y-86945645D01*
X144400316Y-86950857D01*
X144494827Y-86943228D01*
X144541884Y-86911214D01*
X144561365Y-86860224D01*
X144571253Y-86769544D01*
X144563195Y-86715081D01*
X144551032Y-86679556D01*
X144557814Y-86666760D01*
X144595739Y-86680003D01*
X144677007Y-86722598D01*
X144760989Y-86768771D01*
X144915940Y-86844189D01*
X145029366Y-86872915D01*
X145114130Y-86856309D01*
X145169377Y-86811928D01*
X145223015Y-86702089D01*
X145211165Y-86568023D01*
X145157255Y-86451928D01*
X145112522Y-86375230D01*
X145105708Y-86342061D01*
X145136663Y-86334169D01*
X145156276Y-86334000D01*
X145223535Y-86367406D01*
X145309091Y-86464083D01*
X145350619Y-86524500D01*
X145505874Y-86733641D01*
X145657464Y-86874440D01*
X145809511Y-86950705D01*
X145812492Y-86951571D01*
X145924876Y-86979648D01*
X145998807Y-86979984D01*
X146064396Y-86948617D01*
X146113535Y-86911937D01*
X146193071Y-86812976D01*
X146209143Y-86737139D01*
X146209143Y-86700175D01*
X145769381Y-86700175D01*
X145740893Y-86709812D01*
X145677653Y-86668742D01*
X145585538Y-86576803D01*
X145548390Y-86533571D01*
X145474639Y-86436573D01*
X145418544Y-86347862D01*
X145389446Y-86284001D01*
X145394908Y-86261428D01*
X145455625Y-86287075D01*
X145539869Y-86351752D01*
X145626794Y-86437063D01*
X145695555Y-86524611D01*
X145698585Y-86529432D01*
X145757238Y-86639995D01*
X145769381Y-86700175D01*
X146209143Y-86700175D01*
X146209143Y-86637546D01*
X146464053Y-86764077D01*
X146677144Y-86853930D01*
X146866854Y-86902834D01*
X147023211Y-86909586D01*
X147136244Y-86872985D01*
X147164776Y-86848562D01*
X147213271Y-86764299D01*
X147247337Y-86651062D01*
X147250836Y-86629356D01*
X147240225Y-86457626D01*
X147171698Y-86266119D01*
X147054210Y-86063251D01*
X146948001Y-85924458D01*
X146220842Y-85924458D01*
X146197535Y-85924203D01*
X146184334Y-85918313D01*
X146102497Y-85867072D01*
X145990569Y-85781642D01*
X145870178Y-85678744D01*
X145847076Y-85657622D01*
X145725509Y-85540068D01*
X145635013Y-85442703D01*
X145580768Y-85372474D01*
X145567959Y-85336325D01*
X145601766Y-85341204D01*
X145616754Y-85348901D01*
X145668530Y-85387653D01*
X145759083Y-85465394D01*
X145875209Y-85570472D01*
X145991429Y-85679506D01*
X146119992Y-85804835D01*
X146195729Y-85885577D01*
X146220842Y-85924458D01*
X146948001Y-85924458D01*
X146896716Y-85857440D01*
X146708172Y-85657103D01*
X146497532Y-85470656D01*
X146273751Y-85306518D01*
X146045785Y-85173105D01*
X145822588Y-85078834D01*
X145613115Y-85032123D01*
X145547765Y-85028575D01*
X145434042Y-85034930D01*
X145434042Y-85034930D01*
G37*
X145434042Y-85034930D02*
X145365416Y-85062286D01*
X145317773Y-85116954D01*
X145276699Y-85218053D01*
X145288436Y-85324621D01*
X145356515Y-85445126D01*
X145484468Y-85588039D01*
X145534017Y-85635576D01*
X145752610Y-85813833D01*
X146034735Y-86000544D01*
X146372621Y-86190649D01*
X146441109Y-86226036D01*
X146506020Y-86277755D01*
X146578519Y-86362506D01*
X146647443Y-86462503D01*
X146701630Y-86559957D01*
X146729918Y-86637080D01*
X146722938Y-86675132D01*
X146676597Y-86669857D01*
X146584291Y-86637023D01*
X146464062Y-86583279D01*
X146435195Y-86569079D01*
X146284511Y-86485924D01*
X146190181Y-86412895D01*
X146138955Y-86339579D01*
X146136789Y-86334523D01*
X146050728Y-86196868D01*
X145918857Y-86066993D01*
X145759408Y-85956126D01*
X145590611Y-85875496D01*
X145430696Y-85836329D01*
X145333350Y-85839687D01*
X145207515Y-85884678D01*
X145134006Y-85952294D01*
X145119083Y-86031446D01*
X145169002Y-86111045D01*
X145176538Y-86117562D01*
X145210123Y-86171215D01*
X145198022Y-86198493D01*
X145139184Y-86211373D01*
X145038458Y-86191054D01*
X144914928Y-86143701D01*
X144787673Y-86075479D01*
X144758363Y-86056460D01*
X144614359Y-85984851D01*
X144494936Y-85980713D01*
X144415592Y-86028163D01*
X144368663Y-86092802D01*
X144370897Y-86157109D01*
X144426439Y-86237054D01*
X144485572Y-86297714D01*
X144560154Y-86379260D01*
X144605830Y-86447040D01*
X144612572Y-86469050D01*
X144589591Y-86495046D01*
X144525892Y-86472256D01*
X144429338Y-86405801D01*
X144307791Y-86300805D01*
X144214668Y-86209795D01*
X144091201Y-86092966D01*
X143995743Y-86028949D01*
X143913729Y-86011785D01*
X143830595Y-86035514D01*
X143811901Y-86044991D01*
X143751602Y-86110734D01*
X143755815Y-86207864D01*
X143824326Y-86334943D01*
X143862209Y-86384691D01*
X143936501Y-86478831D01*
X143993308Y-86555011D01*
X144011136Y-86581587D01*
X144005921Y-86593506D01*
X143958303Y-86567512D01*
X143880805Y-86513120D01*
X143785951Y-86439847D01*
X143686266Y-86357207D01*
X143594274Y-86274718D01*
X143549585Y-86230903D01*
X143421251Y-86118574D01*
X143289094Y-86035341D01*
X143169012Y-85988832D01*
X143076903Y-85986680D01*
X143058238Y-85995098D01*
X143010654Y-86056758D01*
X142987061Y-86139468D01*
X143005677Y-86232639D01*
X143068593Y-86356574D01*
X143164141Y-86497714D01*
X143280653Y-86642497D01*
X143406460Y-86777362D01*
X143529897Y-86888751D01*
X143639293Y-86963101D01*
X143716419Y-86987142D01*
X143819800Y-86959118D01*
X143878878Y-86884484D01*
X143886858Y-86834742D01*
X143887064Y-86793649D01*
X143897869Y-86776855D01*
X143934552Y-86786345D01*
X144012390Y-86824105D01*
X144083507Y-86860294D01*
X144213375Y-86912991D01*
X144343912Y-86945645D01*
X144400316Y-86950857D01*
X144494827Y-86943228D01*
X144541884Y-86911214D01*
X144561365Y-86860224D01*
X144571253Y-86769544D01*
X144563195Y-86715081D01*
X144551032Y-86679556D01*
X144557814Y-86666760D01*
X144595739Y-86680003D01*
X144677007Y-86722598D01*
X144760989Y-86768771D01*
X144915940Y-86844189D01*
X145029366Y-86872915D01*
X145114130Y-86856309D01*
X145169377Y-86811928D01*
X145223015Y-86702089D01*
X145211165Y-86568023D01*
X145157255Y-86451928D01*
X145112522Y-86375230D01*
X145105708Y-86342061D01*
X145136663Y-86334169D01*
X145156276Y-86334000D01*
X145223535Y-86367406D01*
X145309091Y-86464083D01*
X145350619Y-86524500D01*
X145505874Y-86733641D01*
X145657464Y-86874440D01*
X145809511Y-86950705D01*
X145812492Y-86951571D01*
X145924876Y-86979648D01*
X145998807Y-86979984D01*
X146064396Y-86948617D01*
X146113535Y-86911937D01*
X146193071Y-86812976D01*
X146209143Y-86737139D01*
X146209143Y-86700175D01*
X145769381Y-86700175D01*
X145740893Y-86709812D01*
X145677653Y-86668742D01*
X145585538Y-86576803D01*
X145548390Y-86533571D01*
X145474639Y-86436573D01*
X145418544Y-86347862D01*
X145389446Y-86284001D01*
X145394908Y-86261428D01*
X145455625Y-86287075D01*
X145539869Y-86351752D01*
X145626794Y-86437063D01*
X145695555Y-86524611D01*
X145698585Y-86529432D01*
X145757238Y-86639995D01*
X145769381Y-86700175D01*
X146209143Y-86700175D01*
X146209143Y-86637546D01*
X146464053Y-86764077D01*
X146677144Y-86853930D01*
X146866854Y-86902834D01*
X147023211Y-86909586D01*
X147136244Y-86872985D01*
X147164776Y-86848562D01*
X147213271Y-86764299D01*
X147247337Y-86651062D01*
X147250836Y-86629356D01*
X147240225Y-86457626D01*
X147171698Y-86266119D01*
X147054210Y-86063251D01*
X146948001Y-85924458D01*
X146220842Y-85924458D01*
X146197535Y-85924203D01*
X146184334Y-85918313D01*
X146102497Y-85867072D01*
X145990569Y-85781642D01*
X145870178Y-85678744D01*
X145847076Y-85657622D01*
X145725509Y-85540068D01*
X145635013Y-85442703D01*
X145580768Y-85372474D01*
X145567959Y-85336325D01*
X145601766Y-85341204D01*
X145616754Y-85348901D01*
X145668530Y-85387653D01*
X145759083Y-85465394D01*
X145875209Y-85570472D01*
X145991429Y-85679506D01*
X146119992Y-85804835D01*
X146195729Y-85885577D01*
X146220842Y-85924458D01*
X146948001Y-85924458D01*
X146896716Y-85857440D01*
X146708172Y-85657103D01*
X146497532Y-85470656D01*
X146273751Y-85306518D01*
X146045785Y-85173105D01*
X145822588Y-85078834D01*
X145613115Y-85032123D01*
X145547765Y-85028575D01*
X145434042Y-85034930D01*
G36*
X141977711Y-85823122D02*
X141901064Y-85883189D01*
X141868961Y-85956175D01*
X141845922Y-86047970D01*
X141761684Y-85968833D01*
X141660240Y-85913699D01*
X141556363Y-85920299D01*
X141472148Y-85984908D01*
X141451124Y-86021155D01*
X141435071Y-86083741D01*
X141448139Y-86158542D01*
X141495019Y-86267404D01*
X141510769Y-86298949D01*
X141608822Y-86492446D01*
X141292270Y-86198993D01*
X141099149Y-86025833D01*
X140947180Y-85903842D01*
X140830163Y-85829193D01*
X140741901Y-85798058D01*
X140676196Y-85806609D01*
X140665958Y-85812274D01*
X140611035Y-85867243D01*
X140590971Y-85926796D01*
X140610863Y-85966378D01*
X140632965Y-85971142D01*
X140708260Y-85996306D01*
X140828929Y-86069043D01*
X140989420Y-86185221D01*
X141184183Y-86340708D01*
X141407666Y-86531373D01*
X141522600Y-86633357D01*
X141711441Y-86798977D01*
X141857528Y-86916403D01*
X141968596Y-86989571D01*
X142052379Y-87022417D01*
X142116614Y-87018875D01*
X142169034Y-86982882D01*
X142181684Y-86968693D01*
X142210120Y-86886386D01*
X142206219Y-86785216D01*
X142185327Y-86656476D01*
X142308095Y-86764267D01*
X142454134Y-86856324D01*
X142634068Y-86917534D01*
X142760695Y-86941456D01*
X142848244Y-86942497D01*
X142926896Y-86919457D01*
X142959822Y-86904570D01*
X143058337Y-86836241D01*
X143110216Y-86756019D01*
X143108223Y-86680208D01*
X143076261Y-86642206D01*
X143009781Y-86611038D01*
X142900602Y-86576016D01*
X142818433Y-86555334D01*
X142703822Y-86523835D01*
X142622742Y-86490803D01*
X142585485Y-86462538D01*
X142602343Y-86445338D01*
X142634661Y-86442857D01*
X142706652Y-86426822D01*
X142798746Y-86388188D01*
X142800088Y-86387496D01*
X142873083Y-86337003D01*
X142896099Y-86283925D01*
X142563753Y-86283925D01*
X142513922Y-86296874D01*
X142483865Y-86297714D01*
X142359476Y-86324706D01*
X142254893Y-86394353D01*
X142190932Y-86489663D01*
X142180616Y-86545276D01*
X142174909Y-86585794D01*
X142155218Y-86576278D01*
X142116091Y-86510646D01*
X142072572Y-86424714D01*
X142018297Y-86313212D01*
X141979454Y-86230924D01*
X141964528Y-86195871D01*
X141989256Y-86205526D01*
X142044360Y-86241228D01*
X142124653Y-86278506D01*
X142215241Y-86295777D01*
X142290854Y-86291402D01*
X142326221Y-86263740D01*
X142326572Y-86259541D01*
X142295952Y-86222578D01*
X142221666Y-86184849D01*
X142215862Y-86182774D01*
X142134732Y-86150247D01*
X142116616Y-86133451D01*
X142153551Y-86132992D01*
X142237573Y-86149475D01*
X142329472Y-86174132D01*
X142468215Y-86219902D01*
X142547413Y-86257383D01*
X142563753Y-86283925D01*
X142896099Y-86283925D01*
X142902809Y-86268453D01*
X142907143Y-86193549D01*
X142873394Y-86056883D01*
X142775287Y-85945497D01*
X142617536Y-85862400D01*
X142404850Y-85810599D01*
X142287436Y-85797932D01*
X142103357Y-85795892D01*
X141977711Y-85823122D01*
X141977711Y-85823122D01*
G37*
X141977711Y-85823122D02*
X141901064Y-85883189D01*
X141868961Y-85956175D01*
X141845922Y-86047970D01*
X141761684Y-85968833D01*
X141660240Y-85913699D01*
X141556363Y-85920299D01*
X141472148Y-85984908D01*
X141451124Y-86021155D01*
X141435071Y-86083741D01*
X141448139Y-86158542D01*
X141495019Y-86267404D01*
X141510769Y-86298949D01*
X141608822Y-86492446D01*
X141292270Y-86198993D01*
X141099149Y-86025833D01*
X140947180Y-85903842D01*
X140830163Y-85829193D01*
X140741901Y-85798058D01*
X140676196Y-85806609D01*
X140665958Y-85812274D01*
X140611035Y-85867243D01*
X140590971Y-85926796D01*
X140610863Y-85966378D01*
X140632965Y-85971142D01*
X140708260Y-85996306D01*
X140828929Y-86069043D01*
X140989420Y-86185221D01*
X141184183Y-86340708D01*
X141407666Y-86531373D01*
X141522600Y-86633357D01*
X141711441Y-86798977D01*
X141857528Y-86916403D01*
X141968596Y-86989571D01*
X142052379Y-87022417D01*
X142116614Y-87018875D01*
X142169034Y-86982882D01*
X142181684Y-86968693D01*
X142210120Y-86886386D01*
X142206219Y-86785216D01*
X142185327Y-86656476D01*
X142308095Y-86764267D01*
X142454134Y-86856324D01*
X142634068Y-86917534D01*
X142760695Y-86941456D01*
X142848244Y-86942497D01*
X142926896Y-86919457D01*
X142959822Y-86904570D01*
X143058337Y-86836241D01*
X143110216Y-86756019D01*
X143108223Y-86680208D01*
X143076261Y-86642206D01*
X143009781Y-86611038D01*
X142900602Y-86576016D01*
X142818433Y-86555334D01*
X142703822Y-86523835D01*
X142622742Y-86490803D01*
X142585485Y-86462538D01*
X142602343Y-86445338D01*
X142634661Y-86442857D01*
X142706652Y-86426822D01*
X142798746Y-86388188D01*
X142800088Y-86387496D01*
X142873083Y-86337003D01*
X142896099Y-86283925D01*
X142563753Y-86283925D01*
X142513922Y-86296874D01*
X142483865Y-86297714D01*
X142359476Y-86324706D01*
X142254893Y-86394353D01*
X142190932Y-86489663D01*
X142180616Y-86545276D01*
X142174909Y-86585794D01*
X142155218Y-86576278D01*
X142116091Y-86510646D01*
X142072572Y-86424714D01*
X142018297Y-86313212D01*
X141979454Y-86230924D01*
X141964528Y-86195871D01*
X141989256Y-86205526D01*
X142044360Y-86241228D01*
X142124653Y-86278506D01*
X142215241Y-86295777D01*
X142290854Y-86291402D01*
X142326221Y-86263740D01*
X142326572Y-86259541D01*
X142295952Y-86222578D01*
X142221666Y-86184849D01*
X142215862Y-86182774D01*
X142134732Y-86150247D01*
X142116616Y-86133451D01*
X142153551Y-86132992D01*
X142237573Y-86149475D01*
X142329472Y-86174132D01*
X142468215Y-86219902D01*
X142547413Y-86257383D01*
X142563753Y-86283925D01*
X142896099Y-86283925D01*
X142902809Y-86268453D01*
X142907143Y-86193549D01*
X142873394Y-86056883D01*
X142775287Y-85945497D01*
X142617536Y-85862400D01*
X142404850Y-85810599D01*
X142287436Y-85797932D01*
X142103357Y-85795892D01*
X141977711Y-85823122D01*
G36*
X141921514Y-71520632D02*
X141916629Y-71522367D01*
X141875832Y-71545138D01*
X141776060Y-71602107D01*
X141621123Y-71691074D01*
X141414830Y-71809840D01*
X141160990Y-71956202D01*
X140863413Y-72127962D01*
X140525907Y-72322919D01*
X140152281Y-72538872D01*
X139746345Y-72773621D01*
X139311907Y-73024966D01*
X138852777Y-73290706D01*
X138372764Y-73568640D01*
X137875676Y-73856570D01*
X137809000Y-73895199D01*
X133781286Y-76228731D01*
X133772082Y-81000312D01*
X133762877Y-85771893D01*
X137874419Y-88139375D01*
X138378023Y-88429191D01*
X138864438Y-88708789D01*
X139329943Y-88976046D01*
X139770819Y-89228842D01*
X140183345Y-89465054D01*
X140563803Y-89682560D01*
X140908472Y-89879238D01*
X141213633Y-90052967D01*
X141475565Y-90201623D01*
X141690550Y-90323085D01*
X141854866Y-90415231D01*
X141964795Y-90475940D01*
X142016617Y-90503088D01*
X142020195Y-90504388D01*
X142055223Y-90486223D01*
X142149292Y-90433771D01*
X142298676Y-90349176D01*
X142499650Y-90234580D01*
X142748488Y-90092127D01*
X143041466Y-89923958D01*
X143374858Y-89732217D01*
X143744939Y-89519048D01*
X144147983Y-89286592D01*
X144580266Y-89036993D01*
X145038062Y-88772393D01*
X145517646Y-88494936D01*
X146015293Y-88206764D01*
X146136572Y-88136496D01*
X150218715Y-85771072D01*
X150236702Y-76446143D01*
X149871999Y-76446143D01*
X149863928Y-80995542D01*
X149855858Y-85544942D01*
X145955143Y-87807168D01*
X145464844Y-88091150D01*
X144991417Y-88364640D01*
X144538702Y-88625458D01*
X144110538Y-88871421D01*
X143710765Y-89100350D01*
X143343220Y-89310061D01*
X143011744Y-89498374D01*
X142720175Y-89663108D01*
X142472353Y-89802080D01*
X142272117Y-89913111D01*
X142123306Y-89994017D01*
X142029759Y-90042619D01*
X141995659Y-90056902D01*
X141957361Y-90037556D01*
X141860038Y-89984170D01*
X141707543Y-89898939D01*
X141503729Y-89784059D01*
X141252450Y-89641724D01*
X140957559Y-89474129D01*
X140622908Y-89283469D01*
X140252351Y-89071940D01*
X139849741Y-88841737D01*
X139418931Y-88595054D01*
X138963775Y-88334087D01*
X138488125Y-88061030D01*
X138032446Y-87799134D01*
X134128001Y-85553857D01*
X134136072Y-81004447D01*
X134144143Y-76455038D01*
X138026715Y-74203473D01*
X138516201Y-73919933D01*
X138989001Y-73646684D01*
X139441249Y-73385928D01*
X139869076Y-73139870D01*
X140268616Y-72910713D01*
X140636000Y-72700660D01*
X140967361Y-72511915D01*
X141258832Y-72346681D01*
X141506545Y-72207162D01*
X141706632Y-72095560D01*
X141855226Y-72014080D01*
X141948460Y-71964924D01*
X141981858Y-71950143D01*
X142021890Y-71967708D01*
X142120893Y-72019400D01*
X142275002Y-72103037D01*
X142480352Y-72216438D01*
X142733078Y-72357421D01*
X143029315Y-72523805D01*
X143365197Y-72713409D01*
X143736861Y-72924051D01*
X144140441Y-73153549D01*
X144572072Y-73399723D01*
X145027889Y-73660390D01*
X145504027Y-73933370D01*
X145963214Y-74197260D01*
X149871999Y-76446143D01*
X150236702Y-76446143D01*
X150237123Y-76228106D01*
X146116834Y-73855587D01*
X145518298Y-73511051D01*
X144979428Y-73201133D01*
X144497084Y-72924089D01*
X144068126Y-72678174D01*
X143689417Y-72461646D01*
X143357816Y-72272759D01*
X143070184Y-72109771D01*
X142823381Y-71970937D01*
X142614269Y-71854514D01*
X142439709Y-71758756D01*
X142296560Y-71681922D01*
X142181684Y-71622266D01*
X142091940Y-71578045D01*
X142024191Y-71547515D01*
X141975297Y-71528933D01*
X141942117Y-71520553D01*
X141921514Y-71520632D01*
X141921514Y-71520632D01*
G37*
X141921514Y-71520632D02*
X141916629Y-71522367D01*
X141875832Y-71545138D01*
X141776060Y-71602107D01*
X141621123Y-71691074D01*
X141414830Y-71809840D01*
X141160990Y-71956202D01*
X140863413Y-72127962D01*
X140525907Y-72322919D01*
X140152281Y-72538872D01*
X139746345Y-72773621D01*
X139311907Y-73024966D01*
X138852777Y-73290706D01*
X138372764Y-73568640D01*
X137875676Y-73856570D01*
X137809000Y-73895199D01*
X133781286Y-76228731D01*
X133772082Y-81000312D01*
X133762877Y-85771893D01*
X137874419Y-88139375D01*
X138378023Y-88429191D01*
X138864438Y-88708789D01*
X139329943Y-88976046D01*
X139770819Y-89228842D01*
X140183345Y-89465054D01*
X140563803Y-89682560D01*
X140908472Y-89879238D01*
X141213633Y-90052967D01*
X141475565Y-90201623D01*
X141690550Y-90323085D01*
X141854866Y-90415231D01*
X141964795Y-90475940D01*
X142016617Y-90503088D01*
X142020195Y-90504388D01*
X142055223Y-90486223D01*
X142149292Y-90433771D01*
X142298676Y-90349176D01*
X142499650Y-90234580D01*
X142748488Y-90092127D01*
X143041466Y-89923958D01*
X143374858Y-89732217D01*
X143744939Y-89519048D01*
X144147983Y-89286592D01*
X144580266Y-89036993D01*
X145038062Y-88772393D01*
X145517646Y-88494936D01*
X146015293Y-88206764D01*
X146136572Y-88136496D01*
X150218715Y-85771072D01*
X150236702Y-76446143D01*
X149871999Y-76446143D01*
X149863928Y-80995542D01*
X149855858Y-85544942D01*
X145955143Y-87807168D01*
X145464844Y-88091150D01*
X144991417Y-88364640D01*
X144538702Y-88625458D01*
X144110538Y-88871421D01*
X143710765Y-89100350D01*
X143343220Y-89310061D01*
X143011744Y-89498374D01*
X142720175Y-89663108D01*
X142472353Y-89802080D01*
X142272117Y-89913111D01*
X142123306Y-89994017D01*
X142029759Y-90042619D01*
X141995659Y-90056902D01*
X141957361Y-90037556D01*
X141860038Y-89984170D01*
X141707543Y-89898939D01*
X141503729Y-89784059D01*
X141252450Y-89641724D01*
X140957559Y-89474129D01*
X140622908Y-89283469D01*
X140252351Y-89071940D01*
X139849741Y-88841737D01*
X139418931Y-88595054D01*
X138963775Y-88334087D01*
X138488125Y-88061030D01*
X138032446Y-87799134D01*
X134128001Y-85553857D01*
X134136072Y-81004447D01*
X134144143Y-76455038D01*
X138026715Y-74203473D01*
X138516201Y-73919933D01*
X138989001Y-73646684D01*
X139441249Y-73385928D01*
X139869076Y-73139870D01*
X140268616Y-72910713D01*
X140636000Y-72700660D01*
X140967361Y-72511915D01*
X141258832Y-72346681D01*
X141506545Y-72207162D01*
X141706632Y-72095560D01*
X141855226Y-72014080D01*
X141948460Y-71964924D01*
X141981858Y-71950143D01*
X142021890Y-71967708D01*
X142120893Y-72019400D01*
X142275002Y-72103037D01*
X142480352Y-72216438D01*
X142733078Y-72357421D01*
X143029315Y-72523805D01*
X143365197Y-72713409D01*
X143736861Y-72924051D01*
X144140441Y-73153549D01*
X144572072Y-73399723D01*
X145027889Y-73660390D01*
X145504027Y-73933370D01*
X145963214Y-74197260D01*
X149871999Y-76446143D01*
X150236702Y-76446143D01*
X150237123Y-76228106D01*
X146116834Y-73855587D01*
X145518298Y-73511051D01*
X144979428Y-73201133D01*
X144497084Y-72924089D01*
X144068126Y-72678174D01*
X143689417Y-72461646D01*
X143357816Y-72272759D01*
X143070184Y-72109771D01*
X142823381Y-71970937D01*
X142614269Y-71854514D01*
X142439709Y-71758756D01*
X142296560Y-71681922D01*
X142181684Y-71622266D01*
X142091940Y-71578045D01*
X142024191Y-71547515D01*
X141975297Y-71528933D01*
X141942117Y-71520553D01*
X141921514Y-71520632D01*
G04 #@! TO.C,J5*
D10*
X157333333Y-114452380D02*
X157333333Y-115166666D01*
X157380952Y-115309523D01*
X157476190Y-115404761D01*
X157619047Y-115452380D01*
X157714285Y-115452380D01*
X156380952Y-114452380D02*
X156857142Y-114452380D01*
X156904761Y-114928571D01*
X156857142Y-114880952D01*
X156761904Y-114833333D01*
X156523809Y-114833333D01*
X156428571Y-114880952D01*
X156380952Y-114928571D01*
X156333333Y-115023809D01*
X156333333Y-115261904D01*
X156380952Y-115357142D01*
X156428571Y-115404761D01*
X156523809Y-115452380D01*
X156761904Y-115452380D01*
X156857142Y-115404761D01*
X156904761Y-115357142D01*
G04 #@! TO.C,J2*
X135333333Y-93452380D02*
X135333333Y-94166666D01*
X135380952Y-94309523D01*
X135476190Y-94404761D01*
X135619047Y-94452380D01*
X135714285Y-94452380D01*
X134904761Y-93547619D02*
X134857142Y-93500000D01*
X134761904Y-93452380D01*
X134523809Y-93452380D01*
X134428571Y-93500000D01*
X134380952Y-93547619D01*
X134333333Y-93642857D01*
X134333333Y-93738095D01*
X134380952Y-93880952D01*
X134952380Y-94452380D01*
X134333333Y-94452380D01*
G04 #@! TO.C,J3*
X156333333Y-93452380D02*
X156333333Y-94166666D01*
X156380952Y-94309523D01*
X156476190Y-94404761D01*
X156619047Y-94452380D01*
X156714285Y-94452380D01*
X155952380Y-93452380D02*
X155333333Y-93452380D01*
X155666666Y-93833333D01*
X155523809Y-93833333D01*
X155428571Y-93880952D01*
X155380952Y-93928571D01*
X155333333Y-94023809D01*
X155333333Y-94261904D01*
X155380952Y-94357142D01*
X155428571Y-94404761D01*
X155523809Y-94452380D01*
X155809523Y-94452380D01*
X155904761Y-94404761D01*
X155952380Y-94357142D01*
G04 #@! TO.C,J4*
X176333333Y-93452380D02*
X176333333Y-94166666D01*
X176380952Y-94309523D01*
X176476190Y-94404761D01*
X176619047Y-94452380D01*
X176714285Y-94452380D01*
X175428571Y-93785714D02*
X175428571Y-94452380D01*
X175666666Y-93404761D02*
X175904761Y-94119047D01*
X175285714Y-94119047D01*
G04 #@! TD*
M02*
