M48
;DRILL file {KiCad (5.0.0)} date 01/02/19 21:37:45
;FORMAT={-:-/ absolute / inch / decimal}
FMAT,2
INCH,TZ
T1C0.0157
T2C0.0314
T3C0.0400
%
G90
G05
M72
T1
X4.7628Y-4.0649
X4.7692Y-3.8385
X4.9703Y-4.3793
X5.1216Y-3.429
X5.1895Y-4.7352
X5.1969Y-3.3071
X5.2756Y-3.5433
X5.2756Y-3.7008
X5.2972Y-3.4277
X5.3118Y-3.0356
X5.343Y-3.2924
X5.3543Y-4.2126
X5.3543Y-3.4646
X5.3543Y-3.622
X5.4055Y-3.7639
X5.5118Y-3.2283
X5.5118Y-3.3858
X5.5857Y-3.2775
X5.5906Y-3.2283
X5.5906Y-4.2913
X5.6381Y-3.3916
X5.6693Y-3.4646
X5.7874Y-2.8346
X5.8201Y-3.3925
X5.8661Y-2.9528
X5.9055Y-3.4252
X6.0197Y-3.5923
X6.0236Y-5.0394
X6.1132Y-4.3312
X6.1255Y-3.6299
X6.2008Y-4.3427
X6.217Y-4.1794
X6.2402Y-4.3519
X6.2992Y-4.9213
X6.6535Y-3.4877
T2
X6.0236Y-3.2677
X6.1024Y-3.2677
X6.181Y-3.2677
X6.2598Y-3.2677
T3
X5.5512Y-4.8031
X5.5512Y-5.
T0
M30
