G04 #@! TF.GenerationSoftware,KiCad,Pcbnew,(5.0.2)-1*
G04 #@! TF.CreationDate,2019-02-17T02:34:44-05:00*
G04 #@! TF.ProjectId,bikesenseCap,62696b65-7365-46e7-9365-4361702e6b69,REV B*
G04 #@! TF.SameCoordinates,Original*
G04 #@! TF.FileFunction,Legend,Top*
G04 #@! TF.FilePolarity,Positive*
%FSLAX46Y46*%
G04 Gerber Fmt 4.6, Leading zero omitted, Abs format (unit mm)*
G04 Created by KiCad (PCBNEW (5.0.2)-1) date 2/17/2019 2:34:44 AM*
%MOMM*%
%LPD*%
G01*
G04 APERTURE LIST*
%ADD10C,0.200000*%
%ADD11C,0.300000*%
%ADD12C,0.120000*%
%ADD13C,0.127000*%
%ADD14C,0.254000*%
%ADD15C,0.100000*%
%ADD16C,0.150000*%
%ADD17C,0.101600*%
G04 APERTURE END LIST*
D10*
X147828000Y-111125000D02*
X147828000Y-112903000D01*
X132334000Y-90170000D02*
X132334000Y-91821000D01*
X167767000Y-90170000D02*
X167767000Y-91948000D01*
X147828000Y-90043000D02*
X147828000Y-91948000D01*
D11*
X137080571Y-85260571D02*
X136223428Y-85260571D01*
X136652000Y-85260571D02*
X136652000Y-83760571D01*
X136509142Y-83974857D01*
X136366285Y-84117714D01*
X136223428Y-84189142D01*
D10*
X126238000Y-79883000D02*
X128143000Y-81788000D01*
X147320000Y-68580000D02*
X147320000Y-71374000D01*
X172974000Y-77851000D02*
X170942000Y-79883000D01*
X179578000Y-101981000D02*
X182372000Y-101981000D01*
X171831000Y-118110000D02*
X173863000Y-120142000D01*
X152654000Y-128524000D02*
X152654000Y-131445000D01*
X127254000Y-119126000D02*
X125222000Y-121158000D01*
X118491000Y-97409000D02*
X121412000Y-97409000D01*
D11*
X147821428Y-102678571D02*
X147321428Y-101964285D01*
X146964285Y-102678571D02*
X146964285Y-101178571D01*
X147535714Y-101178571D01*
X147678571Y-101250000D01*
X147750000Y-101321428D01*
X147821428Y-101464285D01*
X147821428Y-101678571D01*
X147750000Y-101821428D01*
X147678571Y-101892857D01*
X147535714Y-101964285D01*
X146964285Y-101964285D01*
X148464285Y-101892857D02*
X148964285Y-101892857D01*
X149178571Y-102678571D02*
X148464285Y-102678571D01*
X148464285Y-101178571D01*
X149178571Y-101178571D01*
X149607142Y-101178571D02*
X150107142Y-102678571D01*
X150607142Y-101178571D01*
X153107142Y-102535714D02*
X153035714Y-102607142D01*
X152821428Y-102678571D01*
X152678571Y-102678571D01*
X152464285Y-102607142D01*
X152321428Y-102464285D01*
X152250000Y-102321428D01*
X152178571Y-102035714D01*
X152178571Y-101821428D01*
X152250000Y-101535714D01*
X152321428Y-101392857D01*
X152464285Y-101250000D01*
X152678571Y-101178571D01*
X152821428Y-101178571D01*
X153035714Y-101250000D01*
X153107142Y-101321428D01*
X135250000Y-97892857D02*
X135464285Y-97964285D01*
X135535714Y-98035714D01*
X135607142Y-98178571D01*
X135607142Y-98392857D01*
X135535714Y-98535714D01*
X135464285Y-98607142D01*
X135321428Y-98678571D01*
X134750000Y-98678571D01*
X134750000Y-97178571D01*
X135250000Y-97178571D01*
X135392857Y-97250000D01*
X135464285Y-97321428D01*
X135535714Y-97464285D01*
X135535714Y-97607142D01*
X135464285Y-97750000D01*
X135392857Y-97821428D01*
X135250000Y-97892857D01*
X134750000Y-97892857D01*
X136250000Y-98678571D02*
X136250000Y-97678571D01*
X136250000Y-97178571D02*
X136178571Y-97250000D01*
X136250000Y-97321428D01*
X136321428Y-97250000D01*
X136250000Y-97178571D01*
X136250000Y-97321428D01*
X136964285Y-98678571D02*
X136964285Y-97178571D01*
X137107142Y-98107142D02*
X137535714Y-98678571D01*
X137535714Y-97678571D02*
X136964285Y-98250000D01*
X138750000Y-98607142D02*
X138607142Y-98678571D01*
X138321428Y-98678571D01*
X138178571Y-98607142D01*
X138107142Y-98464285D01*
X138107142Y-97892857D01*
X138178571Y-97750000D01*
X138321428Y-97678571D01*
X138607142Y-97678571D01*
X138750000Y-97750000D01*
X138821428Y-97892857D01*
X138821428Y-98035714D01*
X138107142Y-98178571D01*
X140535714Y-98607142D02*
X140750000Y-98678571D01*
X141107142Y-98678571D01*
X141250000Y-98607142D01*
X141321428Y-98535714D01*
X141392857Y-98392857D01*
X141392857Y-98250000D01*
X141321428Y-98107142D01*
X141250000Y-98035714D01*
X141107142Y-97964285D01*
X140821428Y-97892857D01*
X140678571Y-97821428D01*
X140607142Y-97750000D01*
X140535714Y-97607142D01*
X140535714Y-97464285D01*
X140607142Y-97321428D01*
X140678571Y-97250000D01*
X140821428Y-97178571D01*
X141178571Y-97178571D01*
X141392857Y-97250000D01*
X142607142Y-98607142D02*
X142464285Y-98678571D01*
X142178571Y-98678571D01*
X142035714Y-98607142D01*
X141964285Y-98464285D01*
X141964285Y-97892857D01*
X142035714Y-97750000D01*
X142178571Y-97678571D01*
X142464285Y-97678571D01*
X142607142Y-97750000D01*
X142678571Y-97892857D01*
X142678571Y-98035714D01*
X141964285Y-98178571D01*
X143321428Y-97678571D02*
X143321428Y-98678571D01*
X143321428Y-97821428D02*
X143392857Y-97750000D01*
X143535714Y-97678571D01*
X143750000Y-97678571D01*
X143892857Y-97750000D01*
X143964285Y-97892857D01*
X143964285Y-98678571D01*
X144607142Y-98607142D02*
X144750000Y-98678571D01*
X145035714Y-98678571D01*
X145178571Y-98607142D01*
X145250000Y-98464285D01*
X145250000Y-98392857D01*
X145178571Y-98250000D01*
X145035714Y-98178571D01*
X144821428Y-98178571D01*
X144678571Y-98107142D01*
X144607142Y-97964285D01*
X144607142Y-97892857D01*
X144678571Y-97750000D01*
X144821428Y-97678571D01*
X145035714Y-97678571D01*
X145178571Y-97750000D01*
X146464285Y-98607142D02*
X146321428Y-98678571D01*
X146035714Y-98678571D01*
X145892857Y-98607142D01*
X145821428Y-98464285D01*
X145821428Y-97892857D01*
X145892857Y-97750000D01*
X146035714Y-97678571D01*
X146321428Y-97678571D01*
X146464285Y-97750000D01*
X146535714Y-97892857D01*
X146535714Y-98035714D01*
X145821428Y-98178571D01*
X148321428Y-98678571D02*
X148321428Y-97178571D01*
X148678571Y-97178571D01*
X148892857Y-97250000D01*
X149035714Y-97392857D01*
X149107142Y-97535714D01*
X149178571Y-97821428D01*
X149178571Y-98035714D01*
X149107142Y-98321428D01*
X149035714Y-98464285D01*
X148892857Y-98607142D01*
X148678571Y-98678571D01*
X148321428Y-98678571D01*
X150464285Y-98678571D02*
X150464285Y-97892857D01*
X150392857Y-97750000D01*
X150250000Y-97678571D01*
X149964285Y-97678571D01*
X149821428Y-97750000D01*
X150464285Y-98607142D02*
X150321428Y-98678571D01*
X149964285Y-98678571D01*
X149821428Y-98607142D01*
X149750000Y-98464285D01*
X149750000Y-98321428D01*
X149821428Y-98178571D01*
X149964285Y-98107142D01*
X150321428Y-98107142D01*
X150464285Y-98035714D01*
X151821428Y-97678571D02*
X151821428Y-98678571D01*
X151178571Y-97678571D02*
X151178571Y-98464285D01*
X151250000Y-98607142D01*
X151392857Y-98678571D01*
X151607142Y-98678571D01*
X151750000Y-98607142D01*
X151821428Y-98535714D01*
X153178571Y-97678571D02*
X153178571Y-98892857D01*
X153107142Y-99035714D01*
X153035714Y-99107142D01*
X152892857Y-99178571D01*
X152678571Y-99178571D01*
X152535714Y-99107142D01*
X153178571Y-98607142D02*
X153035714Y-98678571D01*
X152750000Y-98678571D01*
X152607142Y-98607142D01*
X152535714Y-98535714D01*
X152464285Y-98392857D01*
X152464285Y-97964285D01*
X152535714Y-97821428D01*
X152607142Y-97750000D01*
X152750000Y-97678571D01*
X153035714Y-97678571D01*
X153178571Y-97750000D01*
X153892857Y-98678571D02*
X153892857Y-97178571D01*
X154535714Y-98678571D02*
X154535714Y-97892857D01*
X154464285Y-97750000D01*
X154321428Y-97678571D01*
X154107142Y-97678571D01*
X153964285Y-97750000D01*
X153892857Y-97821428D01*
X155035714Y-97678571D02*
X155607142Y-97678571D01*
X155250000Y-97178571D02*
X155250000Y-98464285D01*
X155321428Y-98607142D01*
X155464285Y-98678571D01*
X155607142Y-98678571D01*
X156678571Y-98607142D02*
X156535714Y-98678571D01*
X156250000Y-98678571D01*
X156107142Y-98607142D01*
X156035714Y-98464285D01*
X156035714Y-97892857D01*
X156107142Y-97750000D01*
X156250000Y-97678571D01*
X156535714Y-97678571D01*
X156678571Y-97750000D01*
X156750000Y-97892857D01*
X156750000Y-98035714D01*
X156035714Y-98178571D01*
X157392857Y-98678571D02*
X157392857Y-97678571D01*
X157392857Y-97964285D02*
X157464285Y-97821428D01*
X157535714Y-97750000D01*
X157678571Y-97678571D01*
X157821428Y-97678571D01*
X159964285Y-97892857D02*
X160178571Y-97964285D01*
X160250000Y-98035714D01*
X160321428Y-98178571D01*
X160321428Y-98392857D01*
X160250000Y-98535714D01*
X160178571Y-98607142D01*
X160035714Y-98678571D01*
X159464285Y-98678571D01*
X159464285Y-97178571D01*
X159964285Y-97178571D01*
X160107142Y-97250000D01*
X160178571Y-97321428D01*
X160250000Y-97464285D01*
X160250000Y-97607142D01*
X160178571Y-97750000D01*
X160107142Y-97821428D01*
X159964285Y-97892857D01*
X159464285Y-97892857D01*
X161178571Y-98678571D02*
X161035714Y-98607142D01*
X160964285Y-98535714D01*
X160892857Y-98392857D01*
X160892857Y-97964285D01*
X160964285Y-97821428D01*
X161035714Y-97750000D01*
X161178571Y-97678571D01*
X161392857Y-97678571D01*
X161535714Y-97750000D01*
X161607142Y-97821428D01*
X161678571Y-97964285D01*
X161678571Y-98392857D01*
X161607142Y-98535714D01*
X161535714Y-98607142D01*
X161392857Y-98678571D01*
X161178571Y-98678571D01*
X162964285Y-98678571D02*
X162964285Y-97892857D01*
X162892857Y-97750000D01*
X162750000Y-97678571D01*
X162464285Y-97678571D01*
X162321428Y-97750000D01*
X162964285Y-98607142D02*
X162821428Y-98678571D01*
X162464285Y-98678571D01*
X162321428Y-98607142D01*
X162250000Y-98464285D01*
X162250000Y-98321428D01*
X162321428Y-98178571D01*
X162464285Y-98107142D01*
X162821428Y-98107142D01*
X162964285Y-98035714D01*
X163678571Y-98678571D02*
X163678571Y-97678571D01*
X163678571Y-97964285D02*
X163750000Y-97821428D01*
X163821428Y-97750000D01*
X163964285Y-97678571D01*
X164107142Y-97678571D01*
X165250000Y-98678571D02*
X165250000Y-97178571D01*
X165250000Y-98607142D02*
X165107142Y-98678571D01*
X164821428Y-98678571D01*
X164678571Y-98607142D01*
X164607142Y-98535714D01*
X164535714Y-98392857D01*
X164535714Y-97964285D01*
X164607142Y-97821428D01*
X164678571Y-97750000D01*
X164821428Y-97678571D01*
X165107142Y-97678571D01*
X165250000Y-97750000D01*
D12*
G04 #@! TO.C,D3*
X131900000Y-91550000D02*
X131900000Y-90450000D01*
X131900000Y-90450000D02*
X129300000Y-90450000D01*
X131900000Y-91550000D02*
X129300000Y-91550000D01*
G04 #@! TO.C,D4*
X148300000Y-90450000D02*
X150900000Y-90450000D01*
X148300000Y-91550000D02*
X150900000Y-91550000D01*
X148300000Y-90450000D02*
X148300000Y-91550000D01*
G04 #@! TO.C,D5*
X168300000Y-90450000D02*
X170900000Y-90450000D01*
X168300000Y-91550000D02*
X170900000Y-91550000D01*
X168300000Y-90450000D02*
X168300000Y-91550000D01*
G04 #@! TO.C,D6*
X148300000Y-111450000D02*
X148300000Y-112550000D01*
X148300000Y-112550000D02*
X150900000Y-112550000D01*
X148300000Y-111450000D02*
X150900000Y-111450000D01*
D13*
G04 #@! TO.C,J1*
X151001280Y-82001780D02*
X151001280Y-83998220D01*
D14*
X160998720Y-81501400D02*
X160998720Y-84498600D01*
X151001280Y-80800360D02*
X151001280Y-85199640D01*
X151001280Y-85199640D02*
X152802140Y-85199640D01*
X159197860Y-85199640D02*
X160998720Y-85199640D01*
X160998720Y-85199640D02*
X160998720Y-80800360D01*
X151001280Y-80800360D02*
X160998720Y-80800360D01*
X151001280Y-85199640D02*
X151001280Y-85799080D01*
X151001280Y-85799080D02*
X152802140Y-85799080D01*
X152802140Y-85799080D02*
X152802140Y-85199640D01*
X152802140Y-85199640D02*
X159197860Y-85199640D01*
X159197860Y-85199640D02*
X159197860Y-85799080D01*
X159197860Y-85799080D02*
X160998720Y-85799080D01*
X160998720Y-85799080D02*
X160998720Y-85199640D01*
X151001280Y-80800360D02*
X160998720Y-80800360D01*
X160998720Y-80800360D02*
X160998720Y-85799080D01*
X151001280Y-85799080D02*
X151001280Y-80800360D01*
X151047000Y-85794000D02*
X152825000Y-85794000D01*
X152825000Y-85794000D02*
X152825000Y-85159000D01*
X152825000Y-85159000D02*
X154222000Y-85159000D01*
X154222000Y-85159000D02*
X154222000Y-87191000D01*
X154222000Y-87191000D02*
X157778000Y-87191000D01*
X157778000Y-87191000D02*
X157778000Y-85159000D01*
X157778000Y-85159000D02*
X159175000Y-85159000D01*
X159175000Y-85159000D02*
X159175000Y-85794000D01*
X159175000Y-85794000D02*
X160953000Y-85794000D01*
D12*
G04 #@! TO.C,R1*
X141400000Y-78320000D02*
X142400000Y-78320000D01*
X142400000Y-79680000D02*
X141400000Y-79680000D01*
G04 #@! TO.C,R2*
X136600000Y-79680000D02*
X135600000Y-79680000D01*
X135600000Y-78320000D02*
X136600000Y-78320000D01*
G04 #@! TO.C,R3*
X145320000Y-84600000D02*
X145320000Y-83600000D01*
X146680000Y-83600000D02*
X146680000Y-84600000D01*
G04 #@! TO.C,R4*
X134030000Y-83150000D02*
X134030000Y-84150000D01*
X132670000Y-84150000D02*
X132670000Y-83150000D01*
G04 #@! TO.C,R5*
X128320000Y-86400000D02*
X128320000Y-85400000D01*
X129680000Y-85400000D02*
X129680000Y-86400000D01*
G04 #@! TO.C,R6*
X144320000Y-110600000D02*
X144320000Y-109600000D01*
X145680000Y-109600000D02*
X145680000Y-110600000D01*
G04 #@! TO.C,R7*
X130220000Y-108550000D02*
X130220000Y-109550000D01*
X128860000Y-109550000D02*
X128860000Y-108550000D01*
G04 #@! TO.C,R8*
X142320000Y-113600000D02*
X142320000Y-112600000D01*
X143680000Y-112600000D02*
X143680000Y-113600000D01*
G04 #@! TO.C,R9*
X140400000Y-117320000D02*
X141400000Y-117320000D01*
X141400000Y-118680000D02*
X140400000Y-118680000D01*
G04 #@! TO.C,R10*
X136400000Y-115680000D02*
X135400000Y-115680000D01*
X135400000Y-114320000D02*
X136400000Y-114320000D01*
G04 #@! TO.C,R11*
X124600000Y-90320000D02*
X125600000Y-90320000D01*
X125600000Y-91680000D02*
X124600000Y-91680000D01*
G04 #@! TO.C,R12*
X151730000Y-88220000D02*
X152730000Y-88220000D01*
X152730000Y-89580000D02*
X151730000Y-89580000D01*
G04 #@! TO.C,R13*
X175400000Y-87320000D02*
X176400000Y-87320000D01*
X176400000Y-88680000D02*
X175400000Y-88680000D01*
G04 #@! TO.C,R14*
X155600000Y-108680000D02*
X154600000Y-108680000D01*
X154600000Y-107320000D02*
X155600000Y-107320000D01*
G04 #@! TO.C,R19*
X121400000Y-105680000D02*
X120400000Y-105680000D01*
X120400000Y-104320000D02*
X121400000Y-104320000D01*
G04 #@! TO.C,R20*
X120500000Y-94320000D02*
X121500000Y-94320000D01*
X121500000Y-95680000D02*
X120500000Y-95680000D01*
G04 #@! TO.C,R21*
X123320000Y-86500000D02*
X123320000Y-85500000D01*
X124680000Y-85500000D02*
X124680000Y-86500000D01*
G04 #@! TO.C,R22*
X124400000Y-116320000D02*
X125400000Y-116320000D01*
X125400000Y-117680000D02*
X124400000Y-117680000D01*
G04 #@! TO.C,R23*
X159680000Y-121600000D02*
X159680000Y-122600000D01*
X158320000Y-122600000D02*
X158320000Y-121600000D01*
G04 #@! TO.C,R24*
X135600000Y-73320000D02*
X136600000Y-73320000D01*
X136600000Y-74680000D02*
X135600000Y-74680000D01*
G04 #@! TO.C,R25*
X124400000Y-113680000D02*
X123400000Y-113680000D01*
X123400000Y-112320000D02*
X124400000Y-112320000D01*
G04 #@! TO.C,R26*
X163600000Y-121320000D02*
X164600000Y-121320000D01*
X164600000Y-122680000D02*
X163600000Y-122680000D01*
G04 #@! TO.C,R27*
X155500000Y-70320000D02*
X156500000Y-70320000D01*
X156500000Y-71680000D02*
X155500000Y-71680000D01*
G04 #@! TO.C,R28*
X144320000Y-128400000D02*
X144320000Y-127400000D01*
X145680000Y-127400000D02*
X145680000Y-128400000D01*
G04 #@! TO.C,R29*
X143400000Y-70320000D02*
X144400000Y-70320000D01*
X144400000Y-71680000D02*
X143400000Y-71680000D01*
G04 #@! TO.C,R30*
X155600000Y-128320000D02*
X156600000Y-128320000D01*
X156600000Y-129680000D02*
X155600000Y-129680000D01*
G04 #@! TO.C,R31*
X162500000Y-74320000D02*
X163500000Y-74320000D01*
X163500000Y-75680000D02*
X162500000Y-75680000D01*
G04 #@! TO.C,R32*
X163400000Y-126320000D02*
X164400000Y-126320000D01*
X164400000Y-127680000D02*
X163400000Y-127680000D01*
G04 #@! TO.C,R33*
X171400000Y-83680000D02*
X170400000Y-83680000D01*
X170400000Y-82320000D02*
X171400000Y-82320000D01*
G04 #@! TO.C,R34*
X175500000Y-113320000D02*
X176500000Y-113320000D01*
X176500000Y-114680000D02*
X175500000Y-114680000D01*
G04 #@! TO.C,R35*
X177600000Y-92320000D02*
X178600000Y-92320000D01*
X178600000Y-93680000D02*
X177600000Y-93680000D01*
G04 #@! TO.C,R36*
X179500000Y-105680000D02*
X178500000Y-105680000D01*
X178500000Y-104320000D02*
X179500000Y-104320000D01*
G04 #@! TO.C,TH1*
X131400000Y-118440000D02*
X131400000Y-117440000D01*
X132760000Y-117440000D02*
X132760000Y-118440000D01*
D15*
G04 #@! TO.C,U1*
X136200000Y-107875000D02*
X135975000Y-107875000D01*
X135975000Y-107875000D02*
X135525000Y-108300000D01*
X135525000Y-108300000D02*
X135525000Y-108950000D01*
X136175000Y-112125000D02*
X135525000Y-112125000D01*
X135525000Y-112125000D02*
X135525000Y-111600000D01*
X138475000Y-111525000D02*
X138475000Y-112125000D01*
X138475000Y-112125000D02*
X137850000Y-112125000D01*
X137850000Y-107875000D02*
X138475000Y-107875000D01*
X138475000Y-107875000D02*
X138475000Y-108425000D01*
D16*
G04 #@! TO.C,U2*
X142150000Y-83850000D02*
X141625000Y-83850000D01*
X142150000Y-88150000D02*
X141625000Y-88150000D01*
X137850000Y-88150000D02*
X138375000Y-88150000D01*
X137850000Y-83850000D02*
X138375000Y-83850000D01*
X142150000Y-88150000D02*
X142150000Y-87625000D01*
X137850000Y-88150000D02*
X137850000Y-87625000D01*
X142150000Y-83850000D02*
X142150000Y-84375000D01*
D15*
G04 #@! TO.C,U3*
X168590000Y-107635000D02*
X168590000Y-107285000D01*
X168590000Y-107285000D02*
X167590000Y-107285000D01*
X160790000Y-107685000D02*
X160790000Y-107285000D01*
X160790000Y-107285000D02*
X161590000Y-107285000D01*
X160790000Y-117585000D02*
X160790000Y-117985000D01*
X160790000Y-117985000D02*
X161640000Y-117985000D01*
X167540000Y-117985000D02*
X168140000Y-117985000D01*
X168140000Y-117985000D02*
X168640000Y-117485000D01*
X168640000Y-117485000D02*
X169240000Y-117485000D01*
D12*
G04 #@! TO.C,D11*
X118540000Y-97715000D02*
X118540000Y-101600000D01*
X121460000Y-97715000D02*
X118540000Y-97715000D01*
X121460000Y-101600000D02*
X121460000Y-97715000D01*
G04 #@! TO.C,D12*
X129143995Y-76790853D02*
X126396885Y-79537963D01*
X126396885Y-79537963D02*
X128461637Y-81602715D01*
X128461637Y-81602715D02*
X131208747Y-78855605D01*
G04 #@! TO.C,D13*
X130208747Y-122143995D02*
X127461637Y-119396885D01*
X127461637Y-119396885D02*
X125396885Y-121461637D01*
X125396885Y-121461637D02*
X128143995Y-124208747D01*
G04 #@! TO.C,D14*
X147715000Y-71460000D02*
X151600000Y-71460000D01*
X147715000Y-68540000D02*
X147715000Y-71460000D01*
X151600000Y-68540000D02*
X147715000Y-68540000D01*
G04 #@! TO.C,D15*
X152285000Y-128540000D02*
X148400000Y-128540000D01*
X152285000Y-131460000D02*
X152285000Y-128540000D01*
X148400000Y-131460000D02*
X152285000Y-131460000D01*
G04 #@! TO.C,D16*
X172693115Y-77583363D02*
X169946005Y-74836253D01*
X170628363Y-79648115D02*
X172693115Y-77583363D01*
X167881253Y-76901005D02*
X170628363Y-79648115D01*
G04 #@! TO.C,D17*
X170901005Y-123163747D02*
X173648115Y-120416637D01*
X173648115Y-120416637D02*
X171583363Y-118351885D01*
X171583363Y-118351885D02*
X168836253Y-121098995D01*
G04 #@! TO.C,D18*
X179540000Y-97750000D02*
X179540000Y-101635000D01*
X179540000Y-101635000D02*
X182460000Y-101635000D01*
X182460000Y-101635000D02*
X182460000Y-97750000D01*
G04 #@! TO.C,D3*
D16*
X129361904Y-92902380D02*
X129361904Y-91902380D01*
X129600000Y-91902380D01*
X129742857Y-91950000D01*
X129838095Y-92045238D01*
X129885714Y-92140476D01*
X129933333Y-92330952D01*
X129933333Y-92473809D01*
X129885714Y-92664285D01*
X129838095Y-92759523D01*
X129742857Y-92854761D01*
X129600000Y-92902380D01*
X129361904Y-92902380D01*
X130266666Y-91902380D02*
X130885714Y-91902380D01*
X130552380Y-92283333D01*
X130695238Y-92283333D01*
X130790476Y-92330952D01*
X130838095Y-92378571D01*
X130885714Y-92473809D01*
X130885714Y-92711904D01*
X130838095Y-92807142D01*
X130790476Y-92854761D01*
X130695238Y-92902380D01*
X130409523Y-92902380D01*
X130314285Y-92854761D01*
X130266666Y-92807142D01*
G04 #@! TO.C,D4*
X149361904Y-90002380D02*
X149361904Y-89002380D01*
X149600000Y-89002380D01*
X149742857Y-89050000D01*
X149838095Y-89145238D01*
X149885714Y-89240476D01*
X149933333Y-89430952D01*
X149933333Y-89573809D01*
X149885714Y-89764285D01*
X149838095Y-89859523D01*
X149742857Y-89954761D01*
X149600000Y-90002380D01*
X149361904Y-90002380D01*
X150790476Y-89335714D02*
X150790476Y-90002380D01*
X150552380Y-88954761D02*
X150314285Y-89669047D01*
X150933333Y-89669047D01*
G04 #@! TO.C,D5*
X169361904Y-90002380D02*
X169361904Y-89002380D01*
X169600000Y-89002380D01*
X169742857Y-89050000D01*
X169838095Y-89145238D01*
X169885714Y-89240476D01*
X169933333Y-89430952D01*
X169933333Y-89573809D01*
X169885714Y-89764285D01*
X169838095Y-89859523D01*
X169742857Y-89954761D01*
X169600000Y-90002380D01*
X169361904Y-90002380D01*
X170838095Y-89002380D02*
X170361904Y-89002380D01*
X170314285Y-89478571D01*
X170361904Y-89430952D01*
X170457142Y-89383333D01*
X170695238Y-89383333D01*
X170790476Y-89430952D01*
X170838095Y-89478571D01*
X170885714Y-89573809D01*
X170885714Y-89811904D01*
X170838095Y-89907142D01*
X170790476Y-89954761D01*
X170695238Y-90002380D01*
X170457142Y-90002380D01*
X170361904Y-89954761D01*
X170314285Y-89907142D01*
G04 #@! TO.C,D6*
X149361904Y-111002380D02*
X149361904Y-110002380D01*
X149600000Y-110002380D01*
X149742857Y-110050000D01*
X149838095Y-110145238D01*
X149885714Y-110240476D01*
X149933333Y-110430952D01*
X149933333Y-110573809D01*
X149885714Y-110764285D01*
X149838095Y-110859523D01*
X149742857Y-110954761D01*
X149600000Y-111002380D01*
X149361904Y-111002380D01*
X150790476Y-110002380D02*
X150600000Y-110002380D01*
X150504761Y-110050000D01*
X150457142Y-110097619D01*
X150361904Y-110240476D01*
X150314285Y-110430952D01*
X150314285Y-110811904D01*
X150361904Y-110907142D01*
X150409523Y-110954761D01*
X150504761Y-111002380D01*
X150695238Y-111002380D01*
X150790476Y-110954761D01*
X150838095Y-110907142D01*
X150885714Y-110811904D01*
X150885714Y-110573809D01*
X150838095Y-110478571D01*
X150790476Y-110430952D01*
X150695238Y-110383333D01*
X150504761Y-110383333D01*
X150409523Y-110430952D01*
X150361904Y-110478571D01*
X150314285Y-110573809D01*
G04 #@! TO.C,J1*
D17*
X155386166Y-79528666D02*
X155386166Y-80163666D01*
X155343833Y-80290666D01*
X155259166Y-80375333D01*
X155132166Y-80417666D01*
X155047500Y-80417666D01*
X156275166Y-80417666D02*
X155767166Y-80417666D01*
X156021166Y-80417666D02*
X156021166Y-79528666D01*
X155936500Y-79655666D01*
X155851833Y-79740333D01*
X155767166Y-79782666D01*
X150941166Y-78317500D02*
X150898833Y-78359833D01*
X150771833Y-78402166D01*
X150687166Y-78402166D01*
X150560166Y-78359833D01*
X150475500Y-78275166D01*
X150433166Y-78190500D01*
X150390833Y-78021166D01*
X150390833Y-77894166D01*
X150433166Y-77724833D01*
X150475500Y-77640166D01*
X150560166Y-77555500D01*
X150687166Y-77513166D01*
X150771833Y-77513166D01*
X150898833Y-77555500D01*
X150941166Y-77597833D01*
X151449166Y-78402166D02*
X151364500Y-78359833D01*
X151322166Y-78317500D01*
X151279833Y-78232833D01*
X151279833Y-77978833D01*
X151322166Y-77894166D01*
X151364500Y-77851833D01*
X151449166Y-77809500D01*
X151576166Y-77809500D01*
X151660833Y-77851833D01*
X151703166Y-77894166D01*
X151745500Y-77978833D01*
X151745500Y-78232833D01*
X151703166Y-78317500D01*
X151660833Y-78359833D01*
X151576166Y-78402166D01*
X151449166Y-78402166D01*
X152126500Y-77809500D02*
X152126500Y-78402166D01*
X152126500Y-77894166D02*
X152168833Y-77851833D01*
X152253500Y-77809500D01*
X152380500Y-77809500D01*
X152465166Y-77851833D01*
X152507500Y-77936500D01*
X152507500Y-78402166D01*
X152930833Y-77809500D02*
X152930833Y-78402166D01*
X152930833Y-77894166D02*
X152973166Y-77851833D01*
X153057833Y-77809500D01*
X153184833Y-77809500D01*
X153269500Y-77851833D01*
X153311833Y-77936500D01*
X153311833Y-78402166D01*
X153523500Y-78486833D02*
X154200833Y-78486833D01*
X154581833Y-77513166D02*
X154666500Y-77513166D01*
X154751166Y-77555500D01*
X154793500Y-77597833D01*
X154835833Y-77682500D01*
X154878166Y-77851833D01*
X154878166Y-78063500D01*
X154835833Y-78232833D01*
X154793500Y-78317500D01*
X154751166Y-78359833D01*
X154666500Y-78402166D01*
X154581833Y-78402166D01*
X154497166Y-78359833D01*
X154454833Y-78317500D01*
X154412500Y-78232833D01*
X154370166Y-78063500D01*
X154370166Y-77851833D01*
X154412500Y-77682500D01*
X154454833Y-77597833D01*
X154497166Y-77555500D01*
X154581833Y-77513166D01*
X155724833Y-78402166D02*
X155216833Y-78402166D01*
X155470833Y-78402166D02*
X155470833Y-77513166D01*
X155386166Y-77640166D01*
X155301500Y-77724833D01*
X155216833Y-77767166D01*
X156021166Y-78402166D02*
X156486833Y-77809500D01*
X156021166Y-77809500D02*
X156486833Y-78402166D01*
X156994833Y-77513166D02*
X157079500Y-77513166D01*
X157164166Y-77555500D01*
X157206500Y-77597833D01*
X157248833Y-77682500D01*
X157291166Y-77851833D01*
X157291166Y-78063500D01*
X157248833Y-78232833D01*
X157206500Y-78317500D01*
X157164166Y-78359833D01*
X157079500Y-78402166D01*
X156994833Y-78402166D01*
X156910166Y-78359833D01*
X156867833Y-78317500D01*
X156825500Y-78232833D01*
X156783166Y-78063500D01*
X156783166Y-77851833D01*
X156825500Y-77682500D01*
X156867833Y-77597833D01*
X156910166Y-77555500D01*
X156994833Y-77513166D01*
X158053166Y-77809500D02*
X158053166Y-78402166D01*
X157841500Y-77470833D02*
X157629833Y-78105833D01*
X158180166Y-78105833D01*
X158307166Y-78486833D02*
X158984500Y-78486833D01*
X159196166Y-78402166D02*
X159196166Y-77513166D01*
X159492500Y-78148166D01*
X159788833Y-77513166D01*
X159788833Y-78402166D01*
X160593166Y-78402166D02*
X160593166Y-77936500D01*
X160550833Y-77851833D01*
X160466166Y-77809500D01*
X160296833Y-77809500D01*
X160212166Y-77851833D01*
X160593166Y-78359833D02*
X160508500Y-78402166D01*
X160296833Y-78402166D01*
X160212166Y-78359833D01*
X160169833Y-78275166D01*
X160169833Y-78190500D01*
X160212166Y-78105833D01*
X160296833Y-78063500D01*
X160508500Y-78063500D01*
X160593166Y-78021166D01*
X161143500Y-78402166D02*
X161058833Y-78359833D01*
X161016500Y-78275166D01*
X161016500Y-77513166D01*
X161820833Y-78359833D02*
X161736166Y-78402166D01*
X161566833Y-78402166D01*
X161482166Y-78359833D01*
X161439833Y-78275166D01*
X161439833Y-77936500D01*
X161482166Y-77851833D01*
X161566833Y-77809500D01*
X161736166Y-77809500D01*
X161820833Y-77851833D01*
X161863166Y-77936500D01*
X161863166Y-78021166D01*
X161439833Y-78105833D01*
G04 #@! TO.C,R1*
D16*
X141733333Y-77452380D02*
X141400000Y-76976190D01*
X141161904Y-77452380D02*
X141161904Y-76452380D01*
X141542857Y-76452380D01*
X141638095Y-76500000D01*
X141685714Y-76547619D01*
X141733333Y-76642857D01*
X141733333Y-76785714D01*
X141685714Y-76880952D01*
X141638095Y-76928571D01*
X141542857Y-76976190D01*
X141161904Y-76976190D01*
X142685714Y-77452380D02*
X142114285Y-77452380D01*
X142400000Y-77452380D02*
X142400000Y-76452380D01*
X142304761Y-76595238D01*
X142209523Y-76690476D01*
X142114285Y-76738095D01*
G04 #@! TO.C,R2*
X135933333Y-78002380D02*
X135600000Y-77526190D01*
X135361904Y-78002380D02*
X135361904Y-77002380D01*
X135742857Y-77002380D01*
X135838095Y-77050000D01*
X135885714Y-77097619D01*
X135933333Y-77192857D01*
X135933333Y-77335714D01*
X135885714Y-77430952D01*
X135838095Y-77478571D01*
X135742857Y-77526190D01*
X135361904Y-77526190D01*
X136314285Y-77097619D02*
X136361904Y-77050000D01*
X136457142Y-77002380D01*
X136695238Y-77002380D01*
X136790476Y-77050000D01*
X136838095Y-77097619D01*
X136885714Y-77192857D01*
X136885714Y-77288095D01*
X136838095Y-77430952D01*
X136266666Y-78002380D01*
X136885714Y-78002380D01*
G04 #@! TO.C,R3*
X145002380Y-84266666D02*
X144526190Y-84600000D01*
X145002380Y-84838095D02*
X144002380Y-84838095D01*
X144002380Y-84457142D01*
X144050000Y-84361904D01*
X144097619Y-84314285D01*
X144192857Y-84266666D01*
X144335714Y-84266666D01*
X144430952Y-84314285D01*
X144478571Y-84361904D01*
X144526190Y-84457142D01*
X144526190Y-84838095D01*
X144002380Y-83933333D02*
X144002380Y-83314285D01*
X144383333Y-83647619D01*
X144383333Y-83504761D01*
X144430952Y-83409523D01*
X144478571Y-83361904D01*
X144573809Y-83314285D01*
X144811904Y-83314285D01*
X144907142Y-83361904D01*
X144954761Y-83409523D01*
X145002380Y-83504761D01*
X145002380Y-83790476D01*
X144954761Y-83885714D01*
X144907142Y-83933333D01*
G04 #@! TO.C,R4*
X131802380Y-83716666D02*
X131326190Y-84050000D01*
X131802380Y-84288095D02*
X130802380Y-84288095D01*
X130802380Y-83907142D01*
X130850000Y-83811904D01*
X130897619Y-83764285D01*
X130992857Y-83716666D01*
X131135714Y-83716666D01*
X131230952Y-83764285D01*
X131278571Y-83811904D01*
X131326190Y-83907142D01*
X131326190Y-84288095D01*
X131135714Y-82859523D02*
X131802380Y-82859523D01*
X130754761Y-83097619D02*
X131469047Y-83335714D01*
X131469047Y-82716666D01*
G04 #@! TO.C,R5*
X128002380Y-86066666D02*
X127526190Y-86400000D01*
X128002380Y-86638095D02*
X127002380Y-86638095D01*
X127002380Y-86257142D01*
X127050000Y-86161904D01*
X127097619Y-86114285D01*
X127192857Y-86066666D01*
X127335714Y-86066666D01*
X127430952Y-86114285D01*
X127478571Y-86161904D01*
X127526190Y-86257142D01*
X127526190Y-86638095D01*
X127002380Y-85161904D02*
X127002380Y-85638095D01*
X127478571Y-85685714D01*
X127430952Y-85638095D01*
X127383333Y-85542857D01*
X127383333Y-85304761D01*
X127430952Y-85209523D01*
X127478571Y-85161904D01*
X127573809Y-85114285D01*
X127811904Y-85114285D01*
X127907142Y-85161904D01*
X127954761Y-85209523D01*
X128002380Y-85304761D01*
X128002380Y-85542857D01*
X127954761Y-85638095D01*
X127907142Y-85685714D01*
G04 #@! TO.C,R6*
X146902380Y-110266666D02*
X146426190Y-110600000D01*
X146902380Y-110838095D02*
X145902380Y-110838095D01*
X145902380Y-110457142D01*
X145950000Y-110361904D01*
X145997619Y-110314285D01*
X146092857Y-110266666D01*
X146235714Y-110266666D01*
X146330952Y-110314285D01*
X146378571Y-110361904D01*
X146426190Y-110457142D01*
X146426190Y-110838095D01*
X145902380Y-109409523D02*
X145902380Y-109600000D01*
X145950000Y-109695238D01*
X145997619Y-109742857D01*
X146140476Y-109838095D01*
X146330952Y-109885714D01*
X146711904Y-109885714D01*
X146807142Y-109838095D01*
X146854761Y-109790476D01*
X146902380Y-109695238D01*
X146902380Y-109504761D01*
X146854761Y-109409523D01*
X146807142Y-109361904D01*
X146711904Y-109314285D01*
X146473809Y-109314285D01*
X146378571Y-109361904D01*
X146330952Y-109409523D01*
X146283333Y-109504761D01*
X146283333Y-109695238D01*
X146330952Y-109790476D01*
X146378571Y-109838095D01*
X146473809Y-109885714D01*
G04 #@! TO.C,R7*
X131442380Y-109216666D02*
X130966190Y-109550000D01*
X131442380Y-109788095D02*
X130442380Y-109788095D01*
X130442380Y-109407142D01*
X130490000Y-109311904D01*
X130537619Y-109264285D01*
X130632857Y-109216666D01*
X130775714Y-109216666D01*
X130870952Y-109264285D01*
X130918571Y-109311904D01*
X130966190Y-109407142D01*
X130966190Y-109788095D01*
X130442380Y-108883333D02*
X130442380Y-108216666D01*
X131442380Y-108645238D01*
G04 #@! TO.C,R8*
X144902380Y-113266666D02*
X144426190Y-113600000D01*
X144902380Y-113838095D02*
X143902380Y-113838095D01*
X143902380Y-113457142D01*
X143950000Y-113361904D01*
X143997619Y-113314285D01*
X144092857Y-113266666D01*
X144235714Y-113266666D01*
X144330952Y-113314285D01*
X144378571Y-113361904D01*
X144426190Y-113457142D01*
X144426190Y-113838095D01*
X144330952Y-112695238D02*
X144283333Y-112790476D01*
X144235714Y-112838095D01*
X144140476Y-112885714D01*
X144092857Y-112885714D01*
X143997619Y-112838095D01*
X143950000Y-112790476D01*
X143902380Y-112695238D01*
X143902380Y-112504761D01*
X143950000Y-112409523D01*
X143997619Y-112361904D01*
X144092857Y-112314285D01*
X144140476Y-112314285D01*
X144235714Y-112361904D01*
X144283333Y-112409523D01*
X144330952Y-112504761D01*
X144330952Y-112695238D01*
X144378571Y-112790476D01*
X144426190Y-112838095D01*
X144521428Y-112885714D01*
X144711904Y-112885714D01*
X144807142Y-112838095D01*
X144854761Y-112790476D01*
X144902380Y-112695238D01*
X144902380Y-112504761D01*
X144854761Y-112409523D01*
X144807142Y-112361904D01*
X144711904Y-112314285D01*
X144521428Y-112314285D01*
X144426190Y-112361904D01*
X144378571Y-112409523D01*
X144330952Y-112504761D01*
G04 #@! TO.C,R9*
X140733333Y-117002380D02*
X140400000Y-116526190D01*
X140161904Y-117002380D02*
X140161904Y-116002380D01*
X140542857Y-116002380D01*
X140638095Y-116050000D01*
X140685714Y-116097619D01*
X140733333Y-116192857D01*
X140733333Y-116335714D01*
X140685714Y-116430952D01*
X140638095Y-116478571D01*
X140542857Y-116526190D01*
X140161904Y-116526190D01*
X141209523Y-117002380D02*
X141400000Y-117002380D01*
X141495238Y-116954761D01*
X141542857Y-116907142D01*
X141638095Y-116764285D01*
X141685714Y-116573809D01*
X141685714Y-116192857D01*
X141638095Y-116097619D01*
X141590476Y-116050000D01*
X141495238Y-116002380D01*
X141304761Y-116002380D01*
X141209523Y-116050000D01*
X141161904Y-116097619D01*
X141114285Y-116192857D01*
X141114285Y-116430952D01*
X141161904Y-116526190D01*
X141209523Y-116573809D01*
X141304761Y-116621428D01*
X141495238Y-116621428D01*
X141590476Y-116573809D01*
X141638095Y-116526190D01*
X141685714Y-116430952D01*
G04 #@! TO.C,R10*
X135257142Y-114002380D02*
X134923809Y-113526190D01*
X134685714Y-114002380D02*
X134685714Y-113002380D01*
X135066666Y-113002380D01*
X135161904Y-113050000D01*
X135209523Y-113097619D01*
X135257142Y-113192857D01*
X135257142Y-113335714D01*
X135209523Y-113430952D01*
X135161904Y-113478571D01*
X135066666Y-113526190D01*
X134685714Y-113526190D01*
X136209523Y-114002380D02*
X135638095Y-114002380D01*
X135923809Y-114002380D02*
X135923809Y-113002380D01*
X135828571Y-113145238D01*
X135733333Y-113240476D01*
X135638095Y-113288095D01*
X136828571Y-113002380D02*
X136923809Y-113002380D01*
X137019047Y-113050000D01*
X137066666Y-113097619D01*
X137114285Y-113192857D01*
X137161904Y-113383333D01*
X137161904Y-113621428D01*
X137114285Y-113811904D01*
X137066666Y-113907142D01*
X137019047Y-113954761D01*
X136923809Y-114002380D01*
X136828571Y-114002380D01*
X136733333Y-113954761D01*
X136685714Y-113907142D01*
X136638095Y-113811904D01*
X136590476Y-113621428D01*
X136590476Y-113383333D01*
X136638095Y-113192857D01*
X136685714Y-113097619D01*
X136733333Y-113050000D01*
X136828571Y-113002380D01*
G04 #@! TO.C,R11*
X124457142Y-92902380D02*
X124123809Y-92426190D01*
X123885714Y-92902380D02*
X123885714Y-91902380D01*
X124266666Y-91902380D01*
X124361904Y-91950000D01*
X124409523Y-91997619D01*
X124457142Y-92092857D01*
X124457142Y-92235714D01*
X124409523Y-92330952D01*
X124361904Y-92378571D01*
X124266666Y-92426190D01*
X123885714Y-92426190D01*
X125409523Y-92902380D02*
X124838095Y-92902380D01*
X125123809Y-92902380D02*
X125123809Y-91902380D01*
X125028571Y-92045238D01*
X124933333Y-92140476D01*
X124838095Y-92188095D01*
X126361904Y-92902380D02*
X125790476Y-92902380D01*
X126076190Y-92902380D02*
X126076190Y-91902380D01*
X125980952Y-92045238D01*
X125885714Y-92140476D01*
X125790476Y-92188095D01*
G04 #@! TO.C,R12*
X151587142Y-87902380D02*
X151253809Y-87426190D01*
X151015714Y-87902380D02*
X151015714Y-86902380D01*
X151396666Y-86902380D01*
X151491904Y-86950000D01*
X151539523Y-86997619D01*
X151587142Y-87092857D01*
X151587142Y-87235714D01*
X151539523Y-87330952D01*
X151491904Y-87378571D01*
X151396666Y-87426190D01*
X151015714Y-87426190D01*
X152539523Y-87902380D02*
X151968095Y-87902380D01*
X152253809Y-87902380D02*
X152253809Y-86902380D01*
X152158571Y-87045238D01*
X152063333Y-87140476D01*
X151968095Y-87188095D01*
X152920476Y-86997619D02*
X152968095Y-86950000D01*
X153063333Y-86902380D01*
X153301428Y-86902380D01*
X153396666Y-86950000D01*
X153444285Y-86997619D01*
X153491904Y-87092857D01*
X153491904Y-87188095D01*
X153444285Y-87330952D01*
X152872857Y-87902380D01*
X153491904Y-87902380D01*
G04 #@! TO.C,R13*
X175257142Y-87002380D02*
X174923809Y-86526190D01*
X174685714Y-87002380D02*
X174685714Y-86002380D01*
X175066666Y-86002380D01*
X175161904Y-86050000D01*
X175209523Y-86097619D01*
X175257142Y-86192857D01*
X175257142Y-86335714D01*
X175209523Y-86430952D01*
X175161904Y-86478571D01*
X175066666Y-86526190D01*
X174685714Y-86526190D01*
X176209523Y-87002380D02*
X175638095Y-87002380D01*
X175923809Y-87002380D02*
X175923809Y-86002380D01*
X175828571Y-86145238D01*
X175733333Y-86240476D01*
X175638095Y-86288095D01*
X176542857Y-86002380D02*
X177161904Y-86002380D01*
X176828571Y-86383333D01*
X176971428Y-86383333D01*
X177066666Y-86430952D01*
X177114285Y-86478571D01*
X177161904Y-86573809D01*
X177161904Y-86811904D01*
X177114285Y-86907142D01*
X177066666Y-86954761D01*
X176971428Y-87002380D01*
X176685714Y-87002380D01*
X176590476Y-86954761D01*
X176542857Y-86907142D01*
G04 #@! TO.C,R14*
X154457142Y-107002380D02*
X154123809Y-106526190D01*
X153885714Y-107002380D02*
X153885714Y-106002380D01*
X154266666Y-106002380D01*
X154361904Y-106050000D01*
X154409523Y-106097619D01*
X154457142Y-106192857D01*
X154457142Y-106335714D01*
X154409523Y-106430952D01*
X154361904Y-106478571D01*
X154266666Y-106526190D01*
X153885714Y-106526190D01*
X155409523Y-107002380D02*
X154838095Y-107002380D01*
X155123809Y-107002380D02*
X155123809Y-106002380D01*
X155028571Y-106145238D01*
X154933333Y-106240476D01*
X154838095Y-106288095D01*
X156266666Y-106335714D02*
X156266666Y-107002380D01*
X156028571Y-105954761D02*
X155790476Y-106669047D01*
X156409523Y-106669047D01*
G04 #@! TO.C,R19*
X120257142Y-106902380D02*
X119923809Y-106426190D01*
X119685714Y-106902380D02*
X119685714Y-105902380D01*
X120066666Y-105902380D01*
X120161904Y-105950000D01*
X120209523Y-105997619D01*
X120257142Y-106092857D01*
X120257142Y-106235714D01*
X120209523Y-106330952D01*
X120161904Y-106378571D01*
X120066666Y-106426190D01*
X119685714Y-106426190D01*
X121209523Y-106902380D02*
X120638095Y-106902380D01*
X120923809Y-106902380D02*
X120923809Y-105902380D01*
X120828571Y-106045238D01*
X120733333Y-106140476D01*
X120638095Y-106188095D01*
X121685714Y-106902380D02*
X121876190Y-106902380D01*
X121971428Y-106854761D01*
X122019047Y-106807142D01*
X122114285Y-106664285D01*
X122161904Y-106473809D01*
X122161904Y-106092857D01*
X122114285Y-105997619D01*
X122066666Y-105950000D01*
X121971428Y-105902380D01*
X121780952Y-105902380D01*
X121685714Y-105950000D01*
X121638095Y-105997619D01*
X121590476Y-106092857D01*
X121590476Y-106330952D01*
X121638095Y-106426190D01*
X121685714Y-106473809D01*
X121780952Y-106521428D01*
X121971428Y-106521428D01*
X122066666Y-106473809D01*
X122114285Y-106426190D01*
X122161904Y-106330952D01*
G04 #@! TO.C,R20*
X122166142Y-97099380D02*
X121832809Y-96623190D01*
X121594714Y-97099380D02*
X121594714Y-96099380D01*
X121975666Y-96099380D01*
X122070904Y-96147000D01*
X122118523Y-96194619D01*
X122166142Y-96289857D01*
X122166142Y-96432714D01*
X122118523Y-96527952D01*
X122070904Y-96575571D01*
X121975666Y-96623190D01*
X121594714Y-96623190D01*
X122547095Y-96194619D02*
X122594714Y-96147000D01*
X122689952Y-96099380D01*
X122928047Y-96099380D01*
X123023285Y-96147000D01*
X123070904Y-96194619D01*
X123118523Y-96289857D01*
X123118523Y-96385095D01*
X123070904Y-96527952D01*
X122499476Y-97099380D01*
X123118523Y-97099380D01*
X123737571Y-96099380D02*
X123832809Y-96099380D01*
X123928047Y-96147000D01*
X123975666Y-96194619D01*
X124023285Y-96289857D01*
X124070904Y-96480333D01*
X124070904Y-96718428D01*
X124023285Y-96908904D01*
X123975666Y-97004142D01*
X123928047Y-97051761D01*
X123832809Y-97099380D01*
X123737571Y-97099380D01*
X123642333Y-97051761D01*
X123594714Y-97004142D01*
X123547095Y-96908904D01*
X123499476Y-96718428D01*
X123499476Y-96480333D01*
X123547095Y-96289857D01*
X123594714Y-96194619D01*
X123642333Y-96147000D01*
X123737571Y-96099380D01*
G04 #@! TO.C,R21*
X123002380Y-86642857D02*
X122526190Y-86976190D01*
X123002380Y-87214285D02*
X122002380Y-87214285D01*
X122002380Y-86833333D01*
X122050000Y-86738095D01*
X122097619Y-86690476D01*
X122192857Y-86642857D01*
X122335714Y-86642857D01*
X122430952Y-86690476D01*
X122478571Y-86738095D01*
X122526190Y-86833333D01*
X122526190Y-87214285D01*
X122097619Y-86261904D02*
X122050000Y-86214285D01*
X122002380Y-86119047D01*
X122002380Y-85880952D01*
X122050000Y-85785714D01*
X122097619Y-85738095D01*
X122192857Y-85690476D01*
X122288095Y-85690476D01*
X122430952Y-85738095D01*
X123002380Y-86309523D01*
X123002380Y-85690476D01*
X123002380Y-84738095D02*
X123002380Y-85309523D01*
X123002380Y-85023809D02*
X122002380Y-85023809D01*
X122145238Y-85119047D01*
X122240476Y-85214285D01*
X122288095Y-85309523D01*
G04 #@! TO.C,R22*
X124257142Y-116002380D02*
X123923809Y-115526190D01*
X123685714Y-116002380D02*
X123685714Y-115002380D01*
X124066666Y-115002380D01*
X124161904Y-115050000D01*
X124209523Y-115097619D01*
X124257142Y-115192857D01*
X124257142Y-115335714D01*
X124209523Y-115430952D01*
X124161904Y-115478571D01*
X124066666Y-115526190D01*
X123685714Y-115526190D01*
X124638095Y-115097619D02*
X124685714Y-115050000D01*
X124780952Y-115002380D01*
X125019047Y-115002380D01*
X125114285Y-115050000D01*
X125161904Y-115097619D01*
X125209523Y-115192857D01*
X125209523Y-115288095D01*
X125161904Y-115430952D01*
X124590476Y-116002380D01*
X125209523Y-116002380D01*
X125590476Y-115097619D02*
X125638095Y-115050000D01*
X125733333Y-115002380D01*
X125971428Y-115002380D01*
X126066666Y-115050000D01*
X126114285Y-115097619D01*
X126161904Y-115192857D01*
X126161904Y-115288095D01*
X126114285Y-115430952D01*
X125542857Y-116002380D01*
X126161904Y-116002380D01*
G04 #@! TO.C,R23*
X160902380Y-122742857D02*
X160426190Y-123076190D01*
X160902380Y-123314285D02*
X159902380Y-123314285D01*
X159902380Y-122933333D01*
X159950000Y-122838095D01*
X159997619Y-122790476D01*
X160092857Y-122742857D01*
X160235714Y-122742857D01*
X160330952Y-122790476D01*
X160378571Y-122838095D01*
X160426190Y-122933333D01*
X160426190Y-123314285D01*
X159997619Y-122361904D02*
X159950000Y-122314285D01*
X159902380Y-122219047D01*
X159902380Y-121980952D01*
X159950000Y-121885714D01*
X159997619Y-121838095D01*
X160092857Y-121790476D01*
X160188095Y-121790476D01*
X160330952Y-121838095D01*
X160902380Y-122409523D01*
X160902380Y-121790476D01*
X159902380Y-121457142D02*
X159902380Y-120838095D01*
X160283333Y-121171428D01*
X160283333Y-121028571D01*
X160330952Y-120933333D01*
X160378571Y-120885714D01*
X160473809Y-120838095D01*
X160711904Y-120838095D01*
X160807142Y-120885714D01*
X160854761Y-120933333D01*
X160902380Y-121028571D01*
X160902380Y-121314285D01*
X160854761Y-121409523D01*
X160807142Y-121457142D01*
G04 #@! TO.C,R24*
X135457142Y-75902380D02*
X135123809Y-75426190D01*
X134885714Y-75902380D02*
X134885714Y-74902380D01*
X135266666Y-74902380D01*
X135361904Y-74950000D01*
X135409523Y-74997619D01*
X135457142Y-75092857D01*
X135457142Y-75235714D01*
X135409523Y-75330952D01*
X135361904Y-75378571D01*
X135266666Y-75426190D01*
X134885714Y-75426190D01*
X135838095Y-74997619D02*
X135885714Y-74950000D01*
X135980952Y-74902380D01*
X136219047Y-74902380D01*
X136314285Y-74950000D01*
X136361904Y-74997619D01*
X136409523Y-75092857D01*
X136409523Y-75188095D01*
X136361904Y-75330952D01*
X135790476Y-75902380D01*
X136409523Y-75902380D01*
X137266666Y-75235714D02*
X137266666Y-75902380D01*
X137028571Y-74854761D02*
X136790476Y-75569047D01*
X137409523Y-75569047D01*
G04 #@! TO.C,R25*
X123257142Y-112002380D02*
X122923809Y-111526190D01*
X122685714Y-112002380D02*
X122685714Y-111002380D01*
X123066666Y-111002380D01*
X123161904Y-111050000D01*
X123209523Y-111097619D01*
X123257142Y-111192857D01*
X123257142Y-111335714D01*
X123209523Y-111430952D01*
X123161904Y-111478571D01*
X123066666Y-111526190D01*
X122685714Y-111526190D01*
X123638095Y-111097619D02*
X123685714Y-111050000D01*
X123780952Y-111002380D01*
X124019047Y-111002380D01*
X124114285Y-111050000D01*
X124161904Y-111097619D01*
X124209523Y-111192857D01*
X124209523Y-111288095D01*
X124161904Y-111430952D01*
X123590476Y-112002380D01*
X124209523Y-112002380D01*
X125114285Y-111002380D02*
X124638095Y-111002380D01*
X124590476Y-111478571D01*
X124638095Y-111430952D01*
X124733333Y-111383333D01*
X124971428Y-111383333D01*
X125066666Y-111430952D01*
X125114285Y-111478571D01*
X125161904Y-111573809D01*
X125161904Y-111811904D01*
X125114285Y-111907142D01*
X125066666Y-111954761D01*
X124971428Y-112002380D01*
X124733333Y-112002380D01*
X124638095Y-111954761D01*
X124590476Y-111907142D01*
G04 #@! TO.C,R26*
X163457142Y-123902380D02*
X163123809Y-123426190D01*
X162885714Y-123902380D02*
X162885714Y-122902380D01*
X163266666Y-122902380D01*
X163361904Y-122950000D01*
X163409523Y-122997619D01*
X163457142Y-123092857D01*
X163457142Y-123235714D01*
X163409523Y-123330952D01*
X163361904Y-123378571D01*
X163266666Y-123426190D01*
X162885714Y-123426190D01*
X163838095Y-122997619D02*
X163885714Y-122950000D01*
X163980952Y-122902380D01*
X164219047Y-122902380D01*
X164314285Y-122950000D01*
X164361904Y-122997619D01*
X164409523Y-123092857D01*
X164409523Y-123188095D01*
X164361904Y-123330952D01*
X163790476Y-123902380D01*
X164409523Y-123902380D01*
X165266666Y-122902380D02*
X165076190Y-122902380D01*
X164980952Y-122950000D01*
X164933333Y-122997619D01*
X164838095Y-123140476D01*
X164790476Y-123330952D01*
X164790476Y-123711904D01*
X164838095Y-123807142D01*
X164885714Y-123854761D01*
X164980952Y-123902380D01*
X165171428Y-123902380D01*
X165266666Y-123854761D01*
X165314285Y-123807142D01*
X165361904Y-123711904D01*
X165361904Y-123473809D01*
X165314285Y-123378571D01*
X165266666Y-123330952D01*
X165171428Y-123283333D01*
X164980952Y-123283333D01*
X164885714Y-123330952D01*
X164838095Y-123378571D01*
X164790476Y-123473809D01*
G04 #@! TO.C,R27*
X155357142Y-70002380D02*
X155023809Y-69526190D01*
X154785714Y-70002380D02*
X154785714Y-69002380D01*
X155166666Y-69002380D01*
X155261904Y-69050000D01*
X155309523Y-69097619D01*
X155357142Y-69192857D01*
X155357142Y-69335714D01*
X155309523Y-69430952D01*
X155261904Y-69478571D01*
X155166666Y-69526190D01*
X154785714Y-69526190D01*
X155738095Y-69097619D02*
X155785714Y-69050000D01*
X155880952Y-69002380D01*
X156119047Y-69002380D01*
X156214285Y-69050000D01*
X156261904Y-69097619D01*
X156309523Y-69192857D01*
X156309523Y-69288095D01*
X156261904Y-69430952D01*
X155690476Y-70002380D01*
X156309523Y-70002380D01*
X156642857Y-69002380D02*
X157309523Y-69002380D01*
X156880952Y-70002380D01*
G04 #@! TO.C,R28*
X146902380Y-128542857D02*
X146426190Y-128876190D01*
X146902380Y-129114285D02*
X145902380Y-129114285D01*
X145902380Y-128733333D01*
X145950000Y-128638095D01*
X145997619Y-128590476D01*
X146092857Y-128542857D01*
X146235714Y-128542857D01*
X146330952Y-128590476D01*
X146378571Y-128638095D01*
X146426190Y-128733333D01*
X146426190Y-129114285D01*
X145997619Y-128161904D02*
X145950000Y-128114285D01*
X145902380Y-128019047D01*
X145902380Y-127780952D01*
X145950000Y-127685714D01*
X145997619Y-127638095D01*
X146092857Y-127590476D01*
X146188095Y-127590476D01*
X146330952Y-127638095D01*
X146902380Y-128209523D01*
X146902380Y-127590476D01*
X146330952Y-127019047D02*
X146283333Y-127114285D01*
X146235714Y-127161904D01*
X146140476Y-127209523D01*
X146092857Y-127209523D01*
X145997619Y-127161904D01*
X145950000Y-127114285D01*
X145902380Y-127019047D01*
X145902380Y-126828571D01*
X145950000Y-126733333D01*
X145997619Y-126685714D01*
X146092857Y-126638095D01*
X146140476Y-126638095D01*
X146235714Y-126685714D01*
X146283333Y-126733333D01*
X146330952Y-126828571D01*
X146330952Y-127019047D01*
X146378571Y-127114285D01*
X146426190Y-127161904D01*
X146521428Y-127209523D01*
X146711904Y-127209523D01*
X146807142Y-127161904D01*
X146854761Y-127114285D01*
X146902380Y-127019047D01*
X146902380Y-126828571D01*
X146854761Y-126733333D01*
X146807142Y-126685714D01*
X146711904Y-126638095D01*
X146521428Y-126638095D01*
X146426190Y-126685714D01*
X146378571Y-126733333D01*
X146330952Y-126828571D01*
G04 #@! TO.C,R29*
X143257142Y-70002380D02*
X142923809Y-69526190D01*
X142685714Y-70002380D02*
X142685714Y-69002380D01*
X143066666Y-69002380D01*
X143161904Y-69050000D01*
X143209523Y-69097619D01*
X143257142Y-69192857D01*
X143257142Y-69335714D01*
X143209523Y-69430952D01*
X143161904Y-69478571D01*
X143066666Y-69526190D01*
X142685714Y-69526190D01*
X143638095Y-69097619D02*
X143685714Y-69050000D01*
X143780952Y-69002380D01*
X144019047Y-69002380D01*
X144114285Y-69050000D01*
X144161904Y-69097619D01*
X144209523Y-69192857D01*
X144209523Y-69288095D01*
X144161904Y-69430952D01*
X143590476Y-70002380D01*
X144209523Y-70002380D01*
X144685714Y-70002380D02*
X144876190Y-70002380D01*
X144971428Y-69954761D01*
X145019047Y-69907142D01*
X145114285Y-69764285D01*
X145161904Y-69573809D01*
X145161904Y-69192857D01*
X145114285Y-69097619D01*
X145066666Y-69050000D01*
X144971428Y-69002380D01*
X144780952Y-69002380D01*
X144685714Y-69050000D01*
X144638095Y-69097619D01*
X144590476Y-69192857D01*
X144590476Y-69430952D01*
X144638095Y-69526190D01*
X144685714Y-69573809D01*
X144780952Y-69621428D01*
X144971428Y-69621428D01*
X145066666Y-69573809D01*
X145114285Y-69526190D01*
X145161904Y-69430952D01*
G04 #@! TO.C,R30*
X155457142Y-130902380D02*
X155123809Y-130426190D01*
X154885714Y-130902380D02*
X154885714Y-129902380D01*
X155266666Y-129902380D01*
X155361904Y-129950000D01*
X155409523Y-129997619D01*
X155457142Y-130092857D01*
X155457142Y-130235714D01*
X155409523Y-130330952D01*
X155361904Y-130378571D01*
X155266666Y-130426190D01*
X154885714Y-130426190D01*
X155790476Y-129902380D02*
X156409523Y-129902380D01*
X156076190Y-130283333D01*
X156219047Y-130283333D01*
X156314285Y-130330952D01*
X156361904Y-130378571D01*
X156409523Y-130473809D01*
X156409523Y-130711904D01*
X156361904Y-130807142D01*
X156314285Y-130854761D01*
X156219047Y-130902380D01*
X155933333Y-130902380D01*
X155838095Y-130854761D01*
X155790476Y-130807142D01*
X157028571Y-129902380D02*
X157123809Y-129902380D01*
X157219047Y-129950000D01*
X157266666Y-129997619D01*
X157314285Y-130092857D01*
X157361904Y-130283333D01*
X157361904Y-130521428D01*
X157314285Y-130711904D01*
X157266666Y-130807142D01*
X157219047Y-130854761D01*
X157123809Y-130902380D01*
X157028571Y-130902380D01*
X156933333Y-130854761D01*
X156885714Y-130807142D01*
X156838095Y-130711904D01*
X156790476Y-130521428D01*
X156790476Y-130283333D01*
X156838095Y-130092857D01*
X156885714Y-129997619D01*
X156933333Y-129950000D01*
X157028571Y-129902380D01*
G04 #@! TO.C,R31*
X162357142Y-74002380D02*
X162023809Y-73526190D01*
X161785714Y-74002380D02*
X161785714Y-73002380D01*
X162166666Y-73002380D01*
X162261904Y-73050000D01*
X162309523Y-73097619D01*
X162357142Y-73192857D01*
X162357142Y-73335714D01*
X162309523Y-73430952D01*
X162261904Y-73478571D01*
X162166666Y-73526190D01*
X161785714Y-73526190D01*
X162690476Y-73002380D02*
X163309523Y-73002380D01*
X162976190Y-73383333D01*
X163119047Y-73383333D01*
X163214285Y-73430952D01*
X163261904Y-73478571D01*
X163309523Y-73573809D01*
X163309523Y-73811904D01*
X163261904Y-73907142D01*
X163214285Y-73954761D01*
X163119047Y-74002380D01*
X162833333Y-74002380D01*
X162738095Y-73954761D01*
X162690476Y-73907142D01*
X164261904Y-74002380D02*
X163690476Y-74002380D01*
X163976190Y-74002380D02*
X163976190Y-73002380D01*
X163880952Y-73145238D01*
X163785714Y-73240476D01*
X163690476Y-73288095D01*
G04 #@! TO.C,R32*
X163257142Y-126002380D02*
X162923809Y-125526190D01*
X162685714Y-126002380D02*
X162685714Y-125002380D01*
X163066666Y-125002380D01*
X163161904Y-125050000D01*
X163209523Y-125097619D01*
X163257142Y-125192857D01*
X163257142Y-125335714D01*
X163209523Y-125430952D01*
X163161904Y-125478571D01*
X163066666Y-125526190D01*
X162685714Y-125526190D01*
X163590476Y-125002380D02*
X164209523Y-125002380D01*
X163876190Y-125383333D01*
X164019047Y-125383333D01*
X164114285Y-125430952D01*
X164161904Y-125478571D01*
X164209523Y-125573809D01*
X164209523Y-125811904D01*
X164161904Y-125907142D01*
X164114285Y-125954761D01*
X164019047Y-126002380D01*
X163733333Y-126002380D01*
X163638095Y-125954761D01*
X163590476Y-125907142D01*
X164590476Y-125097619D02*
X164638095Y-125050000D01*
X164733333Y-125002380D01*
X164971428Y-125002380D01*
X165066666Y-125050000D01*
X165114285Y-125097619D01*
X165161904Y-125192857D01*
X165161904Y-125288095D01*
X165114285Y-125430952D01*
X164542857Y-126002380D01*
X165161904Y-126002380D01*
G04 #@! TO.C,R33*
X170257142Y-82002380D02*
X169923809Y-81526190D01*
X169685714Y-82002380D02*
X169685714Y-81002380D01*
X170066666Y-81002380D01*
X170161904Y-81050000D01*
X170209523Y-81097619D01*
X170257142Y-81192857D01*
X170257142Y-81335714D01*
X170209523Y-81430952D01*
X170161904Y-81478571D01*
X170066666Y-81526190D01*
X169685714Y-81526190D01*
X170590476Y-81002380D02*
X171209523Y-81002380D01*
X170876190Y-81383333D01*
X171019047Y-81383333D01*
X171114285Y-81430952D01*
X171161904Y-81478571D01*
X171209523Y-81573809D01*
X171209523Y-81811904D01*
X171161904Y-81907142D01*
X171114285Y-81954761D01*
X171019047Y-82002380D01*
X170733333Y-82002380D01*
X170638095Y-81954761D01*
X170590476Y-81907142D01*
X171542857Y-81002380D02*
X172161904Y-81002380D01*
X171828571Y-81383333D01*
X171971428Y-81383333D01*
X172066666Y-81430952D01*
X172114285Y-81478571D01*
X172161904Y-81573809D01*
X172161904Y-81811904D01*
X172114285Y-81907142D01*
X172066666Y-81954761D01*
X171971428Y-82002380D01*
X171685714Y-82002380D01*
X171590476Y-81954761D01*
X171542857Y-81907142D01*
G04 #@! TO.C,R34*
X175357142Y-115902380D02*
X175023809Y-115426190D01*
X174785714Y-115902380D02*
X174785714Y-114902380D01*
X175166666Y-114902380D01*
X175261904Y-114950000D01*
X175309523Y-114997619D01*
X175357142Y-115092857D01*
X175357142Y-115235714D01*
X175309523Y-115330952D01*
X175261904Y-115378571D01*
X175166666Y-115426190D01*
X174785714Y-115426190D01*
X175690476Y-114902380D02*
X176309523Y-114902380D01*
X175976190Y-115283333D01*
X176119047Y-115283333D01*
X176214285Y-115330952D01*
X176261904Y-115378571D01*
X176309523Y-115473809D01*
X176309523Y-115711904D01*
X176261904Y-115807142D01*
X176214285Y-115854761D01*
X176119047Y-115902380D01*
X175833333Y-115902380D01*
X175738095Y-115854761D01*
X175690476Y-115807142D01*
X177166666Y-115235714D02*
X177166666Y-115902380D01*
X176928571Y-114854761D02*
X176690476Y-115569047D01*
X177309523Y-115569047D01*
G04 #@! TO.C,R35*
X177457142Y-92002380D02*
X177123809Y-91526190D01*
X176885714Y-92002380D02*
X176885714Y-91002380D01*
X177266666Y-91002380D01*
X177361904Y-91050000D01*
X177409523Y-91097619D01*
X177457142Y-91192857D01*
X177457142Y-91335714D01*
X177409523Y-91430952D01*
X177361904Y-91478571D01*
X177266666Y-91526190D01*
X176885714Y-91526190D01*
X177790476Y-91002380D02*
X178409523Y-91002380D01*
X178076190Y-91383333D01*
X178219047Y-91383333D01*
X178314285Y-91430952D01*
X178361904Y-91478571D01*
X178409523Y-91573809D01*
X178409523Y-91811904D01*
X178361904Y-91907142D01*
X178314285Y-91954761D01*
X178219047Y-92002380D01*
X177933333Y-92002380D01*
X177838095Y-91954761D01*
X177790476Y-91907142D01*
X179314285Y-91002380D02*
X178838095Y-91002380D01*
X178790476Y-91478571D01*
X178838095Y-91430952D01*
X178933333Y-91383333D01*
X179171428Y-91383333D01*
X179266666Y-91430952D01*
X179314285Y-91478571D01*
X179361904Y-91573809D01*
X179361904Y-91811904D01*
X179314285Y-91907142D01*
X179266666Y-91954761D01*
X179171428Y-92002380D01*
X178933333Y-92002380D01*
X178838095Y-91954761D01*
X178790476Y-91907142D01*
G04 #@! TO.C,R36*
X178357142Y-104002380D02*
X178023809Y-103526190D01*
X177785714Y-104002380D02*
X177785714Y-103002380D01*
X178166666Y-103002380D01*
X178261904Y-103050000D01*
X178309523Y-103097619D01*
X178357142Y-103192857D01*
X178357142Y-103335714D01*
X178309523Y-103430952D01*
X178261904Y-103478571D01*
X178166666Y-103526190D01*
X177785714Y-103526190D01*
X178690476Y-103002380D02*
X179309523Y-103002380D01*
X178976190Y-103383333D01*
X179119047Y-103383333D01*
X179214285Y-103430952D01*
X179261904Y-103478571D01*
X179309523Y-103573809D01*
X179309523Y-103811904D01*
X179261904Y-103907142D01*
X179214285Y-103954761D01*
X179119047Y-104002380D01*
X178833333Y-104002380D01*
X178738095Y-103954761D01*
X178690476Y-103907142D01*
X180166666Y-103002380D02*
X179976190Y-103002380D01*
X179880952Y-103050000D01*
X179833333Y-103097619D01*
X179738095Y-103240476D01*
X179690476Y-103430952D01*
X179690476Y-103811904D01*
X179738095Y-103907142D01*
X179785714Y-103954761D01*
X179880952Y-104002380D01*
X180071428Y-104002380D01*
X180166666Y-103954761D01*
X180214285Y-103907142D01*
X180261904Y-103811904D01*
X180261904Y-103573809D01*
X180214285Y-103478571D01*
X180166666Y-103430952D01*
X180071428Y-103383333D01*
X179880952Y-103383333D01*
X179785714Y-103430952D01*
X179738095Y-103478571D01*
X179690476Y-103573809D01*
G04 #@! TO.C,TH1*
X130082380Y-119225714D02*
X130082380Y-118654285D01*
X131082380Y-118940000D02*
X130082380Y-118940000D01*
X131082380Y-118320952D02*
X130082380Y-118320952D01*
X130558571Y-118320952D02*
X130558571Y-117749523D01*
X131082380Y-117749523D02*
X130082380Y-117749523D01*
X131082380Y-116749523D02*
X131082380Y-117320952D01*
X131082380Y-117035238D02*
X130082380Y-117035238D01*
X130225238Y-117130476D01*
X130320476Y-117225714D01*
X130368095Y-117320952D01*
G04 #@! TO.C,U1*
X136588095Y-106477380D02*
X136588095Y-107286904D01*
X136635714Y-107382142D01*
X136683333Y-107429761D01*
X136778571Y-107477380D01*
X136969047Y-107477380D01*
X137064285Y-107429761D01*
X137111904Y-107382142D01*
X137159523Y-107286904D01*
X137159523Y-106477380D01*
X138159523Y-107477380D02*
X137588095Y-107477380D01*
X137873809Y-107477380D02*
X137873809Y-106477380D01*
X137778571Y-106620238D01*
X137683333Y-106715476D01*
X137588095Y-106763095D01*
G04 #@! TO.C,U2*
X139238095Y-82077380D02*
X139238095Y-82886904D01*
X139285714Y-82982142D01*
X139333333Y-83029761D01*
X139428571Y-83077380D01*
X139619047Y-83077380D01*
X139714285Y-83029761D01*
X139761904Y-82982142D01*
X139809523Y-82886904D01*
X139809523Y-82077380D01*
X140238095Y-82172619D02*
X140285714Y-82125000D01*
X140380952Y-82077380D01*
X140619047Y-82077380D01*
X140714285Y-82125000D01*
X140761904Y-82172619D01*
X140809523Y-82267857D01*
X140809523Y-82363095D01*
X140761904Y-82505952D01*
X140190476Y-83077380D01*
X140809523Y-83077380D01*
G04 #@! TO.C,U3*
X157142380Y-113396904D02*
X157951904Y-113396904D01*
X158047142Y-113349285D01*
X158094761Y-113301666D01*
X158142380Y-113206428D01*
X158142380Y-113015952D01*
X158094761Y-112920714D01*
X158047142Y-112873095D01*
X157951904Y-112825476D01*
X157142380Y-112825476D01*
X157142380Y-112444523D02*
X157142380Y-111825476D01*
X157523333Y-112158809D01*
X157523333Y-112015952D01*
X157570952Y-111920714D01*
X157618571Y-111873095D01*
X157713809Y-111825476D01*
X157951904Y-111825476D01*
X158047142Y-111873095D01*
X158094761Y-111920714D01*
X158142380Y-112015952D01*
X158142380Y-112301666D01*
X158094761Y-112396904D01*
X158047142Y-112444523D01*
G04 #@! TO.C,D11*
X122597380Y-101214285D02*
X121597380Y-101214285D01*
X121597380Y-100976190D01*
X121645000Y-100833333D01*
X121740238Y-100738095D01*
X121835476Y-100690476D01*
X122025952Y-100642857D01*
X122168809Y-100642857D01*
X122359285Y-100690476D01*
X122454523Y-100738095D01*
X122549761Y-100833333D01*
X122597380Y-100976190D01*
X122597380Y-101214285D01*
X122597380Y-99690476D02*
X122597380Y-100261904D01*
X122597380Y-99976190D02*
X121597380Y-99976190D01*
X121740238Y-100071428D01*
X121835476Y-100166666D01*
X121883095Y-100261904D01*
X122597380Y-98738095D02*
X122597380Y-99309523D01*
X122597380Y-99023809D02*
X121597380Y-99023809D01*
X121740238Y-99119047D01*
X121835476Y-99214285D01*
X121883095Y-99309523D01*
G04 #@! TO.C,D12*
X126989507Y-78616367D02*
X126282401Y-77909260D01*
X126450759Y-77740901D01*
X126585446Y-77673558D01*
X126720133Y-77673558D01*
X126821149Y-77707230D01*
X126989507Y-77808245D01*
X127090523Y-77909260D01*
X127191538Y-78077619D01*
X127225210Y-78178634D01*
X127225210Y-78313321D01*
X127157866Y-78448008D01*
X126989507Y-78616367D01*
X128067004Y-77538871D02*
X127662943Y-77942932D01*
X127864973Y-77740901D02*
X127157866Y-77033794D01*
X127191538Y-77202153D01*
X127191538Y-77336840D01*
X127157866Y-77437856D01*
X127696614Y-76629733D02*
X127696614Y-76562390D01*
X127730286Y-76461375D01*
X127898645Y-76293016D01*
X127999660Y-76259344D01*
X128067004Y-76259344D01*
X128168019Y-76293016D01*
X128235362Y-76360359D01*
X128302706Y-76495046D01*
X128302706Y-77303168D01*
X128740439Y-76865436D01*
G04 #@! TO.C,D13*
X128383232Y-119989507D02*
X129090339Y-119282401D01*
X129258698Y-119450759D01*
X129326041Y-119585446D01*
X129326041Y-119720133D01*
X129292369Y-119821149D01*
X129191354Y-119989507D01*
X129090339Y-120090523D01*
X128921980Y-120191538D01*
X128820965Y-120225210D01*
X128686278Y-120225210D01*
X128551591Y-120157866D01*
X128383232Y-119989507D01*
X129460728Y-121067004D02*
X129056667Y-120662943D01*
X129258698Y-120864973D02*
X129965805Y-120157866D01*
X129797446Y-120191538D01*
X129662759Y-120191538D01*
X129561744Y-120157866D01*
X130403537Y-120595599D02*
X130841270Y-121033332D01*
X130336194Y-121067004D01*
X130437209Y-121168019D01*
X130470881Y-121269034D01*
X130470881Y-121336378D01*
X130437209Y-121437393D01*
X130268850Y-121605752D01*
X130167835Y-121639423D01*
X130100492Y-121639423D01*
X129999476Y-121605752D01*
X129797446Y-121403721D01*
X129763774Y-121302706D01*
X129763774Y-121235362D01*
G04 #@! TO.C,D14*
X148785714Y-68307380D02*
X148785714Y-67307380D01*
X149023809Y-67307380D01*
X149166666Y-67355000D01*
X149261904Y-67450238D01*
X149309523Y-67545476D01*
X149357142Y-67735952D01*
X149357142Y-67878809D01*
X149309523Y-68069285D01*
X149261904Y-68164523D01*
X149166666Y-68259761D01*
X149023809Y-68307380D01*
X148785714Y-68307380D01*
X150309523Y-68307380D02*
X149738095Y-68307380D01*
X150023809Y-68307380D02*
X150023809Y-67307380D01*
X149928571Y-67450238D01*
X149833333Y-67545476D01*
X149738095Y-67593095D01*
X151166666Y-67640714D02*
X151166666Y-68307380D01*
X150928571Y-67259761D02*
X150690476Y-67974047D01*
X151309523Y-67974047D01*
G04 #@! TO.C,D15*
X148785714Y-132597380D02*
X148785714Y-131597380D01*
X149023809Y-131597380D01*
X149166666Y-131645000D01*
X149261904Y-131740238D01*
X149309523Y-131835476D01*
X149357142Y-132025952D01*
X149357142Y-132168809D01*
X149309523Y-132359285D01*
X149261904Y-132454523D01*
X149166666Y-132549761D01*
X149023809Y-132597380D01*
X148785714Y-132597380D01*
X150309523Y-132597380D02*
X149738095Y-132597380D01*
X150023809Y-132597380D02*
X150023809Y-131597380D01*
X149928571Y-131740238D01*
X149833333Y-131835476D01*
X149738095Y-131883095D01*
X151214285Y-131597380D02*
X150738095Y-131597380D01*
X150690476Y-132073571D01*
X150738095Y-132025952D01*
X150833333Y-131978333D01*
X151071428Y-131978333D01*
X151166666Y-132025952D01*
X151214285Y-132073571D01*
X151261904Y-132168809D01*
X151261904Y-132406904D01*
X151214285Y-132502142D01*
X151166666Y-132549761D01*
X151071428Y-132597380D01*
X150833333Y-132597380D01*
X150738095Y-132549761D01*
X150690476Y-132502142D01*
G04 #@! TO.C,D16*
X167349744Y-77977995D02*
X168056851Y-77270889D01*
X168225210Y-77439247D01*
X168292553Y-77573934D01*
X168292553Y-77708621D01*
X168258881Y-77809637D01*
X168157866Y-77977995D01*
X168056851Y-78079011D01*
X167888492Y-78180026D01*
X167787477Y-78213698D01*
X167652790Y-78213698D01*
X167518103Y-78146354D01*
X167349744Y-77977995D01*
X168427240Y-79055492D02*
X168023179Y-78651431D01*
X168225210Y-78853461D02*
X168932317Y-78146354D01*
X168763958Y-78180026D01*
X168629271Y-78180026D01*
X168528256Y-78146354D01*
X169740439Y-78954476D02*
X169605752Y-78819789D01*
X169504736Y-78786118D01*
X169437393Y-78786118D01*
X169269034Y-78819789D01*
X169100675Y-78920805D01*
X168831301Y-79190179D01*
X168797630Y-79291194D01*
X168797630Y-79358537D01*
X168831301Y-79459553D01*
X168965988Y-79594240D01*
X169067004Y-79627911D01*
X169134347Y-79627911D01*
X169235362Y-79594240D01*
X169403721Y-79425881D01*
X169437393Y-79324866D01*
X169437393Y-79257522D01*
X169403721Y-79156507D01*
X169269034Y-79021820D01*
X169168019Y-78988148D01*
X169100675Y-78988148D01*
X168999660Y-79021820D01*
G04 #@! TO.C,D17*
X171977995Y-123695255D02*
X171270889Y-122988148D01*
X171439247Y-122819789D01*
X171573934Y-122752446D01*
X171708621Y-122752446D01*
X171809637Y-122786118D01*
X171977995Y-122887133D01*
X172079011Y-122988148D01*
X172180026Y-123156507D01*
X172213698Y-123257522D01*
X172213698Y-123392209D01*
X172146354Y-123526896D01*
X171977995Y-123695255D01*
X173055492Y-122617759D02*
X172651431Y-123021820D01*
X172853461Y-122819789D02*
X172146354Y-122112682D01*
X172180026Y-122281041D01*
X172180026Y-122415728D01*
X172146354Y-122516744D01*
X172584087Y-121674950D02*
X173055492Y-121203545D01*
X173459553Y-122213698D01*
G04 #@! TO.C,D18*
X179307380Y-100564285D02*
X178307380Y-100564285D01*
X178307380Y-100326190D01*
X178355000Y-100183333D01*
X178450238Y-100088095D01*
X178545476Y-100040476D01*
X178735952Y-99992857D01*
X178878809Y-99992857D01*
X179069285Y-100040476D01*
X179164523Y-100088095D01*
X179259761Y-100183333D01*
X179307380Y-100326190D01*
X179307380Y-100564285D01*
X179307380Y-99040476D02*
X179307380Y-99611904D01*
X179307380Y-99326190D02*
X178307380Y-99326190D01*
X178450238Y-99421428D01*
X178545476Y-99516666D01*
X178593095Y-99611904D01*
X178735952Y-98469047D02*
X178688333Y-98564285D01*
X178640714Y-98611904D01*
X178545476Y-98659523D01*
X178497857Y-98659523D01*
X178402619Y-98611904D01*
X178355000Y-98564285D01*
X178307380Y-98469047D01*
X178307380Y-98278571D01*
X178355000Y-98183333D01*
X178402619Y-98135714D01*
X178497857Y-98088095D01*
X178545476Y-98088095D01*
X178640714Y-98135714D01*
X178688333Y-98183333D01*
X178735952Y-98278571D01*
X178735952Y-98469047D01*
X178783571Y-98564285D01*
X178831190Y-98611904D01*
X178926428Y-98659523D01*
X179116904Y-98659523D01*
X179212142Y-98611904D01*
X179259761Y-98564285D01*
X179307380Y-98469047D01*
X179307380Y-98278571D01*
X179259761Y-98183333D01*
X179212142Y-98135714D01*
X179116904Y-98088095D01*
X178926428Y-98088095D01*
X178831190Y-98135714D01*
X178783571Y-98183333D01*
X178735952Y-98278571D01*
G04 #@! TD*
M02*
