G04 #@! TF.GenerationSoftware,KiCad,Pcbnew,(5.0.2)-1*
G04 #@! TF.CreationDate,2019-02-17T02:34:44-05:00*
G04 #@! TF.ProjectId,bikesenseCap,62696b65-7365-46e7-9365-4361702e6b69,REV B*
G04 #@! TF.SameCoordinates,Original*
G04 #@! TF.FileFunction,Soldermask,Bot*
G04 #@! TF.FilePolarity,Negative*
%FSLAX46Y46*%
G04 Gerber Fmt 4.6, Leading zero omitted, Abs format (unit mm)*
G04 Created by KiCad (PCBNEW (5.0.2)-1) date 2/17/2019 2:34:44 AM*
%MOMM*%
%LPD*%
G01*
G04 APERTURE LIST*
%ADD10C,0.100000*%
G04 APERTURE END LIST*
D10*
G36*
X150176432Y-128813022D02*
X150346081Y-128864485D01*
X150502433Y-128948056D01*
X150639475Y-129060525D01*
X150751941Y-129197564D01*
X150751943Y-129197568D01*
X150835514Y-129353919D01*
X150835515Y-129353922D01*
X150835516Y-129353924D01*
X150886978Y-129523569D01*
X150900000Y-129655790D01*
X150900000Y-130344211D01*
X150886978Y-130476432D01*
X150835515Y-130646081D01*
X150751944Y-130802433D01*
X150639475Y-130939475D01*
X150502436Y-131051941D01*
X150346076Y-131135516D01*
X150176431Y-131186978D01*
X150000000Y-131204354D01*
X149823568Y-131186978D01*
X149653919Y-131135515D01*
X149497567Y-131051944D01*
X149360525Y-130939475D01*
X149248059Y-130802436D01*
X149164484Y-130646076D01*
X149113022Y-130476431D01*
X149100000Y-130344210D01*
X149100000Y-129655789D01*
X149113022Y-129523568D01*
X149164486Y-129353919D01*
X149248057Y-129197567D01*
X149360526Y-129060525D01*
X149497568Y-128948056D01*
X149653920Y-128864485D01*
X149823569Y-128813022D01*
X150000000Y-128795646D01*
X150176432Y-128813022D01*
X150176432Y-128813022D01*
G37*
G36*
X150975452Y-115096074D02*
X151458446Y-115192147D01*
X152368388Y-115569057D01*
X153181795Y-116112558D01*
X153187317Y-116116248D01*
X153883752Y-116812683D01*
X153883754Y-116812686D01*
X154430943Y-117631612D01*
X154430943Y-117631613D01*
X154807853Y-118541555D01*
X155000000Y-119507542D01*
X155000000Y-120492458D01*
X154976333Y-120611438D01*
X154807853Y-121458446D01*
X154430943Y-122368388D01*
X153947010Y-123092645D01*
X153883752Y-123187317D01*
X153187317Y-123883752D01*
X153187314Y-123883754D01*
X152368388Y-124430943D01*
X151458446Y-124807853D01*
X150975451Y-124903927D01*
X150492458Y-125000000D01*
X149507542Y-125000000D01*
X149024549Y-124903927D01*
X148541554Y-124807853D01*
X147631612Y-124430943D01*
X146812686Y-123883754D01*
X146812683Y-123883752D01*
X146116248Y-123187317D01*
X146052990Y-123092645D01*
X145569057Y-122368388D01*
X145192147Y-121458446D01*
X145023667Y-120611438D01*
X145000000Y-120492458D01*
X145000000Y-119507542D01*
X145192147Y-118541555D01*
X145569057Y-117631613D01*
X145569057Y-117631612D01*
X146116246Y-116812686D01*
X146116248Y-116812683D01*
X146812683Y-116116248D01*
X146818205Y-116112558D01*
X147631612Y-115569057D01*
X148541554Y-115192147D01*
X149024548Y-115096074D01*
X149507542Y-115000000D01*
X150492458Y-115000000D01*
X150975452Y-115096074D01*
X150975452Y-115096074D01*
G37*
G36*
X128433564Y-120945890D02*
X128603213Y-120997354D01*
X128759560Y-121080923D01*
X128759561Y-121080924D01*
X128759563Y-121080925D01*
X128787300Y-121103688D01*
X128896607Y-121193393D01*
X129009077Y-121330440D01*
X129092646Y-121486787D01*
X129144110Y-121656436D01*
X129161486Y-121832868D01*
X129144110Y-122009300D01*
X129092647Y-122178948D01*
X129050856Y-122257132D01*
X129009075Y-122335299D01*
X128981920Y-122368387D01*
X128924783Y-122438009D01*
X128681394Y-122681397D01*
X128438005Y-122924787D01*
X128335299Y-123009075D01*
X128178949Y-123092646D01*
X128009299Y-123144110D01*
X127832868Y-123161486D01*
X127656437Y-123144110D01*
X127486787Y-123092646D01*
X127330437Y-123009075D01*
X127193394Y-122896606D01*
X127080925Y-122759563D01*
X126997354Y-122603213D01*
X126945890Y-122433563D01*
X126928514Y-122257132D01*
X126945890Y-122080701D01*
X126997354Y-121911051D01*
X127080925Y-121754701D01*
X127161567Y-121656438D01*
X127165213Y-121651995D01*
X127408603Y-121408606D01*
X127651991Y-121165217D01*
X127663484Y-121155785D01*
X127754701Y-121080925D01*
X127839311Y-121035700D01*
X127911052Y-120997353D01*
X128080700Y-120945890D01*
X128257132Y-120928514D01*
X128433564Y-120945890D01*
X128433564Y-120945890D01*
G37*
G36*
X170964299Y-119900890D02*
X171133949Y-119952354D01*
X171290299Y-120035925D01*
X171393005Y-120120213D01*
X171879783Y-120606991D01*
X171889215Y-120618484D01*
X171964075Y-120709701D01*
X171994556Y-120766728D01*
X172047647Y-120866052D01*
X172099110Y-121035700D01*
X172116486Y-121212132D01*
X172099110Y-121388564D01*
X172047646Y-121558213D01*
X171964077Y-121714560D01*
X171851607Y-121851607D01*
X171779173Y-121911051D01*
X171714563Y-121964075D01*
X171714561Y-121964076D01*
X171714560Y-121964077D01*
X171558213Y-122047646D01*
X171388564Y-122099110D01*
X171212132Y-122116486D01*
X171035700Y-122099110D01*
X170866052Y-122047647D01*
X170766728Y-121994556D01*
X170709701Y-121964075D01*
X170606996Y-121879787D01*
X170606991Y-121879783D01*
X170363603Y-121636394D01*
X170120213Y-121393005D01*
X170035925Y-121290299D01*
X169994144Y-121212132D01*
X169952354Y-121133949D01*
X169900890Y-120964299D01*
X169883514Y-120787868D01*
X169900890Y-120611437D01*
X169952354Y-120441787D01*
X170035925Y-120285437D01*
X170148394Y-120148394D01*
X170285437Y-120035925D01*
X170441787Y-119952354D01*
X170611437Y-119900890D01*
X170787868Y-119883514D01*
X170964299Y-119900890D01*
X170964299Y-119900890D01*
G37*
G36*
X150975452Y-95096074D02*
X151458446Y-95192147D01*
X152368388Y-95569057D01*
X153181795Y-96112558D01*
X153187317Y-96116248D01*
X153883752Y-96812683D01*
X153883754Y-96812686D01*
X154430943Y-97631612D01*
X154796641Y-98514486D01*
X154807853Y-98541555D01*
X154933569Y-99173569D01*
X155000000Y-99507543D01*
X155000000Y-100492457D01*
X154807853Y-101458446D01*
X154430943Y-102368388D01*
X153887442Y-103181795D01*
X153883752Y-103187317D01*
X153187317Y-103883752D01*
X153187314Y-103883754D01*
X152368388Y-104430943D01*
X151458446Y-104807853D01*
X150975451Y-104903927D01*
X150492458Y-105000000D01*
X149507542Y-105000000D01*
X149024549Y-104903927D01*
X148541554Y-104807853D01*
X147631612Y-104430943D01*
X146812686Y-103883754D01*
X146812683Y-103883752D01*
X146116248Y-103187317D01*
X146112558Y-103181795D01*
X145569057Y-102368388D01*
X145192147Y-101458446D01*
X145000000Y-100492457D01*
X145000000Y-99507543D01*
X145066432Y-99173569D01*
X145192147Y-98541555D01*
X145203359Y-98514486D01*
X145569057Y-97631612D01*
X146116246Y-96812686D01*
X146116248Y-96812683D01*
X146812683Y-96116248D01*
X146818205Y-96112558D01*
X147631612Y-95569057D01*
X148541554Y-95192147D01*
X149024548Y-95096074D01*
X149507542Y-95000000D01*
X150492458Y-95000000D01*
X150975452Y-95096074D01*
X150975452Y-95096074D01*
G37*
G36*
X130975452Y-95096074D02*
X131458446Y-95192147D01*
X132368388Y-95569057D01*
X133181795Y-96112558D01*
X133187317Y-96116248D01*
X133883752Y-96812683D01*
X133883754Y-96812686D01*
X134430943Y-97631612D01*
X134796641Y-98514486D01*
X134807853Y-98541555D01*
X134933569Y-99173569D01*
X135000000Y-99507543D01*
X135000000Y-100492457D01*
X134807853Y-101458446D01*
X134430943Y-102368388D01*
X133887442Y-103181795D01*
X133883752Y-103187317D01*
X133187317Y-103883752D01*
X133187314Y-103883754D01*
X132368388Y-104430943D01*
X131458446Y-104807853D01*
X130975451Y-104903927D01*
X130492458Y-105000000D01*
X129507542Y-105000000D01*
X129024549Y-104903927D01*
X128541554Y-104807853D01*
X127631612Y-104430943D01*
X126812686Y-103883754D01*
X126812683Y-103883752D01*
X126116248Y-103187317D01*
X126112558Y-103181795D01*
X125569057Y-102368388D01*
X125192147Y-101458446D01*
X125000000Y-100492457D01*
X125000000Y-99507543D01*
X125066432Y-99173569D01*
X125192147Y-98541555D01*
X125203359Y-98514486D01*
X125569057Y-97631612D01*
X126116246Y-96812686D01*
X126116248Y-96812683D01*
X126812683Y-96116248D01*
X126818205Y-96112558D01*
X127631612Y-95569057D01*
X128541554Y-95192147D01*
X129024548Y-95096074D01*
X129507542Y-95000000D01*
X130492458Y-95000000D01*
X130975452Y-95096074D01*
X130975452Y-95096074D01*
G37*
G36*
X170975452Y-95096074D02*
X171458446Y-95192147D01*
X172368388Y-95569057D01*
X173181795Y-96112558D01*
X173187317Y-96116248D01*
X173883752Y-96812683D01*
X173883754Y-96812686D01*
X174430943Y-97631612D01*
X174796641Y-98514486D01*
X174807853Y-98541555D01*
X174933569Y-99173569D01*
X175000000Y-99507543D01*
X175000000Y-100492457D01*
X174807853Y-101458446D01*
X174430943Y-102368388D01*
X173887442Y-103181795D01*
X173883752Y-103187317D01*
X173187317Y-103883752D01*
X173187314Y-103883754D01*
X172368388Y-104430943D01*
X171458446Y-104807853D01*
X170975451Y-104903927D01*
X170492458Y-105000000D01*
X169507542Y-105000000D01*
X169024549Y-104903927D01*
X168541554Y-104807853D01*
X167631612Y-104430943D01*
X166812686Y-103883754D01*
X166812683Y-103883752D01*
X166116248Y-103187317D01*
X166112558Y-103181795D01*
X165569057Y-102368388D01*
X165192147Y-101458446D01*
X165000000Y-100492457D01*
X165000000Y-99507543D01*
X165066432Y-99173569D01*
X165192147Y-98541555D01*
X165203359Y-98514486D01*
X165569057Y-97631612D01*
X166116246Y-96812686D01*
X166116248Y-96812683D01*
X166812683Y-96116248D01*
X166818205Y-96112558D01*
X167631612Y-95569057D01*
X168541554Y-95192147D01*
X169024548Y-95096074D01*
X169507542Y-95000000D01*
X170492458Y-95000000D01*
X170975452Y-95096074D01*
X170975452Y-95096074D01*
G37*
G36*
X120476432Y-99113022D02*
X120646081Y-99164485D01*
X120802433Y-99248056D01*
X120939475Y-99360525D01*
X121051944Y-99497567D01*
X121135515Y-99653919D01*
X121186978Y-99823568D01*
X121204354Y-100000000D01*
X121186978Y-100176432D01*
X121135515Y-100346081D01*
X121051944Y-100502433D01*
X120939475Y-100639475D01*
X120802433Y-100751944D01*
X120646081Y-100835515D01*
X120476432Y-100886978D01*
X120344211Y-100900000D01*
X119655789Y-100900000D01*
X119523568Y-100886978D01*
X119353919Y-100835515D01*
X119197567Y-100751944D01*
X119060525Y-100639475D01*
X118948056Y-100502433D01*
X118864485Y-100346081D01*
X118813022Y-100176432D01*
X118795646Y-100000000D01*
X118813022Y-99823568D01*
X118864485Y-99653919D01*
X118948056Y-99497567D01*
X119060525Y-99360525D01*
X119197567Y-99248056D01*
X119353919Y-99164485D01*
X119523568Y-99113022D01*
X119655789Y-99100000D01*
X120344211Y-99100000D01*
X120476432Y-99113022D01*
X120476432Y-99113022D01*
G37*
G36*
X181476432Y-98463022D02*
X181646081Y-98514485D01*
X181802433Y-98598056D01*
X181939475Y-98710525D01*
X182051944Y-98847567D01*
X182135515Y-99003919D01*
X182186978Y-99173568D01*
X182204354Y-99350000D01*
X182186978Y-99526432D01*
X182135515Y-99696081D01*
X182051944Y-99852433D01*
X181939475Y-99989475D01*
X181802433Y-100101944D01*
X181646081Y-100185515D01*
X181476432Y-100236978D01*
X181344211Y-100250000D01*
X180655789Y-100250000D01*
X180523568Y-100236978D01*
X180353919Y-100185515D01*
X180197567Y-100101944D01*
X180060525Y-99989475D01*
X179948056Y-99852433D01*
X179864485Y-99696081D01*
X179813022Y-99526432D01*
X179795646Y-99350000D01*
X179813022Y-99173568D01*
X179864485Y-99003919D01*
X179948056Y-98847567D01*
X180060525Y-98710525D01*
X180197567Y-98598056D01*
X180353919Y-98514485D01*
X180523568Y-98463022D01*
X180655789Y-98450000D01*
X181344211Y-98450000D01*
X181476432Y-98463022D01*
X181476432Y-98463022D01*
G37*
G36*
X153635260Y-83635000D02*
X152365260Y-83635000D01*
X152365260Y-82365000D01*
X153635260Y-82365000D01*
X153635260Y-83635000D01*
X153635260Y-83635000D01*
G37*
G36*
X155187003Y-82389403D02*
X155302564Y-82437270D01*
X155406572Y-82506766D01*
X155495014Y-82595208D01*
X155564510Y-82699216D01*
X155612377Y-82814777D01*
X155636780Y-82937459D01*
X155636780Y-83062541D01*
X155612377Y-83185223D01*
X155564510Y-83300784D01*
X155495014Y-83404792D01*
X155406572Y-83493234D01*
X155302564Y-83562730D01*
X155187003Y-83610597D01*
X155064322Y-83635000D01*
X154939238Y-83635000D01*
X154816557Y-83610597D01*
X154700996Y-83562730D01*
X154596988Y-83493234D01*
X154508546Y-83404792D01*
X154439050Y-83300784D01*
X154391183Y-83185223D01*
X154366780Y-83062541D01*
X154366780Y-82937459D01*
X154391183Y-82814777D01*
X154439050Y-82699216D01*
X154508546Y-82595208D01*
X154596988Y-82506766D01*
X154700996Y-82437270D01*
X154816557Y-82389403D01*
X154939238Y-82365000D01*
X155064322Y-82365000D01*
X155187003Y-82389403D01*
X155187003Y-82389403D01*
G37*
G36*
X157183443Y-82389403D02*
X157299004Y-82437270D01*
X157403012Y-82506766D01*
X157491454Y-82595208D01*
X157560950Y-82699216D01*
X157608817Y-82814777D01*
X157633220Y-82937459D01*
X157633220Y-83062541D01*
X157608817Y-83185223D01*
X157560950Y-83300784D01*
X157491454Y-83404792D01*
X157403012Y-83493234D01*
X157299004Y-83562730D01*
X157183443Y-83610597D01*
X157060762Y-83635000D01*
X156935678Y-83635000D01*
X156812997Y-83610597D01*
X156697436Y-83562730D01*
X156593428Y-83493234D01*
X156504986Y-83404792D01*
X156435490Y-83300784D01*
X156387623Y-83185223D01*
X156363220Y-83062541D01*
X156363220Y-82937459D01*
X156387623Y-82814777D01*
X156435490Y-82699216D01*
X156504986Y-82595208D01*
X156593428Y-82506766D01*
X156697436Y-82437270D01*
X156812997Y-82389403D01*
X156935678Y-82365000D01*
X157060762Y-82365000D01*
X157183443Y-82389403D01*
X157183443Y-82389403D01*
G37*
G36*
X159184963Y-82389403D02*
X159300524Y-82437270D01*
X159404532Y-82506766D01*
X159492974Y-82595208D01*
X159562470Y-82699216D01*
X159610337Y-82814777D01*
X159634740Y-82937459D01*
X159634740Y-83062541D01*
X159610337Y-83185223D01*
X159562470Y-83300784D01*
X159492974Y-83404792D01*
X159404532Y-83493234D01*
X159300524Y-83562730D01*
X159184963Y-83610597D01*
X159062282Y-83635000D01*
X158937198Y-83635000D01*
X158814517Y-83610597D01*
X158698956Y-83562730D01*
X158594948Y-83493234D01*
X158506506Y-83404792D01*
X158437010Y-83300784D01*
X158389143Y-83185223D01*
X158364740Y-83062541D01*
X158364740Y-82937459D01*
X158389143Y-82814777D01*
X158437010Y-82699216D01*
X158506506Y-82595208D01*
X158594948Y-82506766D01*
X158698956Y-82437270D01*
X158814517Y-82389403D01*
X158937198Y-82365000D01*
X159062282Y-82365000D01*
X159184963Y-82389403D01*
X159184963Y-82389403D01*
G37*
G36*
X129009299Y-77855490D02*
X129178949Y-77906954D01*
X129335299Y-77990525D01*
X129438005Y-78074813D01*
X129924783Y-78561591D01*
X129934215Y-78573084D01*
X130009075Y-78664301D01*
X130039556Y-78721328D01*
X130092647Y-78820652D01*
X130144110Y-78990300D01*
X130161486Y-79166732D01*
X130144110Y-79343164D01*
X130092646Y-79512813D01*
X130009077Y-79669160D01*
X129896607Y-79806207D01*
X129787300Y-79895912D01*
X129759563Y-79918675D01*
X129759561Y-79918676D01*
X129759560Y-79918677D01*
X129603213Y-80002246D01*
X129433564Y-80053710D01*
X129257132Y-80071086D01*
X129080700Y-80053710D01*
X128911052Y-80002247D01*
X128811728Y-79949156D01*
X128754701Y-79918675D01*
X128651996Y-79834387D01*
X128651991Y-79834383D01*
X128408603Y-79590994D01*
X128165213Y-79347605D01*
X128080925Y-79244899D01*
X128039144Y-79166732D01*
X127997354Y-79088549D01*
X127945890Y-78918899D01*
X127928514Y-78742468D01*
X127945890Y-78566037D01*
X127997354Y-78396387D01*
X128080925Y-78240037D01*
X128193394Y-78102994D01*
X128330437Y-77990525D01*
X128486787Y-77906954D01*
X128656437Y-77855490D01*
X128832868Y-77838114D01*
X129009299Y-77855490D01*
X129009299Y-77855490D01*
G37*
G36*
X170433564Y-75900890D02*
X170603213Y-75952354D01*
X170759560Y-76035923D01*
X170759561Y-76035924D01*
X170759563Y-76035925D01*
X170787300Y-76058688D01*
X170896607Y-76148393D01*
X171009077Y-76285440D01*
X171092646Y-76441787D01*
X171144110Y-76611436D01*
X171161486Y-76787868D01*
X171144110Y-76964300D01*
X171092647Y-77133948D01*
X171050856Y-77212132D01*
X171009075Y-77290299D01*
X170934215Y-77381516D01*
X170924783Y-77393009D01*
X170681394Y-77636397D01*
X170438005Y-77879787D01*
X170404900Y-77906955D01*
X170335299Y-77964075D01*
X170178949Y-78047646D01*
X170009299Y-78099110D01*
X169832868Y-78116486D01*
X169656437Y-78099110D01*
X169486787Y-78047646D01*
X169330437Y-77964075D01*
X169193394Y-77851606D01*
X169080925Y-77714563D01*
X168997354Y-77558213D01*
X168945890Y-77388563D01*
X168928514Y-77212132D01*
X168945890Y-77035701D01*
X168997354Y-76866051D01*
X169080925Y-76709701D01*
X169161567Y-76611438D01*
X169165213Y-76606995D01*
X169408603Y-76363606D01*
X169651991Y-76120217D01*
X169663484Y-76110785D01*
X169754701Y-76035925D01*
X169811728Y-76005444D01*
X169911052Y-75952353D01*
X170080700Y-75900890D01*
X170257132Y-75883514D01*
X170433564Y-75900890D01*
X170433564Y-75900890D01*
G37*
G36*
X150176431Y-68813022D02*
X150346076Y-68864484D01*
X150502436Y-68948059D01*
X150639475Y-69060525D01*
X150751944Y-69197567D01*
X150835515Y-69353919D01*
X150886978Y-69523568D01*
X150900000Y-69655789D01*
X150900000Y-70344210D01*
X150886978Y-70476431D01*
X150835516Y-70646076D01*
X150835514Y-70646081D01*
X150766173Y-70775809D01*
X150751941Y-70802436D01*
X150639475Y-70939475D01*
X150502433Y-71051944D01*
X150346081Y-71135515D01*
X150176432Y-71186978D01*
X150000000Y-71204354D01*
X149823569Y-71186978D01*
X149653920Y-71135515D01*
X149497568Y-71051944D01*
X149360526Y-70939475D01*
X149248057Y-70802433D01*
X149164486Y-70646081D01*
X149113022Y-70476432D01*
X149100000Y-70344211D01*
X149100000Y-69655790D01*
X149113022Y-69523569D01*
X149164484Y-69353924D01*
X149248059Y-69197564D01*
X149360525Y-69060525D01*
X149497567Y-68948056D01*
X149653919Y-68864485D01*
X149823568Y-68813022D01*
X150000000Y-68795646D01*
X150176431Y-68813022D01*
X150176431Y-68813022D01*
G37*
M02*
