G04 #@! TF.GenerationSoftware,KiCad,Pcbnew,(5.0.2)-1*
G04 #@! TF.CreationDate,2019-02-17T02:34:44-05:00*
G04 #@! TF.ProjectId,bikesenseCap,62696b65-7365-46e7-9365-4361702e6b69,REV B*
G04 #@! TF.SameCoordinates,Original*
G04 #@! TF.FileFunction,Copper,L1,Top*
G04 #@! TF.FilePolarity,Positive*
%FSLAX46Y46*%
G04 Gerber Fmt 4.6, Leading zero omitted, Abs format (unit mm)*
G04 Created by KiCad (PCBNEW (5.0.2)-1) date 2/17/2019 2:34:44 AM*
%MOMM*%
%LPD*%
G01*
G04 APERTURE LIST*
G04 #@! TA.AperFunction,SMDPad,CuDef*
%ADD10R,1.200000X0.900000*%
G04 #@! TD*
G04 #@! TA.AperFunction,ComponentPad*
%ADD11R,1.270000X1.270000*%
G04 #@! TD*
G04 #@! TA.AperFunction,ComponentPad*
%ADD12C,1.270000*%
G04 #@! TD*
G04 #@! TA.AperFunction,SMDPad,CuDef*
%ADD13R,0.900000X1.200000*%
G04 #@! TD*
G04 #@! TA.AperFunction,SMDPad,CuDef*
%ADD14R,0.600000X0.400000*%
G04 #@! TD*
G04 #@! TA.AperFunction,SMDPad,CuDef*
%ADD15R,1.300000X2.400000*%
G04 #@! TD*
G04 #@! TA.AperFunction,SMDPad,CuDef*
%ADD16R,2.600000X2.600000*%
G04 #@! TD*
G04 #@! TA.AperFunction,SMDPad,CuDef*
%ADD17R,0.300000X0.850000*%
G04 #@! TD*
G04 #@! TA.AperFunction,SMDPad,CuDef*
%ADD18R,0.850000X0.300000*%
G04 #@! TD*
G04 #@! TA.AperFunction,SMDPad,CuDef*
%ADD19R,1.700000X0.700000*%
G04 #@! TD*
G04 #@! TA.AperFunction,Conductor*
%ADD20C,0.100000*%
G04 #@! TD*
G04 #@! TA.AperFunction,SMDPad,CuDef*
%ADD21C,0.950000*%
G04 #@! TD*
G04 #@! TA.AperFunction,ViaPad*
%ADD22C,0.800000*%
G04 #@! TD*
G04 #@! TA.AperFunction,Conductor*
%ADD23C,0.250000*%
G04 #@! TD*
G04 APERTURE END LIST*
D10*
G04 #@! TO.P,D3,1*
G04 #@! TO.N,Net-(D3-Pad1)*
X131200000Y-91000000D03*
G04 #@! TO.P,D3,2*
G04 #@! TO.N,Net-(D3-Pad2)*
X129000000Y-91000000D03*
G04 #@! TD*
G04 #@! TO.P,D4,2*
G04 #@! TO.N,Net-(D4-Pad2)*
X151200000Y-91000000D03*
G04 #@! TO.P,D4,1*
G04 #@! TO.N,Net-(D4-Pad1)*
X149000000Y-91000000D03*
G04 #@! TD*
G04 #@! TO.P,D5,2*
G04 #@! TO.N,Net-(D5-Pad2)*
X171200000Y-91000000D03*
G04 #@! TO.P,D5,1*
G04 #@! TO.N,Net-(D5-Pad1)*
X169000000Y-91000000D03*
G04 #@! TD*
G04 #@! TO.P,D6,1*
G04 #@! TO.N,Net-(D6-Pad1)*
X149000000Y-112000000D03*
G04 #@! TO.P,D6,2*
G04 #@! TO.N,Net-(D6-Pad2)*
X151200000Y-112000000D03*
G04 #@! TD*
D11*
G04 #@! TO.P,J1,1*
G04 #@! TO.N,/SCL*
X153000260Y-83000000D03*
D12*
G04 #@! TO.P,J1,2*
G04 #@! TO.N,/SDA*
X155001780Y-83000000D03*
G04 #@! TO.P,J1,3*
G04 #@! TO.N,+3V3*
X156998220Y-83000000D03*
G04 #@! TO.P,J1,4*
G04 #@! TO.N,GND*
X158999740Y-83000000D03*
G04 #@! TD*
D10*
G04 #@! TO.P,R1,1*
G04 #@! TO.N,Net-(R1-Pad1)*
X143000000Y-79000000D03*
G04 #@! TO.P,R1,2*
G04 #@! TO.N,+3V3*
X140800000Y-79000000D03*
G04 #@! TD*
G04 #@! TO.P,R2,1*
G04 #@! TO.N,/SCL*
X135000000Y-79000000D03*
G04 #@! TO.P,R2,2*
G04 #@! TO.N,+3V3*
X137200000Y-79000000D03*
G04 #@! TD*
D13*
G04 #@! TO.P,R3,2*
G04 #@! TO.N,GND*
X146000000Y-83000000D03*
G04 #@! TO.P,R3,1*
G04 #@! TO.N,Net-(R3-Pad1)*
X146000000Y-85200000D03*
G04 #@! TD*
G04 #@! TO.P,R4,1*
G04 #@! TO.N,GND*
X133350000Y-84750000D03*
G04 #@! TO.P,R4,2*
G04 #@! TO.N,Net-(R4-Pad2)*
X133350000Y-82550000D03*
G04 #@! TD*
G04 #@! TO.P,R5,2*
G04 #@! TO.N,+3V3*
X129000000Y-84800000D03*
G04 #@! TO.P,R5,1*
G04 #@! TO.N,/SDA*
X129000000Y-87000000D03*
G04 #@! TD*
G04 #@! TO.P,R6,1*
G04 #@! TO.N,/SCL*
X145000000Y-109000000D03*
G04 #@! TO.P,R6,2*
G04 #@! TO.N,+3V3*
X145000000Y-111200000D03*
G04 #@! TD*
G04 #@! TO.P,R7,2*
G04 #@! TO.N,GND*
X129540000Y-110150000D03*
G04 #@! TO.P,R7,1*
G04 #@! TO.N,+3V3*
X129540000Y-107950000D03*
G04 #@! TD*
G04 #@! TO.P,R8,1*
G04 #@! TO.N,/SDA*
X143000000Y-112000000D03*
G04 #@! TO.P,R8,2*
G04 #@! TO.N,+3V3*
X143000000Y-114200000D03*
G04 #@! TD*
D10*
G04 #@! TO.P,R9,2*
G04 #@! TO.N,+3V3*
X142000000Y-118000000D03*
G04 #@! TO.P,R9,1*
G04 #@! TO.N,Net-(R9-Pad1)*
X139800000Y-118000000D03*
G04 #@! TD*
G04 #@! TO.P,R10,1*
G04 #@! TO.N,Net-(R10-Pad1)*
X134800000Y-115000000D03*
G04 #@! TO.P,R10,2*
G04 #@! TO.N,+3V3*
X137000000Y-115000000D03*
G04 #@! TD*
G04 #@! TO.P,R11,1*
G04 #@! TO.N,Net-(D3-Pad2)*
X126200000Y-91000000D03*
G04 #@! TO.P,R11,2*
G04 #@! TO.N,+3V3*
X124000000Y-91000000D03*
G04 #@! TD*
G04 #@! TO.P,R12,2*
G04 #@! TO.N,+3V3*
X153330000Y-88900000D03*
G04 #@! TO.P,R12,1*
G04 #@! TO.N,Net-(D4-Pad2)*
X151130000Y-88900000D03*
G04 #@! TD*
G04 #@! TO.P,R13,2*
G04 #@! TO.N,+3V3*
X177000000Y-88000000D03*
G04 #@! TO.P,R13,1*
G04 #@! TO.N,Net-(D5-Pad2)*
X174800000Y-88000000D03*
G04 #@! TD*
G04 #@! TO.P,R14,1*
G04 #@! TO.N,Net-(D6-Pad2)*
X154000000Y-108000000D03*
G04 #@! TO.P,R14,2*
G04 #@! TO.N,+3V3*
X156200000Y-108000000D03*
G04 #@! TD*
G04 #@! TO.P,R19,2*
G04 #@! TO.N,Net-(D11-Pad2)*
X119800000Y-105000000D03*
G04 #@! TO.P,R19,1*
G04 #@! TO.N,+3V3*
X122000000Y-105000000D03*
G04 #@! TD*
G04 #@! TO.P,R20,1*
G04 #@! TO.N,+3V3*
X122100000Y-95000000D03*
G04 #@! TO.P,R20,2*
G04 #@! TO.N,/West*
X119900000Y-95000000D03*
G04 #@! TD*
D13*
G04 #@! TO.P,R21,2*
G04 #@! TO.N,Net-(D12-Pad2)*
X124000000Y-84900000D03*
G04 #@! TO.P,R21,1*
G04 #@! TO.N,+3V3*
X124000000Y-87100000D03*
G04 #@! TD*
D10*
G04 #@! TO.P,R22,2*
G04 #@! TO.N,Net-(D13-Pad2)*
X126000000Y-117000000D03*
G04 #@! TO.P,R22,1*
G04 #@! TO.N,+3V3*
X123800000Y-117000000D03*
G04 #@! TD*
D13*
G04 #@! TO.P,R23,2*
G04 #@! TO.N,+3V3*
X159000000Y-123200000D03*
G04 #@! TO.P,R23,1*
G04 #@! TO.N,/SCL*
X159000000Y-121000000D03*
G04 #@! TD*
D10*
G04 #@! TO.P,R24,1*
G04 #@! TO.N,+3V3*
X137200000Y-74000000D03*
G04 #@! TO.P,R24,2*
G04 #@! TO.N,/NorthWest*
X135000000Y-74000000D03*
G04 #@! TD*
G04 #@! TO.P,R25,1*
G04 #@! TO.N,+3V3*
X122800000Y-113000000D03*
G04 #@! TO.P,R25,2*
G04 #@! TO.N,/SouthWest*
X125000000Y-113000000D03*
G04 #@! TD*
G04 #@! TO.P,R26,1*
G04 #@! TO.N,/SDA*
X165200000Y-122000000D03*
G04 #@! TO.P,R26,2*
G04 #@! TO.N,+3V3*
X163000000Y-122000000D03*
G04 #@! TD*
G04 #@! TO.P,R27,2*
G04 #@! TO.N,Net-(D14-Pad2)*
X157100000Y-71000000D03*
G04 #@! TO.P,R27,1*
G04 #@! TO.N,+3V3*
X154900000Y-71000000D03*
G04 #@! TD*
D13*
G04 #@! TO.P,R28,1*
G04 #@! TO.N,+3V3*
X145000000Y-126800000D03*
G04 #@! TO.P,R28,2*
G04 #@! TO.N,Net-(D15-Pad2)*
X145000000Y-129000000D03*
G04 #@! TD*
D10*
G04 #@! TO.P,R29,2*
G04 #@! TO.N,/North*
X145000000Y-71000000D03*
G04 #@! TO.P,R29,1*
G04 #@! TO.N,+3V3*
X142800000Y-71000000D03*
G04 #@! TD*
G04 #@! TO.P,R30,1*
G04 #@! TO.N,+3V3*
X157200000Y-129000000D03*
G04 #@! TO.P,R30,2*
G04 #@! TO.N,/South*
X155000000Y-129000000D03*
G04 #@! TD*
G04 #@! TO.P,R31,2*
G04 #@! TO.N,Net-(D16-Pad2)*
X164100000Y-75000000D03*
G04 #@! TO.P,R31,1*
G04 #@! TO.N,+3V3*
X161900000Y-75000000D03*
G04 #@! TD*
G04 #@! TO.P,R32,2*
G04 #@! TO.N,Net-(D17-Pad2)*
X165000000Y-127000000D03*
G04 #@! TO.P,R32,1*
G04 #@! TO.N,+3V3*
X162800000Y-127000000D03*
G04 #@! TD*
G04 #@! TO.P,R33,1*
G04 #@! TO.N,+3V3*
X169800000Y-83000000D03*
G04 #@! TO.P,R33,2*
G04 #@! TO.N,/NorthEast*
X172000000Y-83000000D03*
G04 #@! TD*
G04 #@! TO.P,R34,1*
G04 #@! TO.N,+3V3*
X177100000Y-114000000D03*
G04 #@! TO.P,R34,2*
G04 #@! TO.N,/SouthEast*
X174900000Y-114000000D03*
G04 #@! TD*
G04 #@! TO.P,R35,2*
G04 #@! TO.N,Net-(D18-Pad2)*
X179200000Y-93000000D03*
G04 #@! TO.P,R35,1*
G04 #@! TO.N,+3V3*
X177000000Y-93000000D03*
G04 #@! TD*
G04 #@! TO.P,R36,1*
G04 #@! TO.N,+3V3*
X177900000Y-105000000D03*
G04 #@! TO.P,R36,2*
G04 #@! TO.N,/East*
X180100000Y-105000000D03*
G04 #@! TD*
D13*
G04 #@! TO.P,TH1,2*
G04 #@! TO.N,Net-(TH1-Pad2)*
X132080000Y-116840000D03*
G04 #@! TO.P,TH1,1*
G04 #@! TO.N,Net-(R9-Pad1)*
X132080000Y-119040000D03*
G04 #@! TD*
D14*
G04 #@! TO.P,U1,3*
G04 #@! TO.N,Net-(U1-Pad3)*
X135950000Y-110000000D03*
G04 #@! TO.P,U1,8*
G04 #@! TO.N,Net-(R9-Pad1)*
X138050000Y-110000000D03*
G04 #@! TO.P,U1,9*
G04 #@! TO.N,/SDA*
X138050000Y-109400000D03*
G04 #@! TO.P,U1,10*
G04 #@! TO.N,/SCL*
X138050000Y-108800000D03*
G04 #@! TO.P,U1,7*
G04 #@! TO.N,GND*
X138050000Y-110600000D03*
G04 #@! TO.P,U1,6*
G04 #@! TO.N,+3V3*
X138050000Y-111200000D03*
G04 #@! TO.P,U1,4*
G04 #@! TO.N,Net-(TH1-Pad2)*
X135950000Y-110600000D03*
G04 #@! TO.P,U1,5*
X135950000Y-111200000D03*
G04 #@! TO.P,U1,2*
G04 #@! TO.N,Net-(R10-Pad1)*
X135950000Y-109400000D03*
G04 #@! TO.P,U1,1*
G04 #@! TO.N,GND*
X135950000Y-108800000D03*
D15*
G04 #@! TO.P,U1,11*
X137000000Y-110000000D03*
G04 #@! TD*
D16*
G04 #@! TO.P,U2,25*
G04 #@! TO.N,GND*
X140000000Y-86000000D03*
D17*
G04 #@! TO.P,U2,24*
G04 #@! TO.N,Net-(R4-Pad2)*
X138750000Y-84050000D03*
G04 #@! TO.P,U2,23*
G04 #@! TO.N,+3V3*
X139250000Y-84050000D03*
G04 #@! TO.P,U2,22*
G04 #@! TO.N,Net-(J2-Pad1)*
X139750000Y-84050000D03*
G04 #@! TO.P,U2,21*
G04 #@! TO.N,Net-(J3-Pad1)*
X140250000Y-84050000D03*
G04 #@! TO.P,U2,20*
G04 #@! TO.N,Net-(J4-Pad1)*
X140750000Y-84050000D03*
G04 #@! TO.P,U2,19*
G04 #@! TO.N,Net-(J5-Pad1)*
X141250000Y-84050000D03*
D18*
G04 #@! TO.P,U2,18*
G04 #@! TO.N,Net-(U2-Pad18)*
X141950000Y-84750000D03*
G04 #@! TO.P,U2,17*
G04 #@! TO.N,Net-(U2-Pad17)*
X141950000Y-85250000D03*
G04 #@! TO.P,U2,16*
G04 #@! TO.N,Net-(U2-Pad16)*
X141950000Y-85750000D03*
G04 #@! TO.P,U2,15*
G04 #@! TO.N,Net-(U2-Pad15)*
X141950000Y-86250000D03*
G04 #@! TO.P,U2,14*
G04 #@! TO.N,Net-(R3-Pad1)*
X141950000Y-86750000D03*
G04 #@! TO.P,U2,13*
G04 #@! TO.N,Net-(R1-Pad1)*
X141950000Y-87250000D03*
D17*
G04 #@! TO.P,U2,12*
G04 #@! TO.N,Net-(U2-Pad12)*
X141250000Y-87950000D03*
G04 #@! TO.P,U2,11*
G04 #@! TO.N,Net-(U2-Pad11)*
X140750000Y-87950000D03*
G04 #@! TO.P,U2,10*
G04 #@! TO.N,Net-(U2-Pad10)*
X140250000Y-87950000D03*
G04 #@! TO.P,U2,9*
G04 #@! TO.N,Net-(U2-Pad9)*
X139750000Y-87950000D03*
G04 #@! TO.P,U2,8*
G04 #@! TO.N,Net-(D6-Pad1)*
X139250000Y-87950000D03*
G04 #@! TO.P,U2,7*
G04 #@! TO.N,Net-(D5-Pad1)*
X138750000Y-87950000D03*
D18*
G04 #@! TO.P,U2,6*
G04 #@! TO.N,Net-(D4-Pad1)*
X138050000Y-87250000D03*
G04 #@! TO.P,U2,5*
G04 #@! TO.N,Net-(D3-Pad1)*
X138050000Y-86750000D03*
G04 #@! TO.P,U2,4*
G04 #@! TO.N,/SCL*
X138050000Y-86250000D03*
G04 #@! TO.P,U2,3*
G04 #@! TO.N,/SDA*
X138050000Y-85750000D03*
G04 #@! TO.P,U2,2*
G04 #@! TO.N,Net-(U2-Pad2)*
X138050000Y-85250000D03*
G04 #@! TO.P,U2,1*
G04 #@! TO.N,Net-(U2-Pad1)*
X138050000Y-84750000D03*
G04 #@! TD*
D19*
G04 #@! TO.P,U3,13*
G04 #@! TO.N,Net-(U3-Pad13)*
X160000000Y-113270000D03*
G04 #@! TO.P,U3,14*
G04 #@! TO.N,/SCL*
X160000000Y-114540000D03*
G04 #@! TO.P,U3,15*
G04 #@! TO.N,/SDA*
X160000000Y-115810000D03*
G04 #@! TO.P,U3,16*
G04 #@! TO.N,+3V3*
X160000000Y-117080000D03*
G04 #@! TO.P,U3,12*
G04 #@! TO.N,/NorthWest*
X160000000Y-112000000D03*
G04 #@! TO.P,U3,11*
G04 #@! TO.N,/West*
X160000000Y-110730000D03*
G04 #@! TO.P,U3,10*
G04 #@! TO.N,/SouthWest*
X160000000Y-109460000D03*
G04 #@! TO.P,U3,9*
G04 #@! TO.N,/South*
X160000000Y-108190000D03*
G04 #@! TO.P,U3,4*
G04 #@! TO.N,/North*
X169380000Y-113270000D03*
G04 #@! TO.P,U3,5*
G04 #@! TO.N,/NorthEast*
X169380000Y-112000000D03*
G04 #@! TO.P,U3,3*
G04 #@! TO.N,GND*
X169380000Y-114540000D03*
G04 #@! TO.P,U3,2*
X169380000Y-115810000D03*
G04 #@! TO.P,U3,1*
X169380000Y-117080000D03*
G04 #@! TO.P,U3,6*
G04 #@! TO.N,/East*
X169380000Y-110730000D03*
G04 #@! TO.P,U3,7*
G04 #@! TO.N,/SouthEast*
X169380000Y-109460000D03*
G04 #@! TO.P,U3,8*
G04 #@! TO.N,GND*
X169380000Y-108190000D03*
G04 #@! TD*
D20*
G04 #@! TO.N,Net-(D11-Pad2)*
G04 #@! TO.C,D11*
G36*
X120703623Y-101075915D02*
X120722067Y-101078651D01*
X120740154Y-101083181D01*
X120757710Y-101089463D01*
X120774565Y-101097435D01*
X120790558Y-101107021D01*
X120805535Y-101118128D01*
X120819350Y-101130650D01*
X120831872Y-101144465D01*
X120842979Y-101159442D01*
X120852565Y-101175435D01*
X120860537Y-101192290D01*
X120866819Y-101209846D01*
X120871349Y-101227933D01*
X120874085Y-101246377D01*
X120875000Y-101265000D01*
X120875000Y-101835000D01*
X120874085Y-101853623D01*
X120871349Y-101872067D01*
X120866819Y-101890154D01*
X120860537Y-101907710D01*
X120852565Y-101924565D01*
X120842979Y-101940558D01*
X120831872Y-101955535D01*
X120819350Y-101969350D01*
X120805535Y-101981872D01*
X120790558Y-101992979D01*
X120774565Y-102002565D01*
X120757710Y-102010537D01*
X120740154Y-102016819D01*
X120722067Y-102021349D01*
X120703623Y-102024085D01*
X120685000Y-102025000D01*
X119315000Y-102025000D01*
X119296377Y-102024085D01*
X119277933Y-102021349D01*
X119259846Y-102016819D01*
X119242290Y-102010537D01*
X119225435Y-102002565D01*
X119209442Y-101992979D01*
X119194465Y-101981872D01*
X119180650Y-101969350D01*
X119168128Y-101955535D01*
X119157021Y-101940558D01*
X119147435Y-101924565D01*
X119139463Y-101907710D01*
X119133181Y-101890154D01*
X119128651Y-101872067D01*
X119125915Y-101853623D01*
X119125000Y-101835000D01*
X119125000Y-101265000D01*
X119125915Y-101246377D01*
X119128651Y-101227933D01*
X119133181Y-101209846D01*
X119139463Y-101192290D01*
X119147435Y-101175435D01*
X119157021Y-101159442D01*
X119168128Y-101144465D01*
X119180650Y-101130650D01*
X119194465Y-101118128D01*
X119209442Y-101107021D01*
X119225435Y-101097435D01*
X119242290Y-101089463D01*
X119259846Y-101083181D01*
X119277933Y-101078651D01*
X119296377Y-101075915D01*
X119315000Y-101075000D01*
X120685000Y-101075000D01*
X120703623Y-101075915D01*
X120703623Y-101075915D01*
G37*
D21*
G04 #@! TD*
G04 #@! TO.P,D11,2*
G04 #@! TO.N,Net-(D11-Pad2)*
X120000000Y-101550000D03*
D20*
G04 #@! TO.N,/West*
G04 #@! TO.C,D11*
G36*
X120703623Y-97975915D02*
X120722067Y-97978651D01*
X120740154Y-97983181D01*
X120757710Y-97989463D01*
X120774565Y-97997435D01*
X120790558Y-98007021D01*
X120805535Y-98018128D01*
X120819350Y-98030650D01*
X120831872Y-98044465D01*
X120842979Y-98059442D01*
X120852565Y-98075435D01*
X120860537Y-98092290D01*
X120866819Y-98109846D01*
X120871349Y-98127933D01*
X120874085Y-98146377D01*
X120875000Y-98165000D01*
X120875000Y-98735000D01*
X120874085Y-98753623D01*
X120871349Y-98772067D01*
X120866819Y-98790154D01*
X120860537Y-98807710D01*
X120852565Y-98824565D01*
X120842979Y-98840558D01*
X120831872Y-98855535D01*
X120819350Y-98869350D01*
X120805535Y-98881872D01*
X120790558Y-98892979D01*
X120774565Y-98902565D01*
X120757710Y-98910537D01*
X120740154Y-98916819D01*
X120722067Y-98921349D01*
X120703623Y-98924085D01*
X120685000Y-98925000D01*
X119315000Y-98925000D01*
X119296377Y-98924085D01*
X119277933Y-98921349D01*
X119259846Y-98916819D01*
X119242290Y-98910537D01*
X119225435Y-98902565D01*
X119209442Y-98892979D01*
X119194465Y-98881872D01*
X119180650Y-98869350D01*
X119168128Y-98855535D01*
X119157021Y-98840558D01*
X119147435Y-98824565D01*
X119139463Y-98807710D01*
X119133181Y-98790154D01*
X119128651Y-98772067D01*
X119125915Y-98753623D01*
X119125000Y-98735000D01*
X119125000Y-98165000D01*
X119125915Y-98146377D01*
X119128651Y-98127933D01*
X119133181Y-98109846D01*
X119139463Y-98092290D01*
X119147435Y-98075435D01*
X119157021Y-98059442D01*
X119168128Y-98044465D01*
X119180650Y-98030650D01*
X119194465Y-98018128D01*
X119209442Y-98007021D01*
X119225435Y-97997435D01*
X119242290Y-97989463D01*
X119259846Y-97983181D01*
X119277933Y-97978651D01*
X119296377Y-97975915D01*
X119315000Y-97975000D01*
X120685000Y-97975000D01*
X120703623Y-97975915D01*
X120703623Y-97975915D01*
G37*
D21*
G04 #@! TD*
G04 #@! TO.P,D11,1*
G04 #@! TO.N,/West*
X120000000Y-98450000D03*
D20*
G04 #@! TO.N,/NorthWest*
G04 #@! TO.C,D12*
G36*
X127684764Y-79175637D02*
X127703208Y-79178373D01*
X127721295Y-79182903D01*
X127738851Y-79189185D01*
X127755706Y-79197157D01*
X127771699Y-79206743D01*
X127786676Y-79217850D01*
X127800491Y-79230372D01*
X128769228Y-80199109D01*
X128781750Y-80212924D01*
X128792857Y-80227901D01*
X128802443Y-80243894D01*
X128810415Y-80260749D01*
X128816697Y-80278305D01*
X128821227Y-80296392D01*
X128823963Y-80314836D01*
X128824878Y-80333459D01*
X128823963Y-80352082D01*
X128821227Y-80370526D01*
X128816697Y-80388613D01*
X128810415Y-80406169D01*
X128802443Y-80423024D01*
X128792857Y-80439017D01*
X128781750Y-80453994D01*
X128769228Y-80467809D01*
X128366177Y-80870860D01*
X128352362Y-80883382D01*
X128337385Y-80894489D01*
X128321392Y-80904075D01*
X128304537Y-80912047D01*
X128286981Y-80918329D01*
X128268894Y-80922859D01*
X128250450Y-80925595D01*
X128231827Y-80926510D01*
X128213204Y-80925595D01*
X128194760Y-80922859D01*
X128176673Y-80918329D01*
X128159117Y-80912047D01*
X128142262Y-80904075D01*
X128126269Y-80894489D01*
X128111292Y-80883382D01*
X128097477Y-80870860D01*
X127128740Y-79902123D01*
X127116218Y-79888308D01*
X127105111Y-79873331D01*
X127095525Y-79857338D01*
X127087553Y-79840483D01*
X127081271Y-79822927D01*
X127076741Y-79804840D01*
X127074005Y-79786396D01*
X127073090Y-79767773D01*
X127074005Y-79749150D01*
X127076741Y-79730706D01*
X127081271Y-79712619D01*
X127087553Y-79695063D01*
X127095525Y-79678208D01*
X127105111Y-79662215D01*
X127116218Y-79647238D01*
X127128740Y-79633423D01*
X127531791Y-79230372D01*
X127545606Y-79217850D01*
X127560583Y-79206743D01*
X127576576Y-79197157D01*
X127593431Y-79189185D01*
X127610987Y-79182903D01*
X127629074Y-79178373D01*
X127647518Y-79175637D01*
X127666141Y-79174722D01*
X127684764Y-79175637D01*
X127684764Y-79175637D01*
G37*
D21*
G04 #@! TD*
G04 #@! TO.P,D12,1*
G04 #@! TO.N,/NorthWest*
X127948984Y-80050616D03*
D20*
G04 #@! TO.N,Net-(D12-Pad2)*
G04 #@! TO.C,D12*
G36*
X129876796Y-76983605D02*
X129895240Y-76986341D01*
X129913327Y-76990871D01*
X129930883Y-76997153D01*
X129947738Y-77005125D01*
X129963731Y-77014711D01*
X129978708Y-77025818D01*
X129992523Y-77038340D01*
X130961260Y-78007077D01*
X130973782Y-78020892D01*
X130984889Y-78035869D01*
X130994475Y-78051862D01*
X131002447Y-78068717D01*
X131008729Y-78086273D01*
X131013259Y-78104360D01*
X131015995Y-78122804D01*
X131016910Y-78141427D01*
X131015995Y-78160050D01*
X131013259Y-78178494D01*
X131008729Y-78196581D01*
X131002447Y-78214137D01*
X130994475Y-78230992D01*
X130984889Y-78246985D01*
X130973782Y-78261962D01*
X130961260Y-78275777D01*
X130558209Y-78678828D01*
X130544394Y-78691350D01*
X130529417Y-78702457D01*
X130513424Y-78712043D01*
X130496569Y-78720015D01*
X130479013Y-78726297D01*
X130460926Y-78730827D01*
X130442482Y-78733563D01*
X130423859Y-78734478D01*
X130405236Y-78733563D01*
X130386792Y-78730827D01*
X130368705Y-78726297D01*
X130351149Y-78720015D01*
X130334294Y-78712043D01*
X130318301Y-78702457D01*
X130303324Y-78691350D01*
X130289509Y-78678828D01*
X129320772Y-77710091D01*
X129308250Y-77696276D01*
X129297143Y-77681299D01*
X129287557Y-77665306D01*
X129279585Y-77648451D01*
X129273303Y-77630895D01*
X129268773Y-77612808D01*
X129266037Y-77594364D01*
X129265122Y-77575741D01*
X129266037Y-77557118D01*
X129268773Y-77538674D01*
X129273303Y-77520587D01*
X129279585Y-77503031D01*
X129287557Y-77486176D01*
X129297143Y-77470183D01*
X129308250Y-77455206D01*
X129320772Y-77441391D01*
X129723823Y-77038340D01*
X129737638Y-77025818D01*
X129752615Y-77014711D01*
X129768608Y-77005125D01*
X129785463Y-76997153D01*
X129803019Y-76990871D01*
X129821106Y-76986341D01*
X129839550Y-76983605D01*
X129858173Y-76982690D01*
X129876796Y-76983605D01*
X129876796Y-76983605D01*
G37*
D21*
G04 #@! TD*
G04 #@! TO.P,D12,2*
G04 #@! TO.N,Net-(D12-Pad2)*
X130141016Y-77858584D03*
D20*
G04 #@! TO.N,/SouthWest*
G04 #@! TO.C,D13*
G36*
X127250450Y-120074005D02*
X127268894Y-120076741D01*
X127286981Y-120081271D01*
X127304537Y-120087553D01*
X127321392Y-120095525D01*
X127337385Y-120105111D01*
X127352362Y-120116218D01*
X127366177Y-120128740D01*
X127769228Y-120531791D01*
X127781750Y-120545606D01*
X127792857Y-120560583D01*
X127802443Y-120576576D01*
X127810415Y-120593431D01*
X127816697Y-120610987D01*
X127821227Y-120629074D01*
X127823963Y-120647518D01*
X127824878Y-120666141D01*
X127823963Y-120684764D01*
X127821227Y-120703208D01*
X127816697Y-120721295D01*
X127810415Y-120738851D01*
X127802443Y-120755706D01*
X127792857Y-120771699D01*
X127781750Y-120786676D01*
X127769228Y-120800491D01*
X126800491Y-121769228D01*
X126786676Y-121781750D01*
X126771699Y-121792857D01*
X126755706Y-121802443D01*
X126738851Y-121810415D01*
X126721295Y-121816697D01*
X126703208Y-121821227D01*
X126684764Y-121823963D01*
X126666141Y-121824878D01*
X126647518Y-121823963D01*
X126629074Y-121821227D01*
X126610987Y-121816697D01*
X126593431Y-121810415D01*
X126576576Y-121802443D01*
X126560583Y-121792857D01*
X126545606Y-121781750D01*
X126531791Y-121769228D01*
X126128740Y-121366177D01*
X126116218Y-121352362D01*
X126105111Y-121337385D01*
X126095525Y-121321392D01*
X126087553Y-121304537D01*
X126081271Y-121286981D01*
X126076741Y-121268894D01*
X126074005Y-121250450D01*
X126073090Y-121231827D01*
X126074005Y-121213204D01*
X126076741Y-121194760D01*
X126081271Y-121176673D01*
X126087553Y-121159117D01*
X126095525Y-121142262D01*
X126105111Y-121126269D01*
X126116218Y-121111292D01*
X126128740Y-121097477D01*
X127097477Y-120128740D01*
X127111292Y-120116218D01*
X127126269Y-120105111D01*
X127142262Y-120095525D01*
X127159117Y-120087553D01*
X127176673Y-120081271D01*
X127194760Y-120076741D01*
X127213204Y-120074005D01*
X127231827Y-120073090D01*
X127250450Y-120074005D01*
X127250450Y-120074005D01*
G37*
D21*
G04 #@! TD*
G04 #@! TO.P,D13,1*
G04 #@! TO.N,/SouthWest*
X126948984Y-120948984D03*
D20*
G04 #@! TO.N,Net-(D13-Pad2)*
G04 #@! TO.C,D13*
G36*
X129442482Y-122266037D02*
X129460926Y-122268773D01*
X129479013Y-122273303D01*
X129496569Y-122279585D01*
X129513424Y-122287557D01*
X129529417Y-122297143D01*
X129544394Y-122308250D01*
X129558209Y-122320772D01*
X129961260Y-122723823D01*
X129973782Y-122737638D01*
X129984889Y-122752615D01*
X129994475Y-122768608D01*
X130002447Y-122785463D01*
X130008729Y-122803019D01*
X130013259Y-122821106D01*
X130015995Y-122839550D01*
X130016910Y-122858173D01*
X130015995Y-122876796D01*
X130013259Y-122895240D01*
X130008729Y-122913327D01*
X130002447Y-122930883D01*
X129994475Y-122947738D01*
X129984889Y-122963731D01*
X129973782Y-122978708D01*
X129961260Y-122992523D01*
X128992523Y-123961260D01*
X128978708Y-123973782D01*
X128963731Y-123984889D01*
X128947738Y-123994475D01*
X128930883Y-124002447D01*
X128913327Y-124008729D01*
X128895240Y-124013259D01*
X128876796Y-124015995D01*
X128858173Y-124016910D01*
X128839550Y-124015995D01*
X128821106Y-124013259D01*
X128803019Y-124008729D01*
X128785463Y-124002447D01*
X128768608Y-123994475D01*
X128752615Y-123984889D01*
X128737638Y-123973782D01*
X128723823Y-123961260D01*
X128320772Y-123558209D01*
X128308250Y-123544394D01*
X128297143Y-123529417D01*
X128287557Y-123513424D01*
X128279585Y-123496569D01*
X128273303Y-123479013D01*
X128268773Y-123460926D01*
X128266037Y-123442482D01*
X128265122Y-123423859D01*
X128266037Y-123405236D01*
X128268773Y-123386792D01*
X128273303Y-123368705D01*
X128279585Y-123351149D01*
X128287557Y-123334294D01*
X128297143Y-123318301D01*
X128308250Y-123303324D01*
X128320772Y-123289509D01*
X129289509Y-122320772D01*
X129303324Y-122308250D01*
X129318301Y-122297143D01*
X129334294Y-122287557D01*
X129351149Y-122279585D01*
X129368705Y-122273303D01*
X129386792Y-122268773D01*
X129405236Y-122266037D01*
X129423859Y-122265122D01*
X129442482Y-122266037D01*
X129442482Y-122266037D01*
G37*
D21*
G04 #@! TD*
G04 #@! TO.P,D13,2*
G04 #@! TO.N,Net-(D13-Pad2)*
X129141016Y-123141016D03*
D20*
G04 #@! TO.N,Net-(D14-Pad2)*
G04 #@! TO.C,D14*
G36*
X151853623Y-69125915D02*
X151872067Y-69128651D01*
X151890154Y-69133181D01*
X151907710Y-69139463D01*
X151924565Y-69147435D01*
X151940558Y-69157021D01*
X151955535Y-69168128D01*
X151969350Y-69180650D01*
X151981872Y-69194465D01*
X151992979Y-69209442D01*
X152002565Y-69225435D01*
X152010537Y-69242290D01*
X152016819Y-69259846D01*
X152021349Y-69277933D01*
X152024085Y-69296377D01*
X152025000Y-69315000D01*
X152025000Y-70685000D01*
X152024085Y-70703623D01*
X152021349Y-70722067D01*
X152016819Y-70740154D01*
X152010537Y-70757710D01*
X152002565Y-70774565D01*
X151992979Y-70790558D01*
X151981872Y-70805535D01*
X151969350Y-70819350D01*
X151955535Y-70831872D01*
X151940558Y-70842979D01*
X151924565Y-70852565D01*
X151907710Y-70860537D01*
X151890154Y-70866819D01*
X151872067Y-70871349D01*
X151853623Y-70874085D01*
X151835000Y-70875000D01*
X151265000Y-70875000D01*
X151246377Y-70874085D01*
X151227933Y-70871349D01*
X151209846Y-70866819D01*
X151192290Y-70860537D01*
X151175435Y-70852565D01*
X151159442Y-70842979D01*
X151144465Y-70831872D01*
X151130650Y-70819350D01*
X151118128Y-70805535D01*
X151107021Y-70790558D01*
X151097435Y-70774565D01*
X151089463Y-70757710D01*
X151083181Y-70740154D01*
X151078651Y-70722067D01*
X151075915Y-70703623D01*
X151075000Y-70685000D01*
X151075000Y-69315000D01*
X151075915Y-69296377D01*
X151078651Y-69277933D01*
X151083181Y-69259846D01*
X151089463Y-69242290D01*
X151097435Y-69225435D01*
X151107021Y-69209442D01*
X151118128Y-69194465D01*
X151130650Y-69180650D01*
X151144465Y-69168128D01*
X151159442Y-69157021D01*
X151175435Y-69147435D01*
X151192290Y-69139463D01*
X151209846Y-69133181D01*
X151227933Y-69128651D01*
X151246377Y-69125915D01*
X151265000Y-69125000D01*
X151835000Y-69125000D01*
X151853623Y-69125915D01*
X151853623Y-69125915D01*
G37*
D21*
G04 #@! TD*
G04 #@! TO.P,D14,2*
G04 #@! TO.N,Net-(D14-Pad2)*
X151550000Y-70000000D03*
D20*
G04 #@! TO.N,/North*
G04 #@! TO.C,D14*
G36*
X148753623Y-69125915D02*
X148772067Y-69128651D01*
X148790154Y-69133181D01*
X148807710Y-69139463D01*
X148824565Y-69147435D01*
X148840558Y-69157021D01*
X148855535Y-69168128D01*
X148869350Y-69180650D01*
X148881872Y-69194465D01*
X148892979Y-69209442D01*
X148902565Y-69225435D01*
X148910537Y-69242290D01*
X148916819Y-69259846D01*
X148921349Y-69277933D01*
X148924085Y-69296377D01*
X148925000Y-69315000D01*
X148925000Y-70685000D01*
X148924085Y-70703623D01*
X148921349Y-70722067D01*
X148916819Y-70740154D01*
X148910537Y-70757710D01*
X148902565Y-70774565D01*
X148892979Y-70790558D01*
X148881872Y-70805535D01*
X148869350Y-70819350D01*
X148855535Y-70831872D01*
X148840558Y-70842979D01*
X148824565Y-70852565D01*
X148807710Y-70860537D01*
X148790154Y-70866819D01*
X148772067Y-70871349D01*
X148753623Y-70874085D01*
X148735000Y-70875000D01*
X148165000Y-70875000D01*
X148146377Y-70874085D01*
X148127933Y-70871349D01*
X148109846Y-70866819D01*
X148092290Y-70860537D01*
X148075435Y-70852565D01*
X148059442Y-70842979D01*
X148044465Y-70831872D01*
X148030650Y-70819350D01*
X148018128Y-70805535D01*
X148007021Y-70790558D01*
X147997435Y-70774565D01*
X147989463Y-70757710D01*
X147983181Y-70740154D01*
X147978651Y-70722067D01*
X147975915Y-70703623D01*
X147975000Y-70685000D01*
X147975000Y-69315000D01*
X147975915Y-69296377D01*
X147978651Y-69277933D01*
X147983181Y-69259846D01*
X147989463Y-69242290D01*
X147997435Y-69225435D01*
X148007021Y-69209442D01*
X148018128Y-69194465D01*
X148030650Y-69180650D01*
X148044465Y-69168128D01*
X148059442Y-69157021D01*
X148075435Y-69147435D01*
X148092290Y-69139463D01*
X148109846Y-69133181D01*
X148127933Y-69128651D01*
X148146377Y-69125915D01*
X148165000Y-69125000D01*
X148735000Y-69125000D01*
X148753623Y-69125915D01*
X148753623Y-69125915D01*
G37*
D21*
G04 #@! TD*
G04 #@! TO.P,D14,1*
G04 #@! TO.N,/North*
X148450000Y-70000000D03*
D20*
G04 #@! TO.N,Net-(D15-Pad2)*
G04 #@! TO.C,D15*
G36*
X148753623Y-129125915D02*
X148772067Y-129128651D01*
X148790154Y-129133181D01*
X148807710Y-129139463D01*
X148824565Y-129147435D01*
X148840558Y-129157021D01*
X148855535Y-129168128D01*
X148869350Y-129180650D01*
X148881872Y-129194465D01*
X148892979Y-129209442D01*
X148902565Y-129225435D01*
X148910537Y-129242290D01*
X148916819Y-129259846D01*
X148921349Y-129277933D01*
X148924085Y-129296377D01*
X148925000Y-129315000D01*
X148925000Y-130685000D01*
X148924085Y-130703623D01*
X148921349Y-130722067D01*
X148916819Y-130740154D01*
X148910537Y-130757710D01*
X148902565Y-130774565D01*
X148892979Y-130790558D01*
X148881872Y-130805535D01*
X148869350Y-130819350D01*
X148855535Y-130831872D01*
X148840558Y-130842979D01*
X148824565Y-130852565D01*
X148807710Y-130860537D01*
X148790154Y-130866819D01*
X148772067Y-130871349D01*
X148753623Y-130874085D01*
X148735000Y-130875000D01*
X148165000Y-130875000D01*
X148146377Y-130874085D01*
X148127933Y-130871349D01*
X148109846Y-130866819D01*
X148092290Y-130860537D01*
X148075435Y-130852565D01*
X148059442Y-130842979D01*
X148044465Y-130831872D01*
X148030650Y-130819350D01*
X148018128Y-130805535D01*
X148007021Y-130790558D01*
X147997435Y-130774565D01*
X147989463Y-130757710D01*
X147983181Y-130740154D01*
X147978651Y-130722067D01*
X147975915Y-130703623D01*
X147975000Y-130685000D01*
X147975000Y-129315000D01*
X147975915Y-129296377D01*
X147978651Y-129277933D01*
X147983181Y-129259846D01*
X147989463Y-129242290D01*
X147997435Y-129225435D01*
X148007021Y-129209442D01*
X148018128Y-129194465D01*
X148030650Y-129180650D01*
X148044465Y-129168128D01*
X148059442Y-129157021D01*
X148075435Y-129147435D01*
X148092290Y-129139463D01*
X148109846Y-129133181D01*
X148127933Y-129128651D01*
X148146377Y-129125915D01*
X148165000Y-129125000D01*
X148735000Y-129125000D01*
X148753623Y-129125915D01*
X148753623Y-129125915D01*
G37*
D21*
G04 #@! TD*
G04 #@! TO.P,D15,2*
G04 #@! TO.N,Net-(D15-Pad2)*
X148450000Y-130000000D03*
D20*
G04 #@! TO.N,/South*
G04 #@! TO.C,D15*
G36*
X151853623Y-129125915D02*
X151872067Y-129128651D01*
X151890154Y-129133181D01*
X151907710Y-129139463D01*
X151924565Y-129147435D01*
X151940558Y-129157021D01*
X151955535Y-129168128D01*
X151969350Y-129180650D01*
X151981872Y-129194465D01*
X151992979Y-129209442D01*
X152002565Y-129225435D01*
X152010537Y-129242290D01*
X152016819Y-129259846D01*
X152021349Y-129277933D01*
X152024085Y-129296377D01*
X152025000Y-129315000D01*
X152025000Y-130685000D01*
X152024085Y-130703623D01*
X152021349Y-130722067D01*
X152016819Y-130740154D01*
X152010537Y-130757710D01*
X152002565Y-130774565D01*
X151992979Y-130790558D01*
X151981872Y-130805535D01*
X151969350Y-130819350D01*
X151955535Y-130831872D01*
X151940558Y-130842979D01*
X151924565Y-130852565D01*
X151907710Y-130860537D01*
X151890154Y-130866819D01*
X151872067Y-130871349D01*
X151853623Y-130874085D01*
X151835000Y-130875000D01*
X151265000Y-130875000D01*
X151246377Y-130874085D01*
X151227933Y-130871349D01*
X151209846Y-130866819D01*
X151192290Y-130860537D01*
X151175435Y-130852565D01*
X151159442Y-130842979D01*
X151144465Y-130831872D01*
X151130650Y-130819350D01*
X151118128Y-130805535D01*
X151107021Y-130790558D01*
X151097435Y-130774565D01*
X151089463Y-130757710D01*
X151083181Y-130740154D01*
X151078651Y-130722067D01*
X151075915Y-130703623D01*
X151075000Y-130685000D01*
X151075000Y-129315000D01*
X151075915Y-129296377D01*
X151078651Y-129277933D01*
X151083181Y-129259846D01*
X151089463Y-129242290D01*
X151097435Y-129225435D01*
X151107021Y-129209442D01*
X151118128Y-129194465D01*
X151130650Y-129180650D01*
X151144465Y-129168128D01*
X151159442Y-129157021D01*
X151175435Y-129147435D01*
X151192290Y-129139463D01*
X151209846Y-129133181D01*
X151227933Y-129128651D01*
X151246377Y-129125915D01*
X151265000Y-129125000D01*
X151835000Y-129125000D01*
X151853623Y-129125915D01*
X151853623Y-129125915D01*
G37*
D21*
G04 #@! TD*
G04 #@! TO.P,D15,1*
G04 #@! TO.N,/South*
X151550000Y-130000000D03*
D20*
G04 #@! TO.N,Net-(D16-Pad2)*
G04 #@! TO.C,D16*
G36*
X169250450Y-75029005D02*
X169268894Y-75031741D01*
X169286981Y-75036271D01*
X169304537Y-75042553D01*
X169321392Y-75050525D01*
X169337385Y-75060111D01*
X169352362Y-75071218D01*
X169366177Y-75083740D01*
X169769228Y-75486791D01*
X169781750Y-75500606D01*
X169792857Y-75515583D01*
X169802443Y-75531576D01*
X169810415Y-75548431D01*
X169816697Y-75565987D01*
X169821227Y-75584074D01*
X169823963Y-75602518D01*
X169824878Y-75621141D01*
X169823963Y-75639764D01*
X169821227Y-75658208D01*
X169816697Y-75676295D01*
X169810415Y-75693851D01*
X169802443Y-75710706D01*
X169792857Y-75726699D01*
X169781750Y-75741676D01*
X169769228Y-75755491D01*
X168800491Y-76724228D01*
X168786676Y-76736750D01*
X168771699Y-76747857D01*
X168755706Y-76757443D01*
X168738851Y-76765415D01*
X168721295Y-76771697D01*
X168703208Y-76776227D01*
X168684764Y-76778963D01*
X168666141Y-76779878D01*
X168647518Y-76778963D01*
X168629074Y-76776227D01*
X168610987Y-76771697D01*
X168593431Y-76765415D01*
X168576576Y-76757443D01*
X168560583Y-76747857D01*
X168545606Y-76736750D01*
X168531791Y-76724228D01*
X168128740Y-76321177D01*
X168116218Y-76307362D01*
X168105111Y-76292385D01*
X168095525Y-76276392D01*
X168087553Y-76259537D01*
X168081271Y-76241981D01*
X168076741Y-76223894D01*
X168074005Y-76205450D01*
X168073090Y-76186827D01*
X168074005Y-76168204D01*
X168076741Y-76149760D01*
X168081271Y-76131673D01*
X168087553Y-76114117D01*
X168095525Y-76097262D01*
X168105111Y-76081269D01*
X168116218Y-76066292D01*
X168128740Y-76052477D01*
X169097477Y-75083740D01*
X169111292Y-75071218D01*
X169126269Y-75060111D01*
X169142262Y-75050525D01*
X169159117Y-75042553D01*
X169176673Y-75036271D01*
X169194760Y-75031741D01*
X169213204Y-75029005D01*
X169231827Y-75028090D01*
X169250450Y-75029005D01*
X169250450Y-75029005D01*
G37*
D21*
G04 #@! TD*
G04 #@! TO.P,D16,2*
G04 #@! TO.N,Net-(D16-Pad2)*
X168948984Y-75903984D03*
D20*
G04 #@! TO.N,/NorthEast*
G04 #@! TO.C,D16*
G36*
X171442482Y-77221037D02*
X171460926Y-77223773D01*
X171479013Y-77228303D01*
X171496569Y-77234585D01*
X171513424Y-77242557D01*
X171529417Y-77252143D01*
X171544394Y-77263250D01*
X171558209Y-77275772D01*
X171961260Y-77678823D01*
X171973782Y-77692638D01*
X171984889Y-77707615D01*
X171994475Y-77723608D01*
X172002447Y-77740463D01*
X172008729Y-77758019D01*
X172013259Y-77776106D01*
X172015995Y-77794550D01*
X172016910Y-77813173D01*
X172015995Y-77831796D01*
X172013259Y-77850240D01*
X172008729Y-77868327D01*
X172002447Y-77885883D01*
X171994475Y-77902738D01*
X171984889Y-77918731D01*
X171973782Y-77933708D01*
X171961260Y-77947523D01*
X170992523Y-78916260D01*
X170978708Y-78928782D01*
X170963731Y-78939889D01*
X170947738Y-78949475D01*
X170930883Y-78957447D01*
X170913327Y-78963729D01*
X170895240Y-78968259D01*
X170876796Y-78970995D01*
X170858173Y-78971910D01*
X170839550Y-78970995D01*
X170821106Y-78968259D01*
X170803019Y-78963729D01*
X170785463Y-78957447D01*
X170768608Y-78949475D01*
X170752615Y-78939889D01*
X170737638Y-78928782D01*
X170723823Y-78916260D01*
X170320772Y-78513209D01*
X170308250Y-78499394D01*
X170297143Y-78484417D01*
X170287557Y-78468424D01*
X170279585Y-78451569D01*
X170273303Y-78434013D01*
X170268773Y-78415926D01*
X170266037Y-78397482D01*
X170265122Y-78378859D01*
X170266037Y-78360236D01*
X170268773Y-78341792D01*
X170273303Y-78323705D01*
X170279585Y-78306149D01*
X170287557Y-78289294D01*
X170297143Y-78273301D01*
X170308250Y-78258324D01*
X170320772Y-78244509D01*
X171289509Y-77275772D01*
X171303324Y-77263250D01*
X171318301Y-77252143D01*
X171334294Y-77242557D01*
X171351149Y-77234585D01*
X171368705Y-77228303D01*
X171386792Y-77223773D01*
X171405236Y-77221037D01*
X171423859Y-77220122D01*
X171442482Y-77221037D01*
X171442482Y-77221037D01*
G37*
D21*
G04 #@! TD*
G04 #@! TO.P,D16,1*
G04 #@! TO.N,/NorthEast*
X171141016Y-78096016D03*
D20*
G04 #@! TO.N,/SouthEast*
G04 #@! TO.C,D17*
G36*
X171831796Y-119029005D02*
X171850240Y-119031741D01*
X171868327Y-119036271D01*
X171885883Y-119042553D01*
X171902738Y-119050525D01*
X171918731Y-119060111D01*
X171933708Y-119071218D01*
X171947523Y-119083740D01*
X172916260Y-120052477D01*
X172928782Y-120066292D01*
X172939889Y-120081269D01*
X172949475Y-120097262D01*
X172957447Y-120114117D01*
X172963729Y-120131673D01*
X172968259Y-120149760D01*
X172970995Y-120168204D01*
X172971910Y-120186827D01*
X172970995Y-120205450D01*
X172968259Y-120223894D01*
X172963729Y-120241981D01*
X172957447Y-120259537D01*
X172949475Y-120276392D01*
X172939889Y-120292385D01*
X172928782Y-120307362D01*
X172916260Y-120321177D01*
X172513209Y-120724228D01*
X172499394Y-120736750D01*
X172484417Y-120747857D01*
X172468424Y-120757443D01*
X172451569Y-120765415D01*
X172434013Y-120771697D01*
X172415926Y-120776227D01*
X172397482Y-120778963D01*
X172378859Y-120779878D01*
X172360236Y-120778963D01*
X172341792Y-120776227D01*
X172323705Y-120771697D01*
X172306149Y-120765415D01*
X172289294Y-120757443D01*
X172273301Y-120747857D01*
X172258324Y-120736750D01*
X172244509Y-120724228D01*
X171275772Y-119755491D01*
X171263250Y-119741676D01*
X171252143Y-119726699D01*
X171242557Y-119710706D01*
X171234585Y-119693851D01*
X171228303Y-119676295D01*
X171223773Y-119658208D01*
X171221037Y-119639764D01*
X171220122Y-119621141D01*
X171221037Y-119602518D01*
X171223773Y-119584074D01*
X171228303Y-119565987D01*
X171234585Y-119548431D01*
X171242557Y-119531576D01*
X171252143Y-119515583D01*
X171263250Y-119500606D01*
X171275772Y-119486791D01*
X171678823Y-119083740D01*
X171692638Y-119071218D01*
X171707615Y-119060111D01*
X171723608Y-119050525D01*
X171740463Y-119042553D01*
X171758019Y-119036271D01*
X171776106Y-119031741D01*
X171794550Y-119029005D01*
X171813173Y-119028090D01*
X171831796Y-119029005D01*
X171831796Y-119029005D01*
G37*
D21*
G04 #@! TD*
G04 #@! TO.P,D17,1*
G04 #@! TO.N,/SouthEast*
X172096016Y-119903984D03*
D20*
G04 #@! TO.N,Net-(D17-Pad2)*
G04 #@! TO.C,D17*
G36*
X169639764Y-121221037D02*
X169658208Y-121223773D01*
X169676295Y-121228303D01*
X169693851Y-121234585D01*
X169710706Y-121242557D01*
X169726699Y-121252143D01*
X169741676Y-121263250D01*
X169755491Y-121275772D01*
X170724228Y-122244509D01*
X170736750Y-122258324D01*
X170747857Y-122273301D01*
X170757443Y-122289294D01*
X170765415Y-122306149D01*
X170771697Y-122323705D01*
X170776227Y-122341792D01*
X170778963Y-122360236D01*
X170779878Y-122378859D01*
X170778963Y-122397482D01*
X170776227Y-122415926D01*
X170771697Y-122434013D01*
X170765415Y-122451569D01*
X170757443Y-122468424D01*
X170747857Y-122484417D01*
X170736750Y-122499394D01*
X170724228Y-122513209D01*
X170321177Y-122916260D01*
X170307362Y-122928782D01*
X170292385Y-122939889D01*
X170276392Y-122949475D01*
X170259537Y-122957447D01*
X170241981Y-122963729D01*
X170223894Y-122968259D01*
X170205450Y-122970995D01*
X170186827Y-122971910D01*
X170168204Y-122970995D01*
X170149760Y-122968259D01*
X170131673Y-122963729D01*
X170114117Y-122957447D01*
X170097262Y-122949475D01*
X170081269Y-122939889D01*
X170066292Y-122928782D01*
X170052477Y-122916260D01*
X169083740Y-121947523D01*
X169071218Y-121933708D01*
X169060111Y-121918731D01*
X169050525Y-121902738D01*
X169042553Y-121885883D01*
X169036271Y-121868327D01*
X169031741Y-121850240D01*
X169029005Y-121831796D01*
X169028090Y-121813173D01*
X169029005Y-121794550D01*
X169031741Y-121776106D01*
X169036271Y-121758019D01*
X169042553Y-121740463D01*
X169050525Y-121723608D01*
X169060111Y-121707615D01*
X169071218Y-121692638D01*
X169083740Y-121678823D01*
X169486791Y-121275772D01*
X169500606Y-121263250D01*
X169515583Y-121252143D01*
X169531576Y-121242557D01*
X169548431Y-121234585D01*
X169565987Y-121228303D01*
X169584074Y-121223773D01*
X169602518Y-121221037D01*
X169621141Y-121220122D01*
X169639764Y-121221037D01*
X169639764Y-121221037D01*
G37*
D21*
G04 #@! TD*
G04 #@! TO.P,D17,2*
G04 #@! TO.N,Net-(D17-Pad2)*
X169903984Y-122096016D03*
D20*
G04 #@! TO.N,/East*
G04 #@! TO.C,D18*
G36*
X181703623Y-100425915D02*
X181722067Y-100428651D01*
X181740154Y-100433181D01*
X181757710Y-100439463D01*
X181774565Y-100447435D01*
X181790558Y-100457021D01*
X181805535Y-100468128D01*
X181819350Y-100480650D01*
X181831872Y-100494465D01*
X181842979Y-100509442D01*
X181852565Y-100525435D01*
X181860537Y-100542290D01*
X181866819Y-100559846D01*
X181871349Y-100577933D01*
X181874085Y-100596377D01*
X181875000Y-100615000D01*
X181875000Y-101185000D01*
X181874085Y-101203623D01*
X181871349Y-101222067D01*
X181866819Y-101240154D01*
X181860537Y-101257710D01*
X181852565Y-101274565D01*
X181842979Y-101290558D01*
X181831872Y-101305535D01*
X181819350Y-101319350D01*
X181805535Y-101331872D01*
X181790558Y-101342979D01*
X181774565Y-101352565D01*
X181757710Y-101360537D01*
X181740154Y-101366819D01*
X181722067Y-101371349D01*
X181703623Y-101374085D01*
X181685000Y-101375000D01*
X180315000Y-101375000D01*
X180296377Y-101374085D01*
X180277933Y-101371349D01*
X180259846Y-101366819D01*
X180242290Y-101360537D01*
X180225435Y-101352565D01*
X180209442Y-101342979D01*
X180194465Y-101331872D01*
X180180650Y-101319350D01*
X180168128Y-101305535D01*
X180157021Y-101290558D01*
X180147435Y-101274565D01*
X180139463Y-101257710D01*
X180133181Y-101240154D01*
X180128651Y-101222067D01*
X180125915Y-101203623D01*
X180125000Y-101185000D01*
X180125000Y-100615000D01*
X180125915Y-100596377D01*
X180128651Y-100577933D01*
X180133181Y-100559846D01*
X180139463Y-100542290D01*
X180147435Y-100525435D01*
X180157021Y-100509442D01*
X180168128Y-100494465D01*
X180180650Y-100480650D01*
X180194465Y-100468128D01*
X180209442Y-100457021D01*
X180225435Y-100447435D01*
X180242290Y-100439463D01*
X180259846Y-100433181D01*
X180277933Y-100428651D01*
X180296377Y-100425915D01*
X180315000Y-100425000D01*
X181685000Y-100425000D01*
X181703623Y-100425915D01*
X181703623Y-100425915D01*
G37*
D21*
G04 #@! TD*
G04 #@! TO.P,D18,1*
G04 #@! TO.N,/East*
X181000000Y-100900000D03*
D20*
G04 #@! TO.N,Net-(D18-Pad2)*
G04 #@! TO.C,D18*
G36*
X181703623Y-97325915D02*
X181722067Y-97328651D01*
X181740154Y-97333181D01*
X181757710Y-97339463D01*
X181774565Y-97347435D01*
X181790558Y-97357021D01*
X181805535Y-97368128D01*
X181819350Y-97380650D01*
X181831872Y-97394465D01*
X181842979Y-97409442D01*
X181852565Y-97425435D01*
X181860537Y-97442290D01*
X181866819Y-97459846D01*
X181871349Y-97477933D01*
X181874085Y-97496377D01*
X181875000Y-97515000D01*
X181875000Y-98085000D01*
X181874085Y-98103623D01*
X181871349Y-98122067D01*
X181866819Y-98140154D01*
X181860537Y-98157710D01*
X181852565Y-98174565D01*
X181842979Y-98190558D01*
X181831872Y-98205535D01*
X181819350Y-98219350D01*
X181805535Y-98231872D01*
X181790558Y-98242979D01*
X181774565Y-98252565D01*
X181757710Y-98260537D01*
X181740154Y-98266819D01*
X181722067Y-98271349D01*
X181703623Y-98274085D01*
X181685000Y-98275000D01*
X180315000Y-98275000D01*
X180296377Y-98274085D01*
X180277933Y-98271349D01*
X180259846Y-98266819D01*
X180242290Y-98260537D01*
X180225435Y-98252565D01*
X180209442Y-98242979D01*
X180194465Y-98231872D01*
X180180650Y-98219350D01*
X180168128Y-98205535D01*
X180157021Y-98190558D01*
X180147435Y-98174565D01*
X180139463Y-98157710D01*
X180133181Y-98140154D01*
X180128651Y-98122067D01*
X180125915Y-98103623D01*
X180125000Y-98085000D01*
X180125000Y-97515000D01*
X180125915Y-97496377D01*
X180128651Y-97477933D01*
X180133181Y-97459846D01*
X180139463Y-97442290D01*
X180147435Y-97425435D01*
X180157021Y-97409442D01*
X180168128Y-97394465D01*
X180180650Y-97380650D01*
X180194465Y-97368128D01*
X180209442Y-97357021D01*
X180225435Y-97347435D01*
X180242290Y-97339463D01*
X180259846Y-97333181D01*
X180277933Y-97328651D01*
X180296377Y-97325915D01*
X180315000Y-97325000D01*
X181685000Y-97325000D01*
X181703623Y-97325915D01*
X181703623Y-97325915D01*
G37*
D21*
G04 #@! TD*
G04 #@! TO.P,D18,2*
G04 #@! TO.N,Net-(D18-Pad2)*
X181000000Y-97800000D03*
D22*
G04 #@! TO.N,Net-(D3-Pad1)*
X134000000Y-94000000D03*
X142240000Y-92710000D03*
G04 #@! TO.N,Net-(D5-Pad1)*
X169000000Y-88587300D03*
X150000000Y-87000000D03*
G04 #@! TO.N,/West*
X120975300Y-103248200D03*
X158549928Y-113030000D03*
G04 #@! TO.N,/NorthWest*
X121138400Y-97497400D03*
X158749964Y-106680000D03*
G04 #@! TO.N,/SouthWest*
X158500200Y-110537400D03*
X126244700Y-111233300D03*
G04 #@! TO.N,/North*
X149000000Y-75000000D03*
X147000000Y-72000000D03*
G04 #@! TO.N,/SCL*
X134000000Y-90000000D03*
X142000000Y-109000016D03*
X135999988Y-107000000D03*
X134919960Y-77105360D03*
X158115298Y-105907211D03*
X136615010Y-88324949D03*
X130810000Y-82550000D03*
G04 #@! TO.N,/SDA*
X130088600Y-87095400D03*
X135711284Y-83626985D03*
G04 #@! TO.N,+3V3*
X160000000Y-125000000D03*
X153000000Y-128000000D03*
X135890000Y-118110000D03*
X124460000Y-119380000D03*
G04 #@! TO.N,GND*
X140000000Y-86000000D03*
X136000000Y-92000000D03*
X133350000Y-86359964D03*
G04 #@! TO.N,Net-(J2-Pad1)*
X140000000Y-82000000D03*
G04 #@! TO.N,Net-(J3-Pad1)*
X142000000Y-82000000D03*
X144000000Y-88000000D03*
X147889698Y-85824979D03*
G04 #@! TO.N,Net-(J4-Pad1)*
X141875800Y-83248500D03*
G04 #@! TO.N,Net-(J5-Pad1)*
X143207378Y-86147521D03*
G04 #@! TO.N,Net-(R9-Pad1)*
X137160000Y-120650000D03*
X140970000Y-114300000D03*
G04 #@! TD*
D23*
G04 #@! TO.N,Net-(D3-Pad1)*
X131350000Y-91000000D02*
X134000000Y-93650000D01*
X131200000Y-91000000D02*
X131350000Y-91000000D01*
X134000000Y-93650000D02*
X134000000Y-94000000D01*
X137389998Y-86750000D02*
X137299700Y-86840298D01*
X137340011Y-87976948D02*
X137340011Y-88672950D01*
X137299700Y-86840298D02*
X137299700Y-87936637D01*
X141377061Y-92710000D02*
X141674315Y-92710000D01*
X137299700Y-87936637D02*
X137340011Y-87976948D01*
X141674315Y-92710000D02*
X142240000Y-92710000D01*
X137340011Y-88672950D02*
X141377061Y-92710000D01*
X138050000Y-86750000D02*
X137389998Y-86750000D01*
G04 #@! TO.N,Net-(D3-Pad2)*
X126200000Y-91000000D02*
X129000000Y-91000000D01*
G04 #@! TO.N,Net-(D4-Pad2)*
X151200000Y-88970000D02*
X151130000Y-88900000D01*
X151200000Y-91000000D02*
X151200000Y-88970000D01*
G04 #@! TO.N,Net-(D4-Pad1)*
X147074700Y-90000000D02*
X148074700Y-91000000D01*
X139332400Y-90000000D02*
X147074700Y-90000000D01*
X138050000Y-88717600D02*
X139332400Y-90000000D01*
X138050000Y-87250000D02*
X138050000Y-88717600D01*
X148074700Y-91000000D02*
X149000000Y-91000000D01*
G04 #@! TO.N,Net-(D5-Pad2)*
X171200000Y-91000000D02*
X171200000Y-90224700D01*
X174800000Y-88000000D02*
X174800000Y-88775300D01*
X174800000Y-88775300D02*
X172649400Y-88775300D01*
X172649400Y-88775300D02*
X171200000Y-90224700D01*
G04 #@! TO.N,Net-(D5-Pad1)*
X169000000Y-91000000D02*
X169000000Y-88587300D01*
X147950000Y-87000000D02*
X150000000Y-87000000D01*
X138750000Y-87950000D02*
X138750000Y-88625000D01*
X145763300Y-89186700D02*
X147950000Y-87000000D01*
X139311700Y-89186700D02*
X145763300Y-89186700D01*
X138750000Y-88625000D02*
X139311700Y-89186700D01*
G04 #@! TO.N,Net-(D6-Pad1)*
X149000000Y-111300000D02*
X149000000Y-112000000D01*
X157480000Y-102820000D02*
X149000000Y-111300000D01*
X157480000Y-97844998D02*
X157480000Y-102820000D01*
X149860000Y-88213004D02*
X149860001Y-90224999D01*
X148523015Y-86549989D02*
X148798006Y-86274998D01*
X145577190Y-88736400D02*
X147763600Y-86549989D01*
X149860001Y-90224999D02*
X150274999Y-90639997D01*
X139499700Y-88736400D02*
X145577190Y-88736400D01*
X139250000Y-87950000D02*
X139250000Y-88486700D01*
X139250000Y-88486700D02*
X139499700Y-88736400D01*
X150274999Y-90639997D02*
X150274999Y-91710001D01*
X148798006Y-86274998D02*
X150348002Y-86274998D01*
X147763600Y-86549989D02*
X148523015Y-86549989D01*
X150725002Y-86651998D02*
X150725002Y-87348002D01*
X150348002Y-86274998D02*
X150725002Y-86651998D01*
X150725002Y-87348002D02*
X149860000Y-88213004D01*
X150274999Y-91710001D02*
X150339999Y-91775001D01*
X150339999Y-91775001D02*
X151410003Y-91775001D01*
X151410003Y-91775001D02*
X157480000Y-97844998D01*
G04 #@! TO.N,Net-(D6-Pad2)*
X151200000Y-112000000D02*
X151200000Y-111224700D01*
X154000000Y-108000000D02*
X154000000Y-108775300D01*
X154000000Y-108775300D02*
X151550600Y-111224700D01*
X151550600Y-111224700D02*
X151200000Y-111224700D01*
G04 #@! TO.N,Net-(D11-Pad2)*
X120000000Y-101350000D02*
X120000000Y-102425300D01*
X119800000Y-105000000D02*
X119800000Y-102625300D01*
X119800000Y-102625300D02*
X120000000Y-102425300D01*
G04 #@! TO.N,/West*
X122000000Y-98650000D02*
X122000000Y-102223500D01*
X119900000Y-95775300D02*
X120000000Y-95875300D01*
X119900000Y-95000000D02*
X119900000Y-95775300D01*
X120000000Y-98650000D02*
X122000000Y-98650000D01*
X120000000Y-95875300D02*
X120000000Y-98650000D01*
X122000000Y-102223500D02*
X120975300Y-103248200D01*
X159500000Y-110730000D02*
X158549928Y-111680072D01*
X158549928Y-111680072D02*
X158549928Y-112464315D01*
X158549928Y-112464315D02*
X158549928Y-113030000D01*
X160000000Y-110730000D02*
X159500000Y-110730000D01*
G04 #@! TO.N,/NorthWest*
X128780100Y-80598900D02*
X128780100Y-81705000D01*
X128780100Y-81705000D02*
X124637100Y-85848000D01*
X124637100Y-85848000D02*
X123669200Y-85848000D01*
X123669200Y-85848000D02*
X121138400Y-88378800D01*
X121138400Y-88378800D02*
X121138400Y-97497400D01*
X128090400Y-79909200D02*
X128780100Y-80598900D01*
X135000000Y-76000000D02*
X130401100Y-80598900D01*
X130401100Y-80598900D02*
X128780100Y-80598900D01*
X135000000Y-74000000D02*
X135000000Y-76000000D01*
X159584963Y-107514999D02*
X159149963Y-107079999D01*
X161175001Y-111324999D02*
X161175001Y-107579999D01*
X160500000Y-112000000D02*
X161175001Y-111324999D01*
X160000000Y-112000000D02*
X160500000Y-112000000D01*
X159149963Y-107079999D02*
X158749964Y-106680000D01*
X161175001Y-107579999D02*
X161110001Y-107514999D01*
X161110001Y-107514999D02*
X159584963Y-107514999D01*
G04 #@! TO.N,Net-(D12-Pad2)*
X128499800Y-76500200D02*
X129999600Y-78000000D01*
X124000000Y-84900000D02*
X124000000Y-81000000D01*
X124000000Y-81000000D02*
X128499800Y-76500200D01*
G04 #@! TO.N,Net-(D13-Pad2)*
X129689300Y-119689300D02*
X129689300Y-122309900D01*
X129689300Y-122309900D02*
X128999600Y-122999600D01*
X126000000Y-117000000D02*
X127000000Y-117000000D01*
X127000000Y-117000000D02*
X129689300Y-119689300D01*
G04 #@! TO.N,/SouthWest*
X125059200Y-113778400D02*
X125738500Y-113778400D01*
X125738500Y-113778400D02*
X126244700Y-113272200D01*
X126244700Y-113272200D02*
X126244700Y-111233300D01*
X158500200Y-110537400D02*
X158500200Y-109784500D01*
X158500200Y-109784500D02*
X158824700Y-109460000D01*
X125000000Y-113000000D02*
X125000000Y-113775300D01*
X125000000Y-113775300D02*
X125056100Y-113775300D01*
X125056100Y-113775300D02*
X125059200Y-113778400D01*
X160000000Y-109460000D02*
X158824700Y-109460000D01*
X127090400Y-120740400D02*
X127090400Y-121090400D01*
X125059200Y-113778400D02*
X125059200Y-118709200D01*
X125059200Y-118709200D02*
X127090400Y-120740400D01*
G04 #@! TO.N,Net-(D14-Pad2)*
X157100000Y-70224700D02*
X156556800Y-69681500D01*
X156556800Y-69681500D02*
X152743800Y-69681500D01*
X152743800Y-69681500D02*
X152425300Y-70000000D01*
X151350000Y-70000000D02*
X152425300Y-70000000D01*
X157100000Y-71000000D02*
X157100000Y-70224700D01*
G04 #@! TO.N,/North*
X147450000Y-71000000D02*
X148450000Y-70000000D01*
X145000000Y-71000000D02*
X147450000Y-71000000D01*
X146000000Y-71000000D02*
X145000000Y-71000000D01*
X147000000Y-72000000D02*
X146000000Y-71000000D01*
X161855600Y-105714956D02*
X161358542Y-105714955D01*
X160839989Y-105196400D02*
X160839989Y-81839989D01*
X160839989Y-81839989D02*
X154000000Y-75000000D01*
X162975045Y-107365045D02*
X162975045Y-106834399D01*
X154000000Y-75000000D02*
X149565685Y-75000000D01*
X149565685Y-75000000D02*
X149000000Y-75000000D01*
X168880000Y-113270000D02*
X162975045Y-107365045D01*
X169380000Y-113270000D02*
X168880000Y-113270000D01*
X161358542Y-105714955D02*
X160839989Y-105196400D01*
X162975045Y-106834399D02*
X161855600Y-105714956D01*
G04 #@! TO.N,/South*
X151350000Y-129024700D02*
X151374700Y-129000000D01*
X151374700Y-129000000D02*
X155000000Y-129000000D01*
X151350000Y-130000000D02*
X151350000Y-129024700D01*
X158900000Y-108190000D02*
X160000000Y-108190000D01*
X158300447Y-108190000D02*
X158900000Y-108190000D01*
X157480000Y-109010447D02*
X158300447Y-108190000D01*
X155000000Y-129000000D02*
X157480000Y-126520000D01*
X157480000Y-126520000D02*
X157480000Y-109010447D01*
G04 #@! TO.N,Net-(D15-Pad2)*
X148650000Y-130000000D02*
X148650000Y-129024700D01*
X145000000Y-129000000D02*
X148625300Y-129000000D01*
X148625300Y-129000000D02*
X148650000Y-129024700D01*
G04 #@! TO.N,Net-(D16-Pad2)*
X164100000Y-75000000D02*
X168045000Y-75000000D01*
X168045000Y-75000000D02*
X169090400Y-76045400D01*
G04 #@! TO.N,/NorthEast*
X172000000Y-78955000D02*
X172000000Y-83000000D01*
X170999600Y-77954600D02*
X172000000Y-78955000D01*
X168280000Y-112000000D02*
X169380000Y-112000000D01*
X162042001Y-105264946D02*
X163425056Y-106647999D01*
X161544944Y-105264945D02*
X162042001Y-105264946D01*
X161290000Y-105010000D02*
X161544944Y-105264945D01*
X161290000Y-94485300D02*
X161290000Y-105010000D01*
X172000000Y-83775300D02*
X161290000Y-94485300D01*
X163425056Y-106647999D02*
X163425056Y-107145056D01*
X172000000Y-83000000D02*
X172000000Y-83775300D01*
X163425056Y-107145056D02*
X168280000Y-112000000D01*
G04 #@! TO.N,/SouthEast*
X169380000Y-109460000D02*
X168204700Y-109460000D01*
X174900000Y-114000000D02*
X174900000Y-111897400D01*
X168204700Y-109460000D02*
X168204700Y-107636900D01*
X168204700Y-107636900D02*
X168363200Y-107478400D01*
X168363200Y-107478400D02*
X170481000Y-107478400D01*
X170481000Y-107478400D02*
X174900000Y-111897400D01*
X174900000Y-117100000D02*
X172096016Y-119903984D01*
X174900000Y-114000000D02*
X174900000Y-117100000D01*
G04 #@! TO.N,Net-(D17-Pad2)*
X169903984Y-122096016D02*
X165000000Y-127000000D01*
G04 #@! TO.N,/East*
X180100000Y-105000000D02*
X180100000Y-112590000D01*
X180100000Y-112590000D02*
X177869800Y-114820200D01*
X177869800Y-114820200D02*
X176386000Y-114820200D01*
X176386000Y-114820200D02*
X175825400Y-114259600D01*
X175825400Y-114259600D02*
X175825400Y-112106300D01*
X175825400Y-112106300D02*
X170747200Y-107028100D01*
X170747200Y-107028100D02*
X168176600Y-107028100D01*
X168176600Y-107028100D02*
X167754400Y-107450300D01*
X167754400Y-107450300D02*
X167754400Y-110279700D01*
X167754400Y-110279700D02*
X168204700Y-110730000D01*
X169380000Y-110730000D02*
X168204700Y-110730000D01*
X181000000Y-101775300D02*
X180100000Y-102675300D01*
X180100000Y-102675300D02*
X180100000Y-105000000D01*
X181000000Y-100700000D02*
X181000000Y-101775300D01*
G04 #@! TO.N,Net-(D18-Pad2)*
X181000000Y-98000000D02*
X180024700Y-98000000D01*
X179200000Y-93000000D02*
X179200000Y-97175300D01*
X179200000Y-97175300D02*
X180024700Y-98000000D01*
G04 #@! TO.N,/SCL*
X159525000Y-114540000D02*
X160000000Y-114540000D01*
X159525000Y-114540000D02*
X158824700Y-114540000D01*
X159000000Y-121000000D02*
X159000000Y-120074700D01*
X158824700Y-114540000D02*
X158348300Y-115016400D01*
X158348300Y-115016400D02*
X158348300Y-119423000D01*
X158348300Y-119423000D02*
X159000000Y-120074700D01*
X142000016Y-109000000D02*
X142000000Y-109000016D01*
X145000000Y-109000000D02*
X142000016Y-109000000D01*
X138050000Y-108350000D02*
X136700000Y-107000000D01*
X136700000Y-107000000D02*
X135999988Y-107000000D01*
X138050000Y-108800000D02*
X138050000Y-108350000D01*
X135000000Y-77185400D02*
X134919960Y-77105360D01*
X135000000Y-79000000D02*
X135000000Y-77185400D01*
X136615010Y-87759264D02*
X136615010Y-88324949D01*
X136615010Y-86888577D02*
X136615010Y-87759264D01*
X137253587Y-86250000D02*
X136615010Y-86888577D01*
X138050000Y-86250000D02*
X137253587Y-86250000D01*
X134000000Y-90000000D02*
X130810000Y-86810000D01*
X130810000Y-83115685D02*
X130810000Y-82550000D01*
X130810000Y-86810000D02*
X130810000Y-83115685D01*
X153000300Y-83000000D02*
X158515297Y-88514997D01*
X158515297Y-105507212D02*
X158115298Y-105907211D01*
X158515297Y-88514997D02*
X158515297Y-105507212D01*
X160000000Y-114540000D02*
X160500000Y-114540000D01*
X160500000Y-114540000D02*
X161625012Y-113414988D01*
X161625012Y-107393599D02*
X161296401Y-107064988D01*
X158680983Y-105907211D02*
X158115298Y-105907211D01*
X161625012Y-113414988D02*
X161625012Y-107393599D01*
X160799344Y-107064988D02*
X159641567Y-105907211D01*
X159641567Y-105907211D02*
X158680983Y-105907211D01*
X161296401Y-107064988D02*
X160799344Y-107064988D01*
G04 #@! TO.N,/SDA*
X136683100Y-85750000D02*
X138050000Y-85750000D01*
X138675400Y-109400000D02*
X138050000Y-109400000D01*
X142224700Y-112000000D02*
X139624700Y-109400000D01*
X139624700Y-109400000D02*
X138675400Y-109400000D01*
X130088600Y-87095400D02*
X129870700Y-87095400D01*
X129870700Y-87095400D02*
X129775300Y-87000000D01*
X129000000Y-87000000D02*
X129775300Y-87000000D01*
X143000000Y-112000000D02*
X142224700Y-112000000D01*
X160725000Y-115810000D02*
X161175300Y-115810000D01*
X160000000Y-115810000D02*
X160587700Y-115810000D01*
X160587700Y-115810000D02*
X160725000Y-115810000D01*
X165200000Y-122000000D02*
X165200000Y-121224700D01*
X161175300Y-115810000D02*
X161175300Y-117200000D01*
X161175300Y-117200000D02*
X165200000Y-121224700D01*
X135711284Y-84778184D02*
X135711284Y-83626985D01*
X136683100Y-85750000D02*
X135711284Y-84778184D01*
X138880011Y-109195389D02*
X138675400Y-109400000D01*
X135890000Y-86543100D02*
X135890000Y-89191345D01*
X136683100Y-85750000D02*
X135890000Y-86543100D01*
X138880011Y-92181356D02*
X138880011Y-109195389D01*
X135890000Y-89191345D02*
X138880011Y-92181356D01*
X160985740Y-106614974D02*
X159000000Y-104629234D01*
X161482801Y-106614977D02*
X160985746Y-106614977D01*
X159000000Y-104629234D02*
X159000000Y-86998200D01*
X160985746Y-106614977D02*
X160985740Y-106614974D01*
X162075023Y-107207199D02*
X161482801Y-106614977D01*
X162075023Y-114459977D02*
X162075023Y-107207199D01*
X160725000Y-115810000D02*
X162075023Y-114459977D01*
X159000000Y-86998200D02*
X155001800Y-83000000D01*
G04 #@! TO.N,+3V3*
X137000000Y-115000000D02*
X137000000Y-114224700D01*
X138050000Y-111200000D02*
X138050000Y-113174700D01*
X138050000Y-113174700D02*
X137000000Y-114224700D01*
X142000000Y-118963800D02*
X142000000Y-118000000D01*
X142000000Y-118000000D02*
X142000000Y-114200000D01*
X142000000Y-114200000D02*
X142725000Y-114200000D01*
X142725000Y-114200000D02*
X143000000Y-114200000D01*
X144058200Y-71775300D02*
X142800000Y-71775300D01*
X145224600Y-71775300D02*
X144058200Y-71775300D01*
X161900000Y-75000000D02*
X161900000Y-74224700D01*
X160675300Y-73000000D02*
X161900000Y-74224700D01*
X149984500Y-84202000D02*
X145666900Y-84202000D01*
X145224600Y-83759700D02*
X145224600Y-71775300D01*
X145666900Y-84202000D02*
X145224600Y-83759700D01*
X139000000Y-81575300D02*
X137200000Y-79775300D01*
X139250000Y-84050000D02*
X139250000Y-81825300D01*
X139250000Y-81825300D02*
X139000000Y-81575300D01*
X140800000Y-79775300D02*
X139000000Y-81575300D01*
X140800000Y-79000000D02*
X140800000Y-79775300D01*
X127087700Y-87100000D02*
X124000000Y-87100000D01*
X142800000Y-71775300D02*
X140800000Y-73775300D01*
X140800000Y-73775300D02*
X140800000Y-79000000D01*
X137200000Y-79000000D02*
X137200000Y-79775300D01*
X124000000Y-91000000D02*
X124000000Y-91775300D01*
X122100000Y-95000000D02*
X122100000Y-93675300D01*
X122100000Y-93675300D02*
X124000000Y-91775300D01*
X137200000Y-74000000D02*
X137200000Y-79000000D01*
X122000000Y-105387600D02*
X122000000Y-105000000D01*
X122000000Y-105387600D02*
X122000000Y-105775300D01*
X123449400Y-107224700D02*
X122000000Y-105775300D01*
X122800000Y-113000000D02*
X122800000Y-112224700D01*
X123449400Y-107224700D02*
X123449400Y-111575300D01*
X123449400Y-111575300D02*
X122800000Y-112224700D01*
X124000000Y-87100000D02*
X124000000Y-91000000D01*
X123800000Y-117000000D02*
X123800000Y-116224700D01*
X123800000Y-116224700D02*
X122800000Y-115224700D01*
X122800000Y-115224700D02*
X122800000Y-113000000D01*
X159775300Y-122000000D02*
X159775300Y-123200000D01*
X159000000Y-123200000D02*
X159775300Y-123200000D01*
X158824700Y-117080000D02*
X158824700Y-117586400D01*
X160000000Y-117080000D02*
X158824700Y-117080000D01*
X159775300Y-118537000D02*
X159775300Y-122000000D01*
X158824700Y-117586400D02*
X159775300Y-118537000D01*
X159775300Y-122000000D02*
X163000000Y-122000000D01*
X142800000Y-71000000D02*
X142800000Y-71775300D01*
X162800000Y-127000000D02*
X162800000Y-126224700D01*
X162800000Y-126224700D02*
X163000000Y-126024700D01*
X163000000Y-126024700D02*
X163000000Y-122000000D01*
X152156300Y-82030200D02*
X149984500Y-84202000D01*
X157200000Y-83201800D02*
X156028400Y-82030200D01*
X156028400Y-82030200D02*
X152156300Y-82030200D01*
X143000000Y-119963800D02*
X142000000Y-118963800D01*
X145000000Y-126800000D02*
X143000000Y-124800000D01*
X143000000Y-124800000D02*
X143000000Y-119963800D01*
X158224700Y-123200000D02*
X159000000Y-123200000D01*
X158000000Y-128200000D02*
X158000000Y-123424700D01*
X157200000Y-129000000D02*
X158000000Y-128200000D01*
X158000000Y-123424700D02*
X158224700Y-123200000D01*
X177000000Y-88000000D02*
X177000000Y-93000000D01*
X177000000Y-104250000D02*
X177750000Y-105000000D01*
X177000000Y-93000000D02*
X177000000Y-104250000D01*
X177750000Y-105000000D02*
X177900000Y-105000000D01*
X177050000Y-105700000D02*
X177750000Y-105000000D01*
X177050000Y-105750000D02*
X177050000Y-105700000D01*
X177100000Y-105800000D02*
X177050000Y-105750000D01*
X177100000Y-114000000D02*
X177100000Y-105800000D01*
X161900000Y-75000000D02*
X161900000Y-75775300D01*
X169512300Y-83387600D02*
X161900000Y-75775300D01*
X169800000Y-83387600D02*
X169512300Y-83387600D01*
X169800000Y-83000000D02*
X169800000Y-83387600D01*
X168201690Y-73000000D02*
X160675300Y-73000000D01*
X177000000Y-88000000D02*
X177000000Y-81798310D01*
X177000000Y-81798310D02*
X168201690Y-73000000D01*
X155675300Y-68000000D02*
X160675300Y-73000000D01*
X146479700Y-68000000D02*
X155675300Y-68000000D01*
X144058200Y-71775300D02*
X144058200Y-70421500D01*
X144058200Y-70421500D02*
X146479700Y-68000000D01*
X154900000Y-71000000D02*
X154050000Y-71000000D01*
X154050000Y-71000000D02*
X151877941Y-73172059D01*
X151877941Y-73172059D02*
X146621359Y-73172059D01*
X146621359Y-73172059D02*
X145224600Y-71775300D01*
X122100000Y-98113589D02*
X122100000Y-95000000D01*
X122000000Y-105000000D02*
X122000000Y-104300000D01*
X122000000Y-104300000D02*
X122850000Y-103450000D01*
X122850000Y-103450000D02*
X122850000Y-98863589D01*
X122850000Y-98863589D02*
X122100000Y-98113589D01*
X152000000Y-128000000D02*
X151000000Y-127000000D01*
X153000000Y-128000000D02*
X152000000Y-128000000D01*
X159000000Y-124000000D02*
X160000000Y-125000000D01*
X159000000Y-123200000D02*
X159000000Y-124000000D01*
X124174700Y-107950000D02*
X129540000Y-107950000D01*
X123449400Y-107224700D02*
X124174700Y-107950000D01*
X137000000Y-117771300D02*
X137000000Y-115000000D01*
X138192500Y-118963800D02*
X137000000Y-117771300D01*
X142000000Y-118963800D02*
X138192500Y-118963800D01*
X143000000Y-114050000D02*
X143000000Y-114200000D01*
X145000000Y-112050000D02*
X143000000Y-114050000D01*
X145000000Y-111200000D02*
X145000000Y-112050000D01*
X137000000Y-115000000D02*
X137000000Y-117000000D01*
X137000000Y-117000000D02*
X135890000Y-118110000D01*
X124460000Y-117660000D02*
X123800000Y-117000000D01*
X124460000Y-119380000D02*
X124460000Y-117660000D01*
X129000000Y-83286996D02*
X129000000Y-84800000D01*
X137200000Y-79775300D02*
X132511696Y-79775300D01*
X132511696Y-79775300D02*
X129000000Y-83286996D01*
X127087700Y-86012300D02*
X127087700Y-87100000D01*
X128300000Y-84800000D02*
X127087700Y-86012300D01*
X129000000Y-84800000D02*
X128300000Y-84800000D01*
X152782000Y-84202000D02*
X149984500Y-84202000D01*
X154940000Y-87440000D02*
X154940000Y-86360000D01*
X153480000Y-88900000D02*
X154940000Y-87440000D01*
X153330000Y-88900000D02*
X153480000Y-88900000D01*
X154940000Y-86360000D02*
X152782000Y-84202000D01*
X156200000Y-108000000D02*
X156200000Y-104736411D01*
X156200000Y-104736411D02*
X157930011Y-103006400D01*
X157930011Y-89350011D02*
X154940000Y-86360000D01*
X157930011Y-103006400D02*
X157930011Y-89350011D01*
G04 #@! TO.N,GND*
X168498600Y-115810000D02*
X168204700Y-115810000D01*
X168792400Y-115810000D02*
X168498600Y-115810000D01*
X169380000Y-114540000D02*
X170555300Y-114540000D01*
X169380000Y-108190000D02*
X170555300Y-108190000D01*
X170555300Y-108190000D02*
X170555300Y-114540000D01*
X134788400Y-87013100D02*
X134775300Y-87000000D01*
X169380000Y-114540000D02*
X168792400Y-114540000D01*
X169380000Y-115810000D02*
X168792400Y-115810000D01*
X168792400Y-115810000D02*
X168792400Y-114540000D01*
X169380000Y-117080000D02*
X168204700Y-117080000D01*
X168204700Y-117080000D02*
X168204700Y-115810000D01*
X136000000Y-92000000D02*
X134788400Y-92000000D01*
X134788400Y-92000000D02*
X134788400Y-87013100D01*
X134788400Y-106861404D02*
X135651998Y-107725002D01*
X135651998Y-107725002D02*
X136175002Y-107725002D01*
X136175002Y-107725002D02*
X137000000Y-108550000D01*
X137000000Y-108550000D02*
X137000000Y-110000000D01*
X132678596Y-106861404D02*
X134788400Y-106861404D01*
X129540000Y-110000000D02*
X132678596Y-106861404D01*
X129540000Y-110150000D02*
X129540000Y-110000000D01*
X133911404Y-106861404D02*
X132678596Y-106861404D01*
X135850000Y-108800000D02*
X133911404Y-106861404D01*
X135950000Y-108800000D02*
X135850000Y-108800000D01*
X137600000Y-110600000D02*
X137000000Y-110000000D01*
X138050000Y-110600000D02*
X137600000Y-110600000D01*
X137000000Y-109300000D02*
X137000000Y-110000000D01*
X136500000Y-108800000D02*
X137000000Y-109300000D01*
X135950000Y-108800000D02*
X136500000Y-108800000D01*
X138430000Y-95641600D02*
X134788400Y-92000000D01*
X138430000Y-103007800D02*
X138430000Y-95641600D01*
X134788400Y-106649400D02*
X138430000Y-103007800D01*
X134788400Y-106861404D02*
X134788400Y-106649400D01*
X134788400Y-87013100D02*
X134135264Y-86359964D01*
X133915685Y-86359964D02*
X133350000Y-86359964D01*
X134135264Y-86359964D02*
X133915685Y-86359964D01*
X133350000Y-84750000D02*
X133350000Y-86359964D01*
X162525034Y-107020799D02*
X161669201Y-106164966D01*
X160389978Y-84390278D02*
X157538400Y-81538700D01*
X161669201Y-106164966D02*
X161172141Y-106164965D01*
X161172141Y-106164965D02*
X160389978Y-105382800D01*
X160389978Y-105382800D02*
X160389978Y-84390278D01*
X157538400Y-81538700D02*
X148161300Y-81538700D01*
X162525034Y-109836434D02*
X162525034Y-107020799D01*
X168498600Y-115810000D02*
X162525034Y-109836434D01*
X146700000Y-83000000D02*
X146000000Y-83000000D01*
X148161300Y-81538700D02*
X146700000Y-83000000D01*
G04 #@! TO.N,Net-(J2-Pad1)*
X139750000Y-84050000D02*
X139750000Y-82250000D01*
X139750000Y-82250000D02*
X140000000Y-82000000D01*
G04 #@! TO.N,Net-(J3-Pad1)*
X140250000Y-83253587D02*
X141503587Y-82000000D01*
X140250000Y-84050000D02*
X140250000Y-83253587D01*
X141503587Y-82000000D02*
X142000000Y-82000000D01*
X144000000Y-88000000D02*
X145148992Y-88000000D01*
X147324013Y-85824979D02*
X147889698Y-85824979D01*
X145148992Y-88000000D02*
X147324013Y-85824979D01*
G04 #@! TO.N,Net-(J4-Pad1)*
X140750000Y-84050000D02*
X140750000Y-83389997D01*
X140750000Y-83389997D02*
X140891497Y-83248500D01*
X140891497Y-83248500D02*
X141875800Y-83248500D01*
G04 #@! TO.N,Net-(J5-Pad1)*
X142807379Y-84561979D02*
X142807379Y-85747522D01*
X142807379Y-85747522D02*
X143207378Y-86147521D01*
X142295400Y-84050000D02*
X142807379Y-84561979D01*
X141250000Y-84050000D02*
X142295400Y-84050000D01*
G04 #@! TO.N,Net-(R1-Pad1)*
X143816601Y-87274999D02*
X144409100Y-86682500D01*
X143276998Y-87650000D02*
X143651999Y-87274999D01*
X143000000Y-79775300D02*
X143000000Y-79000000D01*
X143958800Y-84344800D02*
X143958800Y-80734100D01*
X143958800Y-80734100D02*
X143000000Y-79775300D01*
X144409100Y-84795100D02*
X143958800Y-84344800D01*
X144409100Y-86682500D02*
X144409100Y-84795100D01*
X143651999Y-87274999D02*
X143816601Y-87274999D01*
X141950000Y-87250000D02*
X142225000Y-87250000D01*
X142625000Y-87650000D02*
X143276998Y-87650000D01*
X142225000Y-87250000D02*
X142625000Y-87650000D01*
G04 #@! TO.N,Net-(R3-Pad1)*
X144751000Y-83951000D02*
X144751000Y-79220300D01*
X143452900Y-82379898D02*
X143452900Y-84700700D01*
X143958800Y-85206600D02*
X143958800Y-86495900D01*
X143629712Y-86824988D02*
X143465599Y-86824988D01*
X143465599Y-86824988D02*
X143342587Y-86948000D01*
X143958800Y-86495900D02*
X143629712Y-86824988D01*
X142750900Y-86750000D02*
X141950000Y-86750000D01*
X142948900Y-86948000D02*
X142750900Y-86750000D01*
X143755300Y-78224600D02*
X142240300Y-78224600D01*
X142074600Y-81001598D02*
X143452900Y-82379898D01*
X143342587Y-86948000D02*
X142948900Y-86948000D01*
X142074600Y-78390300D02*
X142074600Y-81001598D01*
X142240300Y-78224600D02*
X142074600Y-78390300D01*
X144751000Y-79220300D02*
X143755300Y-78224600D01*
X146000000Y-85200000D02*
X144751000Y-83951000D01*
X143452900Y-84700700D02*
X143958800Y-85206600D01*
G04 #@! TO.N,Net-(R4-Pad2)*
X138750000Y-84050000D02*
X138350000Y-84050000D01*
X138350000Y-84050000D02*
X137201983Y-82901983D01*
X137201983Y-82901983D02*
X135048017Y-82901983D01*
X134696034Y-82550000D02*
X135048017Y-82901983D01*
X133350000Y-82550000D02*
X134696034Y-82550000D01*
G04 #@! TO.N,Net-(R9-Pad1)*
X138600000Y-110000000D02*
X138050000Y-110000000D01*
X139800000Y-111200000D02*
X138600000Y-110000000D01*
X132080000Y-119040000D02*
X135550000Y-119040000D01*
X135550000Y-119040000D02*
X137160000Y-120650000D01*
X140970000Y-112930000D02*
X139800000Y-111760000D01*
X140970000Y-114300000D02*
X140970000Y-112930000D01*
X139800000Y-118000000D02*
X139800000Y-111760000D01*
X139800000Y-111760000D02*
X139800000Y-111200000D01*
G04 #@! TO.N,Net-(R10-Pad1)*
X135950000Y-109400000D02*
X135324700Y-109400000D01*
X134800000Y-115000000D02*
X134800000Y-109924700D01*
X134800000Y-109924700D02*
X135324700Y-109400000D01*
G04 #@! TO.N,Net-(TH1-Pad2)*
X135950000Y-111650000D02*
X135950000Y-111200000D01*
X135950000Y-115485002D02*
X135950000Y-111650000D01*
X134595002Y-116840000D02*
X135950000Y-115485002D01*
X132080000Y-116840000D02*
X134595002Y-116840000D01*
X135950000Y-110600000D02*
X135950000Y-111200000D01*
G04 #@! TD*
M02*
