G04 #@! TF.GenerationSoftware,KiCad,Pcbnew,(5.0.0)*
G04 #@! TF.CreationDate,2019-01-02T21:37:44-05:00*
G04 #@! TF.ProjectId,bikesenseCap,62696B6573656E73654361702E6B6963,REV B*
G04 #@! TF.SameCoordinates,Original*
G04 #@! TF.FileFunction,Paste,Top*
G04 #@! TF.FilePolarity,Positive*
%FSLAX46Y46*%
G04 Gerber Fmt 4.6, Leading zero omitted, Abs format (unit mm)*
G04 Created by KiCad (PCBNEW (5.0.0)) date 01/02/19 21:37:44*
%MOMM*%
%LPD*%
G01*
G04 APERTURE LIST*
%ADD10R,1.200000X0.900000*%
%ADD11R,1.270000X1.270000*%
%ADD12C,1.270000*%
%ADD13R,0.900000X1.200000*%
%ADD14R,0.600000X0.400000*%
%ADD15R,1.300000X2.400000*%
%ADD16R,1.560000X1.560000*%
%ADD17R,0.300000X0.850000*%
%ADD18R,0.850000X0.300000*%
%ADD19R,1.700000X0.700000*%
%ADD20C,0.100000*%
%ADD21C,0.950000*%
G04 APERTURE END LIST*
D10*
G04 #@! TO.C,D3*
X131200000Y-91000000D03*
X129000000Y-91000000D03*
G04 #@! TD*
G04 #@! TO.C,D4*
X151200000Y-91000000D03*
X149000000Y-91000000D03*
G04 #@! TD*
G04 #@! TO.C,D5*
X171200000Y-91000000D03*
X169000000Y-91000000D03*
G04 #@! TD*
G04 #@! TO.C,D6*
X149000000Y-112000000D03*
X151200000Y-112000000D03*
G04 #@! TD*
D11*
G04 #@! TO.C,J1*
X153000260Y-83000000D03*
D12*
X155001780Y-83000000D03*
X156998220Y-83000000D03*
X158999740Y-83000000D03*
G04 #@! TD*
D10*
G04 #@! TO.C,R1*
X143000000Y-79000000D03*
X140800000Y-79000000D03*
G04 #@! TD*
G04 #@! TO.C,R2*
X135000000Y-79000000D03*
X137200000Y-79000000D03*
G04 #@! TD*
D13*
G04 #@! TO.C,R3*
X146000000Y-83000000D03*
X146000000Y-85200000D03*
G04 #@! TD*
G04 #@! TO.C,R4*
X134000000Y-87000000D03*
X134000000Y-84800000D03*
G04 #@! TD*
G04 #@! TO.C,R5*
X129000000Y-84800000D03*
X129000000Y-87000000D03*
G04 #@! TD*
G04 #@! TO.C,R6*
X145000000Y-109000000D03*
X145000000Y-106800000D03*
G04 #@! TD*
G04 #@! TO.C,R7*
X131000000Y-114200000D03*
X131000000Y-112000000D03*
G04 #@! TD*
G04 #@! TO.C,R8*
X143000000Y-112000000D03*
X143000000Y-114200000D03*
G04 #@! TD*
D10*
G04 #@! TO.C,R9*
X142000000Y-118000000D03*
X139800000Y-118000000D03*
G04 #@! TD*
G04 #@! TO.C,R10*
X134800000Y-115000000D03*
X137000000Y-115000000D03*
G04 #@! TD*
G04 #@! TO.C,R11*
X126200000Y-91000000D03*
X124000000Y-91000000D03*
G04 #@! TD*
G04 #@! TO.C,R12*
X157200000Y-91000000D03*
X155000000Y-91000000D03*
G04 #@! TD*
G04 #@! TO.C,R13*
X177000000Y-88000000D03*
X174800000Y-88000000D03*
G04 #@! TD*
G04 #@! TO.C,R14*
X154000000Y-108000000D03*
X156200000Y-108000000D03*
G04 #@! TD*
G04 #@! TO.C,R19*
X119800000Y-105000000D03*
X122000000Y-105000000D03*
G04 #@! TD*
G04 #@! TO.C,R20*
X122100000Y-95000000D03*
X119900000Y-95000000D03*
G04 #@! TD*
D13*
G04 #@! TO.C,R21*
X124000000Y-84900000D03*
X124000000Y-87100000D03*
G04 #@! TD*
D10*
G04 #@! TO.C,R22*
X126000000Y-117000000D03*
X123800000Y-117000000D03*
G04 #@! TD*
D13*
G04 #@! TO.C,R23*
X159000000Y-123200000D03*
X159000000Y-121000000D03*
G04 #@! TD*
D10*
G04 #@! TO.C,R24*
X137200000Y-74000000D03*
X135000000Y-74000000D03*
G04 #@! TD*
G04 #@! TO.C,R25*
X122800000Y-113000000D03*
X125000000Y-113000000D03*
G04 #@! TD*
G04 #@! TO.C,R26*
X165200000Y-122000000D03*
X163000000Y-122000000D03*
G04 #@! TD*
G04 #@! TO.C,R27*
X157100000Y-71000000D03*
X154900000Y-71000000D03*
G04 #@! TD*
D13*
G04 #@! TO.C,R28*
X145000000Y-126800000D03*
X145000000Y-129000000D03*
G04 #@! TD*
D10*
G04 #@! TO.C,R29*
X145000000Y-71000000D03*
X142800000Y-71000000D03*
G04 #@! TD*
G04 #@! TO.C,R30*
X157200000Y-129000000D03*
X155000000Y-129000000D03*
G04 #@! TD*
G04 #@! TO.C,R31*
X164100000Y-75000000D03*
X161900000Y-75000000D03*
G04 #@! TD*
G04 #@! TO.C,R32*
X165000000Y-127000000D03*
X162800000Y-127000000D03*
G04 #@! TD*
G04 #@! TO.C,R33*
X169800000Y-83000000D03*
X172000000Y-83000000D03*
G04 #@! TD*
G04 #@! TO.C,R34*
X177100000Y-114000000D03*
X174900000Y-114000000D03*
G04 #@! TD*
G04 #@! TO.C,R35*
X179200000Y-93000000D03*
X177000000Y-93000000D03*
G04 #@! TD*
G04 #@! TO.C,R36*
X177900000Y-105000000D03*
X180100000Y-105000000D03*
G04 #@! TD*
G04 #@! TO.C,TH1*
X131000000Y-108000000D03*
X128800000Y-108000000D03*
G04 #@! TD*
D14*
G04 #@! TO.C,U1*
X135950000Y-110000000D03*
X138050000Y-110000000D03*
X138050000Y-109400000D03*
X138050000Y-108800000D03*
X138050000Y-110600000D03*
X138050000Y-111200000D03*
X135950000Y-110600000D03*
X135950000Y-111200000D03*
X135950000Y-109400000D03*
X135950000Y-108800000D03*
D15*
X137000000Y-110000000D03*
G04 #@! TD*
D16*
G04 #@! TO.C,U2*
X140000000Y-86000000D03*
D17*
X138750000Y-84050000D03*
X139250000Y-84050000D03*
X139750000Y-84050000D03*
X140250000Y-84050000D03*
X140750000Y-84050000D03*
X141250000Y-84050000D03*
D18*
X141950000Y-84750000D03*
X141950000Y-85250000D03*
X141950000Y-85750000D03*
X141950000Y-86250000D03*
X141950000Y-86750000D03*
X141950000Y-87250000D03*
D17*
X141250000Y-87950000D03*
X140750000Y-87950000D03*
X140250000Y-87950000D03*
X139750000Y-87950000D03*
X139250000Y-87950000D03*
X138750000Y-87950000D03*
D18*
X138050000Y-87250000D03*
X138050000Y-86750000D03*
X138050000Y-86250000D03*
X138050000Y-85750000D03*
X138050000Y-85250000D03*
X138050000Y-84750000D03*
G04 #@! TD*
D19*
G04 #@! TO.C,U3*
X160000000Y-113270000D03*
X160000000Y-114540000D03*
X160000000Y-115810000D03*
X160000000Y-117080000D03*
X160000000Y-112000000D03*
X160000000Y-110730000D03*
X160000000Y-109460000D03*
X160000000Y-108190000D03*
X169380000Y-113270000D03*
X169380000Y-112000000D03*
X169380000Y-114540000D03*
X169380000Y-115810000D03*
X169380000Y-117080000D03*
X169380000Y-110730000D03*
X169380000Y-109460000D03*
X169380000Y-108190000D03*
G04 #@! TD*
D13*
G04 #@! TO.C,D1*
X137650000Y-122000000D03*
X134350000Y-122000000D03*
G04 #@! TD*
G04 #@! TO.C,D2*
X134000000Y-126000000D03*
X137300000Y-126000000D03*
G04 #@! TD*
D20*
G04 #@! TO.C,D11*
G36*
X120703623Y-101075915D02*
X120722067Y-101078651D01*
X120740154Y-101083181D01*
X120757710Y-101089463D01*
X120774565Y-101097435D01*
X120790558Y-101107021D01*
X120805535Y-101118128D01*
X120819350Y-101130650D01*
X120831872Y-101144465D01*
X120842979Y-101159442D01*
X120852565Y-101175435D01*
X120860537Y-101192290D01*
X120866819Y-101209846D01*
X120871349Y-101227933D01*
X120874085Y-101246377D01*
X120875000Y-101265000D01*
X120875000Y-101835000D01*
X120874085Y-101853623D01*
X120871349Y-101872067D01*
X120866819Y-101890154D01*
X120860537Y-101907710D01*
X120852565Y-101924565D01*
X120842979Y-101940558D01*
X120831872Y-101955535D01*
X120819350Y-101969350D01*
X120805535Y-101981872D01*
X120790558Y-101992979D01*
X120774565Y-102002565D01*
X120757710Y-102010537D01*
X120740154Y-102016819D01*
X120722067Y-102021349D01*
X120703623Y-102024085D01*
X120685000Y-102025000D01*
X119315000Y-102025000D01*
X119296377Y-102024085D01*
X119277933Y-102021349D01*
X119259846Y-102016819D01*
X119242290Y-102010537D01*
X119225435Y-102002565D01*
X119209442Y-101992979D01*
X119194465Y-101981872D01*
X119180650Y-101969350D01*
X119168128Y-101955535D01*
X119157021Y-101940558D01*
X119147435Y-101924565D01*
X119139463Y-101907710D01*
X119133181Y-101890154D01*
X119128651Y-101872067D01*
X119125915Y-101853623D01*
X119125000Y-101835000D01*
X119125000Y-101265000D01*
X119125915Y-101246377D01*
X119128651Y-101227933D01*
X119133181Y-101209846D01*
X119139463Y-101192290D01*
X119147435Y-101175435D01*
X119157021Y-101159442D01*
X119168128Y-101144465D01*
X119180650Y-101130650D01*
X119194465Y-101118128D01*
X119209442Y-101107021D01*
X119225435Y-101097435D01*
X119242290Y-101089463D01*
X119259846Y-101083181D01*
X119277933Y-101078651D01*
X119296377Y-101075915D01*
X119315000Y-101075000D01*
X120685000Y-101075000D01*
X120703623Y-101075915D01*
X120703623Y-101075915D01*
G37*
D21*
X120000000Y-101550000D03*
D20*
G36*
X120703623Y-97975915D02*
X120722067Y-97978651D01*
X120740154Y-97983181D01*
X120757710Y-97989463D01*
X120774565Y-97997435D01*
X120790558Y-98007021D01*
X120805535Y-98018128D01*
X120819350Y-98030650D01*
X120831872Y-98044465D01*
X120842979Y-98059442D01*
X120852565Y-98075435D01*
X120860537Y-98092290D01*
X120866819Y-98109846D01*
X120871349Y-98127933D01*
X120874085Y-98146377D01*
X120875000Y-98165000D01*
X120875000Y-98735000D01*
X120874085Y-98753623D01*
X120871349Y-98772067D01*
X120866819Y-98790154D01*
X120860537Y-98807710D01*
X120852565Y-98824565D01*
X120842979Y-98840558D01*
X120831872Y-98855535D01*
X120819350Y-98869350D01*
X120805535Y-98881872D01*
X120790558Y-98892979D01*
X120774565Y-98902565D01*
X120757710Y-98910537D01*
X120740154Y-98916819D01*
X120722067Y-98921349D01*
X120703623Y-98924085D01*
X120685000Y-98925000D01*
X119315000Y-98925000D01*
X119296377Y-98924085D01*
X119277933Y-98921349D01*
X119259846Y-98916819D01*
X119242290Y-98910537D01*
X119225435Y-98902565D01*
X119209442Y-98892979D01*
X119194465Y-98881872D01*
X119180650Y-98869350D01*
X119168128Y-98855535D01*
X119157021Y-98840558D01*
X119147435Y-98824565D01*
X119139463Y-98807710D01*
X119133181Y-98790154D01*
X119128651Y-98772067D01*
X119125915Y-98753623D01*
X119125000Y-98735000D01*
X119125000Y-98165000D01*
X119125915Y-98146377D01*
X119128651Y-98127933D01*
X119133181Y-98109846D01*
X119139463Y-98092290D01*
X119147435Y-98075435D01*
X119157021Y-98059442D01*
X119168128Y-98044465D01*
X119180650Y-98030650D01*
X119194465Y-98018128D01*
X119209442Y-98007021D01*
X119225435Y-97997435D01*
X119242290Y-97989463D01*
X119259846Y-97983181D01*
X119277933Y-97978651D01*
X119296377Y-97975915D01*
X119315000Y-97975000D01*
X120685000Y-97975000D01*
X120703623Y-97975915D01*
X120703623Y-97975915D01*
G37*
D21*
X120000000Y-98450000D03*
G04 #@! TD*
D20*
G04 #@! TO.C,D12*
G36*
X127684764Y-79175637D02*
X127703208Y-79178373D01*
X127721295Y-79182903D01*
X127738851Y-79189185D01*
X127755706Y-79197157D01*
X127771699Y-79206743D01*
X127786676Y-79217850D01*
X127800491Y-79230372D01*
X128769228Y-80199109D01*
X128781750Y-80212924D01*
X128792857Y-80227901D01*
X128802443Y-80243894D01*
X128810415Y-80260749D01*
X128816697Y-80278305D01*
X128821227Y-80296392D01*
X128823963Y-80314836D01*
X128824878Y-80333459D01*
X128823963Y-80352082D01*
X128821227Y-80370526D01*
X128816697Y-80388613D01*
X128810415Y-80406169D01*
X128802443Y-80423024D01*
X128792857Y-80439017D01*
X128781750Y-80453994D01*
X128769228Y-80467809D01*
X128366177Y-80870860D01*
X128352362Y-80883382D01*
X128337385Y-80894489D01*
X128321392Y-80904075D01*
X128304537Y-80912047D01*
X128286981Y-80918329D01*
X128268894Y-80922859D01*
X128250450Y-80925595D01*
X128231827Y-80926510D01*
X128213204Y-80925595D01*
X128194760Y-80922859D01*
X128176673Y-80918329D01*
X128159117Y-80912047D01*
X128142262Y-80904075D01*
X128126269Y-80894489D01*
X128111292Y-80883382D01*
X128097477Y-80870860D01*
X127128740Y-79902123D01*
X127116218Y-79888308D01*
X127105111Y-79873331D01*
X127095525Y-79857338D01*
X127087553Y-79840483D01*
X127081271Y-79822927D01*
X127076741Y-79804840D01*
X127074005Y-79786396D01*
X127073090Y-79767773D01*
X127074005Y-79749150D01*
X127076741Y-79730706D01*
X127081271Y-79712619D01*
X127087553Y-79695063D01*
X127095525Y-79678208D01*
X127105111Y-79662215D01*
X127116218Y-79647238D01*
X127128740Y-79633423D01*
X127531791Y-79230372D01*
X127545606Y-79217850D01*
X127560583Y-79206743D01*
X127576576Y-79197157D01*
X127593431Y-79189185D01*
X127610987Y-79182903D01*
X127629074Y-79178373D01*
X127647518Y-79175637D01*
X127666141Y-79174722D01*
X127684764Y-79175637D01*
X127684764Y-79175637D01*
G37*
D21*
X127948984Y-80050616D03*
D20*
G36*
X129876796Y-76983605D02*
X129895240Y-76986341D01*
X129913327Y-76990871D01*
X129930883Y-76997153D01*
X129947738Y-77005125D01*
X129963731Y-77014711D01*
X129978708Y-77025818D01*
X129992523Y-77038340D01*
X130961260Y-78007077D01*
X130973782Y-78020892D01*
X130984889Y-78035869D01*
X130994475Y-78051862D01*
X131002447Y-78068717D01*
X131008729Y-78086273D01*
X131013259Y-78104360D01*
X131015995Y-78122804D01*
X131016910Y-78141427D01*
X131015995Y-78160050D01*
X131013259Y-78178494D01*
X131008729Y-78196581D01*
X131002447Y-78214137D01*
X130994475Y-78230992D01*
X130984889Y-78246985D01*
X130973782Y-78261962D01*
X130961260Y-78275777D01*
X130558209Y-78678828D01*
X130544394Y-78691350D01*
X130529417Y-78702457D01*
X130513424Y-78712043D01*
X130496569Y-78720015D01*
X130479013Y-78726297D01*
X130460926Y-78730827D01*
X130442482Y-78733563D01*
X130423859Y-78734478D01*
X130405236Y-78733563D01*
X130386792Y-78730827D01*
X130368705Y-78726297D01*
X130351149Y-78720015D01*
X130334294Y-78712043D01*
X130318301Y-78702457D01*
X130303324Y-78691350D01*
X130289509Y-78678828D01*
X129320772Y-77710091D01*
X129308250Y-77696276D01*
X129297143Y-77681299D01*
X129287557Y-77665306D01*
X129279585Y-77648451D01*
X129273303Y-77630895D01*
X129268773Y-77612808D01*
X129266037Y-77594364D01*
X129265122Y-77575741D01*
X129266037Y-77557118D01*
X129268773Y-77538674D01*
X129273303Y-77520587D01*
X129279585Y-77503031D01*
X129287557Y-77486176D01*
X129297143Y-77470183D01*
X129308250Y-77455206D01*
X129320772Y-77441391D01*
X129723823Y-77038340D01*
X129737638Y-77025818D01*
X129752615Y-77014711D01*
X129768608Y-77005125D01*
X129785463Y-76997153D01*
X129803019Y-76990871D01*
X129821106Y-76986341D01*
X129839550Y-76983605D01*
X129858173Y-76982690D01*
X129876796Y-76983605D01*
X129876796Y-76983605D01*
G37*
D21*
X130141016Y-77858584D03*
G04 #@! TD*
D20*
G04 #@! TO.C,D13*
G36*
X127250450Y-120074005D02*
X127268894Y-120076741D01*
X127286981Y-120081271D01*
X127304537Y-120087553D01*
X127321392Y-120095525D01*
X127337385Y-120105111D01*
X127352362Y-120116218D01*
X127366177Y-120128740D01*
X127769228Y-120531791D01*
X127781750Y-120545606D01*
X127792857Y-120560583D01*
X127802443Y-120576576D01*
X127810415Y-120593431D01*
X127816697Y-120610987D01*
X127821227Y-120629074D01*
X127823963Y-120647518D01*
X127824878Y-120666141D01*
X127823963Y-120684764D01*
X127821227Y-120703208D01*
X127816697Y-120721295D01*
X127810415Y-120738851D01*
X127802443Y-120755706D01*
X127792857Y-120771699D01*
X127781750Y-120786676D01*
X127769228Y-120800491D01*
X126800491Y-121769228D01*
X126786676Y-121781750D01*
X126771699Y-121792857D01*
X126755706Y-121802443D01*
X126738851Y-121810415D01*
X126721295Y-121816697D01*
X126703208Y-121821227D01*
X126684764Y-121823963D01*
X126666141Y-121824878D01*
X126647518Y-121823963D01*
X126629074Y-121821227D01*
X126610987Y-121816697D01*
X126593431Y-121810415D01*
X126576576Y-121802443D01*
X126560583Y-121792857D01*
X126545606Y-121781750D01*
X126531791Y-121769228D01*
X126128740Y-121366177D01*
X126116218Y-121352362D01*
X126105111Y-121337385D01*
X126095525Y-121321392D01*
X126087553Y-121304537D01*
X126081271Y-121286981D01*
X126076741Y-121268894D01*
X126074005Y-121250450D01*
X126073090Y-121231827D01*
X126074005Y-121213204D01*
X126076741Y-121194760D01*
X126081271Y-121176673D01*
X126087553Y-121159117D01*
X126095525Y-121142262D01*
X126105111Y-121126269D01*
X126116218Y-121111292D01*
X126128740Y-121097477D01*
X127097477Y-120128740D01*
X127111292Y-120116218D01*
X127126269Y-120105111D01*
X127142262Y-120095525D01*
X127159117Y-120087553D01*
X127176673Y-120081271D01*
X127194760Y-120076741D01*
X127213204Y-120074005D01*
X127231827Y-120073090D01*
X127250450Y-120074005D01*
X127250450Y-120074005D01*
G37*
D21*
X126948984Y-120948984D03*
D20*
G36*
X129442482Y-122266037D02*
X129460926Y-122268773D01*
X129479013Y-122273303D01*
X129496569Y-122279585D01*
X129513424Y-122287557D01*
X129529417Y-122297143D01*
X129544394Y-122308250D01*
X129558209Y-122320772D01*
X129961260Y-122723823D01*
X129973782Y-122737638D01*
X129984889Y-122752615D01*
X129994475Y-122768608D01*
X130002447Y-122785463D01*
X130008729Y-122803019D01*
X130013259Y-122821106D01*
X130015995Y-122839550D01*
X130016910Y-122858173D01*
X130015995Y-122876796D01*
X130013259Y-122895240D01*
X130008729Y-122913327D01*
X130002447Y-122930883D01*
X129994475Y-122947738D01*
X129984889Y-122963731D01*
X129973782Y-122978708D01*
X129961260Y-122992523D01*
X128992523Y-123961260D01*
X128978708Y-123973782D01*
X128963731Y-123984889D01*
X128947738Y-123994475D01*
X128930883Y-124002447D01*
X128913327Y-124008729D01*
X128895240Y-124013259D01*
X128876796Y-124015995D01*
X128858173Y-124016910D01*
X128839550Y-124015995D01*
X128821106Y-124013259D01*
X128803019Y-124008729D01*
X128785463Y-124002447D01*
X128768608Y-123994475D01*
X128752615Y-123984889D01*
X128737638Y-123973782D01*
X128723823Y-123961260D01*
X128320772Y-123558209D01*
X128308250Y-123544394D01*
X128297143Y-123529417D01*
X128287557Y-123513424D01*
X128279585Y-123496569D01*
X128273303Y-123479013D01*
X128268773Y-123460926D01*
X128266037Y-123442482D01*
X128265122Y-123423859D01*
X128266037Y-123405236D01*
X128268773Y-123386792D01*
X128273303Y-123368705D01*
X128279585Y-123351149D01*
X128287557Y-123334294D01*
X128297143Y-123318301D01*
X128308250Y-123303324D01*
X128320772Y-123289509D01*
X129289509Y-122320772D01*
X129303324Y-122308250D01*
X129318301Y-122297143D01*
X129334294Y-122287557D01*
X129351149Y-122279585D01*
X129368705Y-122273303D01*
X129386792Y-122268773D01*
X129405236Y-122266037D01*
X129423859Y-122265122D01*
X129442482Y-122266037D01*
X129442482Y-122266037D01*
G37*
D21*
X129141016Y-123141016D03*
G04 #@! TD*
D20*
G04 #@! TO.C,D14*
G36*
X151853623Y-69125915D02*
X151872067Y-69128651D01*
X151890154Y-69133181D01*
X151907710Y-69139463D01*
X151924565Y-69147435D01*
X151940558Y-69157021D01*
X151955535Y-69168128D01*
X151969350Y-69180650D01*
X151981872Y-69194465D01*
X151992979Y-69209442D01*
X152002565Y-69225435D01*
X152010537Y-69242290D01*
X152016819Y-69259846D01*
X152021349Y-69277933D01*
X152024085Y-69296377D01*
X152025000Y-69315000D01*
X152025000Y-70685000D01*
X152024085Y-70703623D01*
X152021349Y-70722067D01*
X152016819Y-70740154D01*
X152010537Y-70757710D01*
X152002565Y-70774565D01*
X151992979Y-70790558D01*
X151981872Y-70805535D01*
X151969350Y-70819350D01*
X151955535Y-70831872D01*
X151940558Y-70842979D01*
X151924565Y-70852565D01*
X151907710Y-70860537D01*
X151890154Y-70866819D01*
X151872067Y-70871349D01*
X151853623Y-70874085D01*
X151835000Y-70875000D01*
X151265000Y-70875000D01*
X151246377Y-70874085D01*
X151227933Y-70871349D01*
X151209846Y-70866819D01*
X151192290Y-70860537D01*
X151175435Y-70852565D01*
X151159442Y-70842979D01*
X151144465Y-70831872D01*
X151130650Y-70819350D01*
X151118128Y-70805535D01*
X151107021Y-70790558D01*
X151097435Y-70774565D01*
X151089463Y-70757710D01*
X151083181Y-70740154D01*
X151078651Y-70722067D01*
X151075915Y-70703623D01*
X151075000Y-70685000D01*
X151075000Y-69315000D01*
X151075915Y-69296377D01*
X151078651Y-69277933D01*
X151083181Y-69259846D01*
X151089463Y-69242290D01*
X151097435Y-69225435D01*
X151107021Y-69209442D01*
X151118128Y-69194465D01*
X151130650Y-69180650D01*
X151144465Y-69168128D01*
X151159442Y-69157021D01*
X151175435Y-69147435D01*
X151192290Y-69139463D01*
X151209846Y-69133181D01*
X151227933Y-69128651D01*
X151246377Y-69125915D01*
X151265000Y-69125000D01*
X151835000Y-69125000D01*
X151853623Y-69125915D01*
X151853623Y-69125915D01*
G37*
D21*
X151550000Y-70000000D03*
D20*
G36*
X148753623Y-69125915D02*
X148772067Y-69128651D01*
X148790154Y-69133181D01*
X148807710Y-69139463D01*
X148824565Y-69147435D01*
X148840558Y-69157021D01*
X148855535Y-69168128D01*
X148869350Y-69180650D01*
X148881872Y-69194465D01*
X148892979Y-69209442D01*
X148902565Y-69225435D01*
X148910537Y-69242290D01*
X148916819Y-69259846D01*
X148921349Y-69277933D01*
X148924085Y-69296377D01*
X148925000Y-69315000D01*
X148925000Y-70685000D01*
X148924085Y-70703623D01*
X148921349Y-70722067D01*
X148916819Y-70740154D01*
X148910537Y-70757710D01*
X148902565Y-70774565D01*
X148892979Y-70790558D01*
X148881872Y-70805535D01*
X148869350Y-70819350D01*
X148855535Y-70831872D01*
X148840558Y-70842979D01*
X148824565Y-70852565D01*
X148807710Y-70860537D01*
X148790154Y-70866819D01*
X148772067Y-70871349D01*
X148753623Y-70874085D01*
X148735000Y-70875000D01*
X148165000Y-70875000D01*
X148146377Y-70874085D01*
X148127933Y-70871349D01*
X148109846Y-70866819D01*
X148092290Y-70860537D01*
X148075435Y-70852565D01*
X148059442Y-70842979D01*
X148044465Y-70831872D01*
X148030650Y-70819350D01*
X148018128Y-70805535D01*
X148007021Y-70790558D01*
X147997435Y-70774565D01*
X147989463Y-70757710D01*
X147983181Y-70740154D01*
X147978651Y-70722067D01*
X147975915Y-70703623D01*
X147975000Y-70685000D01*
X147975000Y-69315000D01*
X147975915Y-69296377D01*
X147978651Y-69277933D01*
X147983181Y-69259846D01*
X147989463Y-69242290D01*
X147997435Y-69225435D01*
X148007021Y-69209442D01*
X148018128Y-69194465D01*
X148030650Y-69180650D01*
X148044465Y-69168128D01*
X148059442Y-69157021D01*
X148075435Y-69147435D01*
X148092290Y-69139463D01*
X148109846Y-69133181D01*
X148127933Y-69128651D01*
X148146377Y-69125915D01*
X148165000Y-69125000D01*
X148735000Y-69125000D01*
X148753623Y-69125915D01*
X148753623Y-69125915D01*
G37*
D21*
X148450000Y-70000000D03*
G04 #@! TD*
D20*
G04 #@! TO.C,D15*
G36*
X148753623Y-129125915D02*
X148772067Y-129128651D01*
X148790154Y-129133181D01*
X148807710Y-129139463D01*
X148824565Y-129147435D01*
X148840558Y-129157021D01*
X148855535Y-129168128D01*
X148869350Y-129180650D01*
X148881872Y-129194465D01*
X148892979Y-129209442D01*
X148902565Y-129225435D01*
X148910537Y-129242290D01*
X148916819Y-129259846D01*
X148921349Y-129277933D01*
X148924085Y-129296377D01*
X148925000Y-129315000D01*
X148925000Y-130685000D01*
X148924085Y-130703623D01*
X148921349Y-130722067D01*
X148916819Y-130740154D01*
X148910537Y-130757710D01*
X148902565Y-130774565D01*
X148892979Y-130790558D01*
X148881872Y-130805535D01*
X148869350Y-130819350D01*
X148855535Y-130831872D01*
X148840558Y-130842979D01*
X148824565Y-130852565D01*
X148807710Y-130860537D01*
X148790154Y-130866819D01*
X148772067Y-130871349D01*
X148753623Y-130874085D01*
X148735000Y-130875000D01*
X148165000Y-130875000D01*
X148146377Y-130874085D01*
X148127933Y-130871349D01*
X148109846Y-130866819D01*
X148092290Y-130860537D01*
X148075435Y-130852565D01*
X148059442Y-130842979D01*
X148044465Y-130831872D01*
X148030650Y-130819350D01*
X148018128Y-130805535D01*
X148007021Y-130790558D01*
X147997435Y-130774565D01*
X147989463Y-130757710D01*
X147983181Y-130740154D01*
X147978651Y-130722067D01*
X147975915Y-130703623D01*
X147975000Y-130685000D01*
X147975000Y-129315000D01*
X147975915Y-129296377D01*
X147978651Y-129277933D01*
X147983181Y-129259846D01*
X147989463Y-129242290D01*
X147997435Y-129225435D01*
X148007021Y-129209442D01*
X148018128Y-129194465D01*
X148030650Y-129180650D01*
X148044465Y-129168128D01*
X148059442Y-129157021D01*
X148075435Y-129147435D01*
X148092290Y-129139463D01*
X148109846Y-129133181D01*
X148127933Y-129128651D01*
X148146377Y-129125915D01*
X148165000Y-129125000D01*
X148735000Y-129125000D01*
X148753623Y-129125915D01*
X148753623Y-129125915D01*
G37*
D21*
X148450000Y-130000000D03*
D20*
G36*
X151853623Y-129125915D02*
X151872067Y-129128651D01*
X151890154Y-129133181D01*
X151907710Y-129139463D01*
X151924565Y-129147435D01*
X151940558Y-129157021D01*
X151955535Y-129168128D01*
X151969350Y-129180650D01*
X151981872Y-129194465D01*
X151992979Y-129209442D01*
X152002565Y-129225435D01*
X152010537Y-129242290D01*
X152016819Y-129259846D01*
X152021349Y-129277933D01*
X152024085Y-129296377D01*
X152025000Y-129315000D01*
X152025000Y-130685000D01*
X152024085Y-130703623D01*
X152021349Y-130722067D01*
X152016819Y-130740154D01*
X152010537Y-130757710D01*
X152002565Y-130774565D01*
X151992979Y-130790558D01*
X151981872Y-130805535D01*
X151969350Y-130819350D01*
X151955535Y-130831872D01*
X151940558Y-130842979D01*
X151924565Y-130852565D01*
X151907710Y-130860537D01*
X151890154Y-130866819D01*
X151872067Y-130871349D01*
X151853623Y-130874085D01*
X151835000Y-130875000D01*
X151265000Y-130875000D01*
X151246377Y-130874085D01*
X151227933Y-130871349D01*
X151209846Y-130866819D01*
X151192290Y-130860537D01*
X151175435Y-130852565D01*
X151159442Y-130842979D01*
X151144465Y-130831872D01*
X151130650Y-130819350D01*
X151118128Y-130805535D01*
X151107021Y-130790558D01*
X151097435Y-130774565D01*
X151089463Y-130757710D01*
X151083181Y-130740154D01*
X151078651Y-130722067D01*
X151075915Y-130703623D01*
X151075000Y-130685000D01*
X151075000Y-129315000D01*
X151075915Y-129296377D01*
X151078651Y-129277933D01*
X151083181Y-129259846D01*
X151089463Y-129242290D01*
X151097435Y-129225435D01*
X151107021Y-129209442D01*
X151118128Y-129194465D01*
X151130650Y-129180650D01*
X151144465Y-129168128D01*
X151159442Y-129157021D01*
X151175435Y-129147435D01*
X151192290Y-129139463D01*
X151209846Y-129133181D01*
X151227933Y-129128651D01*
X151246377Y-129125915D01*
X151265000Y-129125000D01*
X151835000Y-129125000D01*
X151853623Y-129125915D01*
X151853623Y-129125915D01*
G37*
D21*
X151550000Y-130000000D03*
G04 #@! TD*
D20*
G04 #@! TO.C,D16*
G36*
X169250450Y-75029005D02*
X169268894Y-75031741D01*
X169286981Y-75036271D01*
X169304537Y-75042553D01*
X169321392Y-75050525D01*
X169337385Y-75060111D01*
X169352362Y-75071218D01*
X169366177Y-75083740D01*
X169769228Y-75486791D01*
X169781750Y-75500606D01*
X169792857Y-75515583D01*
X169802443Y-75531576D01*
X169810415Y-75548431D01*
X169816697Y-75565987D01*
X169821227Y-75584074D01*
X169823963Y-75602518D01*
X169824878Y-75621141D01*
X169823963Y-75639764D01*
X169821227Y-75658208D01*
X169816697Y-75676295D01*
X169810415Y-75693851D01*
X169802443Y-75710706D01*
X169792857Y-75726699D01*
X169781750Y-75741676D01*
X169769228Y-75755491D01*
X168800491Y-76724228D01*
X168786676Y-76736750D01*
X168771699Y-76747857D01*
X168755706Y-76757443D01*
X168738851Y-76765415D01*
X168721295Y-76771697D01*
X168703208Y-76776227D01*
X168684764Y-76778963D01*
X168666141Y-76779878D01*
X168647518Y-76778963D01*
X168629074Y-76776227D01*
X168610987Y-76771697D01*
X168593431Y-76765415D01*
X168576576Y-76757443D01*
X168560583Y-76747857D01*
X168545606Y-76736750D01*
X168531791Y-76724228D01*
X168128740Y-76321177D01*
X168116218Y-76307362D01*
X168105111Y-76292385D01*
X168095525Y-76276392D01*
X168087553Y-76259537D01*
X168081271Y-76241981D01*
X168076741Y-76223894D01*
X168074005Y-76205450D01*
X168073090Y-76186827D01*
X168074005Y-76168204D01*
X168076741Y-76149760D01*
X168081271Y-76131673D01*
X168087553Y-76114117D01*
X168095525Y-76097262D01*
X168105111Y-76081269D01*
X168116218Y-76066292D01*
X168128740Y-76052477D01*
X169097477Y-75083740D01*
X169111292Y-75071218D01*
X169126269Y-75060111D01*
X169142262Y-75050525D01*
X169159117Y-75042553D01*
X169176673Y-75036271D01*
X169194760Y-75031741D01*
X169213204Y-75029005D01*
X169231827Y-75028090D01*
X169250450Y-75029005D01*
X169250450Y-75029005D01*
G37*
D21*
X168948984Y-75903984D03*
D20*
G36*
X171442482Y-77221037D02*
X171460926Y-77223773D01*
X171479013Y-77228303D01*
X171496569Y-77234585D01*
X171513424Y-77242557D01*
X171529417Y-77252143D01*
X171544394Y-77263250D01*
X171558209Y-77275772D01*
X171961260Y-77678823D01*
X171973782Y-77692638D01*
X171984889Y-77707615D01*
X171994475Y-77723608D01*
X172002447Y-77740463D01*
X172008729Y-77758019D01*
X172013259Y-77776106D01*
X172015995Y-77794550D01*
X172016910Y-77813173D01*
X172015995Y-77831796D01*
X172013259Y-77850240D01*
X172008729Y-77868327D01*
X172002447Y-77885883D01*
X171994475Y-77902738D01*
X171984889Y-77918731D01*
X171973782Y-77933708D01*
X171961260Y-77947523D01*
X170992523Y-78916260D01*
X170978708Y-78928782D01*
X170963731Y-78939889D01*
X170947738Y-78949475D01*
X170930883Y-78957447D01*
X170913327Y-78963729D01*
X170895240Y-78968259D01*
X170876796Y-78970995D01*
X170858173Y-78971910D01*
X170839550Y-78970995D01*
X170821106Y-78968259D01*
X170803019Y-78963729D01*
X170785463Y-78957447D01*
X170768608Y-78949475D01*
X170752615Y-78939889D01*
X170737638Y-78928782D01*
X170723823Y-78916260D01*
X170320772Y-78513209D01*
X170308250Y-78499394D01*
X170297143Y-78484417D01*
X170287557Y-78468424D01*
X170279585Y-78451569D01*
X170273303Y-78434013D01*
X170268773Y-78415926D01*
X170266037Y-78397482D01*
X170265122Y-78378859D01*
X170266037Y-78360236D01*
X170268773Y-78341792D01*
X170273303Y-78323705D01*
X170279585Y-78306149D01*
X170287557Y-78289294D01*
X170297143Y-78273301D01*
X170308250Y-78258324D01*
X170320772Y-78244509D01*
X171289509Y-77275772D01*
X171303324Y-77263250D01*
X171318301Y-77252143D01*
X171334294Y-77242557D01*
X171351149Y-77234585D01*
X171368705Y-77228303D01*
X171386792Y-77223773D01*
X171405236Y-77221037D01*
X171423859Y-77220122D01*
X171442482Y-77221037D01*
X171442482Y-77221037D01*
G37*
D21*
X171141016Y-78096016D03*
G04 #@! TD*
D20*
G04 #@! TO.C,D17*
G36*
X171831796Y-119029005D02*
X171850240Y-119031741D01*
X171868327Y-119036271D01*
X171885883Y-119042553D01*
X171902738Y-119050525D01*
X171918731Y-119060111D01*
X171933708Y-119071218D01*
X171947523Y-119083740D01*
X172916260Y-120052477D01*
X172928782Y-120066292D01*
X172939889Y-120081269D01*
X172949475Y-120097262D01*
X172957447Y-120114117D01*
X172963729Y-120131673D01*
X172968259Y-120149760D01*
X172970995Y-120168204D01*
X172971910Y-120186827D01*
X172970995Y-120205450D01*
X172968259Y-120223894D01*
X172963729Y-120241981D01*
X172957447Y-120259537D01*
X172949475Y-120276392D01*
X172939889Y-120292385D01*
X172928782Y-120307362D01*
X172916260Y-120321177D01*
X172513209Y-120724228D01*
X172499394Y-120736750D01*
X172484417Y-120747857D01*
X172468424Y-120757443D01*
X172451569Y-120765415D01*
X172434013Y-120771697D01*
X172415926Y-120776227D01*
X172397482Y-120778963D01*
X172378859Y-120779878D01*
X172360236Y-120778963D01*
X172341792Y-120776227D01*
X172323705Y-120771697D01*
X172306149Y-120765415D01*
X172289294Y-120757443D01*
X172273301Y-120747857D01*
X172258324Y-120736750D01*
X172244509Y-120724228D01*
X171275772Y-119755491D01*
X171263250Y-119741676D01*
X171252143Y-119726699D01*
X171242557Y-119710706D01*
X171234585Y-119693851D01*
X171228303Y-119676295D01*
X171223773Y-119658208D01*
X171221037Y-119639764D01*
X171220122Y-119621141D01*
X171221037Y-119602518D01*
X171223773Y-119584074D01*
X171228303Y-119565987D01*
X171234585Y-119548431D01*
X171242557Y-119531576D01*
X171252143Y-119515583D01*
X171263250Y-119500606D01*
X171275772Y-119486791D01*
X171678823Y-119083740D01*
X171692638Y-119071218D01*
X171707615Y-119060111D01*
X171723608Y-119050525D01*
X171740463Y-119042553D01*
X171758019Y-119036271D01*
X171776106Y-119031741D01*
X171794550Y-119029005D01*
X171813173Y-119028090D01*
X171831796Y-119029005D01*
X171831796Y-119029005D01*
G37*
D21*
X172096016Y-119903984D03*
D20*
G36*
X169639764Y-121221037D02*
X169658208Y-121223773D01*
X169676295Y-121228303D01*
X169693851Y-121234585D01*
X169710706Y-121242557D01*
X169726699Y-121252143D01*
X169741676Y-121263250D01*
X169755491Y-121275772D01*
X170724228Y-122244509D01*
X170736750Y-122258324D01*
X170747857Y-122273301D01*
X170757443Y-122289294D01*
X170765415Y-122306149D01*
X170771697Y-122323705D01*
X170776227Y-122341792D01*
X170778963Y-122360236D01*
X170779878Y-122378859D01*
X170778963Y-122397482D01*
X170776227Y-122415926D01*
X170771697Y-122434013D01*
X170765415Y-122451569D01*
X170757443Y-122468424D01*
X170747857Y-122484417D01*
X170736750Y-122499394D01*
X170724228Y-122513209D01*
X170321177Y-122916260D01*
X170307362Y-122928782D01*
X170292385Y-122939889D01*
X170276392Y-122949475D01*
X170259537Y-122957447D01*
X170241981Y-122963729D01*
X170223894Y-122968259D01*
X170205450Y-122970995D01*
X170186827Y-122971910D01*
X170168204Y-122970995D01*
X170149760Y-122968259D01*
X170131673Y-122963729D01*
X170114117Y-122957447D01*
X170097262Y-122949475D01*
X170081269Y-122939889D01*
X170066292Y-122928782D01*
X170052477Y-122916260D01*
X169083740Y-121947523D01*
X169071218Y-121933708D01*
X169060111Y-121918731D01*
X169050525Y-121902738D01*
X169042553Y-121885883D01*
X169036271Y-121868327D01*
X169031741Y-121850240D01*
X169029005Y-121831796D01*
X169028090Y-121813173D01*
X169029005Y-121794550D01*
X169031741Y-121776106D01*
X169036271Y-121758019D01*
X169042553Y-121740463D01*
X169050525Y-121723608D01*
X169060111Y-121707615D01*
X169071218Y-121692638D01*
X169083740Y-121678823D01*
X169486791Y-121275772D01*
X169500606Y-121263250D01*
X169515583Y-121252143D01*
X169531576Y-121242557D01*
X169548431Y-121234585D01*
X169565987Y-121228303D01*
X169584074Y-121223773D01*
X169602518Y-121221037D01*
X169621141Y-121220122D01*
X169639764Y-121221037D01*
X169639764Y-121221037D01*
G37*
D21*
X169903984Y-122096016D03*
G04 #@! TD*
D20*
G04 #@! TO.C,D18*
G36*
X181703623Y-100425915D02*
X181722067Y-100428651D01*
X181740154Y-100433181D01*
X181757710Y-100439463D01*
X181774565Y-100447435D01*
X181790558Y-100457021D01*
X181805535Y-100468128D01*
X181819350Y-100480650D01*
X181831872Y-100494465D01*
X181842979Y-100509442D01*
X181852565Y-100525435D01*
X181860537Y-100542290D01*
X181866819Y-100559846D01*
X181871349Y-100577933D01*
X181874085Y-100596377D01*
X181875000Y-100615000D01*
X181875000Y-101185000D01*
X181874085Y-101203623D01*
X181871349Y-101222067D01*
X181866819Y-101240154D01*
X181860537Y-101257710D01*
X181852565Y-101274565D01*
X181842979Y-101290558D01*
X181831872Y-101305535D01*
X181819350Y-101319350D01*
X181805535Y-101331872D01*
X181790558Y-101342979D01*
X181774565Y-101352565D01*
X181757710Y-101360537D01*
X181740154Y-101366819D01*
X181722067Y-101371349D01*
X181703623Y-101374085D01*
X181685000Y-101375000D01*
X180315000Y-101375000D01*
X180296377Y-101374085D01*
X180277933Y-101371349D01*
X180259846Y-101366819D01*
X180242290Y-101360537D01*
X180225435Y-101352565D01*
X180209442Y-101342979D01*
X180194465Y-101331872D01*
X180180650Y-101319350D01*
X180168128Y-101305535D01*
X180157021Y-101290558D01*
X180147435Y-101274565D01*
X180139463Y-101257710D01*
X180133181Y-101240154D01*
X180128651Y-101222067D01*
X180125915Y-101203623D01*
X180125000Y-101185000D01*
X180125000Y-100615000D01*
X180125915Y-100596377D01*
X180128651Y-100577933D01*
X180133181Y-100559846D01*
X180139463Y-100542290D01*
X180147435Y-100525435D01*
X180157021Y-100509442D01*
X180168128Y-100494465D01*
X180180650Y-100480650D01*
X180194465Y-100468128D01*
X180209442Y-100457021D01*
X180225435Y-100447435D01*
X180242290Y-100439463D01*
X180259846Y-100433181D01*
X180277933Y-100428651D01*
X180296377Y-100425915D01*
X180315000Y-100425000D01*
X181685000Y-100425000D01*
X181703623Y-100425915D01*
X181703623Y-100425915D01*
G37*
D21*
X181000000Y-100900000D03*
D20*
G36*
X181703623Y-97325915D02*
X181722067Y-97328651D01*
X181740154Y-97333181D01*
X181757710Y-97339463D01*
X181774565Y-97347435D01*
X181790558Y-97357021D01*
X181805535Y-97368128D01*
X181819350Y-97380650D01*
X181831872Y-97394465D01*
X181842979Y-97409442D01*
X181852565Y-97425435D01*
X181860537Y-97442290D01*
X181866819Y-97459846D01*
X181871349Y-97477933D01*
X181874085Y-97496377D01*
X181875000Y-97515000D01*
X181875000Y-98085000D01*
X181874085Y-98103623D01*
X181871349Y-98122067D01*
X181866819Y-98140154D01*
X181860537Y-98157710D01*
X181852565Y-98174565D01*
X181842979Y-98190558D01*
X181831872Y-98205535D01*
X181819350Y-98219350D01*
X181805535Y-98231872D01*
X181790558Y-98242979D01*
X181774565Y-98252565D01*
X181757710Y-98260537D01*
X181740154Y-98266819D01*
X181722067Y-98271349D01*
X181703623Y-98274085D01*
X181685000Y-98275000D01*
X180315000Y-98275000D01*
X180296377Y-98274085D01*
X180277933Y-98271349D01*
X180259846Y-98266819D01*
X180242290Y-98260537D01*
X180225435Y-98252565D01*
X180209442Y-98242979D01*
X180194465Y-98231872D01*
X180180650Y-98219350D01*
X180168128Y-98205535D01*
X180157021Y-98190558D01*
X180147435Y-98174565D01*
X180139463Y-98157710D01*
X180133181Y-98140154D01*
X180128651Y-98122067D01*
X180125915Y-98103623D01*
X180125000Y-98085000D01*
X180125000Y-97515000D01*
X180125915Y-97496377D01*
X180128651Y-97477933D01*
X180133181Y-97459846D01*
X180139463Y-97442290D01*
X180147435Y-97425435D01*
X180157021Y-97409442D01*
X180168128Y-97394465D01*
X180180650Y-97380650D01*
X180194465Y-97368128D01*
X180209442Y-97357021D01*
X180225435Y-97347435D01*
X180242290Y-97339463D01*
X180259846Y-97333181D01*
X180277933Y-97328651D01*
X180296377Y-97325915D01*
X180315000Y-97325000D01*
X181685000Y-97325000D01*
X181703623Y-97325915D01*
X181703623Y-97325915D01*
G37*
D21*
X181000000Y-97800000D03*
G04 #@! TD*
M02*
