G04 #@! TF.GenerationSoftware,KiCad,Pcbnew,(5.0.2)-1*
G04 #@! TF.CreationDate,2019-05-10T15:47:13-04:00*
G04 #@! TF.ProjectId,bikesenseCap,62696b65-7365-46e7-9365-4361702e6b69,PROD A*
G04 #@! TF.SameCoordinates,Original*
G04 #@! TF.FileFunction,Copper,L2,Bot*
G04 #@! TF.FilePolarity,Positive*
%FSLAX46Y46*%
G04 Gerber Fmt 4.6, Leading zero omitted, Abs format (unit mm)*
G04 Created by KiCad (PCBNEW (5.0.2)-1) date 5/10/2019 3:47:13 PM*
%MOMM*%
%LPD*%
G01*
G04 APERTURE LIST*
G04 #@! TA.AperFunction,BGAPad,CuDef*
%ADD10C,10.000000*%
G04 #@! TD*
G04 #@! TA.AperFunction,ComponentPad*
%ADD11R,1.270000X1.270000*%
G04 #@! TD*
G04 #@! TA.AperFunction,ComponentPad*
%ADD12C,1.270000*%
G04 #@! TD*
G04 #@! TA.AperFunction,ViaPad*
%ADD13C,0.800000*%
G04 #@! TD*
G04 #@! TA.AperFunction,Conductor*
%ADD14C,0.250000*%
G04 #@! TD*
G04 APERTURE END LIST*
D10*
G04 #@! TO.P,J5,1*
G04 #@! TO.N,Net-(J5-Pad1)*
X150000000Y-120000000D03*
G04 #@! TD*
D11*
G04 #@! TO.P,J1,1*
G04 #@! TO.N,/SCL*
X153000260Y-83000000D03*
D12*
G04 #@! TO.P,J1,2*
G04 #@! TO.N,/SDA*
X155001780Y-83000000D03*
G04 #@! TO.P,J1,3*
G04 #@! TO.N,+3V3*
X156998220Y-83000000D03*
G04 #@! TO.P,J1,4*
G04 #@! TO.N,GND*
X158999740Y-83000000D03*
G04 #@! TD*
D10*
G04 #@! TO.P,J2,1*
G04 #@! TO.N,Net-(J2-Pad1)*
X130000000Y-100000000D03*
G04 #@! TD*
G04 #@! TO.P,J3,1*
G04 #@! TO.N,Net-(J3-Pad1)*
X150000000Y-100000000D03*
G04 #@! TD*
G04 #@! TO.P,J4,1*
G04 #@! TO.N,Net-(J4-Pad1)*
X170000000Y-100000000D03*
G04 #@! TD*
D13*
G04 #@! TO.N,Net-(D3-Pad1)*
X142240000Y-92710000D03*
X135132805Y-93140071D03*
G04 #@! TO.N,Net-(D5-Pad1)*
X169000000Y-88587300D03*
X150000000Y-87000000D03*
G04 #@! TO.N,/West*
X120975300Y-103248200D03*
X158549928Y-113030000D03*
G04 #@! TO.N,/NorthWest*
X121138400Y-97497400D03*
X158749964Y-106680000D03*
G04 #@! TO.N,/SouthWest*
X158500200Y-110537400D03*
X126244700Y-111233300D03*
G04 #@! TO.N,/North*
X149000000Y-75000000D03*
X147000000Y-72000000D03*
G04 #@! TO.N,/SCL*
X134000000Y-90000000D03*
X142000000Y-109000016D03*
X134919960Y-77105360D03*
X158115298Y-105907211D03*
X136615010Y-88324949D03*
X130810000Y-82550000D03*
X138176000Y-115189000D03*
X138171340Y-112907660D03*
G04 #@! TO.N,/SDA*
X130088600Y-87095400D03*
X135711284Y-83626985D03*
X140589000Y-114300000D03*
X132588000Y-111379000D03*
G04 #@! TO.N,+3V3*
X160000000Y-125000000D03*
X153000000Y-128000000D03*
X124460000Y-119380000D03*
X135838868Y-118195187D03*
G04 #@! TO.N,GND*
X140000000Y-86000000D03*
X136000000Y-92000000D03*
X133350000Y-86359964D03*
G04 #@! TO.N,Net-(J2-Pad1)*
X140000000Y-82000000D03*
G04 #@! TO.N,Net-(J3-Pad1)*
X144000000Y-88000000D03*
X142000000Y-82000000D03*
X149025803Y-85000484D03*
G04 #@! TO.N,Net-(J4-Pad1)*
X141875800Y-83248500D03*
G04 #@! TO.N,Net-(J5-Pad1)*
X143207378Y-86147521D03*
G04 #@! TD*
D14*
G04 #@! TO.N,Net-(D3-Pad1)*
X135698490Y-93140071D02*
X135132805Y-93140071D01*
X141809929Y-93140071D02*
X135698490Y-93140071D01*
X142240000Y-92710000D02*
X141809929Y-93140071D01*
G04 #@! TO.N,Net-(D5-Pad1)*
X167412700Y-87000000D02*
X150565685Y-87000000D01*
X150565685Y-87000000D02*
X150000000Y-87000000D01*
X169000000Y-88587300D02*
X167412700Y-87000000D01*
G04 #@! TO.N,/West*
X127931087Y-110203987D02*
X155723915Y-110203987D01*
X120975300Y-103248200D02*
X127931087Y-110203987D01*
X158149929Y-112630001D02*
X158549928Y-113030000D01*
X155723915Y-110203987D02*
X158149929Y-112630001D01*
G04 #@! TO.N,/NorthWest*
X158349965Y-107079999D02*
X158749964Y-106680000D01*
X155675988Y-109753976D02*
X158349965Y-107079999D01*
X131867198Y-109753976D02*
X155675988Y-109753976D01*
X121138400Y-99025178D02*
X131867198Y-109753976D01*
X121138400Y-97497400D02*
X121138400Y-99025178D01*
G04 #@! TO.N,/SouthWest*
X158500200Y-110537400D02*
X159274990Y-111312190D01*
X159274990Y-113378002D02*
X158897990Y-113755002D01*
X158897990Y-113755002D02*
X157131998Y-113755002D01*
X157131998Y-113755002D02*
X154030994Y-110653998D01*
X159274990Y-111312190D02*
X159274990Y-113378002D01*
X126644699Y-110833301D02*
X126244700Y-111233300D01*
X126824002Y-110653998D02*
X126644699Y-110833301D01*
X154030994Y-110653998D02*
X126824002Y-110653998D01*
G04 #@! TO.N,/North*
X149000000Y-75000000D02*
X149000000Y-74000000D01*
X149000000Y-74000000D02*
X147000000Y-72000000D01*
G04 #@! TO.N,/SCL*
X142000000Y-109000016D02*
X141999984Y-109000000D01*
X160452400Y-83571000D02*
X160452400Y-82391400D01*
X160452400Y-82391400D02*
X154978300Y-76917300D01*
X154978300Y-76917300D02*
X135108020Y-76917300D01*
X135108020Y-76917300D02*
X134919960Y-77105360D01*
X159612800Y-84410600D02*
X160452400Y-83571000D01*
X153000300Y-83000000D02*
X153960600Y-83000000D01*
X155011000Y-84410600D02*
X159612800Y-84410600D01*
X153960600Y-83360200D02*
X155011000Y-84410600D01*
X153960600Y-83000000D02*
X153960600Y-83360200D01*
X135675051Y-88324949D02*
X136615010Y-88324949D01*
X134000000Y-90000000D02*
X135675051Y-88324949D01*
X134919960Y-78440040D02*
X130810000Y-82550000D01*
X134919960Y-77105360D02*
X134919960Y-78440040D01*
X157549613Y-105907211D02*
X158115298Y-105907211D01*
X154236824Y-109220000D02*
X157549613Y-105907211D01*
X142000000Y-109000016D02*
X142219984Y-109220000D01*
X142219984Y-109220000D02*
X154236824Y-109220000D01*
X138176000Y-112912320D02*
X138171340Y-112907660D01*
X138176000Y-115189000D02*
X138176000Y-112912320D01*
G04 #@! TO.N,/SDA*
X140372801Y-80099980D02*
X139238289Y-80099980D01*
X139238289Y-80099980D02*
X135711284Y-83626985D01*
X140472781Y-80000000D02*
X140372801Y-80099980D01*
X155962100Y-83960300D02*
X159426200Y-83960300D01*
X155001800Y-83000000D02*
X155962100Y-83960300D01*
X159426200Y-83960300D02*
X160002100Y-83384400D01*
X160002100Y-83384400D02*
X160002100Y-82578000D01*
X160002100Y-82578000D02*
X157424100Y-80000000D01*
X157424100Y-80000000D02*
X140472781Y-80000000D01*
X133557015Y-83626985D02*
X135711284Y-83626985D01*
X130088600Y-87095400D02*
X133557015Y-83626985D01*
X137668000Y-111379000D02*
X132588000Y-111379000D01*
X140589000Y-114300000D02*
X137668000Y-111379000D01*
G04 #@! TO.N,+3V3*
X157000000Y-128000000D02*
X153000000Y-128000000D01*
X160000000Y-125000000D02*
X157000000Y-128000000D01*
X134654055Y-119380000D02*
X135438869Y-118595186D01*
X124460000Y-119380000D02*
X134654055Y-119380000D01*
X135438869Y-118595186D02*
X135838868Y-118195187D01*
G04 #@! TO.N,GND*
X140000000Y-88000000D02*
X136000000Y-92000000D01*
X140000000Y-86000000D02*
X140000000Y-88000000D01*
X134003626Y-86359964D02*
X133350000Y-86359964D01*
X156549691Y-80549991D02*
X139813599Y-80549991D01*
X139813599Y-80549991D02*
X134003626Y-86359964D01*
X158999700Y-83000000D02*
X156549691Y-80549991D01*
G04 #@! TO.N,Net-(J2-Pad1)*
X139000000Y-82000000D02*
X140000000Y-82000000D01*
X135890000Y-85110000D02*
X139000000Y-82000000D01*
X135890000Y-87274999D02*
X135890000Y-85110000D01*
X132435001Y-87274999D02*
X135890000Y-87274999D01*
X130000000Y-100000000D02*
X130000000Y-89710000D01*
X130000000Y-89710000D02*
X132435001Y-87274999D01*
G04 #@! TO.N,Net-(J3-Pad1)*
X145000000Y-95000000D02*
X145000000Y-89000000D01*
X150000000Y-100000000D02*
X145000000Y-95000000D01*
X145000000Y-89000000D02*
X144000000Y-88000000D01*
X142000000Y-82000000D02*
X146025319Y-82000000D01*
X146025319Y-82000000D02*
X148625804Y-84600485D01*
X148625804Y-84600485D02*
X149025803Y-85000484D01*
G04 #@! TO.N,Net-(J4-Pad1)*
X165000001Y-95000001D02*
X170000000Y-100000000D01*
X165000001Y-90000001D02*
X165000001Y-95000001D01*
X164000000Y-89000000D02*
X165000001Y-90000001D01*
X141875800Y-83248500D02*
X147627300Y-89000000D01*
X147627300Y-89000000D02*
X164000000Y-89000000D01*
G04 #@! TO.N,Net-(J5-Pad1)*
X154450011Y-89450011D02*
X146509868Y-89450011D01*
X159725001Y-94725001D02*
X154450011Y-89450011D01*
X159725001Y-117346066D02*
X159725001Y-94725001D01*
X146509868Y-89450011D02*
X143607377Y-86547520D01*
X150000000Y-120000000D02*
X157071067Y-120000000D01*
X143607377Y-86547520D02*
X143207378Y-86147521D01*
X157071067Y-120000000D02*
X159725001Y-117346066D01*
G04 #@! TD*
M02*
