M48
;DRILL file {KiCad (5.0.2)-1} date 5/10/2019 3:47:15 PM
;FORMAT={-:-/ absolute / inch / decimal}
FMAT,2
INCH,TZ
T1C0.0157
T2C0.0314
%
G90
G05
T1
X4.7628Y-4.0649
X4.7692Y-3.8385
X4.9Y-4.7
X4.9703Y-4.3793
X5.1216Y-3.429
X5.15Y-3.25
X5.22Y-4.385
X5.25Y-3.4
X5.2756Y-3.5433
X5.3118Y-3.0356
X5.3202Y-3.6669
X5.343Y-3.2924
X5.348Y-4.6534
X5.3543Y-3.622
X5.3785Y-3.4774
X5.4398Y-4.4452
X5.44Y-4.535
X5.5118Y-3.2283
X5.5118Y-3.3858
X5.535Y-4.5
X5.5857Y-3.2775
X5.5906Y-3.2283
X5.5906Y-4.2913
X5.6Y-3.65
X5.6381Y-3.3916
X5.6693Y-3.4646
X5.7874Y-2.8346
X5.8661Y-2.9528
X5.8672Y-3.3465
X5.9055Y-3.4252
X6.0236Y-5.0394
X6.225Y-4.1696
X6.2402Y-4.3519
X6.2421Y-4.45
X6.25Y-4.2
X6.2992Y-4.9213
X6.6535Y-3.4877
T2
X6.0236Y-3.2677
X6.1024Y-3.2677
X6.181Y-3.2677
X6.2598Y-3.2677
T0
M30
