G04 #@! TF.GenerationSoftware,KiCad,Pcbnew,(5.0.2)-1*
G04 #@! TF.CreationDate,2019-05-10T15:47:13-04:00*
G04 #@! TF.ProjectId,bikesenseCap,62696b65-7365-46e7-9365-4361702e6b69,PROD A*
G04 #@! TF.SameCoordinates,Original*
G04 #@! TF.FileFunction,Legend,Bot*
G04 #@! TF.FilePolarity,Positive*
%FSLAX46Y46*%
G04 Gerber Fmt 4.6, Leading zero omitted, Abs format (unit mm)*
G04 Created by KiCad (PCBNEW (5.0.2)-1) date 5/10/2019 3:47:13 PM*
%MOMM*%
%LPD*%
G01*
G04 APERTURE LIST*
%ADD10C,0.300000*%
%ADD11C,0.150000*%
%ADD12C,0.010000*%
G04 APERTURE END LIST*
D10*
X123070857Y-99254571D02*
X122713714Y-100754571D01*
X122428000Y-99683142D01*
X122142285Y-100754571D01*
X121785142Y-99254571D01*
X178502428Y-99333857D02*
X178002428Y-99333857D01*
X177788142Y-100119571D02*
X178502428Y-100119571D01*
X178502428Y-98619571D01*
X177788142Y-98619571D01*
X150542571Y-127861142D02*
X150328285Y-127932571D01*
X149971142Y-127932571D01*
X149828285Y-127861142D01*
X149756857Y-127789714D01*
X149685428Y-127646857D01*
X149685428Y-127504000D01*
X149756857Y-127361142D01*
X149828285Y-127289714D01*
X149971142Y-127218285D01*
X150256857Y-127146857D01*
X150399714Y-127075428D01*
X150471142Y-127004000D01*
X150542571Y-126861142D01*
X150542571Y-126718285D01*
X150471142Y-126575428D01*
X150399714Y-126504000D01*
X150256857Y-126432571D01*
X149899714Y-126432571D01*
X149685428Y-126504000D01*
X150415571Y-73830571D02*
X150415571Y-72330571D01*
X149558428Y-73830571D01*
X149558428Y-72330571D01*
D11*
G04 #@! TO.C,J5*
X156082763Y-120000000D02*
G75*
G03X156082763Y-120000000I-6082763J0D01*
G01*
G04 #@! TO.C,J2*
X136082763Y-100000000D02*
G75*
G03X136082763Y-100000000I-6082763J0D01*
G01*
G04 #@! TO.C,J3*
X156082763Y-100000000D02*
G75*
G03X156082763Y-100000000I-6082763J0D01*
G01*
G04 #@! TO.C,J4*
X176082763Y-100000000D02*
G75*
G03X176082763Y-100000000I-6082763J0D01*
G01*
D12*
G04 #@! TO.C,G\002A\002A\002A*
G36*
X141855004Y-79676792D02*
X141723426Y-79704946D01*
X141612093Y-79744127D01*
X141540334Y-79788003D01*
X141524000Y-79817863D01*
X141547018Y-79845382D01*
X141618997Y-79827958D01*
X141692210Y-79793223D01*
X141805174Y-79758577D01*
X141955861Y-79742652D01*
X142115082Y-79745460D01*
X142253650Y-79767011D01*
X142322286Y-79793000D01*
X142417990Y-79836162D01*
X142483652Y-79843674D01*
X142503579Y-79820214D01*
X142470591Y-79782845D01*
X142384897Y-79742971D01*
X142265882Y-79706385D01*
X142132936Y-79678881D01*
X142005447Y-79666253D01*
X141987493Y-79666000D01*
X141855004Y-79676792D01*
X141855004Y-79676792D01*
G37*
X141855004Y-79676792D02*
X141723426Y-79704946D01*
X141612093Y-79744127D01*
X141540334Y-79788003D01*
X141524000Y-79817863D01*
X141547018Y-79845382D01*
X141618997Y-79827958D01*
X141692210Y-79793223D01*
X141805174Y-79758577D01*
X141955861Y-79742652D01*
X142115082Y-79745460D01*
X142253650Y-79767011D01*
X142322286Y-79793000D01*
X142417990Y-79836162D01*
X142483652Y-79843674D01*
X142503579Y-79820214D01*
X142470591Y-79782845D01*
X142384897Y-79742971D01*
X142265882Y-79706385D01*
X142132936Y-79678881D01*
X142005447Y-79666253D01*
X141987493Y-79666000D01*
X141855004Y-79676792D01*
G36*
X141795667Y-79904433D02*
X141626252Y-79972889D01*
X141472355Y-80099987D01*
X141444408Y-80130002D01*
X141344195Y-80266827D01*
X141288323Y-80415623D01*
X141271141Y-80597020D01*
X141277733Y-80738467D01*
X141328972Y-80947357D01*
X141444277Y-81123207D01*
X141621899Y-81263558D01*
X141669864Y-81289785D01*
X141836758Y-81347164D01*
X142025804Y-81369715D01*
X142204225Y-81355139D01*
X142280733Y-81332604D01*
X142475033Y-81217840D01*
X142621982Y-81048099D01*
X142670845Y-80957753D01*
X142741534Y-80731842D01*
X142746619Y-80513839D01*
X142692175Y-80313518D01*
X142584279Y-80140651D01*
X142429006Y-80005011D01*
X142232432Y-79916371D01*
X142003621Y-79884511D01*
X141795667Y-79904433D01*
X141795667Y-79904433D01*
G37*
X141795667Y-79904433D02*
X141626252Y-79972889D01*
X141472355Y-80099987D01*
X141444408Y-80130002D01*
X141344195Y-80266827D01*
X141288323Y-80415623D01*
X141271141Y-80597020D01*
X141277733Y-80738467D01*
X141328972Y-80947357D01*
X141444277Y-81123207D01*
X141621899Y-81263558D01*
X141669864Y-81289785D01*
X141836758Y-81347164D01*
X142025804Y-81369715D01*
X142204225Y-81355139D01*
X142280733Y-81332604D01*
X142475033Y-81217840D01*
X142621982Y-81048099D01*
X142670845Y-80957753D01*
X142741534Y-80731842D01*
X142746619Y-80513839D01*
X142692175Y-80313518D01*
X142584279Y-80140651D01*
X142429006Y-80005011D01*
X142232432Y-79916371D01*
X142003621Y-79884511D01*
X141795667Y-79904433D01*
G36*
X141060246Y-80676662D02*
X141054127Y-80756258D01*
X141068513Y-80864629D01*
X141101707Y-80981900D01*
X141121462Y-81030383D01*
X141195313Y-81157849D01*
X141292062Y-81278207D01*
X141395755Y-81375496D01*
X141490442Y-81433759D01*
X141534281Y-81443388D01*
X141579993Y-81438908D01*
X141572969Y-81419522D01*
X141508463Y-81374712D01*
X141501179Y-81370035D01*
X141371289Y-81257098D01*
X141256187Y-81104143D01*
X141170083Y-80935185D01*
X141127189Y-80774239D01*
X141124858Y-80734066D01*
X141112135Y-80667012D01*
X141088572Y-80645714D01*
X141060246Y-80676662D01*
X141060246Y-80676662D01*
G37*
X141060246Y-80676662D02*
X141054127Y-80756258D01*
X141068513Y-80864629D01*
X141101707Y-80981900D01*
X141121462Y-81030383D01*
X141195313Y-81157849D01*
X141292062Y-81278207D01*
X141395755Y-81375496D01*
X141490442Y-81433759D01*
X141534281Y-81443388D01*
X141579993Y-81438908D01*
X141572969Y-81419522D01*
X141508463Y-81374712D01*
X141501179Y-81370035D01*
X141371289Y-81257098D01*
X141256187Y-81104143D01*
X141170083Y-80935185D01*
X141127189Y-80774239D01*
X141124858Y-80734066D01*
X141112135Y-80667012D01*
X141088572Y-80645714D01*
X141060246Y-80676662D01*
G36*
X142876410Y-80677031D02*
X142866217Y-80745500D01*
X142841322Y-80877210D01*
X142776357Y-81032374D01*
X142684714Y-81185368D01*
X142579784Y-81310570D01*
X142562630Y-81326335D01*
X142491799Y-81399173D01*
X142477019Y-81437331D01*
X142509384Y-81438486D01*
X142579986Y-81400314D01*
X142647857Y-81348559D01*
X142732231Y-81257957D01*
X142816853Y-81137042D01*
X142850213Y-81077622D01*
X142898399Y-80959190D01*
X142928934Y-80838345D01*
X142939544Y-80733723D01*
X142927960Y-80663957D01*
X142902857Y-80645714D01*
X142876410Y-80677031D01*
X142876410Y-80677031D01*
G37*
X142876410Y-80677031D02*
X142866217Y-80745500D01*
X142841322Y-80877210D01*
X142776357Y-81032374D01*
X142684714Y-81185368D01*
X142579784Y-81310570D01*
X142562630Y-81326335D01*
X142491799Y-81399173D01*
X142477019Y-81437331D01*
X142509384Y-81438486D01*
X142579986Y-81400314D01*
X142647857Y-81348559D01*
X142732231Y-81257957D01*
X142816853Y-81137042D01*
X142850213Y-81077622D01*
X142898399Y-80959190D01*
X142928934Y-80838345D01*
X142939544Y-80733723D01*
X142927960Y-80663957D01*
X142902857Y-80645714D01*
X142876410Y-80677031D01*
G36*
X139274286Y-83177746D02*
X137913572Y-81777444D01*
X137266477Y-81774007D01*
X137022137Y-81774614D01*
X136832562Y-81779131D01*
X136702817Y-81787304D01*
X136637970Y-81798879D01*
X136631477Y-81805891D01*
X136659111Y-81841656D01*
X136729450Y-81921484D01*
X136834922Y-82037102D01*
X136967953Y-82180241D01*
X137120974Y-82342627D01*
X137171239Y-82395534D01*
X137340381Y-82573561D01*
X137502957Y-82745298D01*
X137648483Y-82899624D01*
X137766475Y-83025417D01*
X137846450Y-83111556D01*
X137854714Y-83120583D01*
X138010522Y-83291309D01*
X137278939Y-84463154D01*
X136547356Y-85635000D01*
X137210180Y-85644916D01*
X137463413Y-85647354D01*
X137652125Y-85645770D01*
X137784274Y-85639755D01*
X137867821Y-85628901D01*
X137910725Y-85612797D01*
X137915389Y-85608631D01*
X137945374Y-85565167D01*
X138006273Y-85468560D01*
X138092309Y-85328278D01*
X138197702Y-85153790D01*
X138316673Y-84954564D01*
X138385777Y-84837916D01*
X138813781Y-84113403D01*
X139044034Y-84361266D01*
X139274286Y-84609128D01*
X139274286Y-85653143D01*
X140435429Y-85653143D01*
X140435429Y-80319143D01*
X139274286Y-80319143D01*
X139274286Y-83177746D01*
X139274286Y-83177746D01*
G37*
X139274286Y-83177746D02*
X137913572Y-81777444D01*
X137266477Y-81774007D01*
X137022137Y-81774614D01*
X136832562Y-81779131D01*
X136702817Y-81787304D01*
X136637970Y-81798879D01*
X136631477Y-81805891D01*
X136659111Y-81841656D01*
X136729450Y-81921484D01*
X136834922Y-82037102D01*
X136967953Y-82180241D01*
X137120974Y-82342627D01*
X137171239Y-82395534D01*
X137340381Y-82573561D01*
X137502957Y-82745298D01*
X137648483Y-82899624D01*
X137766475Y-83025417D01*
X137846450Y-83111556D01*
X137854714Y-83120583D01*
X138010522Y-83291309D01*
X137278939Y-84463154D01*
X136547356Y-85635000D01*
X137210180Y-85644916D01*
X137463413Y-85647354D01*
X137652125Y-85645770D01*
X137784274Y-85639755D01*
X137867821Y-85628901D01*
X137910725Y-85612797D01*
X137915389Y-85608631D01*
X137945374Y-85565167D01*
X138006273Y-85468560D01*
X138092309Y-85328278D01*
X138197702Y-85153790D01*
X138316673Y-84954564D01*
X138385777Y-84837916D01*
X138813781Y-84113403D01*
X139044034Y-84361266D01*
X139274286Y-84609128D01*
X139274286Y-85653143D01*
X140435429Y-85653143D01*
X140435429Y-80319143D01*
X139274286Y-80319143D01*
X139274286Y-83177746D01*
G36*
X141487715Y-85653143D02*
X142612572Y-85653143D01*
X142612572Y-81770571D01*
X141487715Y-81770571D01*
X141487715Y-85653143D01*
X141487715Y-85653143D01*
G37*
X141487715Y-85653143D02*
X142612572Y-85653143D01*
X142612572Y-81770571D01*
X141487715Y-81770571D01*
X141487715Y-85653143D01*
G36*
X134319299Y-81745685D02*
X133981099Y-81800390D01*
X133663485Y-81904400D01*
X133377898Y-82057645D01*
X133164143Y-82231211D01*
X132972013Y-82469116D01*
X132819723Y-82759954D01*
X132710739Y-83093863D01*
X132648522Y-83460981D01*
X132634630Y-83739071D01*
X132634000Y-84056571D01*
X134012858Y-84056571D01*
X134321127Y-84057041D01*
X134605388Y-84058381D01*
X134857762Y-84060485D01*
X135070367Y-84063246D01*
X135235322Y-84066560D01*
X135344748Y-84070319D01*
X135390763Y-84074419D01*
X135391715Y-84075109D01*
X135370013Y-84150282D01*
X135313943Y-84258398D01*
X135237053Y-84377900D01*
X135152894Y-84487230D01*
X135093926Y-84548890D01*
X134923689Y-84679226D01*
X134749686Y-84757109D01*
X134546681Y-84791937D01*
X134430143Y-84796128D01*
X134127701Y-84765927D01*
X133851859Y-84670023D01*
X133618367Y-84525096D01*
X133441090Y-84390920D01*
X133137331Y-84697897D01*
X132833572Y-85004875D01*
X133025143Y-85182524D01*
X133272523Y-85369672D01*
X133567225Y-85522078D01*
X133888049Y-85628901D01*
X133907201Y-85633515D01*
X134083220Y-85662096D01*
X134304053Y-85679172D01*
X134545526Y-85684667D01*
X134783465Y-85678507D01*
X134993698Y-85660616D01*
X135127839Y-85637291D01*
X135415049Y-85539571D01*
X135695383Y-85393011D01*
X135941221Y-85212922D01*
X136011122Y-85147693D01*
X136223408Y-84886013D01*
X136382277Y-84586297D01*
X136488064Y-84259209D01*
X136541106Y-83915413D01*
X136541740Y-83565574D01*
X136496806Y-83264002D01*
X135389792Y-83264002D01*
X135387380Y-83304693D01*
X135357233Y-83333007D01*
X135291745Y-83351180D01*
X135183314Y-83361446D01*
X135024335Y-83366040D01*
X134807203Y-83367195D01*
X134557143Y-83367142D01*
X133722572Y-83367142D01*
X133722572Y-83276033D01*
X133749474Y-83139280D01*
X133820135Y-82986686D01*
X133919487Y-82844903D01*
X134020592Y-82748854D01*
X134187416Y-82659409D01*
X134383254Y-82601514D01*
X134576027Y-82583053D01*
X134661971Y-82591207D01*
X134886066Y-82666431D01*
X135088756Y-82799752D01*
X135252542Y-82977133D01*
X135341825Y-83136552D01*
X135372072Y-83208700D01*
X135389792Y-83264002D01*
X136496806Y-83264002D01*
X136490302Y-83220356D01*
X136387128Y-82890423D01*
X136232555Y-82586441D01*
X136026920Y-82319072D01*
X135918586Y-82214222D01*
X135649097Y-82021338D01*
X135342982Y-81878113D01*
X135011682Y-81784477D01*
X134666640Y-81740357D01*
X134319299Y-81745685D01*
X134319299Y-81745685D01*
G37*
X134319299Y-81745685D02*
X133981099Y-81800390D01*
X133663485Y-81904400D01*
X133377898Y-82057645D01*
X133164143Y-82231211D01*
X132972013Y-82469116D01*
X132819723Y-82759954D01*
X132710739Y-83093863D01*
X132648522Y-83460981D01*
X132634630Y-83739071D01*
X132634000Y-84056571D01*
X134012858Y-84056571D01*
X134321127Y-84057041D01*
X134605388Y-84058381D01*
X134857762Y-84060485D01*
X135070367Y-84063246D01*
X135235322Y-84066560D01*
X135344748Y-84070319D01*
X135390763Y-84074419D01*
X135391715Y-84075109D01*
X135370013Y-84150282D01*
X135313943Y-84258398D01*
X135237053Y-84377900D01*
X135152894Y-84487230D01*
X135093926Y-84548890D01*
X134923689Y-84679226D01*
X134749686Y-84757109D01*
X134546681Y-84791937D01*
X134430143Y-84796128D01*
X134127701Y-84765927D01*
X133851859Y-84670023D01*
X133618367Y-84525096D01*
X133441090Y-84390920D01*
X133137331Y-84697897D01*
X132833572Y-85004875D01*
X133025143Y-85182524D01*
X133272523Y-85369672D01*
X133567225Y-85522078D01*
X133888049Y-85628901D01*
X133907201Y-85633515D01*
X134083220Y-85662096D01*
X134304053Y-85679172D01*
X134545526Y-85684667D01*
X134783465Y-85678507D01*
X134993698Y-85660616D01*
X135127839Y-85637291D01*
X135415049Y-85539571D01*
X135695383Y-85393011D01*
X135941221Y-85212922D01*
X136011122Y-85147693D01*
X136223408Y-84886013D01*
X136382277Y-84586297D01*
X136488064Y-84259209D01*
X136541106Y-83915413D01*
X136541740Y-83565574D01*
X136496806Y-83264002D01*
X135389792Y-83264002D01*
X135387380Y-83304693D01*
X135357233Y-83333007D01*
X135291745Y-83351180D01*
X135183314Y-83361446D01*
X135024335Y-83366040D01*
X134807203Y-83367195D01*
X134557143Y-83367142D01*
X133722572Y-83367142D01*
X133722572Y-83276033D01*
X133749474Y-83139280D01*
X133820135Y-82986686D01*
X133919487Y-82844903D01*
X134020592Y-82748854D01*
X134187416Y-82659409D01*
X134383254Y-82601514D01*
X134576027Y-82583053D01*
X134661971Y-82591207D01*
X134886066Y-82666431D01*
X135088756Y-82799752D01*
X135252542Y-82977133D01*
X135341825Y-83136552D01*
X135372072Y-83208700D01*
X135389792Y-83264002D01*
X136496806Y-83264002D01*
X136490302Y-83220356D01*
X136387128Y-82890423D01*
X136232555Y-82586441D01*
X136026920Y-82319072D01*
X135918586Y-82214222D01*
X135649097Y-82021338D01*
X135342982Y-81878113D01*
X135011682Y-81784477D01*
X134666640Y-81740357D01*
X134319299Y-81745685D01*
G36*
X146350000Y-82285853D02*
X146150308Y-82103345D01*
X145916194Y-81929755D01*
X145653256Y-81814431D01*
X145350156Y-81752802D01*
X145261429Y-81744875D01*
X144892608Y-81753219D01*
X144548289Y-81827546D01*
X144234297Y-81963714D01*
X143956456Y-82157580D01*
X143720590Y-82405000D01*
X143532525Y-82701833D01*
X143398085Y-83043935D01*
X143388800Y-83076857D01*
X143350372Y-83275208D01*
X143327812Y-83515409D01*
X143321133Y-83774099D01*
X143330349Y-84027913D01*
X143355473Y-84253490D01*
X143388039Y-84401285D01*
X143526613Y-84754383D01*
X143713150Y-85054718D01*
X143946095Y-85300633D01*
X144223894Y-85490474D01*
X144530465Y-85618158D01*
X144752845Y-85665602D01*
X145011500Y-85687490D01*
X145278186Y-85683790D01*
X145524654Y-85654470D01*
X145667674Y-85619441D01*
X145825073Y-85553919D01*
X145991762Y-85460161D01*
X146145000Y-85353122D01*
X146262043Y-85247758D01*
X146295792Y-85206388D01*
X146323593Y-85172218D01*
X146339830Y-85175502D01*
X146347574Y-85226708D01*
X146349899Y-85336302D01*
X146350000Y-85391069D01*
X146350000Y-85653143D01*
X147474858Y-85653143D01*
X147474858Y-83767268D01*
X146332923Y-83767268D01*
X146297622Y-83986381D01*
X146232589Y-84196598D01*
X146164319Y-84335595D01*
X146014167Y-84512681D01*
X145819041Y-84642902D01*
X145593233Y-84721276D01*
X145351032Y-84742822D01*
X145109277Y-84703327D01*
X144940598Y-84621599D01*
X144777261Y-84487672D01*
X144639295Y-84320414D01*
X144568718Y-84194010D01*
X144508069Y-83998422D01*
X144479535Y-83771362D01*
X144483389Y-83539401D01*
X144519904Y-83329106D01*
X144558717Y-83222000D01*
X144700271Y-82996220D01*
X144883503Y-82828802D01*
X145104447Y-82722313D01*
X145359140Y-82679319D01*
X145397896Y-82678511D01*
X145653171Y-82710424D01*
X145876287Y-82804729D01*
X146062030Y-82956431D01*
X146205190Y-83160539D01*
X146300553Y-83412061D01*
X146331229Y-83572466D01*
X146332923Y-83767268D01*
X147474858Y-83767268D01*
X147474858Y-80319143D01*
X146350000Y-80319143D01*
X146350000Y-82285853D01*
X146350000Y-82285853D01*
G37*
X146350000Y-82285853D02*
X146150308Y-82103345D01*
X145916194Y-81929755D01*
X145653256Y-81814431D01*
X145350156Y-81752802D01*
X145261429Y-81744875D01*
X144892608Y-81753219D01*
X144548289Y-81827546D01*
X144234297Y-81963714D01*
X143956456Y-82157580D01*
X143720590Y-82405000D01*
X143532525Y-82701833D01*
X143398085Y-83043935D01*
X143388800Y-83076857D01*
X143350372Y-83275208D01*
X143327812Y-83515409D01*
X143321133Y-83774099D01*
X143330349Y-84027913D01*
X143355473Y-84253490D01*
X143388039Y-84401285D01*
X143526613Y-84754383D01*
X143713150Y-85054718D01*
X143946095Y-85300633D01*
X144223894Y-85490474D01*
X144530465Y-85618158D01*
X144752845Y-85665602D01*
X145011500Y-85687490D01*
X145278186Y-85683790D01*
X145524654Y-85654470D01*
X145667674Y-85619441D01*
X145825073Y-85553919D01*
X145991762Y-85460161D01*
X146145000Y-85353122D01*
X146262043Y-85247758D01*
X146295792Y-85206388D01*
X146323593Y-85172218D01*
X146339830Y-85175502D01*
X146347574Y-85226708D01*
X146349899Y-85336302D01*
X146350000Y-85391069D01*
X146350000Y-85653143D01*
X147474858Y-85653143D01*
X147474858Y-83767268D01*
X146332923Y-83767268D01*
X146297622Y-83986381D01*
X146232589Y-84196598D01*
X146164319Y-84335595D01*
X146014167Y-84512681D01*
X145819041Y-84642902D01*
X145593233Y-84721276D01*
X145351032Y-84742822D01*
X145109277Y-84703327D01*
X144940598Y-84621599D01*
X144777261Y-84487672D01*
X144639295Y-84320414D01*
X144568718Y-84194010D01*
X144508069Y-83998422D01*
X144479535Y-83771362D01*
X144483389Y-83539401D01*
X144519904Y-83329106D01*
X144558717Y-83222000D01*
X144700271Y-82996220D01*
X144883503Y-82828802D01*
X145104447Y-82722313D01*
X145359140Y-82679319D01*
X145397896Y-82678511D01*
X145653171Y-82710424D01*
X145876287Y-82804729D01*
X146062030Y-82956431D01*
X146205190Y-83160539D01*
X146300553Y-83412061D01*
X146331229Y-83572466D01*
X146332923Y-83767268D01*
X147474858Y-83767268D01*
X147474858Y-80319143D01*
X146350000Y-80319143D01*
X146350000Y-82285853D01*
G36*
X133379337Y-86016830D02*
X133245933Y-86021184D01*
X133152030Y-86031850D01*
X133081098Y-86051622D01*
X133016601Y-86083290D01*
X132958604Y-86119017D01*
X132779540Y-86243857D01*
X132651522Y-86364285D01*
X132566523Y-86496237D01*
X132516517Y-86655648D01*
X132493476Y-86858454D01*
X132489060Y-87051140D01*
X132488689Y-87203045D01*
X132493402Y-87319772D01*
X132511617Y-87405942D01*
X132551755Y-87466175D01*
X132622236Y-87505091D01*
X132731479Y-87527311D01*
X132887904Y-87537456D01*
X133099931Y-87540145D01*
X133375980Y-87540000D01*
X134158000Y-87540000D01*
X134158000Y-87634343D01*
X134127229Y-87732782D01*
X134041997Y-87844579D01*
X134034629Y-87852057D01*
X133911257Y-87975428D01*
X133272629Y-87975428D01*
X133041151Y-87975990D01*
X132871076Y-87978435D01*
X132751238Y-87983902D01*
X132670473Y-87993531D01*
X132617615Y-88008461D01*
X132581499Y-88029832D01*
X132561429Y-88048000D01*
X132498421Y-88156870D01*
X132500713Y-88278925D01*
X132540298Y-88358564D01*
X132562790Y-88382780D01*
X132596694Y-88400964D01*
X132652073Y-88414152D01*
X132738988Y-88423380D01*
X132867501Y-88429682D01*
X133047674Y-88434096D01*
X133289571Y-88437656D01*
X133311369Y-88437928D01*
X133587808Y-88439810D01*
X133798591Y-88437516D01*
X133950532Y-88430737D01*
X134050444Y-88419160D01*
X134105139Y-88402477D01*
X134106577Y-88401642D01*
X134239356Y-88309216D01*
X134372783Y-88195023D01*
X134487267Y-88077688D01*
X134563216Y-87975837D01*
X134571915Y-87959264D01*
X134594707Y-87895563D01*
X134610960Y-87807887D01*
X134621591Y-87684678D01*
X134627518Y-87514376D01*
X134629660Y-87285423D01*
X134629715Y-87231571D01*
X134628040Y-86975845D01*
X134623951Y-86867915D01*
X134158000Y-86867915D01*
X134158000Y-87068285D01*
X132960572Y-87068285D01*
X132960572Y-86893975D01*
X132968135Y-86777437D01*
X133001091Y-86694373D01*
X133074839Y-86609044D01*
X133089569Y-86594618D01*
X133158109Y-86532361D01*
X133220027Y-86494254D01*
X133296966Y-86473362D01*
X133410566Y-86462754D01*
X133515926Y-86458025D01*
X133667640Y-86454187D01*
X133771291Y-86460370D01*
X133851224Y-86481704D01*
X133931783Y-86523320D01*
X133985643Y-86557012D01*
X134083347Y-86622744D01*
X134134702Y-86676455D01*
X134154616Y-86745039D01*
X134157997Y-86855386D01*
X134158000Y-86867915D01*
X134623951Y-86867915D01*
X134620626Y-86780165D01*
X134603887Y-86632038D01*
X134574238Y-86518970D01*
X134528095Y-86428468D01*
X134461871Y-86348038D01*
X134371983Y-86265187D01*
X134346101Y-86243227D01*
X134234973Y-86152548D01*
X134142838Y-86089880D01*
X134052032Y-86050057D01*
X133944887Y-86027917D01*
X133803737Y-86018295D01*
X133610916Y-86016026D01*
X133568776Y-86016000D01*
X133379337Y-86016830D01*
X133379337Y-86016830D01*
G37*
X133379337Y-86016830D02*
X133245933Y-86021184D01*
X133152030Y-86031850D01*
X133081098Y-86051622D01*
X133016601Y-86083290D01*
X132958604Y-86119017D01*
X132779540Y-86243857D01*
X132651522Y-86364285D01*
X132566523Y-86496237D01*
X132516517Y-86655648D01*
X132493476Y-86858454D01*
X132489060Y-87051140D01*
X132488689Y-87203045D01*
X132493402Y-87319772D01*
X132511617Y-87405942D01*
X132551755Y-87466175D01*
X132622236Y-87505091D01*
X132731479Y-87527311D01*
X132887904Y-87537456D01*
X133099931Y-87540145D01*
X133375980Y-87540000D01*
X134158000Y-87540000D01*
X134158000Y-87634343D01*
X134127229Y-87732782D01*
X134041997Y-87844579D01*
X134034629Y-87852057D01*
X133911257Y-87975428D01*
X133272629Y-87975428D01*
X133041151Y-87975990D01*
X132871076Y-87978435D01*
X132751238Y-87983902D01*
X132670473Y-87993531D01*
X132617615Y-88008461D01*
X132581499Y-88029832D01*
X132561429Y-88048000D01*
X132498421Y-88156870D01*
X132500713Y-88278925D01*
X132540298Y-88358564D01*
X132562790Y-88382780D01*
X132596694Y-88400964D01*
X132652073Y-88414152D01*
X132738988Y-88423380D01*
X132867501Y-88429682D01*
X133047674Y-88434096D01*
X133289571Y-88437656D01*
X133311369Y-88437928D01*
X133587808Y-88439810D01*
X133798591Y-88437516D01*
X133950532Y-88430737D01*
X134050444Y-88419160D01*
X134105139Y-88402477D01*
X134106577Y-88401642D01*
X134239356Y-88309216D01*
X134372783Y-88195023D01*
X134487267Y-88077688D01*
X134563216Y-87975837D01*
X134571915Y-87959264D01*
X134594707Y-87895563D01*
X134610960Y-87807887D01*
X134621591Y-87684678D01*
X134627518Y-87514376D01*
X134629660Y-87285423D01*
X134629715Y-87231571D01*
X134628040Y-86975845D01*
X134623951Y-86867915D01*
X134158000Y-86867915D01*
X134158000Y-87068285D01*
X132960572Y-87068285D01*
X132960572Y-86893975D01*
X132968135Y-86777437D01*
X133001091Y-86694373D01*
X133074839Y-86609044D01*
X133089569Y-86594618D01*
X133158109Y-86532361D01*
X133220027Y-86494254D01*
X133296966Y-86473362D01*
X133410566Y-86462754D01*
X133515926Y-86458025D01*
X133667640Y-86454187D01*
X133771291Y-86460370D01*
X133851224Y-86481704D01*
X133931783Y-86523320D01*
X133985643Y-86557012D01*
X134083347Y-86622744D01*
X134134702Y-86676455D01*
X134154616Y-86745039D01*
X134157997Y-86855386D01*
X134158000Y-86867915D01*
X134623951Y-86867915D01*
X134620626Y-86780165D01*
X134603887Y-86632038D01*
X134574238Y-86518970D01*
X134528095Y-86428468D01*
X134461871Y-86348038D01*
X134371983Y-86265187D01*
X134346101Y-86243227D01*
X134234973Y-86152548D01*
X134142838Y-86089880D01*
X134052032Y-86050057D01*
X133944887Y-86027917D01*
X133803737Y-86018295D01*
X133610916Y-86016026D01*
X133568776Y-86016000D01*
X133379337Y-86016830D01*
G36*
X135960164Y-86128409D02*
X135827030Y-86239669D01*
X135764799Y-86351974D01*
X135771856Y-86469176D01*
X135795482Y-86521485D01*
X135877371Y-86602582D01*
X135990758Y-86628117D01*
X136118896Y-86596741D01*
X136191403Y-86553402D01*
X136247089Y-86517293D01*
X136309205Y-86492534D01*
X136393259Y-86476465D01*
X136514760Y-86466423D01*
X136689217Y-86459749D01*
X136746251Y-86458209D01*
X136946112Y-86455052D01*
X137086438Y-86458337D01*
X137180065Y-86469142D01*
X137239832Y-86488542D01*
X137260429Y-86501348D01*
X137309044Y-86547516D01*
X137299889Y-86586982D01*
X137278572Y-86610163D01*
X137228649Y-86642377D01*
X137124271Y-86697741D01*
X136977457Y-86770284D01*
X136800225Y-86854038D01*
X136643572Y-86925570D01*
X136365440Y-87053215D01*
X136147868Y-87161235D01*
X135983855Y-87256499D01*
X135866398Y-87345876D01*
X135788495Y-87436238D01*
X135743145Y-87534454D01*
X135723347Y-87647393D01*
X135722097Y-87781927D01*
X135724294Y-87827540D01*
X135755571Y-88036127D01*
X135827222Y-88192536D01*
X135946456Y-88309139D01*
X136035071Y-88360856D01*
X136134725Y-88390750D01*
X136289869Y-88414449D01*
X136483655Y-88431565D01*
X136699234Y-88441708D01*
X136919759Y-88444489D01*
X137128380Y-88439519D01*
X137308249Y-88426408D01*
X137442518Y-88404767D01*
X137478143Y-88394202D01*
X137604342Y-88329460D01*
X137716595Y-88239273D01*
X137800400Y-88139407D01*
X137841251Y-88045631D01*
X137839789Y-88001056D01*
X137786331Y-87904568D01*
X137700993Y-87827629D01*
X137610727Y-87794109D01*
X137606017Y-87794000D01*
X137535854Y-87815467D01*
X137448791Y-87867923D01*
X137438706Y-87875642D01*
X137391407Y-87908384D01*
X137337455Y-87931561D01*
X137263230Y-87947232D01*
X137155113Y-87957460D01*
X136999482Y-87964306D01*
X136822139Y-87968949D01*
X136614598Y-87972608D01*
X136467251Y-87971880D01*
X136367796Y-87965694D01*
X136303931Y-87952983D01*
X136263356Y-87932678D01*
X136247643Y-87919030D01*
X136202823Y-87833474D01*
X136197102Y-87762224D01*
X136209190Y-87719387D01*
X136241731Y-87678451D01*
X136305199Y-87632306D01*
X136410068Y-87573841D01*
X136566810Y-87495945D01*
X136643572Y-87459092D01*
X136942289Y-87315774D01*
X137181939Y-87198058D01*
X137369236Y-87100898D01*
X137510896Y-87019247D01*
X137613632Y-86948058D01*
X137684161Y-86882285D01*
X137729195Y-86816880D01*
X137755450Y-86746798D01*
X137769641Y-86666991D01*
X137775505Y-86608345D01*
X137760740Y-86406857D01*
X137680931Y-86235694D01*
X137538387Y-86099781D01*
X137536277Y-86098366D01*
X137487910Y-86068678D01*
X137437136Y-86047123D01*
X137371929Y-86032405D01*
X137280264Y-86023230D01*
X137150113Y-86018302D01*
X136969451Y-86016326D01*
X136771427Y-86016000D01*
X136129871Y-86016000D01*
X135960164Y-86128409D01*
X135960164Y-86128409D01*
G37*
X135960164Y-86128409D02*
X135827030Y-86239669D01*
X135764799Y-86351974D01*
X135771856Y-86469176D01*
X135795482Y-86521485D01*
X135877371Y-86602582D01*
X135990758Y-86628117D01*
X136118896Y-86596741D01*
X136191403Y-86553402D01*
X136247089Y-86517293D01*
X136309205Y-86492534D01*
X136393259Y-86476465D01*
X136514760Y-86466423D01*
X136689217Y-86459749D01*
X136746251Y-86458209D01*
X136946112Y-86455052D01*
X137086438Y-86458337D01*
X137180065Y-86469142D01*
X137239832Y-86488542D01*
X137260429Y-86501348D01*
X137309044Y-86547516D01*
X137299889Y-86586982D01*
X137278572Y-86610163D01*
X137228649Y-86642377D01*
X137124271Y-86697741D01*
X136977457Y-86770284D01*
X136800225Y-86854038D01*
X136643572Y-86925570D01*
X136365440Y-87053215D01*
X136147868Y-87161235D01*
X135983855Y-87256499D01*
X135866398Y-87345876D01*
X135788495Y-87436238D01*
X135743145Y-87534454D01*
X135723347Y-87647393D01*
X135722097Y-87781927D01*
X135724294Y-87827540D01*
X135755571Y-88036127D01*
X135827222Y-88192536D01*
X135946456Y-88309139D01*
X136035071Y-88360856D01*
X136134725Y-88390750D01*
X136289869Y-88414449D01*
X136483655Y-88431565D01*
X136699234Y-88441708D01*
X136919759Y-88444489D01*
X137128380Y-88439519D01*
X137308249Y-88426408D01*
X137442518Y-88404767D01*
X137478143Y-88394202D01*
X137604342Y-88329460D01*
X137716595Y-88239273D01*
X137800400Y-88139407D01*
X137841251Y-88045631D01*
X137839789Y-88001056D01*
X137786331Y-87904568D01*
X137700993Y-87827629D01*
X137610727Y-87794109D01*
X137606017Y-87794000D01*
X137535854Y-87815467D01*
X137448791Y-87867923D01*
X137438706Y-87875642D01*
X137391407Y-87908384D01*
X137337455Y-87931561D01*
X137263230Y-87947232D01*
X137155113Y-87957460D01*
X136999482Y-87964306D01*
X136822139Y-87968949D01*
X136614598Y-87972608D01*
X136467251Y-87971880D01*
X136367796Y-87965694D01*
X136303931Y-87952983D01*
X136263356Y-87932678D01*
X136247643Y-87919030D01*
X136202823Y-87833474D01*
X136197102Y-87762224D01*
X136209190Y-87719387D01*
X136241731Y-87678451D01*
X136305199Y-87632306D01*
X136410068Y-87573841D01*
X136566810Y-87495945D01*
X136643572Y-87459092D01*
X136942289Y-87315774D01*
X137181939Y-87198058D01*
X137369236Y-87100898D01*
X137510896Y-87019247D01*
X137613632Y-86948058D01*
X137684161Y-86882285D01*
X137729195Y-86816880D01*
X137755450Y-86746798D01*
X137769641Y-86666991D01*
X137775505Y-86608345D01*
X137760740Y-86406857D01*
X137680931Y-86235694D01*
X137538387Y-86099781D01*
X137536277Y-86098366D01*
X137487910Y-86068678D01*
X137437136Y-86047123D01*
X137371929Y-86032405D01*
X137280264Y-86023230D01*
X137150113Y-86018302D01*
X136969451Y-86016326D01*
X136771427Y-86016000D01*
X136129871Y-86016000D01*
X135960164Y-86128409D01*
G36*
X139529570Y-86018364D02*
X139413339Y-86027760D01*
X139330504Y-86047644D01*
X139261521Y-86081471D01*
X139236257Y-86097766D01*
X139163139Y-86150081D01*
X139105235Y-86203327D01*
X139060378Y-86266612D01*
X139026404Y-86349044D01*
X139001145Y-86459734D01*
X138982435Y-86607790D01*
X138968109Y-86802321D01*
X138956000Y-87052437D01*
X138945679Y-87319739D01*
X138935797Y-87632363D01*
X138930873Y-87893219D01*
X138930899Y-88097262D01*
X138935871Y-88239444D01*
X138945781Y-88314719D01*
X138946903Y-88318008D01*
X139012986Y-88400397D01*
X139117562Y-88438834D01*
X139236188Y-88425502D01*
X139256862Y-88417132D01*
X139291527Y-88398033D01*
X139319056Y-88370337D01*
X139340679Y-88325626D01*
X139357629Y-88255481D01*
X139371136Y-88151481D01*
X139382430Y-88005209D01*
X139392745Y-87808244D01*
X139403309Y-87552168D01*
X139410216Y-87368382D01*
X139421101Y-87090373D01*
X139432675Y-86876509D01*
X139448003Y-86718403D01*
X139470149Y-86607669D01*
X139502177Y-86535919D01*
X139547153Y-86494765D01*
X139608140Y-86475821D01*
X139688205Y-86470700D01*
X139738225Y-86470715D01*
X139826774Y-86477122D01*
X139913196Y-86499879D01*
X140014753Y-86546206D01*
X140148706Y-86623319D01*
X140242836Y-86681716D01*
X140576385Y-86891574D01*
X140587550Y-87617918D01*
X140591841Y-87866412D01*
X140596709Y-88052340D01*
X140603205Y-88185710D01*
X140612379Y-88276526D01*
X140625279Y-88334793D01*
X140642956Y-88370517D01*
X140666459Y-88393703D01*
X140669150Y-88395702D01*
X140788004Y-88443216D01*
X140908156Y-88424443D01*
X140979715Y-88374571D01*
X141000521Y-88350674D01*
X141016923Y-88319855D01*
X141029443Y-88273875D01*
X141038604Y-88204494D01*
X141044928Y-88103473D01*
X141048936Y-87962575D01*
X141051150Y-87773560D01*
X141052093Y-87528188D01*
X141052286Y-87229186D01*
X141050985Y-86896500D01*
X141047186Y-86614034D01*
X141041047Y-86386594D01*
X141032727Y-86218990D01*
X141022384Y-86116030D01*
X141014724Y-86086186D01*
X140959066Y-86034281D01*
X140856201Y-86016236D01*
X140837738Y-86016000D01*
X140717016Y-86032311D01*
X140642900Y-86090450D01*
X140599477Y-86204221D01*
X140594637Y-86226890D01*
X140571985Y-86340149D01*
X140422064Y-86237606D01*
X140266806Y-86136284D01*
X140141050Y-86071426D01*
X140018805Y-86035071D01*
X139874080Y-86019255D01*
X139698740Y-86016000D01*
X139529570Y-86018364D01*
X139529570Y-86018364D01*
G37*
X139529570Y-86018364D02*
X139413339Y-86027760D01*
X139330504Y-86047644D01*
X139261521Y-86081471D01*
X139236257Y-86097766D01*
X139163139Y-86150081D01*
X139105235Y-86203327D01*
X139060378Y-86266612D01*
X139026404Y-86349044D01*
X139001145Y-86459734D01*
X138982435Y-86607790D01*
X138968109Y-86802321D01*
X138956000Y-87052437D01*
X138945679Y-87319739D01*
X138935797Y-87632363D01*
X138930873Y-87893219D01*
X138930899Y-88097262D01*
X138935871Y-88239444D01*
X138945781Y-88314719D01*
X138946903Y-88318008D01*
X139012986Y-88400397D01*
X139117562Y-88438834D01*
X139236188Y-88425502D01*
X139256862Y-88417132D01*
X139291527Y-88398033D01*
X139319056Y-88370337D01*
X139340679Y-88325626D01*
X139357629Y-88255481D01*
X139371136Y-88151481D01*
X139382430Y-88005209D01*
X139392745Y-87808244D01*
X139403309Y-87552168D01*
X139410216Y-87368382D01*
X139421101Y-87090373D01*
X139432675Y-86876509D01*
X139448003Y-86718403D01*
X139470149Y-86607669D01*
X139502177Y-86535919D01*
X139547153Y-86494765D01*
X139608140Y-86475821D01*
X139688205Y-86470700D01*
X139738225Y-86470715D01*
X139826774Y-86477122D01*
X139913196Y-86499879D01*
X140014753Y-86546206D01*
X140148706Y-86623319D01*
X140242836Y-86681716D01*
X140576385Y-86891574D01*
X140587550Y-87617918D01*
X140591841Y-87866412D01*
X140596709Y-88052340D01*
X140603205Y-88185710D01*
X140612379Y-88276526D01*
X140625279Y-88334793D01*
X140642956Y-88370517D01*
X140666459Y-88393703D01*
X140669150Y-88395702D01*
X140788004Y-88443216D01*
X140908156Y-88424443D01*
X140979715Y-88374571D01*
X141000521Y-88350674D01*
X141016923Y-88319855D01*
X141029443Y-88273875D01*
X141038604Y-88204494D01*
X141044928Y-88103473D01*
X141048936Y-87962575D01*
X141051150Y-87773560D01*
X141052093Y-87528188D01*
X141052286Y-87229186D01*
X141050985Y-86896500D01*
X141047186Y-86614034D01*
X141041047Y-86386594D01*
X141032727Y-86218990D01*
X141022384Y-86116030D01*
X141014724Y-86086186D01*
X140959066Y-86034281D01*
X140856201Y-86016236D01*
X140837738Y-86016000D01*
X140717016Y-86032311D01*
X140642900Y-86090450D01*
X140599477Y-86204221D01*
X140594637Y-86226890D01*
X140571985Y-86340149D01*
X140422064Y-86237606D01*
X140266806Y-86136284D01*
X140141050Y-86071426D01*
X140018805Y-86035071D01*
X139874080Y-86019255D01*
X139698740Y-86016000D01*
X139529570Y-86018364D01*
G36*
X142496736Y-86188357D02*
X142357103Y-86301048D01*
X142259200Y-86404996D01*
X142195834Y-86517022D01*
X142159812Y-86653945D01*
X142143940Y-86832586D01*
X142140914Y-87020336D01*
X142143097Y-87209844D01*
X142150770Y-87339803D01*
X142165522Y-87423135D01*
X142188945Y-87472757D01*
X142197878Y-87482979D01*
X142226735Y-87502250D01*
X142275776Y-87516748D01*
X142354314Y-87527110D01*
X142471662Y-87533972D01*
X142637132Y-87537970D01*
X142860036Y-87539741D01*
X143032449Y-87540000D01*
X143288628Y-87540195D01*
X143481285Y-87541377D01*
X143619468Y-87544441D01*
X143712227Y-87550279D01*
X143768610Y-87559788D01*
X143797667Y-87573860D01*
X143808447Y-87593391D01*
X143810000Y-87616840D01*
X143785419Y-87684657D01*
X143722376Y-87775572D01*
X143669126Y-87834554D01*
X143528252Y-87975428D01*
X142915200Y-87975428D01*
X142656161Y-87977171D01*
X142461097Y-87984238D01*
X142321457Y-87999389D01*
X142228688Y-88025382D01*
X142174239Y-88064977D01*
X142149560Y-88120933D01*
X142146098Y-88196007D01*
X142147944Y-88222970D01*
X142159177Y-88294956D01*
X142185127Y-88349650D01*
X142234662Y-88389389D01*
X142316648Y-88416509D01*
X142439953Y-88433346D01*
X142613444Y-88442236D01*
X142845988Y-88445517D01*
X142993572Y-88445781D01*
X143246330Y-88444275D01*
X143437013Y-88439506D01*
X143576072Y-88430719D01*
X143673961Y-88417154D01*
X143741132Y-88398056D01*
X143758441Y-88390359D01*
X143885222Y-88307234D01*
X144015592Y-88188559D01*
X144131858Y-88054095D01*
X144216327Y-87923602D01*
X144247230Y-87844474D01*
X144261787Y-87738968D01*
X144271799Y-87580377D01*
X144277250Y-87388046D01*
X144278120Y-87181320D01*
X144274392Y-86979543D01*
X144270662Y-86900213D01*
X143810000Y-86900213D01*
X143810000Y-87068285D01*
X142612572Y-87068285D01*
X142612573Y-86877785D01*
X142617236Y-86760866D01*
X142640360Y-86685966D01*
X142695652Y-86622690D01*
X142746752Y-86580224D01*
X142856353Y-86508918D01*
X142977224Y-86471263D01*
X143090223Y-86458024D01*
X143302895Y-86454234D01*
X143466116Y-86481247D01*
X143598166Y-86543800D01*
X143681951Y-86611374D01*
X143763050Y-86698546D01*
X143800465Y-86779696D01*
X143809972Y-86890411D01*
X143810000Y-86900213D01*
X144270662Y-86900213D01*
X144266046Y-86802062D01*
X144253066Y-86668220D01*
X144248370Y-86640008D01*
X144216011Y-86529580D01*
X144157822Y-86428263D01*
X144062701Y-86321856D01*
X143919546Y-86196157D01*
X143870242Y-86156287D01*
X143694626Y-86016000D01*
X142725615Y-86016000D01*
X142496736Y-86188357D01*
X142496736Y-86188357D01*
G37*
X142496736Y-86188357D02*
X142357103Y-86301048D01*
X142259200Y-86404996D01*
X142195834Y-86517022D01*
X142159812Y-86653945D01*
X142143940Y-86832586D01*
X142140914Y-87020336D01*
X142143097Y-87209844D01*
X142150770Y-87339803D01*
X142165522Y-87423135D01*
X142188945Y-87472757D01*
X142197878Y-87482979D01*
X142226735Y-87502250D01*
X142275776Y-87516748D01*
X142354314Y-87527110D01*
X142471662Y-87533972D01*
X142637132Y-87537970D01*
X142860036Y-87539741D01*
X143032449Y-87540000D01*
X143288628Y-87540195D01*
X143481285Y-87541377D01*
X143619468Y-87544441D01*
X143712227Y-87550279D01*
X143768610Y-87559788D01*
X143797667Y-87573860D01*
X143808447Y-87593391D01*
X143810000Y-87616840D01*
X143785419Y-87684657D01*
X143722376Y-87775572D01*
X143669126Y-87834554D01*
X143528252Y-87975428D01*
X142915200Y-87975428D01*
X142656161Y-87977171D01*
X142461097Y-87984238D01*
X142321457Y-87999389D01*
X142228688Y-88025382D01*
X142174239Y-88064977D01*
X142149560Y-88120933D01*
X142146098Y-88196007D01*
X142147944Y-88222970D01*
X142159177Y-88294956D01*
X142185127Y-88349650D01*
X142234662Y-88389389D01*
X142316648Y-88416509D01*
X142439953Y-88433346D01*
X142613444Y-88442236D01*
X142845988Y-88445517D01*
X142993572Y-88445781D01*
X143246330Y-88444275D01*
X143437013Y-88439506D01*
X143576072Y-88430719D01*
X143673961Y-88417154D01*
X143741132Y-88398056D01*
X143758441Y-88390359D01*
X143885222Y-88307234D01*
X144015592Y-88188559D01*
X144131858Y-88054095D01*
X144216327Y-87923602D01*
X144247230Y-87844474D01*
X144261787Y-87738968D01*
X144271799Y-87580377D01*
X144277250Y-87388046D01*
X144278120Y-87181320D01*
X144274392Y-86979543D01*
X144270662Y-86900213D01*
X143810000Y-86900213D01*
X143810000Y-87068285D01*
X142612572Y-87068285D01*
X142612573Y-86877785D01*
X142617236Y-86760866D01*
X142640360Y-86685966D01*
X142695652Y-86622690D01*
X142746752Y-86580224D01*
X142856353Y-86508918D01*
X142977224Y-86471263D01*
X143090223Y-86458024D01*
X143302895Y-86454234D01*
X143466116Y-86481247D01*
X143598166Y-86543800D01*
X143681951Y-86611374D01*
X143763050Y-86698546D01*
X143800465Y-86779696D01*
X143809972Y-86890411D01*
X143810000Y-86900213D01*
X144270662Y-86900213D01*
X144266046Y-86802062D01*
X144253066Y-86668220D01*
X144248370Y-86640008D01*
X144216011Y-86529580D01*
X144157822Y-86428263D01*
X144062701Y-86321856D01*
X143919546Y-86196157D01*
X143870242Y-86156287D01*
X143694626Y-86016000D01*
X142725615Y-86016000D01*
X142496736Y-86188357D01*
G36*
X145584559Y-86133316D02*
X145481119Y-86223708D01*
X145428477Y-86305424D01*
X145413091Y-86374710D01*
X145429723Y-86499333D01*
X145495844Y-86587058D01*
X145594823Y-86630903D01*
X145710032Y-86623885D01*
X145824838Y-86559018D01*
X145833409Y-86551214D01*
X145878399Y-86515321D01*
X145932963Y-86490907D01*
X146012283Y-86475144D01*
X146131544Y-86465203D01*
X146305926Y-86458258D01*
X146337619Y-86457305D01*
X146563789Y-86452910D01*
X146726539Y-86456153D01*
X146834774Y-86468677D01*
X146897398Y-86492125D01*
X146923315Y-86528141D01*
X146923856Y-86565496D01*
X146905812Y-86598929D01*
X146856084Y-86640215D01*
X146767193Y-86693536D01*
X146631661Y-86763073D01*
X146442012Y-86853005D01*
X146263609Y-86934611D01*
X146040931Y-87038422D01*
X145842842Y-87136433D01*
X145680373Y-87222818D01*
X145564554Y-87291752D01*
X145511566Y-87331731D01*
X145406080Y-87485192D01*
X145351830Y-87670008D01*
X145348436Y-87866521D01*
X145395518Y-88055073D01*
X145492694Y-88216005D01*
X145529422Y-88253991D01*
X145639760Y-88335734D01*
X145761630Y-88397479D01*
X145793217Y-88408003D01*
X145886343Y-88422707D01*
X146033722Y-88433396D01*
X146217872Y-88440061D01*
X146421310Y-88442692D01*
X146626552Y-88441281D01*
X146816116Y-88435817D01*
X146972519Y-88426292D01*
X147078278Y-88412696D01*
X147094620Y-88408700D01*
X147199647Y-88359162D01*
X147308505Y-88278723D01*
X147402430Y-88185093D01*
X147462659Y-88095985D01*
X147474857Y-88049792D01*
X147447205Y-87920659D01*
X147372754Y-87837983D01*
X147264266Y-87806758D01*
X147134502Y-87831975D01*
X147044302Y-87881337D01*
X146985014Y-87919737D01*
X146927696Y-87945972D01*
X146857270Y-87962350D01*
X146758659Y-87971180D01*
X146616784Y-87974769D01*
X146429693Y-87975428D01*
X146231765Y-87974425D01*
X146093029Y-87970243D01*
X146000120Y-87961124D01*
X145939673Y-87945307D01*
X145898321Y-87921035D01*
X145878286Y-87902857D01*
X145827003Y-87840083D01*
X145809563Y-87781450D01*
X145831313Y-87722229D01*
X145897604Y-87657693D01*
X146013784Y-87583112D01*
X146185202Y-87493757D01*
X146417207Y-87384901D01*
X146513286Y-87341510D01*
X146762370Y-87228647D01*
X146953418Y-87138726D01*
X147095278Y-87066530D01*
X147196800Y-87006841D01*
X147266832Y-86954441D01*
X147314222Y-86904112D01*
X147347819Y-86850636D01*
X147348737Y-86848870D01*
X147387416Y-86723148D01*
X147400557Y-86566416D01*
X147388378Y-86410438D01*
X147351097Y-86286976D01*
X147344795Y-86275598D01*
X147293485Y-86196209D01*
X147239928Y-86136289D01*
X147173323Y-86092888D01*
X147082872Y-86063060D01*
X146957775Y-86043857D01*
X146787233Y-86032330D01*
X146560446Y-86025533D01*
X146419130Y-86022929D01*
X145744403Y-86011715D01*
X145584559Y-86133316D01*
X145584559Y-86133316D01*
G37*
X145584559Y-86133316D02*
X145481119Y-86223708D01*
X145428477Y-86305424D01*
X145413091Y-86374710D01*
X145429723Y-86499333D01*
X145495844Y-86587058D01*
X145594823Y-86630903D01*
X145710032Y-86623885D01*
X145824838Y-86559018D01*
X145833409Y-86551214D01*
X145878399Y-86515321D01*
X145932963Y-86490907D01*
X146012283Y-86475144D01*
X146131544Y-86465203D01*
X146305926Y-86458258D01*
X146337619Y-86457305D01*
X146563789Y-86452910D01*
X146726539Y-86456153D01*
X146834774Y-86468677D01*
X146897398Y-86492125D01*
X146923315Y-86528141D01*
X146923856Y-86565496D01*
X146905812Y-86598929D01*
X146856084Y-86640215D01*
X146767193Y-86693536D01*
X146631661Y-86763073D01*
X146442012Y-86853005D01*
X146263609Y-86934611D01*
X146040931Y-87038422D01*
X145842842Y-87136433D01*
X145680373Y-87222818D01*
X145564554Y-87291752D01*
X145511566Y-87331731D01*
X145406080Y-87485192D01*
X145351830Y-87670008D01*
X145348436Y-87866521D01*
X145395518Y-88055073D01*
X145492694Y-88216005D01*
X145529422Y-88253991D01*
X145639760Y-88335734D01*
X145761630Y-88397479D01*
X145793217Y-88408003D01*
X145886343Y-88422707D01*
X146033722Y-88433396D01*
X146217872Y-88440061D01*
X146421310Y-88442692D01*
X146626552Y-88441281D01*
X146816116Y-88435817D01*
X146972519Y-88426292D01*
X147078278Y-88412696D01*
X147094620Y-88408700D01*
X147199647Y-88359162D01*
X147308505Y-88278723D01*
X147402430Y-88185093D01*
X147462659Y-88095985D01*
X147474857Y-88049792D01*
X147447205Y-87920659D01*
X147372754Y-87837983D01*
X147264266Y-87806758D01*
X147134502Y-87831975D01*
X147044302Y-87881337D01*
X146985014Y-87919737D01*
X146927696Y-87945972D01*
X146857270Y-87962350D01*
X146758659Y-87971180D01*
X146616784Y-87974769D01*
X146429693Y-87975428D01*
X146231765Y-87974425D01*
X146093029Y-87970243D01*
X146000120Y-87961124D01*
X145939673Y-87945307D01*
X145898321Y-87921035D01*
X145878286Y-87902857D01*
X145827003Y-87840083D01*
X145809563Y-87781450D01*
X145831313Y-87722229D01*
X145897604Y-87657693D01*
X146013784Y-87583112D01*
X146185202Y-87493757D01*
X146417207Y-87384901D01*
X146513286Y-87341510D01*
X146762370Y-87228647D01*
X146953418Y-87138726D01*
X147095278Y-87066530D01*
X147196800Y-87006841D01*
X147266832Y-86954441D01*
X147314222Y-86904112D01*
X147347819Y-86850636D01*
X147348737Y-86848870D01*
X147387416Y-86723148D01*
X147400557Y-86566416D01*
X147388378Y-86410438D01*
X147351097Y-86286976D01*
X147344795Y-86275598D01*
X147293485Y-86196209D01*
X147239928Y-86136289D01*
X147173323Y-86092888D01*
X147082872Y-86063060D01*
X146957775Y-86043857D01*
X146787233Y-86032330D01*
X146560446Y-86025533D01*
X146419130Y-86022929D01*
X145744403Y-86011715D01*
X145584559Y-86133316D01*
G36*
X137969902Y-89461168D02*
X137941637Y-89534632D01*
X137938922Y-89557095D01*
X137960009Y-89680660D01*
X138035432Y-89791076D01*
X138147154Y-89869859D01*
X138272153Y-89898571D01*
X138364188Y-89889330D01*
X138409328Y-89852319D01*
X138423833Y-89811765D01*
X138420558Y-89690388D01*
X138360916Y-89577068D01*
X138260738Y-89487226D01*
X138135855Y-89436281D01*
X138034946Y-89432953D01*
X137969902Y-89461168D01*
X137969902Y-89461168D01*
G37*
X137969902Y-89461168D02*
X137941637Y-89534632D01*
X137938922Y-89557095D01*
X137960009Y-89680660D01*
X138035432Y-89791076D01*
X138147154Y-89869859D01*
X138272153Y-89898571D01*
X138364188Y-89889330D01*
X138409328Y-89852319D01*
X138423833Y-89811765D01*
X138420558Y-89690388D01*
X138360916Y-89577068D01*
X138260738Y-89487226D01*
X138135855Y-89436281D01*
X138034946Y-89432953D01*
X137969902Y-89461168D01*
G36*
X140688912Y-89432284D02*
X140622643Y-89457339D01*
X140592865Y-89522231D01*
X140587310Y-89563386D01*
X140603528Y-89671976D01*
X140663281Y-89768970D01*
X140751022Y-89845430D01*
X140851202Y-89892419D01*
X140948273Y-89900998D01*
X141026687Y-89862230D01*
X141050370Y-89829580D01*
X141068696Y-89727190D01*
X141031236Y-89620565D01*
X140952050Y-89525164D01*
X140845202Y-89456441D01*
X140724753Y-89429853D01*
X140688912Y-89432284D01*
X140688912Y-89432284D01*
G37*
X140688912Y-89432284D02*
X140622643Y-89457339D01*
X140592865Y-89522231D01*
X140587310Y-89563386D01*
X140603528Y-89671976D01*
X140663281Y-89768970D01*
X140751022Y-89845430D01*
X140851202Y-89892419D01*
X140948273Y-89900998D01*
X141026687Y-89862230D01*
X141050370Y-89829580D01*
X141068696Y-89727190D01*
X141031236Y-89620565D01*
X140952050Y-89525164D01*
X140845202Y-89456441D01*
X140724753Y-89429853D01*
X140688912Y-89432284D01*
G36*
X136503423Y-89054130D02*
X136408210Y-89125525D01*
X136369486Y-89230114D01*
X136393573Y-89356116D01*
X136434179Y-89427854D01*
X136459401Y-89469722D01*
X136446606Y-89473729D01*
X136388870Y-89437297D01*
X136313112Y-89382765D01*
X136098075Y-89242318D01*
X135880972Y-89131485D01*
X135678714Y-89057597D01*
X135508214Y-89027986D01*
X135494092Y-89027743D01*
X135346151Y-89045457D01*
X135255344Y-89102790D01*
X135214390Y-89205930D01*
X135210286Y-89269066D01*
X135218725Y-89343518D01*
X135251187Y-89414835D01*
X135318385Y-89500271D01*
X135418929Y-89605003D01*
X135564009Y-89732708D01*
X135748016Y-89869767D01*
X135948601Y-90001568D01*
X136143414Y-90113500D01*
X136310105Y-90190952D01*
X136321911Y-90195350D01*
X136393878Y-90242696D01*
X136475432Y-90326778D01*
X136553671Y-90429244D01*
X136615694Y-90531738D01*
X136648599Y-90615906D01*
X136646076Y-90656520D01*
X136598370Y-90669264D01*
X136497050Y-90638326D01*
X136340970Y-90563243D01*
X136155382Y-90459099D01*
X136019322Y-90388119D01*
X135917714Y-90351974D01*
X135857673Y-90350518D01*
X135846314Y-90383598D01*
X135890752Y-90451068D01*
X135902906Y-90464397D01*
X135998483Y-90542469D01*
X136140934Y-90630671D01*
X136311237Y-90720097D01*
X136490368Y-90801843D01*
X136659304Y-90867003D01*
X136799022Y-90906673D01*
X136864571Y-90914571D01*
X137016936Y-90889383D01*
X137119770Y-90817065D01*
X137167176Y-90702484D01*
X137169715Y-90662750D01*
X137169715Y-90556072D01*
X137477335Y-90719717D01*
X137722224Y-90833193D01*
X137933856Y-90896596D01*
X138107023Y-90908972D01*
X138236518Y-90869371D01*
X138249215Y-90860835D01*
X138297363Y-90813545D01*
X138322133Y-90746624D01*
X138330502Y-90637191D01*
X138330514Y-90635635D01*
X137822857Y-90635635D01*
X137811348Y-90666659D01*
X137771334Y-90671114D01*
X137694583Y-90646269D01*
X137572865Y-90589394D01*
X137397950Y-90497760D01*
X137383131Y-90489774D01*
X137243468Y-90407383D01*
X137152132Y-90332275D01*
X137089353Y-90246643D01*
X137068060Y-90205971D01*
X136995189Y-90079594D01*
X136903197Y-89949348D01*
X136874001Y-89913669D01*
X136116579Y-89913669D01*
X136098914Y-89915853D01*
X136091024Y-89911771D01*
X136013055Y-89857213D01*
X135904003Y-89765815D01*
X135782514Y-89653586D01*
X135730161Y-89601969D01*
X135604634Y-89471304D01*
X135531266Y-89386379D01*
X135506746Y-89346135D01*
X135527768Y-89349513D01*
X135591023Y-89395453D01*
X135693202Y-89482898D01*
X135830997Y-89610787D01*
X135867499Y-89645927D01*
X135998730Y-89776159D01*
X136082470Y-89866255D01*
X136116579Y-89913669D01*
X136874001Y-89913669D01*
X136872787Y-89912186D01*
X136752429Y-89772599D01*
X136861286Y-89843361D01*
X136985367Y-89920856D01*
X137126466Y-90004112D01*
X137269145Y-90084636D01*
X137397969Y-90153934D01*
X137497502Y-90203513D01*
X137552307Y-90224878D01*
X137555125Y-90225142D01*
X137597629Y-90254245D01*
X137658652Y-90327733D01*
X137724672Y-90424874D01*
X137782169Y-90524938D01*
X137817621Y-90607194D01*
X137822857Y-90635635D01*
X138330514Y-90635635D01*
X138330857Y-90593067D01*
X138309063Y-90397469D01*
X138239884Y-90206610D01*
X138117627Y-90009657D01*
X138024762Y-89899937D01*
X137274574Y-89899937D01*
X137262455Y-89902487D01*
X137208086Y-89869618D01*
X137206000Y-89868234D01*
X137096174Y-89785482D01*
X136966004Y-89673420D01*
X136845269Y-89557887D01*
X136735095Y-89440818D01*
X136675906Y-89368555D01*
X136663291Y-89339020D01*
X136692843Y-89350134D01*
X136760152Y-89399817D01*
X136860809Y-89485992D01*
X136990406Y-89606580D01*
X137030003Y-89644980D01*
X137161091Y-89774663D01*
X137241700Y-89858489D01*
X137274574Y-89899937D01*
X138024762Y-89899937D01*
X137936599Y-89795774D01*
X137881995Y-89738902D01*
X137616794Y-89492790D01*
X137352209Y-89294103D01*
X137096075Y-89147357D01*
X136856227Y-89057073D01*
X136648806Y-89027714D01*
X136503423Y-89054130D01*
X136503423Y-89054130D01*
G37*
X136503423Y-89054130D02*
X136408210Y-89125525D01*
X136369486Y-89230114D01*
X136393573Y-89356116D01*
X136434179Y-89427854D01*
X136459401Y-89469722D01*
X136446606Y-89473729D01*
X136388870Y-89437297D01*
X136313112Y-89382765D01*
X136098075Y-89242318D01*
X135880972Y-89131485D01*
X135678714Y-89057597D01*
X135508214Y-89027986D01*
X135494092Y-89027743D01*
X135346151Y-89045457D01*
X135255344Y-89102790D01*
X135214390Y-89205930D01*
X135210286Y-89269066D01*
X135218725Y-89343518D01*
X135251187Y-89414835D01*
X135318385Y-89500271D01*
X135418929Y-89605003D01*
X135564009Y-89732708D01*
X135748016Y-89869767D01*
X135948601Y-90001568D01*
X136143414Y-90113500D01*
X136310105Y-90190952D01*
X136321911Y-90195350D01*
X136393878Y-90242696D01*
X136475432Y-90326778D01*
X136553671Y-90429244D01*
X136615694Y-90531738D01*
X136648599Y-90615906D01*
X136646076Y-90656520D01*
X136598370Y-90669264D01*
X136497050Y-90638326D01*
X136340970Y-90563243D01*
X136155382Y-90459099D01*
X136019322Y-90388119D01*
X135917714Y-90351974D01*
X135857673Y-90350518D01*
X135846314Y-90383598D01*
X135890752Y-90451068D01*
X135902906Y-90464397D01*
X135998483Y-90542469D01*
X136140934Y-90630671D01*
X136311237Y-90720097D01*
X136490368Y-90801843D01*
X136659304Y-90867003D01*
X136799022Y-90906673D01*
X136864571Y-90914571D01*
X137016936Y-90889383D01*
X137119770Y-90817065D01*
X137167176Y-90702484D01*
X137169715Y-90662750D01*
X137169715Y-90556072D01*
X137477335Y-90719717D01*
X137722224Y-90833193D01*
X137933856Y-90896596D01*
X138107023Y-90908972D01*
X138236518Y-90869371D01*
X138249215Y-90860835D01*
X138297363Y-90813545D01*
X138322133Y-90746624D01*
X138330502Y-90637191D01*
X138330514Y-90635635D01*
X137822857Y-90635635D01*
X137811348Y-90666659D01*
X137771334Y-90671114D01*
X137694583Y-90646269D01*
X137572865Y-90589394D01*
X137397950Y-90497760D01*
X137383131Y-90489774D01*
X137243468Y-90407383D01*
X137152132Y-90332275D01*
X137089353Y-90246643D01*
X137068060Y-90205971D01*
X136995189Y-90079594D01*
X136903197Y-89949348D01*
X136874001Y-89913669D01*
X136116579Y-89913669D01*
X136098914Y-89915853D01*
X136091024Y-89911771D01*
X136013055Y-89857213D01*
X135904003Y-89765815D01*
X135782514Y-89653586D01*
X135730161Y-89601969D01*
X135604634Y-89471304D01*
X135531266Y-89386379D01*
X135506746Y-89346135D01*
X135527768Y-89349513D01*
X135591023Y-89395453D01*
X135693202Y-89482898D01*
X135830997Y-89610787D01*
X135867499Y-89645927D01*
X135998730Y-89776159D01*
X136082470Y-89866255D01*
X136116579Y-89913669D01*
X136874001Y-89913669D01*
X136872787Y-89912186D01*
X136752429Y-89772599D01*
X136861286Y-89843361D01*
X136985367Y-89920856D01*
X137126466Y-90004112D01*
X137269145Y-90084636D01*
X137397969Y-90153934D01*
X137497502Y-90203513D01*
X137552307Y-90224878D01*
X137555125Y-90225142D01*
X137597629Y-90254245D01*
X137658652Y-90327733D01*
X137724672Y-90424874D01*
X137782169Y-90524938D01*
X137817621Y-90607194D01*
X137822857Y-90635635D01*
X138330514Y-90635635D01*
X138330857Y-90593067D01*
X138309063Y-90397469D01*
X138239884Y-90206610D01*
X138117627Y-90009657D01*
X138024762Y-89899937D01*
X137274574Y-89899937D01*
X137262455Y-89902487D01*
X137208086Y-89869618D01*
X137206000Y-89868234D01*
X137096174Y-89785482D01*
X136966004Y-89673420D01*
X136845269Y-89557887D01*
X136735095Y-89440818D01*
X136675906Y-89368555D01*
X136663291Y-89339020D01*
X136692843Y-89350134D01*
X136760152Y-89399817D01*
X136860809Y-89485992D01*
X136990406Y-89606580D01*
X137030003Y-89644980D01*
X137161091Y-89774663D01*
X137241700Y-89858489D01*
X137274574Y-89899937D01*
X138024762Y-89899937D01*
X137936599Y-89795774D01*
X137881995Y-89738902D01*
X137616794Y-89492790D01*
X137352209Y-89294103D01*
X137096075Y-89147357D01*
X136856227Y-89057073D01*
X136648806Y-89027714D01*
X136503423Y-89054130D01*
G36*
X134868766Y-89696006D02*
X134749783Y-89745666D01*
X134685190Y-89829404D01*
X134676785Y-89931288D01*
X134726369Y-90035388D01*
X134821188Y-90117275D01*
X134923109Y-90165056D01*
X135020004Y-90187760D01*
X135093923Y-90184511D01*
X135126915Y-90154431D01*
X135123682Y-90132055D01*
X135130162Y-90095720D01*
X135194291Y-90102965D01*
X135316202Y-90153819D01*
X135391715Y-90191862D01*
X135518715Y-90258221D01*
X135346358Y-90259825D01*
X135242051Y-90264184D01*
X135191284Y-90281466D01*
X135175077Y-90321811D01*
X135174000Y-90351915D01*
X135199876Y-90433778D01*
X135283550Y-90520374D01*
X135321496Y-90549247D01*
X135415637Y-90614469D01*
X135489457Y-90660381D01*
X135511996Y-90671507D01*
X135537563Y-90700535D01*
X135531936Y-90711930D01*
X135492544Y-90706199D01*
X135403426Y-90671504D01*
X135278490Y-90613771D01*
X135155064Y-90551298D01*
X134985860Y-90465778D01*
X134869507Y-90415432D01*
X134797260Y-90397058D01*
X134760843Y-90406966D01*
X134754016Y-90454114D01*
X134810307Y-90519102D01*
X134931412Y-90603215D01*
X135119027Y-90707735D01*
X135237643Y-90767722D01*
X135446374Y-90859847D01*
X135631194Y-90920415D01*
X135736909Y-90940462D01*
X135851757Y-90948325D01*
X135919725Y-90937326D01*
X135965446Y-90900948D01*
X135985194Y-90874748D01*
X136029851Y-90788205D01*
X136044858Y-90722277D01*
X136017524Y-90650656D01*
X135947751Y-90560097D01*
X135853879Y-90471315D01*
X135772715Y-90414897D01*
X135724159Y-90382468D01*
X135730922Y-90354402D01*
X135781786Y-90315483D01*
X135849713Y-90235241D01*
X135856239Y-90143382D01*
X135814964Y-90055809D01*
X135053048Y-90055809D01*
X135048067Y-90077381D01*
X135028858Y-90080000D01*
X134998990Y-90066723D01*
X135004667Y-90055809D01*
X135047730Y-90051466D01*
X135053048Y-90055809D01*
X135814964Y-90055809D01*
X135810339Y-90045997D01*
X135720992Y-89949177D01*
X135597174Y-89859012D01*
X135447861Y-89781592D01*
X135282030Y-89723009D01*
X135108658Y-89689354D01*
X134936722Y-89686715D01*
X134868766Y-89696006D01*
X134868766Y-89696006D01*
G37*
X134868766Y-89696006D02*
X134749783Y-89745666D01*
X134685190Y-89829404D01*
X134676785Y-89931288D01*
X134726369Y-90035388D01*
X134821188Y-90117275D01*
X134923109Y-90165056D01*
X135020004Y-90187760D01*
X135093923Y-90184511D01*
X135126915Y-90154431D01*
X135123682Y-90132055D01*
X135130162Y-90095720D01*
X135194291Y-90102965D01*
X135316202Y-90153819D01*
X135391715Y-90191862D01*
X135518715Y-90258221D01*
X135346358Y-90259825D01*
X135242051Y-90264184D01*
X135191284Y-90281466D01*
X135175077Y-90321811D01*
X135174000Y-90351915D01*
X135199876Y-90433778D01*
X135283550Y-90520374D01*
X135321496Y-90549247D01*
X135415637Y-90614469D01*
X135489457Y-90660381D01*
X135511996Y-90671507D01*
X135537563Y-90700535D01*
X135531936Y-90711930D01*
X135492544Y-90706199D01*
X135403426Y-90671504D01*
X135278490Y-90613771D01*
X135155064Y-90551298D01*
X134985860Y-90465778D01*
X134869507Y-90415432D01*
X134797260Y-90397058D01*
X134760843Y-90406966D01*
X134754016Y-90454114D01*
X134810307Y-90519102D01*
X134931412Y-90603215D01*
X135119027Y-90707735D01*
X135237643Y-90767722D01*
X135446374Y-90859847D01*
X135631194Y-90920415D01*
X135736909Y-90940462D01*
X135851757Y-90948325D01*
X135919725Y-90937326D01*
X135965446Y-90900948D01*
X135985194Y-90874748D01*
X136029851Y-90788205D01*
X136044858Y-90722277D01*
X136017524Y-90650656D01*
X135947751Y-90560097D01*
X135853879Y-90471315D01*
X135772715Y-90414897D01*
X135724159Y-90382468D01*
X135730922Y-90354402D01*
X135781786Y-90315483D01*
X135849713Y-90235241D01*
X135856239Y-90143382D01*
X135814964Y-90055809D01*
X135053048Y-90055809D01*
X135048067Y-90077381D01*
X135028858Y-90080000D01*
X134998990Y-90066723D01*
X135004667Y-90055809D01*
X135047730Y-90051466D01*
X135053048Y-90055809D01*
X135814964Y-90055809D01*
X135810339Y-90045997D01*
X135720992Y-89949177D01*
X135597174Y-89859012D01*
X135447861Y-89781592D01*
X135282030Y-89723009D01*
X135108658Y-89689354D01*
X134936722Y-89686715D01*
X134868766Y-89696006D01*
G36*
X138424183Y-89986988D02*
X138383800Y-90008662D01*
X138339680Y-90089428D01*
X138353150Y-90206093D01*
X138421773Y-90353773D01*
X138543110Y-90527583D01*
X138714725Y-90722636D01*
X138766231Y-90775179D01*
X138911295Y-90905635D01*
X139027206Y-90975196D01*
X139120214Y-90986320D01*
X139194458Y-90943600D01*
X139223479Y-90880279D01*
X139237708Y-90781934D01*
X139238000Y-90766133D01*
X139212614Y-90638279D01*
X139143694Y-90499867D01*
X139042102Y-90360527D01*
X138918699Y-90229889D01*
X138784345Y-90117586D01*
X138649900Y-90033248D01*
X138526226Y-89986505D01*
X138424183Y-89986988D01*
X138424183Y-89986988D01*
G37*
X138424183Y-89986988D02*
X138383800Y-90008662D01*
X138339680Y-90089428D01*
X138353150Y-90206093D01*
X138421773Y-90353773D01*
X138543110Y-90527583D01*
X138714725Y-90722636D01*
X138766231Y-90775179D01*
X138911295Y-90905635D01*
X139027206Y-90975196D01*
X139120214Y-90986320D01*
X139194458Y-90943600D01*
X139223479Y-90880279D01*
X139237708Y-90781934D01*
X139238000Y-90766133D01*
X139212614Y-90638279D01*
X139143694Y-90499867D01*
X139042102Y-90360527D01*
X138918699Y-90229889D01*
X138784345Y-90117586D01*
X138649900Y-90033248D01*
X138526226Y-89986505D01*
X138424183Y-89986988D01*
G36*
X143434042Y-89034930D02*
X143365416Y-89062286D01*
X143317773Y-89116954D01*
X143276699Y-89218053D01*
X143288436Y-89324621D01*
X143356515Y-89445126D01*
X143484468Y-89588039D01*
X143534017Y-89635576D01*
X143752610Y-89813833D01*
X144034735Y-90000544D01*
X144372621Y-90190649D01*
X144441109Y-90226036D01*
X144506020Y-90277755D01*
X144578519Y-90362506D01*
X144647443Y-90462503D01*
X144701630Y-90559957D01*
X144729918Y-90637080D01*
X144722938Y-90675132D01*
X144676597Y-90669857D01*
X144584291Y-90637023D01*
X144464062Y-90583279D01*
X144435195Y-90569079D01*
X144284511Y-90485924D01*
X144190181Y-90412895D01*
X144138955Y-90339579D01*
X144136789Y-90334523D01*
X144050728Y-90196868D01*
X143918857Y-90066993D01*
X143759408Y-89956126D01*
X143590611Y-89875496D01*
X143430696Y-89836329D01*
X143333350Y-89839687D01*
X143207515Y-89884678D01*
X143134006Y-89952294D01*
X143119083Y-90031446D01*
X143169002Y-90111045D01*
X143176538Y-90117562D01*
X143210123Y-90171215D01*
X143198022Y-90198493D01*
X143139184Y-90211373D01*
X143038458Y-90191054D01*
X142914928Y-90143701D01*
X142787673Y-90075479D01*
X142758363Y-90056460D01*
X142614359Y-89984851D01*
X142494936Y-89980713D01*
X142415592Y-90028163D01*
X142368663Y-90092802D01*
X142370897Y-90157109D01*
X142426439Y-90237054D01*
X142485572Y-90297714D01*
X142560154Y-90379260D01*
X142605830Y-90447040D01*
X142612572Y-90469050D01*
X142589591Y-90495046D01*
X142525892Y-90472256D01*
X142429338Y-90405801D01*
X142307791Y-90300805D01*
X142214668Y-90209795D01*
X142091201Y-90092966D01*
X141995743Y-90028949D01*
X141913729Y-90011785D01*
X141830595Y-90035514D01*
X141811901Y-90044991D01*
X141751602Y-90110734D01*
X141755815Y-90207864D01*
X141824326Y-90334943D01*
X141862209Y-90384691D01*
X141936501Y-90478831D01*
X141993308Y-90555011D01*
X142011136Y-90581587D01*
X142005921Y-90593506D01*
X141958303Y-90567512D01*
X141880805Y-90513120D01*
X141785951Y-90439847D01*
X141686266Y-90357207D01*
X141594274Y-90274718D01*
X141549585Y-90230903D01*
X141421251Y-90118574D01*
X141289094Y-90035341D01*
X141169012Y-89988832D01*
X141076903Y-89986680D01*
X141058238Y-89995098D01*
X141010654Y-90056758D01*
X140987061Y-90139468D01*
X141005677Y-90232639D01*
X141068593Y-90356574D01*
X141164141Y-90497714D01*
X141280653Y-90642497D01*
X141406460Y-90777362D01*
X141529897Y-90888751D01*
X141639293Y-90963101D01*
X141716419Y-90987142D01*
X141819800Y-90959118D01*
X141878878Y-90884484D01*
X141886858Y-90834742D01*
X141887064Y-90793649D01*
X141897869Y-90776855D01*
X141934552Y-90786345D01*
X142012390Y-90824105D01*
X142083507Y-90860294D01*
X142213375Y-90912991D01*
X142343912Y-90945645D01*
X142400316Y-90950857D01*
X142494827Y-90943228D01*
X142541884Y-90911214D01*
X142561365Y-90860224D01*
X142571253Y-90769544D01*
X142563195Y-90715081D01*
X142551032Y-90679556D01*
X142557814Y-90666760D01*
X142595739Y-90680003D01*
X142677007Y-90722598D01*
X142760989Y-90768771D01*
X142915940Y-90844189D01*
X143029366Y-90872915D01*
X143114130Y-90856309D01*
X143169377Y-90811928D01*
X143223015Y-90702089D01*
X143211165Y-90568023D01*
X143157255Y-90451928D01*
X143112522Y-90375230D01*
X143105708Y-90342061D01*
X143136663Y-90334169D01*
X143156276Y-90334000D01*
X143223535Y-90367406D01*
X143309091Y-90464083D01*
X143350619Y-90524500D01*
X143505874Y-90733641D01*
X143657464Y-90874440D01*
X143809511Y-90950705D01*
X143812492Y-90951571D01*
X143924876Y-90979648D01*
X143998807Y-90979984D01*
X144064396Y-90948617D01*
X144113535Y-90911937D01*
X144193071Y-90812976D01*
X144209143Y-90737139D01*
X144209143Y-90700175D01*
X143769381Y-90700175D01*
X143740893Y-90709812D01*
X143677653Y-90668742D01*
X143585538Y-90576803D01*
X143548390Y-90533571D01*
X143474639Y-90436573D01*
X143418544Y-90347862D01*
X143389446Y-90284001D01*
X143394908Y-90261428D01*
X143455625Y-90287075D01*
X143539869Y-90351752D01*
X143626794Y-90437063D01*
X143695555Y-90524611D01*
X143698585Y-90529432D01*
X143757238Y-90639995D01*
X143769381Y-90700175D01*
X144209143Y-90700175D01*
X144209143Y-90637546D01*
X144464053Y-90764077D01*
X144677144Y-90853930D01*
X144866854Y-90902834D01*
X145023211Y-90909586D01*
X145136244Y-90872985D01*
X145164776Y-90848562D01*
X145213271Y-90764299D01*
X145247337Y-90651062D01*
X145250836Y-90629356D01*
X145240225Y-90457626D01*
X145171698Y-90266119D01*
X145054210Y-90063251D01*
X144948001Y-89924458D01*
X144220842Y-89924458D01*
X144197535Y-89924203D01*
X144184334Y-89918313D01*
X144102497Y-89867072D01*
X143990569Y-89781642D01*
X143870178Y-89678744D01*
X143847076Y-89657622D01*
X143725509Y-89540068D01*
X143635013Y-89442703D01*
X143580768Y-89372474D01*
X143567959Y-89336325D01*
X143601766Y-89341204D01*
X143616754Y-89348901D01*
X143668530Y-89387653D01*
X143759083Y-89465394D01*
X143875209Y-89570472D01*
X143991429Y-89679506D01*
X144119992Y-89804835D01*
X144195729Y-89885577D01*
X144220842Y-89924458D01*
X144948001Y-89924458D01*
X144896716Y-89857440D01*
X144708172Y-89657103D01*
X144497532Y-89470656D01*
X144273751Y-89306518D01*
X144045785Y-89173105D01*
X143822588Y-89078834D01*
X143613115Y-89032123D01*
X143547765Y-89028575D01*
X143434042Y-89034930D01*
X143434042Y-89034930D01*
G37*
X143434042Y-89034930D02*
X143365416Y-89062286D01*
X143317773Y-89116954D01*
X143276699Y-89218053D01*
X143288436Y-89324621D01*
X143356515Y-89445126D01*
X143484468Y-89588039D01*
X143534017Y-89635576D01*
X143752610Y-89813833D01*
X144034735Y-90000544D01*
X144372621Y-90190649D01*
X144441109Y-90226036D01*
X144506020Y-90277755D01*
X144578519Y-90362506D01*
X144647443Y-90462503D01*
X144701630Y-90559957D01*
X144729918Y-90637080D01*
X144722938Y-90675132D01*
X144676597Y-90669857D01*
X144584291Y-90637023D01*
X144464062Y-90583279D01*
X144435195Y-90569079D01*
X144284511Y-90485924D01*
X144190181Y-90412895D01*
X144138955Y-90339579D01*
X144136789Y-90334523D01*
X144050728Y-90196868D01*
X143918857Y-90066993D01*
X143759408Y-89956126D01*
X143590611Y-89875496D01*
X143430696Y-89836329D01*
X143333350Y-89839687D01*
X143207515Y-89884678D01*
X143134006Y-89952294D01*
X143119083Y-90031446D01*
X143169002Y-90111045D01*
X143176538Y-90117562D01*
X143210123Y-90171215D01*
X143198022Y-90198493D01*
X143139184Y-90211373D01*
X143038458Y-90191054D01*
X142914928Y-90143701D01*
X142787673Y-90075479D01*
X142758363Y-90056460D01*
X142614359Y-89984851D01*
X142494936Y-89980713D01*
X142415592Y-90028163D01*
X142368663Y-90092802D01*
X142370897Y-90157109D01*
X142426439Y-90237054D01*
X142485572Y-90297714D01*
X142560154Y-90379260D01*
X142605830Y-90447040D01*
X142612572Y-90469050D01*
X142589591Y-90495046D01*
X142525892Y-90472256D01*
X142429338Y-90405801D01*
X142307791Y-90300805D01*
X142214668Y-90209795D01*
X142091201Y-90092966D01*
X141995743Y-90028949D01*
X141913729Y-90011785D01*
X141830595Y-90035514D01*
X141811901Y-90044991D01*
X141751602Y-90110734D01*
X141755815Y-90207864D01*
X141824326Y-90334943D01*
X141862209Y-90384691D01*
X141936501Y-90478831D01*
X141993308Y-90555011D01*
X142011136Y-90581587D01*
X142005921Y-90593506D01*
X141958303Y-90567512D01*
X141880805Y-90513120D01*
X141785951Y-90439847D01*
X141686266Y-90357207D01*
X141594274Y-90274718D01*
X141549585Y-90230903D01*
X141421251Y-90118574D01*
X141289094Y-90035341D01*
X141169012Y-89988832D01*
X141076903Y-89986680D01*
X141058238Y-89995098D01*
X141010654Y-90056758D01*
X140987061Y-90139468D01*
X141005677Y-90232639D01*
X141068593Y-90356574D01*
X141164141Y-90497714D01*
X141280653Y-90642497D01*
X141406460Y-90777362D01*
X141529897Y-90888751D01*
X141639293Y-90963101D01*
X141716419Y-90987142D01*
X141819800Y-90959118D01*
X141878878Y-90884484D01*
X141886858Y-90834742D01*
X141887064Y-90793649D01*
X141897869Y-90776855D01*
X141934552Y-90786345D01*
X142012390Y-90824105D01*
X142083507Y-90860294D01*
X142213375Y-90912991D01*
X142343912Y-90945645D01*
X142400316Y-90950857D01*
X142494827Y-90943228D01*
X142541884Y-90911214D01*
X142561365Y-90860224D01*
X142571253Y-90769544D01*
X142563195Y-90715081D01*
X142551032Y-90679556D01*
X142557814Y-90666760D01*
X142595739Y-90680003D01*
X142677007Y-90722598D01*
X142760989Y-90768771D01*
X142915940Y-90844189D01*
X143029366Y-90872915D01*
X143114130Y-90856309D01*
X143169377Y-90811928D01*
X143223015Y-90702089D01*
X143211165Y-90568023D01*
X143157255Y-90451928D01*
X143112522Y-90375230D01*
X143105708Y-90342061D01*
X143136663Y-90334169D01*
X143156276Y-90334000D01*
X143223535Y-90367406D01*
X143309091Y-90464083D01*
X143350619Y-90524500D01*
X143505874Y-90733641D01*
X143657464Y-90874440D01*
X143809511Y-90950705D01*
X143812492Y-90951571D01*
X143924876Y-90979648D01*
X143998807Y-90979984D01*
X144064396Y-90948617D01*
X144113535Y-90911937D01*
X144193071Y-90812976D01*
X144209143Y-90737139D01*
X144209143Y-90700175D01*
X143769381Y-90700175D01*
X143740893Y-90709812D01*
X143677653Y-90668742D01*
X143585538Y-90576803D01*
X143548390Y-90533571D01*
X143474639Y-90436573D01*
X143418544Y-90347862D01*
X143389446Y-90284001D01*
X143394908Y-90261428D01*
X143455625Y-90287075D01*
X143539869Y-90351752D01*
X143626794Y-90437063D01*
X143695555Y-90524611D01*
X143698585Y-90529432D01*
X143757238Y-90639995D01*
X143769381Y-90700175D01*
X144209143Y-90700175D01*
X144209143Y-90637546D01*
X144464053Y-90764077D01*
X144677144Y-90853930D01*
X144866854Y-90902834D01*
X145023211Y-90909586D01*
X145136244Y-90872985D01*
X145164776Y-90848562D01*
X145213271Y-90764299D01*
X145247337Y-90651062D01*
X145250836Y-90629356D01*
X145240225Y-90457626D01*
X145171698Y-90266119D01*
X145054210Y-90063251D01*
X144948001Y-89924458D01*
X144220842Y-89924458D01*
X144197535Y-89924203D01*
X144184334Y-89918313D01*
X144102497Y-89867072D01*
X143990569Y-89781642D01*
X143870178Y-89678744D01*
X143847076Y-89657622D01*
X143725509Y-89540068D01*
X143635013Y-89442703D01*
X143580768Y-89372474D01*
X143567959Y-89336325D01*
X143601766Y-89341204D01*
X143616754Y-89348901D01*
X143668530Y-89387653D01*
X143759083Y-89465394D01*
X143875209Y-89570472D01*
X143991429Y-89679506D01*
X144119992Y-89804835D01*
X144195729Y-89885577D01*
X144220842Y-89924458D01*
X144948001Y-89924458D01*
X144896716Y-89857440D01*
X144708172Y-89657103D01*
X144497532Y-89470656D01*
X144273751Y-89306518D01*
X144045785Y-89173105D01*
X143822588Y-89078834D01*
X143613115Y-89032123D01*
X143547765Y-89028575D01*
X143434042Y-89034930D01*
G36*
X139977711Y-89823122D02*
X139901064Y-89883189D01*
X139868961Y-89956175D01*
X139845922Y-90047970D01*
X139761684Y-89968833D01*
X139660240Y-89913699D01*
X139556363Y-89920299D01*
X139472148Y-89984908D01*
X139451124Y-90021155D01*
X139435071Y-90083741D01*
X139448139Y-90158542D01*
X139495019Y-90267404D01*
X139510769Y-90298949D01*
X139608822Y-90492446D01*
X139292270Y-90198993D01*
X139099149Y-90025833D01*
X138947180Y-89903842D01*
X138830163Y-89829193D01*
X138741901Y-89798058D01*
X138676196Y-89806609D01*
X138665958Y-89812274D01*
X138611035Y-89867243D01*
X138590971Y-89926796D01*
X138610863Y-89966378D01*
X138632965Y-89971142D01*
X138708260Y-89996306D01*
X138828929Y-90069043D01*
X138989420Y-90185221D01*
X139184183Y-90340708D01*
X139407666Y-90531373D01*
X139522600Y-90633357D01*
X139711441Y-90798977D01*
X139857528Y-90916403D01*
X139968596Y-90989571D01*
X140052379Y-91022417D01*
X140116614Y-91018875D01*
X140169034Y-90982882D01*
X140181684Y-90968693D01*
X140210120Y-90886386D01*
X140206219Y-90785216D01*
X140185327Y-90656476D01*
X140308095Y-90764267D01*
X140454134Y-90856324D01*
X140634068Y-90917534D01*
X140760695Y-90941456D01*
X140848244Y-90942497D01*
X140926896Y-90919457D01*
X140959822Y-90904570D01*
X141058337Y-90836241D01*
X141110216Y-90756019D01*
X141108223Y-90680208D01*
X141076261Y-90642206D01*
X141009781Y-90611038D01*
X140900602Y-90576016D01*
X140818433Y-90555334D01*
X140703822Y-90523835D01*
X140622742Y-90490803D01*
X140585485Y-90462538D01*
X140602343Y-90445338D01*
X140634661Y-90442857D01*
X140706652Y-90426822D01*
X140798746Y-90388188D01*
X140800088Y-90387496D01*
X140873083Y-90337003D01*
X140896099Y-90283925D01*
X140563753Y-90283925D01*
X140513922Y-90296874D01*
X140483865Y-90297714D01*
X140359476Y-90324706D01*
X140254893Y-90394353D01*
X140190932Y-90489663D01*
X140180616Y-90545276D01*
X140174909Y-90585794D01*
X140155218Y-90576278D01*
X140116091Y-90510646D01*
X140072572Y-90424714D01*
X140018297Y-90313212D01*
X139979454Y-90230924D01*
X139964528Y-90195871D01*
X139989256Y-90205526D01*
X140044360Y-90241228D01*
X140124653Y-90278506D01*
X140215241Y-90295777D01*
X140290854Y-90291402D01*
X140326221Y-90263740D01*
X140326572Y-90259541D01*
X140295952Y-90222578D01*
X140221666Y-90184849D01*
X140215862Y-90182774D01*
X140134732Y-90150247D01*
X140116616Y-90133451D01*
X140153551Y-90132992D01*
X140237573Y-90149475D01*
X140329472Y-90174132D01*
X140468215Y-90219902D01*
X140547413Y-90257383D01*
X140563753Y-90283925D01*
X140896099Y-90283925D01*
X140902809Y-90268453D01*
X140907143Y-90193549D01*
X140873394Y-90056883D01*
X140775287Y-89945497D01*
X140617536Y-89862400D01*
X140404850Y-89810599D01*
X140287436Y-89797932D01*
X140103357Y-89795892D01*
X139977711Y-89823122D01*
X139977711Y-89823122D01*
G37*
X139977711Y-89823122D02*
X139901064Y-89883189D01*
X139868961Y-89956175D01*
X139845922Y-90047970D01*
X139761684Y-89968833D01*
X139660240Y-89913699D01*
X139556363Y-89920299D01*
X139472148Y-89984908D01*
X139451124Y-90021155D01*
X139435071Y-90083741D01*
X139448139Y-90158542D01*
X139495019Y-90267404D01*
X139510769Y-90298949D01*
X139608822Y-90492446D01*
X139292270Y-90198993D01*
X139099149Y-90025833D01*
X138947180Y-89903842D01*
X138830163Y-89829193D01*
X138741901Y-89798058D01*
X138676196Y-89806609D01*
X138665958Y-89812274D01*
X138611035Y-89867243D01*
X138590971Y-89926796D01*
X138610863Y-89966378D01*
X138632965Y-89971142D01*
X138708260Y-89996306D01*
X138828929Y-90069043D01*
X138989420Y-90185221D01*
X139184183Y-90340708D01*
X139407666Y-90531373D01*
X139522600Y-90633357D01*
X139711441Y-90798977D01*
X139857528Y-90916403D01*
X139968596Y-90989571D01*
X140052379Y-91022417D01*
X140116614Y-91018875D01*
X140169034Y-90982882D01*
X140181684Y-90968693D01*
X140210120Y-90886386D01*
X140206219Y-90785216D01*
X140185327Y-90656476D01*
X140308095Y-90764267D01*
X140454134Y-90856324D01*
X140634068Y-90917534D01*
X140760695Y-90941456D01*
X140848244Y-90942497D01*
X140926896Y-90919457D01*
X140959822Y-90904570D01*
X141058337Y-90836241D01*
X141110216Y-90756019D01*
X141108223Y-90680208D01*
X141076261Y-90642206D01*
X141009781Y-90611038D01*
X140900602Y-90576016D01*
X140818433Y-90555334D01*
X140703822Y-90523835D01*
X140622742Y-90490803D01*
X140585485Y-90462538D01*
X140602343Y-90445338D01*
X140634661Y-90442857D01*
X140706652Y-90426822D01*
X140798746Y-90388188D01*
X140800088Y-90387496D01*
X140873083Y-90337003D01*
X140896099Y-90283925D01*
X140563753Y-90283925D01*
X140513922Y-90296874D01*
X140483865Y-90297714D01*
X140359476Y-90324706D01*
X140254893Y-90394353D01*
X140190932Y-90489663D01*
X140180616Y-90545276D01*
X140174909Y-90585794D01*
X140155218Y-90576278D01*
X140116091Y-90510646D01*
X140072572Y-90424714D01*
X140018297Y-90313212D01*
X139979454Y-90230924D01*
X139964528Y-90195871D01*
X139989256Y-90205526D01*
X140044360Y-90241228D01*
X140124653Y-90278506D01*
X140215241Y-90295777D01*
X140290854Y-90291402D01*
X140326221Y-90263740D01*
X140326572Y-90259541D01*
X140295952Y-90222578D01*
X140221666Y-90184849D01*
X140215862Y-90182774D01*
X140134732Y-90150247D01*
X140116616Y-90133451D01*
X140153551Y-90132992D01*
X140237573Y-90149475D01*
X140329472Y-90174132D01*
X140468215Y-90219902D01*
X140547413Y-90257383D01*
X140563753Y-90283925D01*
X140896099Y-90283925D01*
X140902809Y-90268453D01*
X140907143Y-90193549D01*
X140873394Y-90056883D01*
X140775287Y-89945497D01*
X140617536Y-89862400D01*
X140404850Y-89810599D01*
X140287436Y-89797932D01*
X140103357Y-89795892D01*
X139977711Y-89823122D01*
G36*
X139921514Y-75520632D02*
X139916629Y-75522367D01*
X139875832Y-75545138D01*
X139776060Y-75602107D01*
X139621123Y-75691074D01*
X139414830Y-75809840D01*
X139160990Y-75956202D01*
X138863413Y-76127962D01*
X138525907Y-76322919D01*
X138152281Y-76538872D01*
X137746345Y-76773621D01*
X137311907Y-77024966D01*
X136852777Y-77290706D01*
X136372764Y-77568640D01*
X135875676Y-77856570D01*
X135809000Y-77895199D01*
X131781286Y-80228731D01*
X131772082Y-85000312D01*
X131762877Y-89771893D01*
X135874419Y-92139375D01*
X136378023Y-92429191D01*
X136864438Y-92708789D01*
X137329943Y-92976046D01*
X137770819Y-93228842D01*
X138183345Y-93465054D01*
X138563803Y-93682560D01*
X138908472Y-93879238D01*
X139213633Y-94052967D01*
X139475565Y-94201623D01*
X139690550Y-94323085D01*
X139854866Y-94415231D01*
X139964795Y-94475940D01*
X140016617Y-94503088D01*
X140020195Y-94504388D01*
X140055223Y-94486223D01*
X140149292Y-94433771D01*
X140298676Y-94349176D01*
X140499650Y-94234580D01*
X140748488Y-94092127D01*
X141041466Y-93923958D01*
X141374858Y-93732217D01*
X141744939Y-93519048D01*
X142147983Y-93286592D01*
X142580266Y-93036993D01*
X143038062Y-92772393D01*
X143517646Y-92494936D01*
X144015293Y-92206764D01*
X144136572Y-92136496D01*
X148218715Y-89771072D01*
X148236702Y-80446143D01*
X147871999Y-80446143D01*
X147863928Y-84995542D01*
X147855858Y-89544942D01*
X143955143Y-91807168D01*
X143464844Y-92091150D01*
X142991417Y-92364640D01*
X142538702Y-92625458D01*
X142110538Y-92871421D01*
X141710765Y-93100350D01*
X141343220Y-93310061D01*
X141011744Y-93498374D01*
X140720175Y-93663108D01*
X140472353Y-93802080D01*
X140272117Y-93913111D01*
X140123306Y-93994017D01*
X140029759Y-94042619D01*
X139995659Y-94056902D01*
X139957361Y-94037556D01*
X139860038Y-93984170D01*
X139707543Y-93898939D01*
X139503729Y-93784059D01*
X139252450Y-93641724D01*
X138957559Y-93474129D01*
X138622908Y-93283469D01*
X138252351Y-93071940D01*
X137849741Y-92841737D01*
X137418931Y-92595054D01*
X136963775Y-92334087D01*
X136488125Y-92061030D01*
X136032446Y-91799134D01*
X132128001Y-89553857D01*
X132136072Y-85004447D01*
X132144143Y-80455038D01*
X136026715Y-78203473D01*
X136516201Y-77919933D01*
X136989001Y-77646684D01*
X137441249Y-77385928D01*
X137869076Y-77139870D01*
X138268616Y-76910713D01*
X138636000Y-76700660D01*
X138967361Y-76511915D01*
X139258832Y-76346681D01*
X139506545Y-76207162D01*
X139706632Y-76095560D01*
X139855226Y-76014080D01*
X139948460Y-75964924D01*
X139981858Y-75950143D01*
X140021890Y-75967708D01*
X140120893Y-76019400D01*
X140275002Y-76103037D01*
X140480352Y-76216438D01*
X140733078Y-76357421D01*
X141029315Y-76523805D01*
X141365197Y-76713409D01*
X141736861Y-76924051D01*
X142140441Y-77153549D01*
X142572072Y-77399723D01*
X143027889Y-77660390D01*
X143504027Y-77933370D01*
X143963214Y-78197260D01*
X147871999Y-80446143D01*
X148236702Y-80446143D01*
X148237123Y-80228106D01*
X144116834Y-77855587D01*
X143518298Y-77511051D01*
X142979428Y-77201133D01*
X142497084Y-76924089D01*
X142068126Y-76678174D01*
X141689417Y-76461646D01*
X141357816Y-76272759D01*
X141070184Y-76109771D01*
X140823381Y-75970937D01*
X140614269Y-75854514D01*
X140439709Y-75758756D01*
X140296560Y-75681922D01*
X140181684Y-75622266D01*
X140091940Y-75578045D01*
X140024191Y-75547515D01*
X139975297Y-75528933D01*
X139942117Y-75520553D01*
X139921514Y-75520632D01*
X139921514Y-75520632D01*
G37*
X139921514Y-75520632D02*
X139916629Y-75522367D01*
X139875832Y-75545138D01*
X139776060Y-75602107D01*
X139621123Y-75691074D01*
X139414830Y-75809840D01*
X139160990Y-75956202D01*
X138863413Y-76127962D01*
X138525907Y-76322919D01*
X138152281Y-76538872D01*
X137746345Y-76773621D01*
X137311907Y-77024966D01*
X136852777Y-77290706D01*
X136372764Y-77568640D01*
X135875676Y-77856570D01*
X135809000Y-77895199D01*
X131781286Y-80228731D01*
X131772082Y-85000312D01*
X131762877Y-89771893D01*
X135874419Y-92139375D01*
X136378023Y-92429191D01*
X136864438Y-92708789D01*
X137329943Y-92976046D01*
X137770819Y-93228842D01*
X138183345Y-93465054D01*
X138563803Y-93682560D01*
X138908472Y-93879238D01*
X139213633Y-94052967D01*
X139475565Y-94201623D01*
X139690550Y-94323085D01*
X139854866Y-94415231D01*
X139964795Y-94475940D01*
X140016617Y-94503088D01*
X140020195Y-94504388D01*
X140055223Y-94486223D01*
X140149292Y-94433771D01*
X140298676Y-94349176D01*
X140499650Y-94234580D01*
X140748488Y-94092127D01*
X141041466Y-93923958D01*
X141374858Y-93732217D01*
X141744939Y-93519048D01*
X142147983Y-93286592D01*
X142580266Y-93036993D01*
X143038062Y-92772393D01*
X143517646Y-92494936D01*
X144015293Y-92206764D01*
X144136572Y-92136496D01*
X148218715Y-89771072D01*
X148236702Y-80446143D01*
X147871999Y-80446143D01*
X147863928Y-84995542D01*
X147855858Y-89544942D01*
X143955143Y-91807168D01*
X143464844Y-92091150D01*
X142991417Y-92364640D01*
X142538702Y-92625458D01*
X142110538Y-92871421D01*
X141710765Y-93100350D01*
X141343220Y-93310061D01*
X141011744Y-93498374D01*
X140720175Y-93663108D01*
X140472353Y-93802080D01*
X140272117Y-93913111D01*
X140123306Y-93994017D01*
X140029759Y-94042619D01*
X139995659Y-94056902D01*
X139957361Y-94037556D01*
X139860038Y-93984170D01*
X139707543Y-93898939D01*
X139503729Y-93784059D01*
X139252450Y-93641724D01*
X138957559Y-93474129D01*
X138622908Y-93283469D01*
X138252351Y-93071940D01*
X137849741Y-92841737D01*
X137418931Y-92595054D01*
X136963775Y-92334087D01*
X136488125Y-92061030D01*
X136032446Y-91799134D01*
X132128001Y-89553857D01*
X132136072Y-85004447D01*
X132144143Y-80455038D01*
X136026715Y-78203473D01*
X136516201Y-77919933D01*
X136989001Y-77646684D01*
X137441249Y-77385928D01*
X137869076Y-77139870D01*
X138268616Y-76910713D01*
X138636000Y-76700660D01*
X138967361Y-76511915D01*
X139258832Y-76346681D01*
X139506545Y-76207162D01*
X139706632Y-76095560D01*
X139855226Y-76014080D01*
X139948460Y-75964924D01*
X139981858Y-75950143D01*
X140021890Y-75967708D01*
X140120893Y-76019400D01*
X140275002Y-76103037D01*
X140480352Y-76216438D01*
X140733078Y-76357421D01*
X141029315Y-76523805D01*
X141365197Y-76713409D01*
X141736861Y-76924051D01*
X142140441Y-77153549D01*
X142572072Y-77399723D01*
X143027889Y-77660390D01*
X143504027Y-77933370D01*
X143963214Y-78197260D01*
X147871999Y-80446143D01*
X148236702Y-80446143D01*
X148237123Y-80228106D01*
X144116834Y-77855587D01*
X143518298Y-77511051D01*
X142979428Y-77201133D01*
X142497084Y-76924089D01*
X142068126Y-76678174D01*
X141689417Y-76461646D01*
X141357816Y-76272759D01*
X141070184Y-76109771D01*
X140823381Y-75970937D01*
X140614269Y-75854514D01*
X140439709Y-75758756D01*
X140296560Y-75681922D01*
X140181684Y-75622266D01*
X140091940Y-75578045D01*
X140024191Y-75547515D01*
X139975297Y-75528933D01*
X139942117Y-75520553D01*
X139921514Y-75520632D01*
G04 #@! TO.C,J5*
D11*
X157333333Y-114452380D02*
X157333333Y-115166666D01*
X157380952Y-115309523D01*
X157476190Y-115404761D01*
X157619047Y-115452380D01*
X157714285Y-115452380D01*
X156380952Y-114452380D02*
X156857142Y-114452380D01*
X156904761Y-114928571D01*
X156857142Y-114880952D01*
X156761904Y-114833333D01*
X156523809Y-114833333D01*
X156428571Y-114880952D01*
X156380952Y-114928571D01*
X156333333Y-115023809D01*
X156333333Y-115261904D01*
X156380952Y-115357142D01*
X156428571Y-115404761D01*
X156523809Y-115452380D01*
X156761904Y-115452380D01*
X156857142Y-115404761D01*
X156904761Y-115357142D01*
G04 #@! TO.C,J2*
X135333333Y-93452380D02*
X135333333Y-94166666D01*
X135380952Y-94309523D01*
X135476190Y-94404761D01*
X135619047Y-94452380D01*
X135714285Y-94452380D01*
X134904761Y-93547619D02*
X134857142Y-93500000D01*
X134761904Y-93452380D01*
X134523809Y-93452380D01*
X134428571Y-93500000D01*
X134380952Y-93547619D01*
X134333333Y-93642857D01*
X134333333Y-93738095D01*
X134380952Y-93880952D01*
X134952380Y-94452380D01*
X134333333Y-94452380D01*
G04 #@! TO.C,J3*
X156333333Y-93452380D02*
X156333333Y-94166666D01*
X156380952Y-94309523D01*
X156476190Y-94404761D01*
X156619047Y-94452380D01*
X156714285Y-94452380D01*
X155952380Y-93452380D02*
X155333333Y-93452380D01*
X155666666Y-93833333D01*
X155523809Y-93833333D01*
X155428571Y-93880952D01*
X155380952Y-93928571D01*
X155333333Y-94023809D01*
X155333333Y-94261904D01*
X155380952Y-94357142D01*
X155428571Y-94404761D01*
X155523809Y-94452380D01*
X155809523Y-94452380D01*
X155904761Y-94404761D01*
X155952380Y-94357142D01*
G04 #@! TO.C,J4*
X176333333Y-93452380D02*
X176333333Y-94166666D01*
X176380952Y-94309523D01*
X176476190Y-94404761D01*
X176619047Y-94452380D01*
X176714285Y-94452380D01*
X175428571Y-93785714D02*
X175428571Y-94452380D01*
X175666666Y-93404761D02*
X175904761Y-94119047D01*
X175285714Y-94119047D01*
G04 #@! TD*
M02*
